<svg version="1.1" viewBox="0.0 0.0 512.0 317.0" fill="none" stroke="none" stroke-linecap="square" stroke-miterlimit="10" width="512" height="317" xmlns:xlink="http://www.w3.org/1999/xlink" xmlns="http://www.w3.org/2000/svg"><path fill="#ffffff" d="M0 0L512.0 0L512.0 317.0L0 317.0L0 0Z" fill-rule="nonzero"/><path fill="#4285f4" d="M256.0 50.416668C277.48898 50.416668 298.61722 55.940315 317.3567 66.457405L256.0 175.78334Z" fill-rule="nonzero"/><path fill="#f07b72" d="M246.84882 50.75111C249.89412 50.52822 252.94655 50.416668 256.0 50.416668L256.0 175.78334Z" fill-rule="nonzero"/><path fill="#7baaf7" d="M237.74646 51.75265C240.76738 51.308067 243.80351 50.973995 246.84882 50.75111L256.0 175.78334Z" fill-rule="nonzero"/><path fill="#46bdc6" d="M211.21515 58.688847C219.77869 55.413574 228.67567 53.087597 237.74646 51.75265L256.0 175.78334Z" fill-rule="nonzero"/><path fill="#ff6d01" d="M202.78728 62.270306C205.55202 60.97425 208.36319 59.779633 211.21515 58.688847L256.0 175.78334Z" fill-rule="nonzero"/><path fill="#34a853" d="M132.71872 153.01213C140.06657 113.2315 166.15869 79.441086 202.78728 62.270306L256.0 175.78334Z" fill-rule="nonzero"/><path fill="#fbbc04" d="M132.71872 198.55453C129.9382 183.50105 129.9382 168.06561 132.71872 153.01213L256.0 175.78334Z" fill-rule="nonzero"/><path fill="#ea4335" d="M317.3567 66.457405C368.07864 94.92394 392.55966 154.53902 376.4821 210.43689C360.4045 266.33475 307.9913 303.8332 249.8962 301.0013C191.8011 298.16946 143.28346 255.7511 132.71872 198.55453L256.0 175.78334Z" fill-rule="nonzero"/><path fill="#1a1a1a" d="M16.725 61.416668L16.725 52.822918L19.959375 52.822918Q20.94375 52.822918 21.5375 53.088543Q22.13125 53.354168 22.459375 53.901043Q22.803125 54.432293 22.803125 55.026043Q22.803125 55.572918 22.50625 56.057293Q22.209375 56.541668 21.6 56.838543Q22.38125 57.072918 22.7875 57.635418Q23.209375 58.182293 23.209375 58.932293Q23.209375 59.526043 22.959375 60.057293Q22.709375 60.572918 22.334375 60.854168Q21.959375 61.135418 21.38125 61.276043Q20.81875 61.416668 20.00625 61.416668L16.725 61.416668ZM17.865625 56.432293L19.725 56.432293Q20.475 56.432293 20.803125 56.338543Q21.240625 56.213543 21.459375 55.916668Q21.678125 55.604168 21.678125 55.151043Q21.678125 54.729168 21.475 54.401043Q21.271875 54.072918 20.88125 53.963543Q20.50625 53.838543 19.584375 53.838543L17.865625 53.838543L17.865625 56.432293ZM17.865625 60.401043L20.00625 60.401043Q20.553125 60.401043 20.771875 60.354168Q21.178125 60.291668 21.428125 60.135418Q21.69375 59.963543 21.865625 59.651043Q22.0375 59.338543 22.0375 58.932293Q22.0375 58.447918 21.7875 58.088543Q21.553125 57.729168 21.115625 57.588543Q20.678125 57.447918 19.85 57.447918L17.865625 57.447918L17.865625 60.401043ZM28.709375 60.651043Q28.115625 61.151043 27.56875 61.354168Q27.0375 61.557293 26.4125 61.557293Q25.38125 61.557293 24.834375 61.057293Q24.2875 60.557293 24.2875 59.776043Q24.2875 59.322918 24.490625 58.947918Q24.69375 58.557293 25.0375 58.338543Q25.38125 58.104168 25.803125 57.994793Q26.1 57.901043 26.740625 57.822918Q28.00625 57.682293 28.615625 57.463543Q28.615625 57.244793 28.615625 57.197918Q28.615625 56.541668 28.31875 56.276043Q27.9125 55.932293 27.115625 55.932293Q26.38125 55.932293 26.021875 56.197918Q25.6625 56.447918 25.490625 57.104168L24.459375 56.963543Q24.6 56.307293 24.928125 55.901043Q25.25625 55.494793 25.865625 55.276043Q26.475 55.057293 27.271875 55.057293Q28.06875 55.057293 28.56875 55.244793Q29.06875 55.432293 29.303125 55.713543Q29.5375 55.994793 29.63125 56.432293Q29.678125 56.697918 29.678125 57.401043L29.678125 58.807293Q29.678125 60.276043 29.740625 60.666668Q29.81875 61.057293 30.021875 61.416668L28.9125 61.416668Q28.75625 61.088543 28.709375 60.651043ZM28.615625 58.291668Q28.0375 58.526043 26.896875 58.697918Q26.240625 58.791668 25.975 58.916668Q25.709375 59.026043 25.553125 59.244793Q25.4125 59.463543 25.4125 59.744793Q25.4125 60.166668 25.725 60.447918Q26.053125 60.729168 26.6625 60.729168Q27.271875 60.729168 27.740625 60.463543Q28.225 60.197918 28.44375 59.729168Q28.615625 59.369793 28.615625 58.682293L28.615625 58.291668ZM31.6 63.807293L31.475 62.822918Q31.81875 62.916668 32.084373 62.916668Q32.428123 62.916668 32.63125 62.791668Q32.85 62.682293 32.990623 62.479168Q33.084373 62.307293 33.31875 61.682293Q33.334373 61.604168 33.4125 61.432293L31.0375 55.197918L32.178123 55.197918L33.475 58.791668Q33.725 59.479168 33.928123 60.244793Q34.115623 59.510418 34.365623 58.822918L35.69375 55.197918L36.740623 55.197918L34.38125 61.526043Q33.990623 62.541668 33.7875 62.932293Q33.50625 63.463543 33.13125 63.697918Q32.771873 63.947918 32.271873 63.947918Q31.975 63.947918 31.6 63.807293ZM41.896873 59.416668L42.990623 59.541668Q42.740623 60.494793 42.0375 61.026043Q41.334373 61.557293 40.25625 61.557293Q38.896873 61.557293 38.084373 60.713543Q37.2875 59.869793 37.2875 58.354168Q37.2875 56.791668 38.1 55.932293Q38.9125 55.057293 40.19375 55.057293Q41.44375 55.057293 42.225 55.901043Q43.021873 56.744793 43.021873 58.291668Q43.021873 58.385418 43.021873 58.572918L38.38125 58.572918Q38.44375 59.604168 38.959373 60.151043Q39.475 60.682293 40.25625 60.682293Q40.834373 60.682293 41.240623 60.385418Q41.6625 60.072918 41.896873 59.416668ZM38.44375 57.713543L41.9125 57.713543Q41.85 56.916668 41.521873 56.526043Q41.00625 55.916668 40.209373 55.916668Q39.475 55.916668 38.975 56.401043Q38.490623 56.885418 38.44375 57.713543ZM44.225 59.557293L45.25625 59.401043Q45.35 60.026043 45.740623 60.354168Q46.146873 60.682293 46.88125 60.682293Q47.6 60.682293 47.94375 60.401043Q48.303123 60.104168 48.303123 59.697918Q48.303123 59.338543 47.990623 59.135418Q47.771873 58.994793 46.9125 58.776043Q45.75625 58.479168 45.303123 58.276043Q44.865623 58.057293 44.63125 57.682293Q44.396873 57.307293 44.396873 56.838543Q44.396873 56.432293 44.584373 56.072918Q44.771873 55.713543 45.1 55.479168Q45.35 55.307293 45.771873 55.182293Q46.19375 55.057293 46.69375 55.057293Q47.4125 55.057293 47.959373 55.276043Q48.521873 55.479168 48.7875 55.838543Q49.053123 56.197918 49.146873 56.791668L48.115623 56.932293Q48.053123 56.463543 47.709373 56.197918Q47.38125 55.916668 46.75625 55.916668Q46.0375 55.916668 45.725 56.166668Q45.4125 56.401043 45.4125 56.729168Q45.4125 56.932293 45.5375 57.088543Q45.678123 57.260418 45.94375 57.369793Q46.1 57.432293 46.88125 57.635418Q48.00625 57.947918 48.44375 58.135418Q48.88125 58.322918 49.13125 58.682293Q49.38125 59.041668 49.38125 59.588543Q49.38125 60.119793 49.06875 60.588543Q48.771873 61.041668 48.19375 61.307293Q47.615623 61.557293 46.88125 61.557293Q45.6625 61.557293 45.021873 61.057293Q44.396873 60.541668 44.225 59.557293ZM50.646873 54.041668L50.646873 52.822918L51.709373 52.822918L51.709373 54.041668L50.646873 54.041668ZM50.646873 61.416668L50.646873 55.197918L51.709373 55.197918L51.709373 61.416668L50.646873 61.416668ZM57.709373 60.651043Q57.115623 61.151043 56.56875 61.354168Q56.0375 61.557293 55.4125 61.557293Q54.38125 61.557293 53.834373 61.057293Q53.2875 60.557293 53.2875 59.776043Q53.2875 59.322918 53.490623 58.947918Q53.69375 58.557293 54.0375 58.338543Q54.38125 58.104168 54.803123 57.994793Q55.1 57.901043 55.740623 57.822918Q57.00625 57.682293 57.615623 57.463543Q57.615623 57.244793 57.615623 57.197918Q57.615623 56.541668 57.31875 56.276043Q56.9125 55.932293 56.115623 55.932293Q55.38125 55.932293 55.021873 56.197918Q54.6625 56.447918 54.490623 57.104168L53.459373 56.963543Q53.6 56.307293 53.928123 55.901043Q54.25625 55.494793 54.865623 55.276043Q55.475 55.057293 56.271873 55.057293Q57.06875 55.057293 57.56875 55.244793Q58.06875 55.432293 58.303123 55.713543Q58.5375 55.994793 58.63125 56.432293Q58.678123 56.697918 58.678123 57.401043L58.678123 58.807293Q58.678123 60.276043 58.740623 60.666668Q58.81875 61.057293 59.021873 61.416668L57.9125 61.416668Q57.75625 61.088543 57.709373 60.651043ZM57.615623 58.291668Q57.0375 58.526043 55.896873 58.697918Q55.240623 58.791668 54.975 58.916668Q54.709373 59.026043 54.553123 59.244793Q54.4125 59.463543 54.4125 59.744793Q54.4125 60.166668 54.725 60.447918Q55.053123 60.729168 55.6625 60.729168Q56.271873 60.729168 56.740623 60.463543Q57.225 60.197918 57.44375 59.729168Q57.615623 59.369793 57.615623 58.682293L57.615623 58.291668ZM60.646873 61.416668L60.646873 55.197918L61.584373 55.197918L61.584373 56.072918Q62.271873 55.057293 63.56875 55.057293Q64.13125 55.057293 64.6 55.260418Q65.08437 55.463543 65.31875 55.791668Q65.55312 56.119793 65.64687 56.557293Q65.69375 56.854168 65.69375 57.588543L65.69375 61.416668L64.64687 61.416668L64.64687 57.635418Q64.64687 56.979168 64.52187 56.666668Q64.39687 56.354168 64.08437 56.166668Q63.771873 55.963543 63.35 55.963543Q62.678123 55.963543 62.178123 56.401043Q61.69375 56.822918 61.69375 58.010418L61.69375 61.416668L60.646873 61.416668Z" fill-rule="nonzero"/><path fill="#9e9e9e" d="M16.35 76.15104L17.4125 76.010414Q17.584375 76.90104 18.021875 77.30729Q18.459375 77.697914 19.084375 77.697914Q19.834375 77.697914 20.35 77.18229Q20.865625 76.666664 20.865625 75.90104Q20.865625 75.18229 20.38125 74.71354Q19.9125 74.229164 19.178125 74.229164Q18.88125 74.229164 18.428125 74.354164L18.553125 73.416664Q18.6625 73.43229 18.725 73.43229Q19.396875 73.43229 19.928125 73.08854Q20.475 72.729164 20.475 71.99479Q20.475 71.416664 20.084375 71.041664Q19.69375 70.65104 19.06875 70.65104Q18.459375 70.65104 18.0375 71.041664Q17.63125 71.43229 17.521875 72.197914L16.459375 72.010414Q16.646875 70.96354 17.334375 70.385414Q18.021875 69.791664 19.0375 69.791664Q19.740625 69.791664 20.334375 70.104164Q20.928125 70.40104 21.240625 70.916664Q21.553125 71.43229 21.553125 72.02604Q21.553125 72.572914 21.25625 73.041664Q20.959375 73.49479 20.38125 73.760414Q21.13125 73.93229 21.553125 74.49479Q21.975 75.041664 21.975 75.885414Q21.975 77.010414 21.146875 77.791664Q20.334375 78.572914 19.084375 78.572914Q17.959375 78.572914 17.209375 77.90104Q16.459375 77.21354 16.35 76.15104ZM23.94375 78.416664L23.94375 77.21354L25.146875 77.21354L25.146875 78.416664L23.94375 78.416664ZM26.35 76.166664L27.459375 76.072914Q27.584375 76.885414 28.021875 77.291664Q28.475 77.697914 29.115625 77.697914Q29.865625 77.697914 30.396875 77.11979Q30.928125 76.541664 30.928125 75.604164Q30.928125 74.697914 30.4125 74.18229Q29.9125 73.65104 29.084375 73.65104Q28.584375 73.65104 28.1625 73.885414Q27.75625 74.11979 27.521875 74.479164L26.5375 74.354164L27.365625 69.947914L31.646875 69.947914L31.646875 70.947914L28.209375 70.947914L27.75625 73.260414Q28.521875 72.71354 29.365625 72.71354Q30.490625 72.71354 31.25625 73.49479Q32.0375 74.27604 32.0375 75.510414Q32.0375 76.666664 31.365625 77.52604Q30.5375 78.55729 29.115625 78.55729Q27.94375 78.55729 27.19375 77.90104Q26.459375 77.24479 26.35 76.166664ZM33.553123 71.885414Q33.553123 70.96354 34.00625 70.322914Q34.475 69.68229 35.35 69.68229Q36.1625 69.68229 36.69375 70.260414Q37.225 70.83854 37.225 71.947914Q37.225 73.041664 36.678123 73.635414Q36.146873 74.21354 35.365623 74.21354Q34.584373 74.21354 34.06875 73.635414Q33.553123 73.05729 33.553123 71.885414ZM35.38125 70.40104Q34.990623 70.40104 34.725 70.74479Q34.475 71.08854 34.475 71.99479Q34.475 72.822914 34.725 73.166664Q34.990623 73.49479 35.38125 73.49479Q35.7875 73.49479 36.0375 73.15104Q36.303123 72.80729 36.303123 71.916664Q36.303123 71.072914 36.0375 70.74479Q35.771873 70.40104 35.38125 70.40104ZM35.38125 78.729164L40.084373 69.68229L40.94375 69.68229L36.25625 78.729164L35.38125 78.729164ZM39.1 76.40104Q39.1 75.479164 39.553123 74.83854Q40.021873 74.197914 40.9125 74.197914Q41.725 74.197914 42.25625 74.77604Q42.7875 75.33854 42.7875 76.46354Q42.7875 77.55729 42.240623 78.15104Q41.709373 78.729164 40.9125 78.729164Q40.146873 78.729164 39.615623 78.15104Q39.1 77.572914 39.1 76.40104ZM40.94375 74.916664Q40.5375 74.916664 40.271873 75.260414Q40.021873 75.604164 40.021873 76.510414Q40.021873 77.322914 40.2875 77.666664Q40.553123 78.010414 40.94375 78.010414Q41.334373 78.010414 41.6 77.666664Q41.865623 77.322914 41.865623 76.416664Q41.865623 75.58854 41.6 75.260414Q41.334373 74.916664 40.94375 74.916664Z" fill-rule="nonzero"/><path stroke="#757575" stroke-width="1.0" stroke-linecap="butt" d="M15.85 65.916664L124.63333 65.916664L225.87605 60.557636" fill-rule="nonzero"/><path fill="#9e9e9e" d="M227.87605 60.557636C227.87605 59.453068 226.98062 58.557636 225.87605 58.557636C224.77148 58.557636 223.87605 59.453068 223.87605 60.557636C223.87605 61.66221 224.77148 62.557636 225.87605 62.557636C226.98062 62.557636 227.87605 61.66221 227.87605 60.557636" fill-rule="nonzero"/><path fill="#1a1a1a" d="M20.678125 98.49356L20.678125 97.71231Q20.084375 98.634186 18.94375 98.634186Q18.19375 98.634186 17.56875 98.227936Q16.94375 97.80606 16.6 97.071686Q16.25625 96.33731 16.25625 95.384186Q16.25625 94.46231 16.56875 93.696686Q16.88125 92.93106 17.50625 92.540436Q18.13125 92.134186 18.896875 92.134186Q19.459375 92.134186 19.896875 92.36856Q20.334375 92.602936 20.615625 92.977936L20.615625 89.89981L21.6625 89.89981L21.6625 98.49356L20.678125 98.49356ZM17.35 95.384186Q17.35 96.58731 17.85 97.18106Q18.35 97.759186 19.0375 97.759186Q19.725 97.759186 20.209375 97.196686Q20.69375 96.634186 20.69375 95.477936Q20.69375 94.196686 20.19375 93.602936Q19.709375 93.009186 18.990625 93.009186Q18.2875 93.009186 17.81875 93.58731Q17.35 94.14981 17.35 95.384186ZM27.896875 96.49356L28.990625 96.61856Q28.740625 97.571686 28.0375 98.102936Q27.334375 98.634186 26.25625 98.634186Q24.896875 98.634186 24.084375 97.790436Q23.2875 96.946686 23.2875 95.43106Q23.2875 93.86856 24.1 93.009186Q24.9125 92.134186 26.19375 92.134186Q27.44375 92.134186 28.225 92.977936Q29.021875 93.821686 29.021875 95.36856Q29.021875 95.46231 29.021875 95.64981L24.38125 95.64981Q24.44375 96.68106 24.959375 97.227936Q25.475 97.759186 26.25625 97.759186Q26.834375 97.759186 27.240625 97.46231Q27.6625 97.14981 27.896875 96.49356ZM24.44375 94.790436L27.9125 94.790436Q27.85 93.99356 27.521875 93.602936Q27.00625 92.99356 26.209375 92.99356Q25.475 92.99356 24.975 93.477936Q24.490625 93.96231 24.44375 94.790436ZM32.365623 98.49356L30.00625 92.27481L31.115625 92.27481L32.459373 95.99356Q32.6625 96.602936 32.85 97.24356Q32.990623 96.759186 33.240623 96.071686L34.63125 92.27481L35.709373 92.27481L33.35 98.49356L32.365623 98.49356ZM39.225 96.634186L40.25625 96.477936Q40.35 97.102936 40.740623 97.43106Q41.146873 97.759186 41.88125 97.759186Q42.6 97.759186 42.94375 97.477936Q43.303123 97.18106 43.303123 96.77481Q43.303123 96.415436 42.990623 96.21231Q42.771873 96.071686 41.9125 95.852936Q40.75625 95.55606 40.303123 95.352936Q39.865623 95.134186 39.63125 94.759186Q39.396873 94.384186 39.396873 93.915436Q39.396873 93.509186 39.584373 93.14981Q39.771873 92.790436 40.1 92.55606Q40.35 92.384186 40.771873 92.259186Q41.19375 92.134186 41.69375 92.134186Q42.4125 92.134186 42.959373 92.352936Q43.521873 92.55606 43.7875 92.915436Q44.053123 93.27481 44.146873 93.86856L43.115623 94.009186Q43.053123 93.540436 42.709373 93.27481Q42.38125 92.99356 41.75625 92.99356Q41.0375 92.99356 40.725 93.24356Q40.4125 93.477936 40.4125 93.80606Q40.4125 94.009186 40.5375 94.165436Q40.678123 94.33731 40.94375 94.446686Q41.1 94.509186 41.88125 94.71231Q43.00625 95.02481 43.44375 95.21231Q43.88125 95.39981 44.13125 95.759186Q44.38125 96.11856 44.38125 96.665436Q44.38125 97.196686 44.06875 97.665436Q43.771873 98.11856 43.19375 98.384186Q42.615623 98.634186 41.88125 98.634186Q40.6625 98.634186 40.021873 98.134186Q39.396873 97.61856 39.225 96.634186ZM49.896873 96.49356L50.990623 96.61856Q50.740623 97.571686 50.0375 98.102936Q49.334373 98.634186 48.25625 98.634186Q46.896873 98.634186 46.084373 97.790436Q45.2875 96.946686 45.2875 95.43106Q45.2875 93.86856 46.1 93.009186Q46.9125 92.134186 48.19375 92.134186Q49.44375 92.134186 50.225 92.977936Q51.021873 93.821686 51.021873 95.36856Q51.021873 95.46231 51.021873 95.64981L46.38125 95.64981Q46.44375 96.68106 46.959373 97.227936Q47.475 97.759186 48.25625 97.759186Q48.834373 97.759186 49.240623 97.46231Q49.6625 97.14981 49.896873 96.49356ZM46.44375 94.790436L49.9125 94.790436Q49.85 93.99356 49.521873 93.602936Q49.00625 92.99356 48.209373 92.99356Q47.475 92.99356 46.975 93.477936Q46.490623 93.96231 46.44375 94.790436ZM54.94375 97.55606L55.1 98.477936Q54.646873 98.571686 54.303123 98.571686Q53.725 98.571686 53.4125 98.39981Q53.1 98.21231 52.959373 97.915436Q52.834373 97.61856 52.834373 96.665436L52.834373 93.08731L52.06875 93.08731L52.06875 92.27481L52.834373 92.27481L52.834373 90.727936L53.88125 90.102936L53.88125 92.27481L54.94375 92.27481L54.94375 93.08731L53.88125 93.08731L53.88125 96.727936Q53.88125 97.18106 53.928123 97.30606Q53.990623 97.43106 54.115623 97.509186Q54.240623 97.58731 54.475 97.58731Q54.6625 97.58731 54.94375 97.55606Z" fill-rule="nonzero"/><path fill="#9e9e9e" d="M20.31875 115.49356L19.271875 115.49356L19.271875 108.77481Q18.88125 109.134186 18.25625 109.509186Q17.646875 109.86856 17.1625 110.040436L17.1625 109.02481Q18.0375 108.602936 18.69375 108.02481Q19.365625 107.43106 19.646875 106.86856L20.31875 106.86856L20.31875 115.49356ZM23.35 113.24356L24.459375 113.14981Q24.584375 113.96231 25.021875 114.36856Q25.475 114.77481 26.115625 114.77481Q26.865625 114.77481 27.396875 114.196686Q27.928125 113.61856 27.928125 112.68106Q27.928125 111.77481 27.4125 111.259186Q26.9125 110.727936 26.084375 110.727936Q25.584375 110.727936 25.1625 110.96231Q24.75625 111.196686 24.521875 111.55606L23.5375 111.43106L24.365625 107.02481L28.646875 107.02481L28.646875 108.02481L25.209375 108.02481L24.75625 110.33731Q25.521875 109.790436 26.365625 109.790436Q27.490625 109.790436 28.25625 110.571686Q29.0375 111.352936 29.0375 112.58731Q29.0375 113.74356 28.365625 114.602936Q27.5375 115.634186 26.115625 115.634186Q24.94375 115.634186 24.19375 114.977936Q23.459375 114.321686 23.35 113.24356ZM30.94375 115.49356L30.94375 114.290436L32.146873 114.290436L32.146873 115.49356L30.94375 115.49356ZM37.31875 115.49356L36.271873 115.49356L36.271873 108.77481Q35.88125 109.134186 35.25625 109.509186Q34.646873 109.86856 34.1625 110.040436L34.1625 109.02481Q35.0375 108.602936 35.69375 108.02481Q36.365623 107.43106 36.646873 106.86856L37.31875 106.86856L37.31875 115.49356ZM40.553123 108.96231Q40.553123 108.040436 41.00625 107.39981Q41.475 106.759186 42.35 106.759186Q43.1625 106.759186 43.69375 107.33731Q44.225 107.915436 44.225 109.02481Q44.225 110.11856 43.678123 110.71231Q43.146873 111.290436 42.365623 111.290436Q41.584373 111.290436 41.06875 110.71231Q40.553123 110.134186 40.553123 108.96231ZM42.38125 107.477936Q41.990623 107.477936 41.725 107.821686Q41.475 108.165436 41.475 109.071686Q41.475 109.89981 41.725 110.24356Q41.990623 110.571686 42.38125 110.571686Q42.7875 110.571686 43.0375 110.227936Q43.303123 109.884186 43.303123 108.99356Q43.303123 108.14981 43.0375 107.821686Q42.771873 107.477936 42.38125 107.477936ZM42.38125 115.80606L47.084373 106.759186L47.94375 106.759186L43.25625 115.80606L42.38125 115.80606ZM46.1 113.477936Q46.1 112.55606 46.553123 111.915436Q47.021873 111.27481 47.9125 111.27481Q48.725 111.27481 49.25625 111.852936Q49.7875 112.415436 49.7875 113.540436Q49.7875 114.634186 49.240623 115.227936Q48.709373 115.80606 47.9125 115.80606Q47.146873 115.80606 46.615623 115.227936Q46.1 114.64981 46.1 113.477936ZM47.94375 111.99356Q47.5375 111.99356 47.271873 112.33731Q47.021873 112.68106 47.021873 113.58731Q47.021873 114.39981 47.2875 114.74356Q47.553123 115.08731 47.94375 115.08731Q48.334373 115.08731 48.6 114.74356Q48.865623 114.39981 48.865623 113.49356Q48.865623 112.665436 48.6 112.33731Q48.334373 111.99356 47.94375 111.99356Z" fill-rule="nonzero"/><path stroke="#757575" stroke-width="1.0" stroke-linecap="butt" d="M15.85 102.99356L124.63333 102.99356L161.73409 102.99356" fill-rule="nonzero"/><path fill="#9e9e9e" d="M163.73409 102.99356C163.73409 101.88899 162.83865 100.99356 161.73409 100.99356C160.62952 100.99356 159.73409 101.88899 159.73409 102.99356C159.73409 104.09813 160.62952 104.99356 161.73409 104.99356C162.83865 104.99356 163.73409 104.09813 163.73409 102.99356" fill-rule="nonzero"/><path fill="#1a1a1a" d="M20.709375 169.00209L21.740625 169.14272Q21.56875 170.20522 20.865625 170.81459Q20.1625 171.42397 19.146875 171.42397Q17.865625 171.42397 17.084375 170.59584Q16.31875 169.75209 16.31875 168.18959Q16.31875 167.18959 16.646875 166.43959Q16.990625 165.67397 17.6625 165.29897Q18.35 164.92397 19.1625 164.92397Q20.1625 164.92397 20.803125 165.43959Q21.459375 165.93959 21.646875 166.89272L20.615625 167.04897Q20.475 166.42397 20.1 166.11147Q19.725 165.78334 19.19375 165.78334Q18.396875 165.78334 17.896875 166.36147Q17.396875 166.92397 17.396875 168.15834Q17.396875 169.42397 17.88125 169.98647Q18.365625 170.54897 19.13125 170.54897Q19.75625 170.54897 20.1625 170.17397Q20.584375 169.79897 20.709375 169.00209ZM22.63125 171.28334L22.63125 165.06459L23.584375 165.06459L23.584375 166.00209Q23.94375 165.34584 24.240625 165.14272Q24.553125 164.92397 24.928125 164.92397Q25.459375 164.92397 26.00625 165.25209L25.646875 166.23647Q25.25625 166.00209 24.88125 166.00209Q24.521875 166.00209 24.240625 166.22084Q23.975 166.42397 23.865625 166.79897Q23.678125 167.36147 23.678125 168.01772L23.678125 171.28334L22.63125 171.28334ZM26.25625 168.17397Q26.25625 166.43959 27.209375 165.61147Q28.00625 164.92397 29.1625 164.92397Q30.44375 164.92397 31.25625 165.76772Q32.084373 166.59584 32.084373 168.08022Q32.084373 169.28334 31.725 169.97084Q31.365625 170.65834 30.6625 171.04897Q29.975 171.42397 29.1625 171.42397Q27.865625 171.42397 27.053125 170.59584Q26.25625 169.75209 26.25625 168.17397ZM27.334375 168.17397Q27.334375 169.36147 27.85 169.95522Q28.38125 170.54897 29.1625 170.54897Q29.959375 170.54897 30.475 169.95522Q30.990625 169.36147 30.990625 168.14272Q30.990625 166.98647 30.459375 166.39272Q29.94375 165.79897 29.1625 165.79897Q28.38125 165.79897 27.85 166.39272Q27.334375 166.97084 27.334375 168.17397ZM33.225 169.42397L34.25625 169.26772Q34.35 169.89272 34.740623 170.22084Q35.146873 170.54897 35.88125 170.54897Q36.6 170.54897 36.94375 170.26772Q37.303123 169.97084 37.303123 169.56459Q37.303123 169.20522 36.990623 169.00209Q36.771873 168.86147 35.9125 168.64272Q34.75625 168.34584 34.303123 168.14272Q33.865623 167.92397 33.63125 167.54897Q33.396873 167.17397 33.396873 166.70522Q33.396873 166.29897 33.584373 165.93959Q33.771873 165.58022 34.1 165.34584Q34.35 165.17397 34.771873 165.04897Q35.19375 164.92397 35.69375 164.92397Q36.4125 164.92397 36.959373 165.14272Q37.521873 165.34584 37.7875 165.70522Q38.053123 166.06459 38.146873 166.65834L37.115623 166.79897Q37.053123 166.33022 36.709373 166.06459Q36.38125 165.78334 35.75625 165.78334Q35.0375 165.78334 34.725 166.03334Q34.4125 166.26772 34.4125 166.59584Q34.4125 166.79897 34.5375 166.95522Q34.678123 167.12709 34.94375 167.23647Q35.1 167.29897 35.88125 167.50209Q37.00625 167.81459 37.44375 168.00209Q37.88125 168.18959 38.13125 168.54897Q38.38125 168.90834 38.38125 169.45522Q38.38125 169.98647 38.06875 170.45522Q37.771873 170.90834 37.19375 171.17397Q36.615623 171.42397 35.88125 171.42397Q34.6625 171.42397 34.021873 170.92397Q33.396873 170.40834 33.225 169.42397ZM39.225 169.42397L40.25625 169.26772Q40.35 169.89272 40.740623 170.22084Q41.146873 170.54897 41.88125 170.54897Q42.6 170.54897 42.94375 170.26772Q43.303123 169.97084 43.303123 169.56459Q43.303123 169.20522 42.990623 169.00209Q42.771873 168.86147 41.9125 168.64272Q40.75625 168.34584 40.303123 168.14272Q39.865623 167.92397 39.63125 167.54897Q39.396873 167.17397 39.396873 166.70522Q39.396873 166.29897 39.584373 165.93959Q39.771873 165.58022 40.1 165.34584Q40.35 165.17397 40.771873 165.04897Q41.19375 164.92397 41.69375 164.92397Q42.4125 164.92397 42.959373 165.14272Q43.521873 165.34584 43.7875 165.70522Q44.053123 166.06459 44.146873 166.65834L43.115623 166.79897Q43.053123 166.33022 42.709373 166.06459Q42.38125 165.78334 41.75625 165.78334Q41.0375 165.78334 40.725 166.03334Q40.4125 166.26772 40.4125 166.59584Q40.4125 166.79897 40.5375 166.95522Q40.678123 167.12709 40.94375 167.23647Q41.1 167.29897 41.88125 167.50209Q43.00625 167.81459 43.44375 168.00209Q43.88125 168.18959 44.13125 168.54897Q44.38125 168.90834 44.38125 169.45522Q44.38125 169.98647 44.06875 170.45522Q43.771873 170.90834 43.19375 171.17397Q42.615623 171.42397 41.88125 171.42397Q40.6625 171.42397 40.021873 170.92397Q39.396873 170.40834 39.225 169.42397ZM50.365623 171.28334L48.00625 165.06459L49.115623 165.06459L50.459373 168.78334Q50.6625 169.39272 50.85 170.03334Q50.990623 169.54897 51.240623 168.86147L52.63125 165.06459L53.709373 165.06459L51.35 171.28334L50.365623 171.28334ZM58.709373 170.51772Q58.115623 171.01772 57.56875 171.22084Q57.0375 171.42397 56.4125 171.42397Q55.38125 171.42397 54.834373 170.92397Q54.2875 170.42397 54.2875 169.64272Q54.2875 169.18959 54.490623 168.81459Q54.69375 168.42397 55.0375 168.20522Q55.38125 167.97084 55.803123 167.86147Q56.1 167.76772 56.740623 167.68959Q58.00625 167.54897 58.615623 167.33022Q58.615623 167.11147 58.615623 167.06459Q58.615623 166.40834 58.31875 166.14272Q57.9125 165.79897 57.115623 165.79897Q56.38125 165.79897 56.021873 166.06459Q55.6625 166.31459 55.490623 166.97084L54.459373 166.83022Q54.6 166.17397 54.928123 165.76772Q55.25625 165.36147 55.865623 165.14272Q56.475 164.92397 57.271873 164.92397Q58.06875 164.92397 58.56875 165.11147Q59.06875 165.29897 59.303123 165.58022Q59.5375 165.86147 59.63125 166.29897Q59.678123 166.56459 59.678123 167.26772L59.678123 168.67397Q59.678123 170.14272 59.740623 170.53334Q59.81875 170.92397 60.021873 171.28334L58.9125 171.28334Q58.75625 170.95522 58.709373 170.51772ZM58.615623 168.15834Q58.0375 168.39272 56.896873 168.56459Q56.240623 168.65834 55.975 168.78334Q55.709373 168.89272 55.553123 169.11147Q55.4125 169.33022 55.4125 169.61147Q55.4125 170.03334 55.725 170.31459Q56.053123 170.59584 56.6625 170.59584Q57.271873 170.59584 57.740623 170.33022Q58.225 170.06459 58.44375 169.59584Q58.615623 169.23647 58.615623 168.54897L58.615623 168.15834ZM61.615623 171.28334L61.615623 162.68959L62.678123 162.68959L62.678123 171.28334L61.615623 171.28334ZM64.64687 163.90834L64.64687 162.68959L65.70937 162.68959L65.70937 163.90834L64.64687 163.90834ZM64.64687 171.28334L64.64687 165.06459L65.70937 165.06459L65.70937 171.28334L64.64687 171.28334ZM71.67812 171.28334L71.67812 170.50209Q71.08437 171.42397 69.94375 171.42397Q69.19375 171.42397 68.56875 171.01772Q67.94375 170.59584 67.6 169.86147Q67.25625 169.12709 67.25625 168.17397Q67.25625 167.25209 67.56875 166.48647Q67.88125 165.72084 68.50625 165.33022Q69.13125 164.92397 69.89687 164.92397Q70.45937 164.92397 70.89687 165.15834Q71.33437 165.39272 71.61562 165.76772L71.61562 162.68959L72.6625 162.68959L72.6625 171.28334L71.67812 171.28334ZM68.35 168.17397Q68.35 169.37709 68.85 169.97084Q69.35 170.54897 70.0375 170.54897Q70.725 170.54897 71.20937 169.98647Q71.69375 169.42397 71.69375 168.26772Q71.69375 166.98647 71.19375 166.39272Q70.70937 165.79897 69.99062 165.79897Q69.2875 165.79897 68.81875 166.37709Q68.35 166.93959 68.35 168.17397ZM78.70937 170.51772Q78.11562 171.01772 77.56875 171.22084Q77.0375 171.42397 76.4125 171.42397Q75.38125 171.42397 74.83437 170.92397Q74.2875 170.42397 74.2875 169.64272Q74.2875 169.18959 74.49062 168.81459Q74.69375 168.42397 75.0375 168.20522Q75.38125 167.97084 75.80312 167.86147Q76.1 167.76772 76.74062 167.68959Q78.00625 167.54897 78.61562 167.33022Q78.61562 167.11147 78.61562 167.06459Q78.61562 166.40834 78.31875 166.14272Q77.9125 165.79897 77.11562 165.79897Q76.38125 165.79897 76.02187 166.06459Q75.6625 166.31459 75.49062 166.97084L74.45937 166.83022Q74.6 166.17397 74.92812 165.76772Q75.25625 165.36147 75.86562 165.14272Q76.475 164.92397 77.27187 164.92397Q78.06875 164.92397 78.56875 165.11147Q79.06875 165.29897 79.30312 165.58022Q79.5375 165.86147 79.63125 166.29897Q79.67812 166.56459 79.67812 167.26772L79.67812 168.67397Q79.67812 170.14272 79.74062 170.53334Q79.81875 170.92397 80.02187 171.28334L78.9125 171.28334Q78.75625 170.95522 78.70937 170.51772ZM78.61562 168.15834Q78.0375 168.39272 76.89687 168.56459Q76.24062 168.65834 75.975 168.78334Q75.70937 168.89272 75.55312 169.11147Q75.4125 169.33022 75.4125 169.61147Q75.4125 170.03334 75.725 170.31459Q76.05312 170.59584 76.6625 170.59584Q77.27187 170.59584 77.74062 170.33022Q78.225 170.06459 78.44375 169.59584Q78.61562 169.23647 78.61562 168.54897L78.61562 168.15834ZM83.94375 170.34584L84.1 171.26772Q83.64687 171.36147 83.30312 171.36147Q82.725 171.36147 82.4125 171.18959Q82.1 171.00209 81.95937 170.70522Q81.83437 170.40834 81.83437 169.45522L81.83437 165.87709L81.06875 165.87709L81.06875 165.06459L81.83437 165.06459L81.83437 163.51772L82.88125 162.89272L82.88125 165.06459L83.94375 165.06459L83.94375 165.87709L82.88125 165.87709L82.88125 169.51772Q82.88125 169.97084 82.92812 170.09584Q82.99062 170.22084 83.11562 170.29897Q83.24062 170.37709 83.475 170.37709Q83.6625 170.37709 83.94375 170.34584ZM84.64687 163.90834L84.64687 162.68959L85.70937 162.68959L85.70937 163.90834L84.64687 163.90834ZM84.64687 171.28334L84.64687 165.06459L85.70937 165.06459L85.70937 171.28334L84.64687 171.28334ZM87.25625 168.17397Q87.25625 166.43959 88.20937 165.61147Q89.00625 164.92397 90.1625 164.92397Q91.44375 164.92397 92.25625 165.76772Q93.08437 166.59584 93.08437 168.08022Q93.08437 169.28334 92.725 169.97084Q92.36562 170.65834 91.6625 171.04897Q90.975 171.42397 90.1625 171.42397Q88.86562 171.42397 88.05312 170.59584Q87.25625 169.75209 87.25625 168.17397ZM88.33437 168.17397Q88.33437 169.36147 88.85 169.95522Q89.38125 170.54897 90.1625 170.54897Q90.95937 170.54897 91.475 169.95522Q91.99062 169.36147 91.99062 168.14272Q91.99062 166.98647 91.45937 166.39272Q90.94375 165.79897 90.1625 165.79897Q89.38125 165.79897 88.85 166.39272Q88.33437 166.97084 88.33437 168.17397ZM94.64687 171.28334L94.64687 165.06459L95.58437 165.06459L95.58437 165.93959Q96.27187 164.92397 97.56875 164.92397Q98.13125 164.92397 98.6 165.12709Q99.08437 165.33022 99.31875 165.65834Q99.55312 165.98647 99.64687 166.42397Q99.69375 166.72084 99.69375 167.45522L99.69375 171.28334L98.64687 171.28334L98.64687 167.50209Q98.64687 166.84584 98.52187 166.53334Q98.39687 166.22084 98.08437 166.03334Q97.77187 165.83022 97.35 165.83022Q96.67812 165.83022 96.17812 166.26772Q95.69375 166.68959 95.69375 167.87709L95.69375 171.28334L94.64687 171.28334Z" fill-rule="nonzero"/><path fill="#9e9e9e" d="M16.35 186.03334L17.459375 185.93959Q17.584375 186.75209 18.021875 187.15834Q18.475 187.56459 19.115625 187.56459Q19.865625 187.56459 20.396875 186.98647Q20.928125 186.40834 20.928125 185.47084Q20.928125 184.56459 20.4125 184.04897Q19.9125 183.51772 19.084375 183.51772Q18.584375 183.51772 18.1625 183.75209Q17.75625 183.98647 17.521875 184.34584L16.5375 184.22084L17.365625 179.81459L21.646875 179.81459L21.646875 180.81459L18.209375 180.81459L17.75625 183.12709Q18.521875 182.58022 19.365625 182.58022Q20.490625 182.58022 21.25625 183.36147Q22.0375 184.14272 22.0375 185.37709Q22.0375 186.53334 21.365625 187.39272Q20.5375 188.42397 19.115625 188.42397Q17.94375 188.42397 17.19375 187.76772Q16.459375 187.11147 16.35 186.03334ZM23.94375 188.28334L23.94375 187.08022L25.146875 187.08022L25.146875 188.28334L23.94375 188.28334ZM27.975 183.62709Q27.31875 183.37709 26.990625 182.93959Q26.678125 182.48647 26.678125 181.87709Q26.678125 180.93959 27.35 180.29897Q28.0375 179.65834 29.146875 179.65834Q30.271875 179.65834 30.959375 180.31459Q31.646875 180.97084 31.646875 181.90834Q31.646875 182.50209 31.334375 182.93959Q31.021875 183.37709 30.38125 183.62709Q31.178125 183.87709 31.584375 184.45522Q31.990625 185.03334 31.990625 185.83022Q31.990625 186.92397 31.209375 187.67397Q30.44375 188.42397 29.1625 188.42397Q27.896875 188.42397 27.115625 187.67397Q26.334375 186.92397 26.334375 185.79897Q26.334375 184.95522 26.75625 184.39272Q27.19375 183.83022 27.975 183.62709ZM27.75625 181.83022Q27.75625 182.43959 28.146875 182.83022Q28.553125 183.22084 29.178125 183.22084Q29.7875 183.22084 30.178125 182.84584Q30.56875 182.45522 30.56875 181.89272Q30.56875 181.31459 30.1625 180.92397Q29.75625 180.51772 29.1625 180.51772Q28.553125 180.51772 28.146875 180.90834Q27.75625 181.29897 27.75625 181.83022ZM27.428125 185.79897Q27.428125 186.25209 27.63125 186.67397Q27.85 187.09584 28.271875 187.33022Q28.69375 187.56459 29.178125 187.56459Q29.928125 187.56459 30.4125 187.08022Q30.9125 186.59584 30.9125 185.84584Q30.9125 185.08022 30.4125 184.58022Q29.9125 184.08022 29.146875 184.08022Q28.396875 184.08022 27.9125 184.58022Q27.428125 185.06459 27.428125 185.79897ZM33.553123 181.75209Q33.553123 180.83022 34.00625 180.18959Q34.475 179.54897 35.35 179.54897Q36.1625 179.54897 36.69375 180.12709Q37.225 180.70522 37.225 181.81459Q37.225 182.90834 36.678123 183.50209Q36.146873 184.08022 35.365623 184.08022Q34.584373 184.08022 34.06875 183.50209Q33.553123 182.92397 33.553123 181.75209ZM35.38125 180.26772Q34.990623 180.26772 34.725 180.61147Q34.475 180.95522 34.475 181.86147Q34.475 182.68959 34.725 183.03334Q34.990623 183.36147 35.38125 183.36147Q35.7875 183.36147 36.0375 183.01772Q36.303123 182.67397 36.303123 181.78334Q36.303123 180.93959 36.0375 180.61147Q35.771873 180.26772 35.38125 180.26772ZM35.38125 188.59584L40.084373 179.54897L40.94375 179.54897L36.25625 188.59584L35.38125 188.59584ZM39.1 186.26772Q39.1 185.34584 39.553123 184.70522Q40.021873 184.06459 40.9125 184.06459Q41.725 184.06459 42.25625 184.64272Q42.7875 185.20522 42.7875 186.33022Q42.7875 187.42397 42.240623 188.01772Q41.709373 188.59584 40.9125 188.59584Q40.146873 188.59584 39.615623 188.01772Q39.1 187.43959 39.1 186.26772ZM40.94375 184.78334Q40.5375 184.78334 40.271873 185.12709Q40.021873 185.47084 40.021873 186.37709Q40.021873 187.18959 40.2875 187.53334Q40.553123 187.87709 40.94375 187.87709Q41.334373 187.87709 41.6 187.53334Q41.865623 187.18959 41.865623 186.28334Q41.865623 185.45522 41.6 185.12709Q41.334373 184.78334 40.94375 184.78334Z" fill-rule="nonzero"/><path stroke="#757575" stroke-width="1.0" stroke-linecap="butt" d="M15.85 175.78334L124.63333 175.78334L136.90167 175.78334" fill-rule="nonzero"/><path fill="#9e9e9e" d="M138.90167 175.78334C138.90167 174.67876 138.00624 173.78334 136.90167 173.78334C135.7971 173.78334 134.90167 174.67876 134.90167 175.78334C134.90167 176.88791 135.7971 177.78334 136.90167 177.78334C138.00624 177.78334 138.90167 176.88791 138.90167 175.78334" fill-rule="nonzero"/><path fill="#1a1a1a" d="M435.74374 61.932293L436.775 62.088543Q436.8375 62.557293 437.13437 62.776043Q437.525 63.072918 438.19687 63.072918Q438.93124 63.072918 439.32187 62.776043Q439.72812 62.479168 439.86874 61.963543Q439.9625 61.635418 439.94687 60.604168Q439.25937 61.416668 438.22812 61.416668Q436.94687 61.416668 436.24374 60.494793Q435.54062 59.557293 435.54062 58.276043Q435.54062 57.385418 435.85312 56.635418Q436.18124 55.869793 436.79062 55.463543Q437.4 55.057293 438.22812 55.057293Q439.3375 55.057293 440.05624 55.947918L440.05624 55.197918L441.025 55.197918L441.025 60.572918Q441.025 62.026043 440.72812 62.635418Q440.43124 63.244793 439.79062 63.588543Q439.15 63.947918 438.2125 63.947918Q437.10312 63.947918 436.41562 63.447918Q435.72812 62.947918 435.74374 61.932293ZM436.61874 58.197918Q436.61874 59.416668 437.10312 59.979168Q437.5875 60.541668 438.32187 60.541668Q439.05624 60.541668 439.54062 59.979168Q440.04062 59.416668 440.04062 58.229168Q440.04062 57.088543 439.525 56.510418Q439.025 55.932293 438.30624 55.932293Q437.60312 55.932293 437.10312 56.510418Q436.61874 57.072918 436.61874 58.197918ZM442.93124 61.416668L442.93124 55.197918L443.88437 55.197918L443.88437 56.135418Q444.24374 55.479168 444.54062 55.276043Q444.85312 55.057293 445.22812 55.057293Q445.75937 55.057293 446.30624 55.385418L445.94687 56.369793Q445.55624 56.135418 445.18124 56.135418Q444.82187 56.135418 444.54062 56.354168Q444.275 56.557293 444.16562 56.932293Q443.97812 57.494793 443.97812 58.151043L443.97812 61.416668L442.93124 61.416668ZM446.94687 54.041668L446.94687 52.822918L448.00937 52.822918L448.00937 54.041668L446.94687 54.041668ZM446.94687 61.416668L446.94687 55.197918L448.00937 55.197918L448.00937 61.416668L446.94687 61.416668ZM453.97812 61.416668L453.97812 60.635418Q453.38437 61.557293 452.24374 61.557293Q451.49374 61.557293 450.86874 61.151043Q450.24374 60.729168 449.9 59.994793Q449.55624 59.260418 449.55624 58.307293Q449.55624 57.385418 449.86874 56.619793Q450.18124 55.854168 450.80624 55.463543Q451.43124 55.057293 452.19687 55.057293Q452.75937 55.057293 453.19687 55.291668Q453.63437 55.526043 453.91562 55.901043L453.91562 52.822918L454.9625 52.822918L454.9625 61.416668L453.97812 61.416668ZM450.65 58.307293Q450.65 59.510418 451.15 60.104168Q451.65 60.682293 452.3375 60.682293Q453.025 60.682293 453.50937 60.119793Q453.99374 59.557293 453.99374 58.401043Q453.99374 57.119793 453.49374 56.526043Q453.00937 55.932293 452.29062 55.932293Q451.5875 55.932293 451.11874 56.510418Q450.65 57.072918 450.65 58.307293ZM459.525 59.557293L460.55624 59.401043Q460.65 60.026043 461.04062 60.354168Q461.44687 60.682293 462.18124 60.682293Q462.9 60.682293 463.24374 60.401043Q463.60312 60.104168 463.60312 59.697918Q463.60312 59.338543 463.29062 59.135418Q463.07187 58.994793 462.2125 58.776043Q461.05624 58.479168 460.60312 58.276043Q460.16562 58.057293 459.93124 57.682293Q459.69687 57.307293 459.69687 56.838543Q459.69687 56.432293 459.88437 56.072918Q460.07187 55.713543 460.4 55.479168Q460.65 55.307293 461.07187 55.182293Q461.49374 55.057293 461.99374 55.057293Q462.7125 55.057293 463.25937 55.276043Q463.82187 55.479168 464.0875 55.838543Q464.35312 56.197918 464.44687 56.791668L463.41562 56.932293Q463.35312 56.463543 463.00937 56.197918Q462.68124 55.916668 462.05624 55.916668Q461.3375 55.916668 461.025 56.166668Q460.7125 56.401043 460.7125 56.729168Q460.7125 56.932293 460.8375 57.088543Q460.97812 57.260418 461.24374 57.369793Q461.4 57.432293 462.18124 57.635418Q463.30624 57.947918 463.74374 58.135418Q464.18124 58.322918 464.43124 58.682293Q464.68124 59.041668 464.68124 59.588543Q464.68124 60.119793 464.36874 60.588543Q464.07187 61.041668 463.49374 61.307293Q462.91562 61.557293 462.18124 61.557293Q460.9625 61.557293 460.32187 61.057293Q459.69687 60.541668 459.525 59.557293ZM470.19687 59.416668L471.29062 59.541668Q471.04062 60.494793 470.3375 61.026043Q469.63437 61.557293 468.55624 61.557293Q467.19687 61.557293 466.38437 60.713543Q465.5875 59.869793 465.5875 58.354168Q465.5875 56.791668 466.4 55.932293Q467.2125 55.057293 468.49374 55.057293Q469.74374 55.057293 470.525 55.901043Q471.32187 56.744793 471.32187 58.291668Q471.32187 58.385418 471.32187 58.572918L466.68124 58.572918Q466.74374 59.604168 467.25937 60.151043Q467.775 60.682293 468.55624 60.682293Q469.13437 60.682293 469.54062 60.385418Q469.9625 60.072918 470.19687 59.416668ZM466.74374 57.713543L470.2125 57.713543Q470.15 56.916668 469.82187 56.526043Q469.30624 55.916668 468.50937 55.916668Q467.775 55.916668 467.275 56.401043Q466.79062 56.885418 466.74374 57.713543ZM477.00937 60.651043Q476.41562 61.151043 475.86874 61.354168Q475.3375 61.557293 474.7125 61.557293Q473.68124 61.557293 473.13437 61.057293Q472.5875 60.557293 472.5875 59.776043Q472.5875 59.322918 472.79062 58.947918Q472.99374 58.557293 473.3375 58.338543Q473.68124 58.104168 474.10312 57.994793Q474.4 57.901043 475.04062 57.822918Q476.30624 57.682293 476.91562 57.463543Q476.91562 57.244793 476.91562 57.197918Q476.91562 56.541668 476.61874 56.276043Q476.2125 55.932293 475.41562 55.932293Q474.68124 55.932293 474.32187 56.197918Q473.9625 56.447918 473.79062 57.104168L472.75937 56.963543Q472.9 56.307293 473.22812 55.901043Q473.55624 55.494793 474.16562 55.276043Q474.775 55.057293 475.57187 55.057293Q476.36874 55.057293 476.86874 55.244793Q477.36874 55.432293 477.60312 55.713543Q477.8375 55.994793 477.93124 56.432293Q477.97812 56.697918 477.97812 57.401043L477.97812 58.807293Q477.97812 60.276043 478.04062 60.666668Q478.11874 61.057293 478.32187 61.416668L477.2125 61.416668Q477.05624 61.088543 477.00937 60.651043ZM476.91562 58.291668Q476.3375 58.526043 475.19687 58.697918Q474.54062 58.791668 474.275 58.916668Q474.00937 59.026043 473.85312 59.244793Q473.7125 59.463543 473.7125 59.744793Q473.7125 60.166668 474.025 60.447918Q474.35312 60.729168 474.9625 60.729168Q475.57187 60.729168 476.04062 60.463543Q476.525 60.197918 476.74374 59.729168Q476.91562 59.369793 476.91562 58.682293L476.91562 58.291668ZM479.93124 61.416668L479.93124 55.197918L480.88437 55.197918L480.88437 56.135418Q481.24374 55.479168 481.54062 55.276043Q481.85312 55.057293 482.22812 55.057293Q482.75937 55.057293 483.30624 55.385418L482.94687 56.369793Q482.55624 56.135418 482.18124 56.135418Q481.82187 56.135418 481.54062 56.354168Q481.275 56.557293 481.16562 56.932293Q480.97812 57.494793 480.97812 58.151043L480.97812 61.416668L479.93124 61.416668ZM488.00937 59.135418L489.04062 59.276043Q488.86874 60.338543 488.16562 60.947918Q487.4625 61.557293 486.44687 61.557293Q485.16562 61.557293 484.38437 60.729168Q483.61874 59.885418 483.61874 58.322918Q483.61874 57.322918 483.94687 56.572918Q484.29062 55.807293 484.9625 55.432293Q485.65 55.057293 486.4625 55.057293Q487.4625 55.057293 488.10312 55.572918Q488.75937 56.072918 488.94687 57.026043L487.91562 57.182293Q487.775 56.557293 487.4 56.244793Q487.025 55.916668 486.49374 55.916668Q485.69687 55.916668 485.19687 56.494793Q484.69687 57.057293 484.69687 58.291668Q484.69687 59.557293 485.18124 60.119793Q485.66562 60.682293 486.43124 60.682293Q487.05624 60.682293 487.4625 60.307293Q487.88437 59.932293 488.00937 59.135418ZM489.94687 61.416668L489.94687 52.822918L490.99374 52.822918L490.99374 55.901043Q491.72812 55.057293 492.85312 55.057293Q493.55624 55.057293 494.05624 55.338543Q494.57187 55.604168 494.79062 56.088543Q495.00937 56.557293 495.00937 57.479168L495.00937 61.416668L493.9625 61.416668L493.9625 57.479168Q493.9625 56.682293 493.61874 56.322918Q493.275 55.963543 492.65 55.963543Q492.18124 55.963543 491.75937 56.213543Q491.35312 56.447918 491.16562 56.869793Q490.99374 57.276043 490.99374 58.010418L490.99374 61.416668L489.94687 61.416668Z" fill-rule="nonzero"/><path fill="#9e9e9e" d="M470.275 73.760414Q469.61874 73.510414 469.29062 73.072914Q468.97812 72.61979 468.97812 72.010414Q468.97812 71.072914 469.65 70.43229Q470.3375 69.791664 471.44687 69.791664Q472.57187 69.791664 473.25937 70.447914Q473.94687 71.104164 473.94687 72.041664Q473.94687 72.635414 473.63437 73.072914Q473.32187 73.510414 472.68124 73.760414Q473.47812 74.010414 473.88437 74.58854Q474.29062 75.166664 474.29062 75.96354Q474.29062 77.05729 473.50937 77.80729Q472.74374 78.55729 471.4625 78.55729Q470.19687 78.55729 469.41562 77.80729Q468.63437 77.05729 468.63437 75.93229Q468.63437 75.08854 469.05624 74.52604Q469.49374 73.96354 470.275 73.760414ZM470.05624 71.96354Q470.05624 72.572914 470.44687 72.96354Q470.85312 73.354164 471.47812 73.354164Q472.0875 73.354164 472.47812 72.979164Q472.86874 72.58854 472.86874 72.02604Q472.86874 71.447914 472.4625 71.05729Q472.05624 70.65104 471.4625 70.65104Q470.85312 70.65104 470.44687 71.041664Q470.05624 71.43229 470.05624 71.96354ZM469.72812 75.93229Q469.72812 76.385414 469.93124 76.80729Q470.15 77.229164 470.57187 77.46354Q470.99374 77.697914 471.47812 77.697914Q472.22812 77.697914 472.7125 77.21354Q473.2125 76.729164 473.2125 75.979164Q473.2125 75.21354 472.7125 74.71354Q472.2125 74.21354 471.44687 74.21354Q470.69687 74.21354 470.2125 74.71354Q469.72812 75.197914 469.72812 75.93229ZM476.24374 78.416664L476.24374 77.21354L477.44687 77.21354L477.44687 78.416664L476.24374 78.416664ZM482.61874 78.416664L481.57187 78.416664L481.57187 71.697914Q481.18124 72.05729 480.55624 72.43229Q479.94687 72.791664 479.4625 72.96354L479.4625 71.947914Q480.3375 71.52604 480.99374 70.947914Q481.66562 70.354164 481.94687 69.791664L482.61874 69.791664L482.61874 78.416664ZM485.85312 71.885414Q485.85312 70.96354 486.30624 70.322914Q486.775 69.68229 487.65 69.68229Q488.4625 69.68229 488.99374 70.260414Q489.525 70.83854 489.525 71.947914Q489.525 73.041664 488.97812 73.635414Q488.44687 74.21354 487.66562 74.21354Q486.88437 74.21354 486.36874 73.635414Q485.85312 73.05729 485.85312 71.885414ZM487.68124 70.40104Q487.29062 70.40104 487.025 70.74479Q486.775 71.08854 486.775 71.99479Q486.775 72.822914 487.025 73.166664Q487.29062 73.49479 487.68124 73.49479Q488.0875 73.49479 488.3375 73.15104Q488.60312 72.80729 488.60312 71.916664Q488.60312 71.072914 488.3375 70.74479Q488.07187 70.40104 487.68124 70.40104ZM487.68124 78.729164L492.38437 69.68229L493.24374 69.68229L488.55624 78.729164L487.68124 78.729164ZM491.4 76.40104Q491.4 75.479164 491.85312 74.83854Q492.32187 74.197914 493.2125 74.197914Q494.025 74.197914 494.55624 74.77604Q495.0875 75.33854 495.0875 76.46354Q495.0875 77.55729 494.54062 78.15104Q494.00937 78.729164 493.2125 78.729164Q492.44687 78.729164 491.91562 78.15104Q491.4 77.572914 491.4 76.40104ZM493.24374 74.916664Q492.8375 74.916664 492.57187 75.260414Q492.32187 75.604164 492.32187 76.510414Q492.32187 77.322914 492.5875 77.666664Q492.85312 78.010414 493.24374 78.010414Q493.63437 78.010414 493.9 77.666664Q494.16562 77.322914 494.16562 76.416664Q494.16562 75.58854 493.9 75.260414Q493.63437 74.916664 493.24374 74.916664Z" fill-rule="nonzero"/><path stroke="#757575" stroke-width="1.0" stroke-linecap="butt" d="M496.15 65.916664L387.36667 65.916664L286.12393 60.557636" fill-rule="nonzero"/><path fill="#9e9e9e" d="M288.12393 60.557636C288.12393 59.453068 287.22852 58.557636 286.12393 58.557636C285.01938 58.557636 284.12393 59.453068 284.12393 60.557636C284.12393 61.66221 285.01938 62.557636 286.12393 62.557636C287.22852 62.557636 288.12393 61.66221 288.12393 60.557636" fill-rule="nonzero"/><path fill="#1a1a1a" d="M468.94687 268.14478L468.94687 261.92603L469.88437 261.92603L469.88437 262.80103Q470.57187 261.7854 471.86874 261.7854Q472.43124 261.7854 472.9 261.98853Q473.38437 262.19165 473.61874 262.51978Q473.85312 262.8479 473.94687 263.2854Q473.99374 263.58228 473.99374 264.31665L473.99374 268.14478L472.94687 268.14478L472.94687 264.36353Q472.94687 263.70728 472.82187 263.39478Q472.69687 263.08228 472.38437 262.89478Q472.07187 262.69165 471.65 262.69165Q470.97812 262.69165 470.47812 263.12915Q469.99374 263.55103 469.99374 264.73853L469.99374 268.14478L468.94687 268.14478ZM475.55624 265.0354Q475.55624 263.30103 476.50937 262.4729Q477.30624 261.7854 478.4625 261.7854Q479.74374 261.7854 480.55624 262.62915Q481.38437 263.45728 481.38437 264.94165Q481.38437 266.14478 481.025 266.83228Q480.66562 267.51978 479.9625 267.9104Q479.275 268.2854 478.4625 268.2854Q477.16562 268.2854 476.35312 267.45728Q475.55624 266.61353 475.55624 265.0354ZM476.63437 265.0354Q476.63437 266.2229 477.15 266.81665Q477.68124 267.4104 478.4625 267.4104Q479.25937 267.4104 479.775 266.81665Q480.29062 266.2229 480.29062 265.00415Q480.29062 263.8479 479.75937 263.25415Q479.24374 262.6604 478.4625 262.6604Q477.68124 262.6604 477.15 263.25415Q476.63437 263.83228 476.63437 265.0354ZM482.94687 268.14478L482.94687 261.92603L483.88437 261.92603L483.88437 262.80103Q484.57187 261.7854 485.86874 261.7854Q486.43124 261.7854 486.9 261.98853Q487.38437 262.19165 487.61874 262.51978Q487.85312 262.8479 487.94687 263.2854Q487.99374 263.58228 487.99374 264.31665L487.99374 268.14478L486.94687 268.14478L486.94687 264.36353Q486.94687 263.70728 486.82187 263.39478Q486.69687 263.08228 486.38437 262.89478Q486.07187 262.69165 485.65 262.69165Q484.97812 262.69165 484.47812 263.12915Q483.99374 263.55103 483.99374 264.73853L483.99374 268.14478L482.94687 268.14478ZM494.19687 266.14478L495.29062 266.26978Q495.04062 267.2229 494.3375 267.75415Q493.63437 268.2854 492.55624 268.2854Q491.19687 268.2854 490.38437 267.44165Q489.5875 266.5979 489.5875 265.08228Q489.5875 263.51978 490.4 262.6604Q491.2125 261.7854 492.49374 261.7854Q493.74374 261.7854 494.525 262.62915Q495.32187 263.4729 495.32187 265.01978Q495.32187 265.11353 495.32187 265.30103L490.68124 265.30103Q490.74374 266.33228 491.25937 266.87915Q491.775 267.4104 492.55624 267.4104Q493.13437 267.4104 493.54062 267.11353Q493.9625 266.80103 494.19687 266.14478ZM490.74374 264.44165L494.2125 264.44165Q494.15 263.64478 493.82187 263.25415Q493.30624 262.64478 492.50937 262.64478Q491.775 262.64478 491.275 263.12915Q490.79062 263.61353 490.74374 264.44165Z" fill-rule="nonzero"/><path fill="#9e9e9e" d="M467.11874 278.6604L466.07187 278.73853Q465.93124 278.11353 465.68124 277.83228Q465.24374 277.37915 464.61874 277.37915Q464.11874 277.37915 463.72812 277.6604Q463.24374 278.0354 462.94687 278.73853Q462.66562 279.42603 462.65 280.70728Q463.025 280.12915 463.57187 279.8479Q464.13437 279.56665 464.74374 279.56665Q465.79062 279.56665 466.525 280.3479Q467.275 281.12915 467.275 282.3479Q467.275 283.1604 466.91562 283.86353Q466.57187 284.55103 465.9625 284.92603Q465.35312 285.2854 464.5875 285.2854Q463.25937 285.2854 462.43124 284.31665Q461.60312 283.3479 461.60312 281.12915Q461.60312 278.62915 462.525 277.50415Q463.32187 276.51978 464.68124 276.51978Q465.69687 276.51978 466.3375 277.0979Q466.99374 277.6604 467.11874 278.6604ZM462.82187 282.36353Q462.82187 282.9104 463.04062 283.4104Q463.275 283.89478 463.68124 284.1604Q464.10312 284.42603 464.57187 284.42603Q465.22812 284.42603 465.7125 283.89478Q466.19687 283.3479 466.19687 282.42603Q466.19687 281.5354 465.7125 281.01978Q465.24374 280.50415 464.525 280.50415Q463.80624 280.50415 463.30624 281.01978Q462.82187 281.5354 462.82187 282.36353ZM472.025 285.14478L472.025 283.08228L468.30624 283.08228L468.30624 282.11353L472.22812 276.55103L473.0875 276.55103L473.0875 282.11353L474.24374 282.11353L474.24374 283.08228L473.0875 283.08228L473.0875 285.14478L472.025 285.14478ZM472.025 282.11353L472.025 278.25415L469.3375 282.11353L472.025 282.11353ZM476.24374 285.14478L476.24374 283.94165L477.44687 283.94165L477.44687 285.14478L476.24374 285.14478ZM478.65 280.9104Q478.65 279.37915 478.9625 278.45728Q479.275 277.51978 479.88437 277.01978Q480.50937 276.51978 481.44687 276.51978Q482.13437 276.51978 482.65 276.80103Q483.18124 277.08228 483.525 277.61353Q483.86874 278.12915 484.05624 278.87915Q484.24374 279.62915 484.24374 280.9104Q484.24374 282.42603 483.93124 283.3479Q483.63437 284.26978 483.00937 284.7854Q482.4 285.2854 481.44687 285.2854Q480.2125 285.2854 479.49374 284.39478Q478.65 283.33228 478.65 280.9104ZM479.72812 280.9104Q479.72812 283.01978 480.22812 283.7229Q480.72812 284.42603 481.44687 284.42603Q482.18124 284.42603 482.66562 283.7229Q483.16562 283.01978 483.16562 280.9104Q483.16562 278.7854 482.66562 278.0979Q482.18124 277.39478 481.43124 277.39478Q480.7125 277.39478 480.275 278.00415Q479.72812 278.7854 479.72812 280.9104ZM485.85312 278.61353Q485.85312 277.69165 486.30624 277.05103Q486.775 276.4104 487.65 276.4104Q488.4625 276.4104 488.99374 276.98853Q489.525 277.56665 489.525 278.67603Q489.525 279.76978 488.97812 280.36353Q488.44687 280.94165 487.66562 280.94165Q486.88437 280.94165 486.36874 280.36353Q485.85312 279.7854 485.85312 278.61353ZM487.68124 277.12915Q487.29062 277.12915 487.025 277.4729Q486.775 277.81665 486.775 278.7229Q486.775 279.55103 487.025 279.89478Q487.29062 280.2229 487.68124 280.2229Q488.0875 280.2229 488.3375 279.87915Q488.60312 279.5354 488.60312 278.64478Q488.60312 277.80103 488.3375 277.4729Q488.07187 277.12915 487.68124 277.12915ZM487.68124 285.45728L492.38437 276.4104L493.24374 276.4104L488.55624 285.45728L487.68124 285.45728ZM491.4 283.12915Q491.4 282.20728 491.85312 281.56665Q492.32187 280.92603 493.2125 280.92603Q494.025 280.92603 494.55624 281.50415Q495.0875 282.06665 495.0875 283.19165Q495.0875 284.2854 494.54062 284.87915Q494.00937 285.45728 493.2125 285.45728Q492.44687 285.45728 491.91562 284.87915Q491.4 284.30103 491.4 283.12915ZM493.24374 281.64478Q492.8375 281.64478 492.57187 281.98853Q492.32187 282.33228 492.32187 283.23853Q492.32187 284.05103 492.5875 284.39478Q492.85312 284.73853 493.24374 284.73853Q493.63437 284.73853 493.9 284.39478Q494.16562 284.05103 494.16562 283.14478Q494.16562 282.31665 493.9 281.98853Q493.63437 281.64478 493.24374 281.64478Z" fill-rule="nonzero"/><path stroke="#757575" stroke-width="1.0" stroke-linecap="butt" d="M496.15 272.64478L387.36667 272.64478L325.29843 272.64478" fill-rule="nonzero"/><path fill="#9e9e9e" d="M327.29843 272.64478C327.29843 271.54022 326.40298 270.64478 325.29843 270.64478C324.19385 270.64478 323.29843 271.54022 323.29843 272.64478C323.29843 273.74936 324.19385 274.64478 325.29843 274.64478C326.40298 274.64478 327.29843 273.74936 327.29843 272.64478" fill-rule="nonzero"/><path fill="#757575" d="M17.459375 34.85L17.459375 20.537498L19.35 20.537498L19.35 26.412498L26.7875 26.412498L26.7875 20.537498L28.678125 20.537498L28.678125 34.85L26.7875 34.85L26.7875 28.099998L19.35 28.099998L19.35 34.85L17.459375 34.85ZM31.084375 38.85L30.896875 37.19375Q31.475 37.35 31.896875 37.35Q32.490623 37.35 32.834373 37.146873Q33.19375 36.959373 33.4125 36.615623Q33.584373 36.35 33.959373 35.303123Q34.00625 35.146873 34.115623 34.865623L30.178125 24.474998L32.06875 24.474998L34.225 30.490623Q34.646873 31.631248 34.975 32.88125Q35.2875 31.678123 35.69375 30.521873L37.9125 24.474998L39.678123 24.474998L35.725 35.021873Q35.1 36.740623 34.740623 37.38125Q34.271873 38.25625 33.6625 38.646873Q33.06875 39.053123 32.225 39.053123Q31.709375 39.053123 31.084375 38.85ZM41.1625 38.81875L41.1625 24.474998L42.771873 24.474998L42.771873 25.818748Q43.334373 25.037498 44.0375 24.646873Q44.75625 24.240623 45.771873 24.240623Q47.1 24.240623 48.115623 24.928123Q49.13125 25.615623 49.646873 26.865623Q50.178123 28.099998 50.178123 29.584373Q50.178123 31.178123 49.6 32.459373Q49.0375 33.725 47.94375 34.4125Q46.85 35.084373 45.646873 35.084373Q44.771873 35.084373 44.06875 34.709373Q43.38125 34.334373 42.928123 33.771873L42.928123 38.81875L41.1625 38.81875ZM42.75625 29.724998Q42.75625 31.724998 43.56875 32.678123Q44.38125 33.63125 45.5375 33.63125Q46.709373 33.63125 47.5375 32.646873Q48.38125 31.662498 48.38125 29.568748Q48.38125 27.599998 47.553123 26.615623Q46.740623 25.615623 45.615623 25.615623Q44.490623 25.615623 43.615623 26.678123Q42.75625 27.724998 42.75625 29.724998ZM59.271873 31.506248L61.084373 31.740623Q60.6625 33.31875 59.490623 34.209373Q58.334373 35.084373 56.521873 35.084373Q54.25625 35.084373 52.9125 33.69375Q51.584373 32.2875 51.584373 29.756248Q51.584373 27.131248 52.928123 25.693748Q54.271873 24.240623 56.428123 24.240623Q58.50625 24.240623 59.81875 25.662498Q61.146873 27.068748 61.146873 29.646873Q61.146873 29.803123 61.13125 30.115623L53.396873 30.115623Q53.490623 31.818748 54.365623 32.725Q55.240623 33.63125 56.5375 33.63125Q57.50625 33.63125 58.178123 33.13125Q58.865623 32.615623 59.271873 31.506248ZM53.490623 28.662498L59.2875 28.662498Q59.178123 27.365623 58.63125 26.709373Q57.7875 25.693748 56.44375 25.693748Q55.240623 25.693748 54.4125 26.506248Q53.584373 27.303123 53.490623 28.662498ZM63.146873 34.85L63.146873 24.474998L64.725 24.474998L64.725 26.053123Q65.33437 24.943748 65.85 24.599998Q66.36562 24.240623 66.975 24.240623Q67.86562 24.240623 68.7875 24.803123L68.17812 26.443748Q67.5375 26.053123 66.89687 26.053123Q66.31875 26.053123 65.85 26.412498Q65.39687 26.756248 65.19375 27.365623Q64.9125 28.303123 64.9125 29.412498L64.9125 34.85L63.146873 34.85ZM70.1625 38.81875L70.1625 24.474998L71.77187 24.474998L71.77187 25.818748Q72.33437 25.037498 73.0375 24.646873Q73.75625 24.240623 74.77187 24.240623Q76.1 24.240623 77.11562 24.928123Q78.13125 25.615623 78.64687 26.865623Q79.17812 28.099998 79.17812 29.584373Q79.17812 31.178123 78.6 32.459373Q78.0375 33.725 76.94375 34.4125Q75.85 35.084373 74.64687 35.084373Q73.77187 35.084373 73.06875 34.709373Q72.38125 34.334373 71.92812 33.771873L71.92812 38.81875L70.1625 38.81875ZM71.75625 29.724998Q71.75625 31.724998 72.56875 32.678123Q73.38125 33.63125 74.5375 33.63125Q75.70937 33.63125 76.5375 32.646873Q77.38125 31.662498 77.38125 29.568748Q77.38125 27.599998 76.55312 26.615623Q75.74062 25.615623 74.61562 25.615623Q73.49062 25.615623 72.61562 26.678123Q71.75625 27.724998 71.75625 29.724998ZM87.94375 33.56875Q86.95937 34.396873 86.05312 34.740623Q85.14687 35.084373 84.11562 35.084373Q82.4125 35.084373 81.49062 34.25625Q80.56875 33.4125 80.56875 32.115623Q80.56875 31.349998 80.9125 30.724998Q81.27187 30.099998 81.83437 29.724998Q82.39687 29.334373 83.1 29.131248Q83.61562 29.006248 84.6625 28.865623Q86.7875 28.615623 87.7875 28.271873Q87.80312 27.912498 87.80312 27.803123Q87.80312 26.740623 87.30312 26.287498Q86.63125 25.693748 85.30312 25.693748Q84.05312 25.693748 83.45937 26.131248Q82.88125 26.568748 82.6 27.678123L80.88125 27.443748Q81.11562 26.334373 81.64687 25.662498Q82.17812 24.974998 83.19375 24.615623Q84.20937 24.240623 85.55312 24.240623Q86.88125 24.240623 87.70937 24.553123Q88.5375 24.865623 88.92812 25.349998Q89.31875 25.818748 89.475 26.537498Q89.56875 26.990623 89.56875 28.162498L89.56875 30.506248Q89.56875 32.959373 89.67812 33.615623Q89.7875 34.25625 90.13125 34.85L88.2875 34.85Q88.02187 34.303123 87.94375 33.56875ZM87.7875 29.646873Q86.83437 30.037498 84.9125 30.303123Q83.83437 30.459373 83.38125 30.662498Q82.94375 30.849998 82.69375 31.224998Q82.44375 31.599998 82.44375 32.06875Q82.44375 32.771873 82.975 33.240623Q83.50625 33.709373 84.5375 33.709373Q85.55312 33.709373 86.33437 33.271873Q87.13125 32.81875 87.50625 32.053123Q87.7875 31.443748 87.7875 30.287498L87.7875 29.646873ZM92.14687 34.85L92.14687 24.474998L93.725 24.474998L93.725 26.053123Q94.33437 24.943748 94.85 24.599998Q95.36562 24.240623 95.975 24.240623Q96.86562 24.240623 97.7875 24.803123L97.17812 26.443748Q96.5375 26.053123 95.89687 26.053123Q95.31875 26.053123 94.85 26.412498Q94.39687 26.756248 94.19375 27.365623Q93.9125 28.303123 93.9125 29.412498L93.9125 34.85L92.14687 34.85ZM105.94375 33.56875Q104.95937 34.396873 104.05312 34.740623Q103.14687 35.084373 102.11562 35.084373Q100.4125 35.084373 99.49062 34.25625Q98.56875 33.4125 98.56875 32.115623Q98.56875 31.349998 98.9125 30.724998Q99.27187 30.099998 99.83437 29.724998Q100.39687 29.334373 101.1 29.131248Q101.61562 29.006248 102.6625 28.865623Q104.7875 28.615623 105.7875 28.271873Q105.80312 27.912498 105.80312 27.803123Q105.80312 26.740623 105.30312 26.287498Q104.63125 25.693748 103.30312 25.693748Q102.05312 25.693748 101.45937 26.131248Q100.88125 26.568748 100.6 27.678123L98.88125 27.443748Q99.11562 26.334373 99.64687 25.662498Q100.17812 24.974998 101.19375 24.615623Q102.20937 24.240623 103.55312 24.240623Q104.88125 24.240623 105.70937 24.553123Q106.5375 24.865623 106.92812 25.349998Q107.31875 25.818748 107.475 26.537498Q107.56875 26.990623 107.56875 28.162498L107.56875 30.506248Q107.56875 32.959373 107.67812 33.615623Q107.7875 34.25625 108.13125 34.85L106.2875 34.85Q106.02187 34.303123 105.94375 33.56875ZM105.7875 29.646873Q104.83437 30.037498 102.9125 30.303123Q101.83437 30.459373 101.38125 30.662498Q100.94375 30.849998 100.69375 31.224998Q100.44375 31.599998 100.44375 32.06875Q100.44375 32.771873 100.975 33.240623Q101.50625 33.709373 102.5375 33.709373Q103.55312 33.709373 104.33437 33.271873Q105.13125 32.81875 105.50625 32.053123Q105.7875 31.443748 105.7875 30.287498L105.7875 29.646873ZM110.1625 34.85L110.1625 24.474998L111.74062 24.474998L111.74062 25.928123Q112.225 25.178123 113.0375 24.709373Q113.85 24.240623 114.88125 24.240623Q116.0375 24.240623 116.77187 24.724998Q117.50625 25.193748 117.81875 26.053123Q119.05312 24.240623 121.02187 24.240623Q122.56875 24.240623 123.39687 25.099998Q124.225 25.959373 124.225 27.724998L124.225 34.85L122.475 34.85L122.475 28.318748Q122.475 27.256248 122.30312 26.803123Q122.13125 26.334373 121.67812 26.053123Q121.24062 25.771873 120.63125 25.771873Q119.5375 25.771873 118.80312 26.506248Q118.08437 27.224998 118.08437 28.818748L118.08437 34.85L116.33437 34.85L116.33437 28.115623Q116.33437 26.943748 115.89687 26.365623Q115.475 25.771873 114.49062 25.771873Q113.75625 25.771873 113.11562 26.162498Q112.49062 26.553123 112.20937 27.303123Q111.92812 28.053123 111.92812 29.474998L111.92812 34.85L110.1625 34.85ZM134.27188 31.506248L136.08438 31.740623Q135.6625 33.31875 134.49063 34.209373Q133.33438 35.084373 131.52188 35.084373Q129.25626 35.084373 127.9125 33.69375Q126.58437 32.2875 126.58437 29.756248Q126.58437 27.131248 127.92812 25.693748Q129.27188 24.240623 131.42813 24.240623Q133.50626 24.240623 134.81876 25.662498Q136.14688 27.068748 136.14688 29.646873Q136.14688 29.803123 136.13126 30.115623L128.39688 30.115623Q128.49063 31.818748 129.36563 32.725Q130.24063 33.63125 131.5375 33.63125Q132.50626 33.63125 133.17813 33.13125Q133.86563 32.615623 134.27188 31.506248ZM128.49063 28.662498L134.2875 28.662498Q134.17813 27.365623 133.63126 26.709373Q132.7875 25.693748 131.44376 25.693748Q130.24063 25.693748 129.4125 26.506248Q128.58438 27.303123 128.49063 28.662498ZM142.00626 33.271873L142.25626 34.834373Q141.52188 34.990623 140.92813 34.990623Q139.975 34.990623 139.44376 34.69375Q138.92813 34.38125 138.70938 33.896873Q138.49063 33.396873 138.49063 31.818748L138.49063 25.849998L137.20938 25.849998L137.20938 24.474998L138.49063 24.474998L138.49063 21.912498L140.24063 20.849998L140.24063 24.474998L142.00626 24.474998L142.00626 25.849998L140.24063 25.849998L140.24063 31.912498Q140.24063 32.6625 140.33438 32.88125Q140.42813 33.084373 140.63126 33.225Q140.85 33.35 141.24063 33.35Q141.52188 33.35 142.00626 33.271873ZM151.27188 31.506248L153.08438 31.740623Q152.6625 33.31875 151.49063 34.209373Q150.33438 35.084373 148.52188 35.084373Q146.25626 35.084373 144.9125 33.69375Q143.58438 32.2875 143.58438 29.756248Q143.58438 27.131248 144.92813 25.693748Q146.27188 24.240623 148.42813 24.240623Q150.50626 24.240623 151.81876 25.662498Q153.14688 27.068748 153.14688 29.646873Q153.14688 29.803123 153.13126 30.115623L145.39688 30.115623Q145.49063 31.818748 146.36563 32.725Q147.24063 33.63125 148.5375 33.63125Q149.50626 33.63125 150.17813 33.13125Q150.86563 32.615623 151.27188 31.506248ZM145.49063 28.662498L151.2875 28.662498Q151.17813 27.365623 150.63126 26.709373Q149.7875 25.693748 148.44376 25.693748Q147.24063 25.693748 146.4125 26.506248Q145.58438 27.303123 145.49063 28.662498ZM155.14688 34.85L155.14688 24.474998L156.725 24.474998L156.725 26.053123Q157.33438 24.943748 157.85 24.599998Q158.36563 24.240623 158.975 24.240623Q159.86563 24.240623 160.7875 24.803123L160.17813 26.443748Q159.5375 26.053123 158.89688 26.053123Q158.31876 26.053123 157.85 26.412498Q157.39688 26.756248 157.19376 27.365623Q156.9125 28.303123 156.9125 29.412498L156.9125 34.85L155.14688 34.85ZM172.00626 33.271873L172.25626 34.834373Q171.52188 34.990623 170.92813 34.990623Q169.975 34.990623 169.44376 34.69375Q168.92813 34.38125 168.70938 33.896873Q168.49063 33.396873 168.49063 31.818748L168.49063 25.849998L167.20938 25.849998L167.20938 24.474998L168.49063 24.474998L168.49063 21.912498L170.24063 20.849998L170.24063 24.474998L172.00626 24.474998L172.00626 25.849998L170.24063 25.849998L170.24063 31.912498Q170.24063 32.6625 170.33438 32.88125Q170.42813 33.084373 170.63126 33.225Q170.85 33.35 171.24063 33.35Q171.52188 33.35 172.00626 33.271873ZM180.95938 34.85L180.95938 33.31875Q179.75626 35.084373 177.67813 35.084373Q176.75626 35.084373 175.95938 34.740623Q175.1625 34.38125 174.77188 33.85Q174.39688 33.31875 174.24063 32.5375Q174.13126 32.021873 174.13126 30.896873L174.13126 24.474998L175.88126 24.474998L175.88126 30.224998Q175.88126 31.599998 175.99063 32.084373Q176.1625 32.771873 176.69376 33.178123Q177.24063 33.56875 178.02188 33.56875Q178.81876 33.56875 179.50626 33.1625Q180.20938 32.75625 180.49063 32.06875Q180.7875 31.365623 180.7875 30.037498L180.7875 24.474998L182.5375 24.474998L182.5375 34.85L180.95938 34.85ZM185.1625 34.85L185.1625 24.474998L186.75626 24.474998L186.75626 25.959373Q187.89688 24.240623 190.05313 24.240623Q190.99063 24.240623 191.77188 24.584373Q192.56876 24.912498 192.95938 25.459373Q193.35 26.006248 193.50626 26.756248Q193.6 27.256248 193.6 28.474998L193.6 34.85L191.83438 34.85L191.83438 28.537498Q191.83438 27.459373 191.63126 26.928123Q191.42813 26.396873 190.89688 26.084373Q190.38126 25.771873 189.67813 25.771873Q188.55313 25.771873 187.74063 26.490623Q186.92813 27.193748 186.92813 29.178123L186.92813 34.85L185.1625 34.85ZM196.17813 22.553123L196.17813 20.537498L197.94376 20.537498L197.94376 22.553123L196.17813 22.553123ZM196.17813 34.85L196.17813 24.474998L197.94376 24.474998L197.94376 34.85L196.17813 34.85ZM200.1625 34.85L200.1625 24.474998L201.75626 24.474998L201.75626 25.959373Q202.89688 24.240623 205.05313 24.240623Q205.99063 24.240623 206.77188 24.584373Q207.56876 24.912498 207.95938 25.459373Q208.35 26.006248 208.50626 26.756248Q208.6 27.256248 208.6 28.474998L208.6 34.85L206.83438 34.85L206.83438 28.537498Q206.83438 27.459373 206.63126 26.928123Q206.42813 26.396873 205.89688 26.084373Q205.38126 25.771873 204.67813 25.771873Q203.55313 25.771873 202.74063 26.490623Q201.92813 27.193748 201.92813 29.178123L201.92813 34.85L200.1625 34.85ZM210.85 35.709373L212.55313 35.959373Q212.6625 36.75625 213.14688 37.115623Q213.80313 37.6 214.94376 37.6Q216.1625 37.6 216.81876 37.115623Q217.49063 36.63125 217.725 35.75625Q217.86563 35.209373 217.85 33.490623Q216.69376 34.85 214.975 34.85Q212.83438 34.85 211.6625 33.303123Q210.49063 31.756248 210.49063 29.599998Q210.49063 28.115623 211.02188 26.865623Q211.56876 25.615623 212.58438 24.928123Q213.61563 24.240623 214.99063 24.240623Q216.81876 24.240623 218.02188 25.724998L218.02188 24.474998L219.63126 24.474998L219.63126 33.44375Q219.63126 35.865623 219.13126 36.865623Q218.64688 37.88125 217.56876 38.459373Q216.50626 39.053123 214.94376 39.053123Q213.1 39.053123 211.94376 38.225Q210.80313 37.396873 210.85 35.709373ZM212.30313 29.474998Q212.30313 31.521873 213.11563 32.459373Q213.92813 33.396873 215.14688 33.396873Q216.35 33.396873 217.1625 32.459373Q217.99063 31.521873 217.99063 29.537498Q217.99063 27.631248 217.14688 26.662498Q216.30313 25.693748 215.11563 25.693748Q213.94376 25.693748 213.11563 26.646873Q212.30313 27.599998 212.30313 29.474998Z" fill-rule="nonzero"/></svg>