<svg version="1.1" viewBox="0.0 0.0 713.0 442.0" fill="none" stroke="none" stroke-linecap="square" stroke-miterlimit="10" width="713" height="442" xmlns:xlink="http://www.w3.org/1999/xlink" xmlns="http://www.w3.org/2000/svg"><path fill="#ffffff" d="M0 0L713.0 0L713.0 442.0L0 442.0L0 0Z" fill-rule="nonzero"/><path fill="#4285f4" d="M356.5 60.833332C386.9161 60.833332 416.8336 68.56091 443.44498 83.29092L356.5 240.36667Z" fill-rule="nonzero"/><path fill="#f07b72" d="M343.5453 61.301334C347.85648 60.989437 352.17752 60.833332 356.5 60.833332L356.5 240.36667Z" fill-rule="nonzero"/><path fill="#7baaf7" d="M330.65808 62.7029C334.93555 62.080727 339.23407 61.613235 343.5453 61.301334L356.5 240.36667Z" fill-rule="nonzero"/><path fill="#46bdc6" d="M293.0698 72.41183C305.21146 67.82638 317.81458 64.571045 330.65808 62.7029L356.5 240.36667Z" fill-rule="nonzero"/><path fill="#ff6d01" d="M281.1159 77.42663C285.03888 75.61167 289.0261 73.93898 293.0698 72.41183L356.5 240.36667Z" fill-rule="nonzero"/><path fill="#34a853" d="M180.49585 204.94414C191.78969 148.82834 229.16537 101.4615 281.1159 77.42663L356.5 240.36667Z" fill-rule="nonzero"/><path fill="#fbbc04" d="M179.33174 269.41193C175.82611 248.0285 176.2205 226.18706 180.49585 204.94414L356.5 240.36667Z" fill-rule="nonzero"/><path fill="#ea4335" d="M443.44498 83.29092C516.83026 123.91135 552.30945 209.93147 528.8987 290.47562C505.48795 371.01978 429.4271 424.61996 345.70154 419.57495C261.97595 414.52994 192.9016 352.1844 179.33174 269.41193L356.5 240.36667Z" fill-rule="nonzero"/><path fill="#1a1a1a" d="M29.490625 70.427086Q30.6 70.66146 31.146875 71.177086Q31.896875 71.895836 31.896875 72.927086Q31.896875 73.72396 31.396875 74.44271Q30.896875 75.16146 30.021875 75.50521Q29.1625 75.833336 27.365625 75.833336L22.365625 75.833336L22.365625 75.53646L22.771875 75.53646Q23.428125 75.53646 23.725 75.114586Q23.896875 74.84896 23.896875 73.958336L23.896875 67.114586Q23.896875 66.13021 23.678125 65.864586Q23.365625 65.520836 22.771875 65.520836L22.365625 65.520836L22.365625 65.239586L26.94375 65.239586Q28.225 65.239586 29.00625 65.427086Q30.178125 65.708336 30.7875 66.427086Q31.4125 67.13021 31.4125 68.06771Q31.4125 68.864586 30.928125 69.489586Q30.44375 70.114586 29.490625 70.427086ZM25.396875 70.00521Q25.69375 70.052086 26.053125 70.083336Q26.428125 70.114586 26.88125 70.114586Q28.021875 70.114586 28.584375 69.864586Q29.1625 69.614586 29.459375 69.114586Q29.771875 68.59896 29.771875 68.00521Q29.771875 67.06771 29.00625 66.41146Q28.25625 65.75521 26.803125 65.75521Q26.021875 65.75521 25.396875 65.927086L25.396875 70.00521ZM25.396875 75.06771Q26.303125 75.270836 27.19375 75.270836Q28.6 75.270836 29.334375 74.645836Q30.084375 74.00521 30.084375 73.06771Q30.084375 72.44271 29.740625 71.88021Q29.4125 71.302086 28.646875 70.97396Q27.896875 70.645836 26.7875 70.645836Q26.303125 70.645836 25.959375 70.66146Q25.615625 70.677086 25.396875 70.72396L25.396875 75.06771ZM37.6625 74.802086Q36.553123 75.645836 36.271873 75.78646Q35.85 75.989586 35.38125 75.989586Q34.63125 75.989586 34.146873 75.47396Q33.678123 74.958336 33.678123 74.13021Q33.678123 73.614586 33.9125 73.22396Q34.225 72.69271 35.021873 72.22396Q35.81875 71.75521 37.6625 71.083336L37.6625 70.802086Q37.6625 69.739586 37.31875 69.34896Q36.975 68.94271 36.334373 68.94271Q35.834373 68.94271 35.553123 69.208336Q35.25625 69.47396 35.25625 69.81771L35.271873 70.270836Q35.271873 70.63021 35.084373 70.833336Q34.896873 71.020836 34.6 71.020836Q34.31875 71.020836 34.13125 70.81771Q33.94375 70.614586 33.94375 70.25521Q33.94375 69.583336 34.63125 69.020836Q35.31875 68.458336 36.56875 68.458336Q37.521873 68.458336 38.13125 68.78646Q38.584373 69.020836 38.803123 69.53646Q38.94375 69.88021 38.94375 70.91146L38.94375 73.34896Q38.94375 74.364586 38.975 74.59896Q39.021873 74.833336 39.115623 74.91146Q39.209373 74.989586 39.31875 74.989586Q39.44375 74.989586 39.5375 74.927086Q39.709373 74.833336 40.178123 74.364586L40.178123 74.802086Q39.303123 75.97396 38.50625 75.97396Q38.115623 75.97396 37.88125 75.708336Q37.6625 75.44271 37.6625 74.802086ZM37.6625 74.28646L37.6625 71.56771Q36.475 72.03646 36.13125 72.22396Q35.521873 72.56771 35.25625 72.94271Q34.990623 73.31771 34.990623 73.770836Q34.990623 74.333336 35.31875 74.708336Q35.6625 75.06771 36.1 75.06771Q36.69375 75.06771 37.6625 74.28646ZM40.19375 68.677086L43.5375 68.677086L43.5375 68.958336L43.365623 68.958336Q43.021873 68.958336 42.834373 69.114586Q42.6625 69.270836 42.6625 69.489586Q42.6625 69.802086 42.928123 70.333336L44.6625 73.94271L46.271873 69.989586Q46.396873 69.677086 46.396873 69.364586Q46.396873 69.22396 46.35 69.145836Q46.2875 69.06771 46.146873 69.020836Q46.021873 68.958336 45.678123 68.958336L45.678123 68.677086L48.00625 68.677086L48.00625 68.958336Q47.725 68.989586 47.56875 69.083336Q47.4125 69.177086 47.225 69.44271Q47.146873 69.552086 46.959373 70.03646L44.0375 77.19271Q43.615623 78.22396 42.928123 78.75521Q42.25625 79.28646 41.615623 79.28646Q41.1625 79.28646 40.865623 79.020836Q40.56875 78.75521 40.56875 78.41146Q40.56875 78.083336 40.771873 77.88021Q40.990623 77.69271 41.365623 77.69271Q41.63125 77.69271 42.06875 77.864586Q42.38125 77.97396 42.459373 77.97396Q42.69375 77.97396 42.975 77.72396Q43.25625 77.489586 43.5375 76.802086L44.0375 75.552086L41.475 70.145836Q41.35 69.91146 41.1 69.552086Q40.896873 69.270836 40.771873 69.177086Q40.6 69.052086 40.19375 68.958336L40.19375 68.677086ZM49.803123 71.364586Q49.803123 72.958336 50.584373 73.864586Q51.365623 74.770836 52.4125 74.770836Q53.115623 74.770836 53.63125 74.395836Q54.1625 74.00521 54.50625 73.06771L54.75625 73.22396Q54.584373 74.28646 53.7875 75.177086Q53.00625 76.052086 51.81875 76.052086Q50.5375 76.052086 49.615623 75.052086Q48.69375 74.03646 48.69375 72.34896Q48.69375 70.50521 49.63125 69.489586Q50.584373 68.458336 52.00625 68.458336Q53.209373 68.458336 53.975 69.25521Q54.75625 70.03646 54.75625 71.364586L49.803123 71.364586ZM49.803123 70.91146L53.115623 70.91146Q53.084373 70.22396 52.959373 69.94271Q52.75625 69.50521 52.365623 69.25521Q51.990623 69.00521 51.56875 69.00521Q50.9125 69.00521 50.396873 69.520836Q49.896873 70.020836 49.803123 70.91146ZM60.225 68.458336L60.225 70.895836L59.975 70.895836Q59.678123 69.75521 59.209373 69.34896Q58.740623 68.927086 58.021873 68.927086Q57.475 68.927086 57.13125 69.22396Q56.803123 69.50521 56.803123 69.84896Q56.803123 70.28646 57.053123 70.59896Q57.303123 70.927086 58.0375 71.28646L59.178123 71.833336Q60.771873 72.614586 60.771873 73.88021Q60.771873 74.84896 60.021873 75.458336Q59.2875 76.052086 58.38125 76.052086Q57.725 76.052086 56.88125 75.81771Q56.615623 75.739586 56.459373 75.739586Q56.271873 75.739586 56.178123 75.94271L55.9125 75.94271L55.9125 73.38021L56.178123 73.38021Q56.396873 74.47396 57.00625 75.03646Q57.63125 75.583336 58.396873 75.583336Q58.928123 75.583336 59.271873 75.270836Q59.615623 74.958336 59.615623 74.50521Q59.615623 73.97396 59.225 73.614586Q58.85 73.239586 57.709373 72.677086Q56.584373 72.114586 56.240623 71.66146Q55.88125 71.208336 55.88125 70.53646Q55.88125 69.645836 56.490623 69.052086Q57.1 68.458336 58.053123 68.458336Q58.475 68.458336 59.084373 68.645836Q59.475 68.75521 59.615623 68.75521Q59.740623 68.75521 59.803123 68.708336Q59.88125 68.645836 59.975 68.458336L60.225 68.458336ZM63.428123 64.72396Q63.75625 64.72396 63.975 64.958336Q64.20937 65.177086 64.20937 65.50521Q64.20937 65.833336 63.975 66.06771Q63.75625 66.302086 63.428123 66.302086Q63.1 66.302086 62.865623 66.06771Q62.63125 65.833336 62.63125 65.50521Q62.63125 65.177086 62.85 64.958336Q63.084373 64.72396 63.428123 64.72396ZM64.06875 68.458336L64.06875 74.208336Q64.06875 74.88021 64.1625 75.114586Q64.27187 75.333336 64.45937 75.44271Q64.64687 75.552086 65.1625 75.552086L65.1625 75.833336L61.678123 75.833336L61.678123 75.552086Q62.209373 75.552086 62.38125 75.458336Q62.56875 75.34896 62.6625 75.114586Q62.771873 74.88021 62.771873 74.208336L62.771873 71.458336Q62.771873 70.28646 62.709373 69.94271Q62.646873 69.69271 62.521873 69.59896Q62.4125 69.50521 62.209373 69.50521Q61.990623 69.50521 61.678123 69.614586L61.56875 69.333336L63.725 68.458336L64.06875 68.458336ZM69.6625 74.802086Q68.55312 75.645836 68.27187 75.78646Q67.85 75.989586 67.38125 75.989586Q66.63125 75.989586 66.14687 75.47396Q65.67812 74.958336 65.67812 74.13021Q65.67812 73.614586 65.9125 73.22396Q66.225 72.69271 67.02187 72.22396Q67.81875 71.75521 69.6625 71.083336L69.6625 70.802086Q69.6625 69.739586 69.31875 69.34896Q68.975 68.94271 68.33437 68.94271Q67.83437 68.94271 67.55312 69.208336Q67.25625 69.47396 67.25625 69.81771L67.27187 70.270836Q67.27187 70.63021 67.08437 70.833336Q66.89687 71.020836 66.6 71.020836Q66.31875 71.020836 66.13125 70.81771Q65.94375 70.614586 65.94375 70.25521Q65.94375 69.583336 66.63125 69.020836Q67.31875 68.458336 68.56875 68.458336Q69.52187 68.458336 70.13125 68.78646Q70.58437 69.020836 70.80312 69.53646Q70.94375 69.88021 70.94375 70.91146L70.94375 73.34896Q70.94375 74.364586 70.975 74.59896Q71.02187 74.833336 71.11562 74.91146Q71.20937 74.989586 71.31875 74.989586Q71.44375 74.989586 71.5375 74.927086Q71.70937 74.833336 72.17812 74.364586L72.17812 74.802086Q71.30312 75.97396 70.50625 75.97396Q70.11562 75.97396 69.88125 75.708336Q69.6625 75.44271 69.6625 74.802086ZM69.6625 74.28646L69.6625 71.56771Q68.475 72.03646 68.13125 72.22396Q67.52187 72.56771 67.25625 72.94271Q66.99062 73.31771 66.99062 73.770836Q66.99062 74.333336 67.31875 74.708336Q67.6625 75.06771 68.1 75.06771Q68.69375 75.06771 69.6625 74.28646ZM74.69375 69.97396Q75.94375 68.458336 77.08437 68.458336Q77.67812 68.458336 78.1 68.75521Q78.52187 69.052086 78.77187 69.72396Q78.94375 70.19271 78.94375 71.16146L78.94375 74.208336Q78.94375 74.895836 79.05312 75.13021Q79.13125 75.333336 79.31875 75.44271Q79.52187 75.552086 80.0375 75.552086L80.0375 75.833336L76.49062 75.833336L76.49062 75.552086L76.64687 75.552086Q77.14687 75.552086 77.33437 75.395836Q77.5375 75.239586 77.61562 74.94271Q77.64687 74.833336 77.64687 74.208336L77.64687 71.28646Q77.64687 70.302086 77.39687 69.864586Q77.14687 69.427086 76.5375 69.427086Q75.61562 69.427086 74.69375 70.44271L74.69375 74.208336Q74.69375 74.94271 74.77187 75.114586Q74.88125 75.333336 75.06875 75.44271Q75.27187 75.552086 75.85 75.552086L75.85 75.833336L72.31875 75.833336L72.31875 75.552086L72.475 75.552086Q73.02187 75.552086 73.20937 75.270836Q73.39687 74.989586 73.39687 74.208336L73.39687 71.552086Q73.39687 70.270836 73.33437 69.989586Q73.2875 69.708336 73.1625 69.614586Q73.0375 69.50521 72.83437 69.50521Q72.61562 69.50521 72.31875 69.614586L72.19375 69.333336L74.35 68.458336L74.69375 68.458336L74.69375 69.97396ZM89.95937 64.989586Q92.02187 64.989586 93.52187 66.56771Q95.0375 68.13021 95.0375 70.47396Q95.0375 72.88021 93.50625 74.489586Q91.99062 76.083336 89.83437 76.083336Q87.64687 76.083336 86.14687 74.520836Q84.6625 72.958336 84.6625 70.489586Q84.6625 67.97396 86.38125 66.38021Q87.88125 64.989586 89.95937 64.989586ZM89.80312 65.56771Q88.38125 65.56771 87.52187 66.614586Q86.45937 67.927086 86.45937 70.458336Q86.45937 73.052086 87.56875 74.458336Q88.4125 75.520836 89.81875 75.520836Q91.30312 75.520836 92.27187 74.364586Q93.25625 73.19271 93.25625 70.677086Q93.25625 67.958336 92.17812 66.63021Q91.31875 65.56771 89.80312 65.56771ZM96.08437 69.38021L98.2875 68.489586L98.58437 68.489586L98.58437 70.16146Q99.14687 69.22396 99.69375 68.84896Q100.25625 68.458336 100.88125 68.458336Q101.95937 68.458336 102.67812 69.302086Q103.55312 70.333336 103.55312 71.989586Q103.55312 73.84896 102.49062 75.052086Q101.61562 76.052086 100.2875 76.052086Q99.70937 76.052086 99.2875 75.895836Q98.975 75.770836 98.58437 75.41146L98.58437 77.59896Q98.58437 78.333336 98.67812 78.53646Q98.77187 78.739586 98.99062 78.84896Q99.20937 78.97396 99.80312 78.97396L99.80312 79.25521L96.0375 79.25521L96.0375 78.97396L96.24062 78.97396Q96.67812 78.97396 96.975 78.802086Q97.13125 78.72396 97.20937 78.520836Q97.2875 78.333336 97.2875 77.552086L97.2875 70.78646Q97.2875 70.083336 97.225 69.895836Q97.1625 69.708336 97.02187 69.614586Q96.89687 69.520836 96.6625 69.520836Q96.475 69.520836 96.17812 69.63021L96.08437 69.38021ZM98.58437 70.63021L98.58437 73.302086Q98.58437 74.16146 98.6625 74.44271Q98.77187 74.895836 99.19375 75.239586Q99.61562 75.583336 100.27187 75.583336Q101.05312 75.583336 101.5375 74.97396Q102.1625 74.177086 102.1625 72.72396Q102.1625 71.083336 101.44375 70.208336Q100.94375 69.59896 100.25625 69.59896Q99.88125 69.59896 99.52187 69.78646Q99.24062 69.927086 98.58437 70.63021ZM106.67812 66.31771L106.67812 68.677086L108.35 68.677086L108.35 69.22396L106.67812 69.22396L106.67812 73.864586Q106.67812 74.552086 106.88125 74.802086Q107.08437 75.03646 107.39687 75.03646Q107.64687 75.03646 107.88125 74.88021Q108.13125 74.72396 108.27187 74.41146L108.56875 74.41146Q108.30312 75.177086 107.80312 75.56771Q107.30312 75.958336 106.77187 75.958336Q106.4125 75.958336 106.06875 75.75521Q105.725 75.552086 105.55312 75.177086Q105.39687 74.802086 105.39687 74.03646L105.39687 69.22396L104.25625 69.22396L104.25625 68.958336Q104.69375 68.78646 105.13125 68.38021Q105.58437 67.97396 105.94375 67.41146Q106.11562 67.114586 106.44375 66.31771L106.67812 66.31771ZM110.42812 64.72396Q110.75625 64.72396 110.975 64.958336Q111.20937 65.177086 111.20937 65.50521Q111.20937 65.833336 110.975 66.06771Q110.75625 66.302086 110.42812 66.302086Q110.1 66.302086 109.86562 66.06771Q109.63125 65.833336 109.63125 65.50521Q109.63125 65.177086 109.85 64.958336Q110.08437 64.72396 110.42812 64.72396ZM111.06875 68.458336L111.06875 74.208336Q111.06875 74.88021 111.1625 75.114586Q111.27187 75.333336 111.45937 75.44271Q111.64687 75.552086 112.1625 75.552086L112.1625 75.833336L108.67812 75.833336L108.67812 75.552086Q109.20937 75.552086 109.38125 75.458336Q109.56875 75.34896 109.6625 75.114586Q109.77187 74.88021 109.77187 74.208336L109.77187 71.458336Q109.77187 70.28646 109.70937 69.94271Q109.64687 69.69271 109.52187 69.59896Q109.4125 69.50521 109.20937 69.50521Q108.99062 69.50521 108.67812 69.614586L108.56875 69.333336L110.725 68.458336L111.06875 68.458336ZM114.725 69.989586Q115.50625 69.208336 115.64687 69.083336Q116.00625 68.78646 116.4125 68.63021Q116.81875 68.458336 117.20937 68.458336Q117.88125 68.458336 118.36562 68.84896Q118.85 69.239586 119.02187 69.989586Q119.81875 69.052086 120.36562 68.75521Q120.92812 68.458336 121.52187 68.458336Q122.08437 68.458336 122.52187 68.75521Q122.975 69.052086 123.225 69.708336Q123.39687 70.16146 123.39687 71.13021L123.39687 74.208336Q123.39687 74.88021 123.50625 75.13021Q123.58437 75.302086 123.7875 75.427086Q124.00625 75.552086 124.475 75.552086L124.475 75.833336L120.94375 75.833336L120.94375 75.552086L121.1 75.552086Q121.55312 75.552086 121.81875 75.364586Q121.99062 75.239586 122.06875 74.97396Q122.1 74.833336 122.1 74.208336L122.1 71.13021Q122.1 70.25521 121.89687 69.895836Q121.58437 69.395836 120.9125 69.395836Q120.50625 69.395836 120.08437 69.614586Q119.6625 69.81771 119.06875 70.38021L119.05312 70.458336L119.06875 70.802086L119.06875 74.208336Q119.06875 74.94271 119.14687 75.13021Q119.24062 75.302086 119.45937 75.427086Q119.69375 75.552086 120.24062 75.552086L120.24062 75.833336L116.61562 75.833336L116.61562 75.552086Q117.20937 75.552086 117.42812 75.41146Q117.6625 75.270836 117.74062 74.989586Q117.7875 74.84896 117.7875 74.208336L117.7875 71.13021Q117.7875 70.25521 117.52187 69.88021Q117.17812 69.38021 116.56875 69.38021Q116.14687 69.38021 115.725 69.59896Q115.08437 69.94271 114.725 70.38021L114.725 74.208336Q114.725 74.91146 114.81875 75.13021Q114.92812 75.333336 115.11562 75.44271Q115.30312 75.552086 115.89687 75.552086L115.89687 75.833336L112.35 75.833336L112.35 75.552086Q112.85 75.552086 113.0375 75.44271Q113.24062 75.333336 113.33437 75.114586Q113.44375 74.88021 113.44375 74.208336L113.44375 71.47396Q113.44375 70.302086 113.36562 69.958336Q113.31875 69.69271 113.19375 69.59896Q113.08437 69.50521 112.88125 69.50521Q112.6625 69.50521 112.35 69.614586L112.24062 69.333336L114.39687 68.458336L114.725 68.458336L114.725 69.989586ZM126.42812 64.72396Q126.75625 64.72396 126.975 64.958336Q127.20937 65.177086 127.20937 65.50521Q127.20937 65.833336 126.975 66.06771Q126.75625 66.302086 126.42812 66.302086Q126.1 66.302086 125.86562 66.06771Q125.63125 65.833336 125.63125 65.50521Q125.63125 65.177086 125.85 64.958336Q126.08437 64.72396 126.42812 64.72396ZM127.06875 68.458336L127.06875 74.208336Q127.06875 74.88021 127.1625 75.114586Q127.27187 75.333336 127.45937 75.44271Q127.64687 75.552086 128.1625 75.552086L128.1625 75.833336L124.67812 75.833336L124.67812 75.552086Q125.20937 75.552086 125.38125 75.458336Q125.56875 75.34896 125.6625 75.114586Q125.77187 74.88021 125.77187 74.208336L125.77187 71.458336Q125.77187 70.28646 125.70937 69.94271Q125.64687 69.69271 125.52187 69.59896Q125.4125 69.50521 125.20937 69.50521Q124.99062 69.50521 124.67812 69.614586L124.56875 69.333336L126.725 68.458336L127.06875 68.458336ZM134.81876 73.63021L134.74063 75.833336L128.42813 75.833336L128.42813 75.552086L133.17813 69.22396L130.83438 69.22396Q130.06876 69.22396 129.83438 69.31771Q129.6 69.41146 129.45938 69.69271Q129.24063 70.083336 129.20938 70.66146L128.89688 70.66146L128.94376 68.677086L134.94376 68.677086L134.94376 68.958336L130.14688 75.302086L132.75626 75.302086Q133.58438 75.302086 133.86563 75.177086Q134.1625 75.03646 134.35 74.69271Q134.475 74.44271 134.55313 73.63021L134.81876 73.63021ZM139.6625 74.802086Q138.55313 75.645836 138.27188 75.78646Q137.85 75.989586 137.38126 75.989586Q136.63126 75.989586 136.14688 75.47396Q135.67813 74.958336 135.67813 74.13021Q135.67813 73.614586 135.9125 73.22396Q136.225 72.69271 137.02188 72.22396Q137.81876 71.75521 139.6625 71.083336L139.6625 70.802086Q139.6625 69.739586 139.31876 69.34896Q138.975 68.94271 138.33438 68.94271Q137.83438 68.94271 137.55313 69.208336Q137.25626 69.47396 137.25626 69.81771L137.27188 70.270836Q137.27188 70.63021 137.08438 70.833336Q136.89688 71.020836 136.6 71.020836Q136.31876 71.020836 136.13126 70.81771Q135.94376 70.614586 135.94376 70.25521Q135.94376 69.583336 136.63126 69.020836Q137.31876 68.458336 138.56876 68.458336Q139.52188 68.458336 140.13126 68.78646Q140.58438 69.020836 140.80313 69.53646Q140.94376 69.88021 140.94376 70.91146L140.94376 73.34896Q140.94376 74.364586 140.975 74.59896Q141.02188 74.833336 141.11563 74.91146Q141.20938 74.989586 141.31876 74.989586Q141.44376 74.989586 141.5375 74.927086Q141.70938 74.833336 142.17813 74.364586L142.17813 74.802086Q141.30313 75.97396 140.50626 75.97396Q140.11563 75.97396 139.88126 75.708336Q139.6625 75.44271 139.6625 74.802086ZM139.6625 74.28646L139.6625 71.56771Q138.475 72.03646 138.13126 72.22396Q137.52188 72.56771 137.25626 72.94271Q136.99063 73.31771 136.99063 73.770836Q136.99063 74.333336 137.31876 74.708336Q137.6625 75.06771 138.1 75.06771Q138.69376 75.06771 139.6625 74.28646ZM144.67813 66.31771L144.67813 68.677086L146.35 68.677086L146.35 69.22396L144.67813 69.22396L144.67813 73.864586Q144.67813 74.552086 144.88126 74.802086Q145.08438 75.03646 145.39688 75.03646Q145.64688 75.03646 145.88126 74.88021Q146.13126 74.72396 146.27188 74.41146L146.56876 74.41146Q146.30313 75.177086 145.80313 75.56771Q145.30313 75.958336 144.77188 75.958336Q144.4125 75.958336 144.06876 75.75521Q143.725 75.552086 143.55313 75.177086Q143.39688 74.802086 143.39688 74.03646L143.39688 69.22396L142.25626 69.22396L142.25626 68.958336Q142.69376 68.78646 143.13126 68.38021Q143.58438 67.97396 143.94376 67.41146Q144.11563 67.114586 144.44376 66.31771L144.67813 66.31771ZM148.42813 64.72396Q148.75626 64.72396 148.975 64.958336Q149.20938 65.177086 149.20938 65.50521Q149.20938 65.833336 148.975 66.06771Q148.75626 66.302086 148.42813 66.302086Q148.1 66.302086 147.86563 66.06771Q147.63126 65.833336 147.63126 65.50521Q147.63126 65.177086 147.85 64.958336Q148.08438 64.72396 148.42813 64.72396ZM149.06876 68.458336L149.06876 74.208336Q149.06876 74.88021 149.1625 75.114586Q149.27188 75.333336 149.45938 75.44271Q149.64688 75.552086 150.1625 75.552086L150.1625 75.833336L146.67813 75.833336L146.67813 75.552086Q147.20938 75.552086 147.38126 75.458336Q147.56876 75.34896 147.6625 75.114586Q147.77188 74.88021 147.77188 74.208336L147.77188 71.458336Q147.77188 70.28646 147.70938 69.94271Q147.64688 69.69271 147.52188 69.59896Q147.4125 69.50521 147.20938 69.50521Q146.99063 69.50521 146.67813 69.614586L146.56876 69.333336L148.725 68.458336L149.06876 68.458336ZM154.1 68.458336Q155.725 68.458336 156.70938 69.69271Q157.55313 70.75521 157.55313 72.114586Q157.55313 73.083336 157.08438 74.06771Q156.63126 75.052086 155.81876 75.552086Q155.00626 76.052086 154.02188 76.052086Q152.39688 76.052086 151.44376 74.75521Q150.64688 73.677086 150.64688 72.31771Q150.64688 71.333336 151.13126 70.364586Q151.61563 69.395836 152.4125 68.927086Q153.20938 68.458336 154.1 68.458336ZM153.86563 68.97396Q153.44376 68.97396 153.02188 69.22396Q152.61563 69.458336 152.35 70.083336Q152.1 70.69271 152.1 71.66146Q152.1 73.22396 152.70938 74.364586Q153.33438 75.489586 154.35 75.489586Q155.11563 75.489586 155.6 74.864586Q156.1 74.239586 156.1 72.72396Q156.1 70.81771 155.27188 69.72396Q154.725 68.97396 153.86563 68.97396ZM160.69376 69.97396Q161.94376 68.458336 163.08438 68.458336Q163.67813 68.458336 164.1 68.75521Q164.52188 69.052086 164.77188 69.72396Q164.94376 70.19271 164.94376 71.16146L164.94376 74.208336Q164.94376 74.895836 165.05313 75.13021Q165.13126 75.333336 165.31876 75.44271Q165.52188 75.552086 166.0375 75.552086L166.0375 75.833336L162.49063 75.833336L162.49063 75.552086L162.64688 75.552086Q163.14688 75.552086 163.33438 75.395836Q163.5375 75.239586 163.61563 74.94271Q163.64688 74.833336 163.64688 74.208336L163.64688 71.28646Q163.64688 70.302086 163.39688 69.864586Q163.14688 69.427086 162.5375 69.427086Q161.61563 69.427086 160.69376 70.44271L160.69376 74.208336Q160.69376 74.94271 160.77188 75.114586Q160.88126 75.333336 161.06876 75.44271Q161.27188 75.552086 161.85 75.552086L161.85 75.833336L158.31876 75.833336L158.31876 75.552086L158.475 75.552086Q159.02188 75.552086 159.20938 75.270836Q159.39688 74.989586 159.39688 74.208336L159.39688 71.552086Q159.39688 70.270836 159.33438 69.989586Q159.2875 69.708336 159.1625 69.614586Q159.0375 69.50521 158.83438 69.50521Q158.61563 69.50521 158.31876 69.614586L158.19376 69.333336L160.35 68.458336L160.69376 68.458336L160.69376 69.97396Z" fill-rule="nonzero"/><path fill="#9e9e9e" d="M22.9125 90.25521Q23.365625 89.177086 24.053125 88.59896Q24.75625 88.020836 25.7875 88.020836Q27.053125 88.020836 27.740625 88.84896Q28.25625 89.458336 28.25625 90.16146Q28.25625 91.31771 26.803125 92.552086Q27.771875 92.94271 28.271875 93.66146Q28.771875 94.364586 28.771875 95.31771Q28.771875 96.69271 27.896875 97.708336Q26.75625 99.020836 24.6 99.020836Q23.521875 99.020836 23.13125 98.75521Q22.75625 98.489586 22.75625 98.177086Q22.75625 97.958336 22.928125 97.78646Q23.115625 97.614586 23.38125 97.614586Q23.56875 97.614586 23.771875 97.677086Q23.9125 97.708336 24.38125 97.958336Q24.85 98.208336 25.021875 98.25521Q25.31875 98.333336 25.646875 98.333336Q26.44375 98.333336 27.021875 97.72396Q27.615625 97.09896 27.615625 96.25521Q27.615625 95.645836 27.35 95.052086Q27.146875 94.614586 26.896875 94.395836Q26.56875 94.083336 25.975 93.833336Q25.396875 93.56771 24.7875 93.56771L24.5375 93.56771L24.5375 93.333336Q25.146875 93.25521 25.771875 92.895836Q26.396875 92.520836 26.678125 92.00521Q26.959375 91.489586 26.959375 90.88021Q26.959375 90.06771 26.44375 89.583336Q25.94375 89.083336 25.19375 89.083336Q23.990625 89.083336 23.178125 90.38021L22.9125 90.25521ZM32.1 97.31771Q32.475 97.31771 32.725 97.56771Q32.975 97.81771 32.975 98.177086Q32.975 98.53646 32.709373 98.802086Q32.459373 99.052086 32.1 99.052086Q31.740625 99.052086 31.490625 98.802086Q31.240625 98.53646 31.240625 98.177086Q31.240625 97.81771 31.490625 97.56771Q31.740625 97.31771 32.1 97.31771ZM41.553123 94.927086L41.553123 96.03646L40.13125 96.03646L40.13125 98.833336L38.834373 98.833336L38.834373 96.03646L34.35 96.03646L34.35 95.03646L39.271873 88.020836L40.13125 88.020836L40.13125 94.927086L41.553123 94.927086ZM38.834373 94.927086L38.834373 89.66146L35.115623 94.927086L38.834373 94.927086ZM52.975 87.989586L45.25625 99.270836L44.56875 99.270836L52.2875 87.989586L52.975 87.989586ZM44.94375 87.989586Q46.00625 87.989586 46.584373 88.864586Q47.1625 89.739586 47.1625 90.88021Q47.1625 92.239586 46.50625 92.989586Q45.85 93.72396 44.928123 93.72396Q44.31875 93.72396 43.803123 93.38021Q43.2875 93.03646 42.975 92.364586Q42.6625 91.69271 42.6625 90.88021Q42.6625 90.052086 42.975 89.364586Q43.2875 88.677086 43.834373 88.333336Q44.38125 87.989586 44.94375 87.989586ZM44.928123 88.427086Q44.521873 88.427086 44.209373 88.895836Q43.9125 89.364586 43.9125 90.864586Q43.9125 91.958336 44.084373 92.520836Q44.209373 92.958336 44.490623 93.19271Q44.6625 93.333336 44.896873 93.333336Q45.271873 93.333336 45.5375 92.927086Q45.928123 92.31771 45.928123 90.91146Q45.928123 89.427086 45.553123 88.833336Q45.303123 88.427086 44.928123 88.427086ZM52.615623 93.56771Q53.178123 93.56771 53.725 93.927086Q54.271873 94.270836 54.56875 94.94271Q54.88125 95.614586 54.88125 96.427086Q54.88125 97.802086 54.209373 98.53646Q53.553123 99.270836 52.646873 99.270836Q52.06875 99.270836 51.5375 98.91146Q51.00625 98.56771 50.69375 97.91146Q50.38125 97.25521 50.38125 96.427086Q50.38125 95.59896 50.69375 94.927086Q51.00625 94.239586 51.5375 93.91146Q52.06875 93.56771 52.615623 93.56771ZM52.63125 93.989586Q52.25625 93.989586 51.975 94.41146Q51.63125 94.958336 51.63125 96.47396Q51.63125 97.88021 51.990623 98.427086Q52.25625 98.833336 52.63125 98.833336Q52.990623 98.833336 53.271873 98.395836Q53.646873 97.833336 53.646873 96.44271Q53.646873 94.97396 53.271873 94.38021Q53.00625 93.989586 52.63125 93.989586Z" fill-rule="nonzero"/><path stroke="#757575" stroke-width="1.0" stroke-linecap="butt" d="M22.1 82.333336L170.96666 82.333336L313.8457 75.22979" fill-rule="nonzero"/><path fill="#9e9e9e" d="M315.8457 75.22979C315.8457 74.12522 314.9503 73.22979 313.8457 73.22979C312.74115 73.22979 311.8457 74.12522 311.8457 75.22979C311.8457 76.33436 312.74115 77.22979 313.8457 77.22979C314.9503 77.22979 315.8457 76.33436 315.8457 75.22979" fill-rule="nonzero"/><path fill="#1a1a1a" d="M27.6625 127.40312Q27.13125 127.95 26.63125 128.2Q26.13125 128.43437 25.553125 128.43437Q24.38125 128.43437 23.50625 127.45Q22.63125 126.46562 22.63125 124.93437Q22.63125 123.3875 23.6 122.12187Q24.56875 120.84062 26.1 120.84062Q27.0375 120.84062 27.6625 121.43437L27.6625 120.12187Q27.6625 118.8875 27.6 118.60625Q27.5375 118.325 27.4125 118.23125Q27.2875 118.12187 27.1 118.12187Q26.896875 118.12187 26.56875 118.24687L26.459375 117.98125L28.6 117.10625L28.94375 117.10625L28.94375 125.37187Q28.94375 126.6375 29.00625 126.91875Q29.06875 127.18437 29.19375 127.29375Q29.31875 127.40312 29.490625 127.40312Q29.709375 127.40312 30.053125 127.27812L30.146875 127.54375L28.021875 128.43437L27.6625 128.43437L27.6625 127.40312ZM27.6625 126.85625L27.6625 123.16875Q27.615625 122.6375 27.38125 122.2Q27.146875 121.7625 26.75625 121.54375Q26.365625 121.325 26.00625 121.325Q25.31875 121.325 24.771875 121.93437Q24.06875 122.74687 24.06875 124.30937Q24.06875 125.8875 24.75625 126.73125Q25.44375 127.575 26.2875 127.575Q26.990625 127.575 27.6625 126.85625ZM31.803125 123.74687Q31.803125 125.34062 32.584373 126.24687Q33.365623 127.15312 34.4125 127.15312Q35.115623 127.15312 35.63125 126.77812Q36.1625 126.3875 36.50625 125.45L36.75625 125.60625Q36.584373 126.66875 35.7875 127.55937Q35.00625 128.43437 33.81875 128.43437Q32.5375 128.43437 31.615625 127.43437Q30.69375 126.41875 30.69375 124.73125Q30.69375 122.8875 31.63125 121.87187Q32.584373 120.84062 34.00625 120.84062Q35.209373 120.84062 35.975 121.6375Q36.75625 122.41875 36.75625 123.74687L31.803125 123.74687ZM31.803125 123.29375L35.115623 123.29375Q35.084373 122.60625 34.959373 122.325Q34.75625 121.8875 34.365623 121.6375Q33.990623 121.3875 33.56875 121.3875Q32.9125 121.3875 32.396873 121.90312Q31.896875 122.40312 31.803125 123.29375ZM37.240623 121.05937L40.6 121.05937L40.6 121.34062L40.38125 121.34062Q40.084373 121.34062 39.9125 121.49687Q39.75625 121.6375 39.75625 121.8875Q39.75625 122.16875 39.928123 122.54375L41.584373 126.49687L43.25625 122.3875Q43.44375 121.95 43.44375 121.73125Q43.44375 121.62187 43.38125 121.54375Q43.2875 121.43437 43.146873 121.3875Q43.021873 121.34062 42.615623 121.34062L42.615623 121.05937L44.959373 121.05937L44.959373 121.34062Q44.553123 121.37187 44.396873 121.5125Q44.115623 121.74687 43.896873 122.29375L41.365623 128.43437L41.0375 128.43437L38.490623 122.3875Q38.31875 121.96562 38.1625 121.79375Q38.00625 121.60625 37.75625 121.48125Q37.63125 121.40312 37.240623 121.34062L37.240623 121.05937ZM54.225 120.84062L54.225 123.27812L53.975 123.27812Q53.678123 122.1375 53.209373 121.73125Q52.740623 121.30937 52.021873 121.30937Q51.475 121.30937 51.13125 121.60625Q50.803123 121.8875 50.803123 122.23125Q50.803123 122.66875 51.053123 122.98125Q51.303123 123.30937 52.0375 123.66875L53.178123 124.21562Q54.771873 124.99687 54.771873 126.2625Q54.771873 127.23125 54.021873 127.84062Q53.2875 128.43437 52.38125 128.43437Q51.725 128.43437 50.88125 128.2Q50.615623 128.12187 50.459373 128.12187Q50.271873 128.12187 50.178123 128.325L49.9125 128.325L49.9125 125.7625L50.178123 125.7625Q50.396873 126.85625 51.00625 127.41875Q51.63125 127.96562 52.396873 127.96562Q52.928123 127.96562 53.271873 127.65312Q53.615623 127.34062 53.615623 126.8875Q53.615623 126.35625 53.225 125.99687Q52.85 125.62187 51.709373 125.05937Q50.584373 124.49687 50.240623 124.04375Q49.88125 123.59062 49.88125 122.91875Q49.88125 122.02812 50.490623 121.43437Q51.1 120.84062 52.053123 120.84062Q52.475 120.84062 53.084373 121.02812Q53.475 121.1375 53.615623 121.1375Q53.740623 121.1375 53.803123 121.09062Q53.88125 121.02812 53.975 120.84062L54.225 120.84062ZM56.803123 123.74687Q56.803123 125.34062 57.584373 126.24687Q58.365623 127.15312 59.4125 127.15312Q60.115623 127.15312 60.63125 126.77812Q61.1625 126.3875 61.50625 125.45L61.75625 125.60625Q61.584373 126.66875 60.7875 127.55937Q60.00625 128.43437 58.81875 128.43437Q57.5375 128.43437 56.615623 127.43437Q55.69375 126.41875 55.69375 124.73125Q55.69375 122.8875 56.63125 121.87187Q57.584373 120.84062 59.00625 120.84062Q60.209373 120.84062 60.975 121.6375Q61.75625 122.41875 61.75625 123.74687L56.803123 123.74687ZM56.803123 123.29375L60.115623 123.29375Q60.084373 122.60625 59.959373 122.325Q59.75625 121.8875 59.365623 121.6375Q58.990623 121.3875 58.56875 121.3875Q57.9125 121.3875 57.396873 121.90312Q56.896873 122.40312 56.803123 123.29375ZM64.67812 118.7L64.67812 121.05937L66.35 121.05937L66.35 121.60625L64.67812 121.60625L64.67812 126.24687Q64.67812 126.93437 64.88125 127.18437Q65.08437 127.41875 65.39687 127.41875Q65.64687 127.41875 65.88125 127.2625Q66.13125 127.10625 66.27187 126.79375L66.56875 126.79375Q66.30312 127.55937 65.80312 127.95Q65.30312 128.34062 64.77187 128.34062Q64.4125 128.34062 64.06875 128.1375Q63.725 127.93437 63.553123 127.55937Q63.396873 127.18437 63.396873 126.41875L63.396873 121.60625L62.25625 121.60625L62.25625 121.34062Q62.69375 121.16875 63.13125 120.7625Q63.584373 120.35625 63.94375 119.79375Q64.11562 119.49687 64.44375 118.7L64.67812 118.7Z" fill-rule="nonzero"/><path fill="#9e9e9e" d="M23.975 141.65312L26.553125 140.40312L26.81875 140.40312L26.81875 149.34062Q26.81875 150.23125 26.88125 150.45Q26.959375 150.66875 27.19375 150.79375Q27.428125 150.90312 28.146875 150.91875L28.146875 151.21562L24.1625 151.21562L24.1625 150.91875Q24.9125 150.90312 25.13125 150.79375Q25.35 150.68437 25.428125 150.49687Q25.521875 150.29375 25.521875 149.34062L25.521875 143.62187Q25.521875 142.46562 25.44375 142.1375Q25.396875 141.8875 25.240625 141.77812Q25.1 141.65312 24.896875 141.65312Q24.615625 141.65312 24.1 141.90312L23.975 141.65312ZM37.553123 147.30937L37.553123 148.41875L36.13125 148.41875L36.13125 151.21562L34.834373 151.21562L34.834373 148.41875L30.35 148.41875L30.35 147.41875L35.271873 140.40312L36.13125 140.40312L36.13125 147.30937L37.553123 147.30937ZM34.834373 147.30937L34.834373 142.04375L31.115625 147.30937L34.834373 147.30937ZM40.1 149.7Q40.475 149.7 40.725 149.95Q40.975 150.2 40.975 150.55937Q40.975 150.91875 40.709373 151.18437Q40.459373 151.43437 40.1 151.43437Q39.740623 151.43437 39.490623 151.18437Q39.240623 150.91875 39.240623 150.55937Q39.240623 150.2 39.490623 149.95Q39.740623 149.7 40.1 149.7ZM42.94375 151.43437L42.94375 151.1375Q43.959373 151.12187 44.834373 150.66875Q45.709373 150.21562 46.521873 149.075Q47.35 147.93437 47.6625 146.55937Q46.44375 147.35625 45.44375 147.35625Q44.334373 147.35625 43.5375 146.49687Q42.740623 145.62187 42.740623 144.2Q42.740623 142.80937 43.5375 141.71562Q44.490623 140.40312 46.0375 140.40312Q47.35 140.40312 48.271873 141.48125Q49.4125 142.80937 49.4125 144.77812Q49.4125 146.54375 48.5375 148.075Q47.678123 149.59062 46.13125 150.60625Q44.88125 151.43437 43.396873 151.43437L42.94375 151.43437ZM47.7875 145.98125Q47.928123 144.96562 47.928123 144.35625Q47.928123 143.60625 47.6625 142.73125Q47.4125 141.84062 46.94375 141.37187Q46.475 140.90312 45.865623 140.90312Q45.178123 140.90312 44.646873 141.52812Q44.13125 142.15312 44.13125 143.3875Q44.13125 145.04375 44.81875 145.96562Q45.334373 146.6375 46.06875 146.6375Q46.428123 146.6375 46.9125 146.46562Q47.4125 146.29375 47.7875 145.98125ZM60.975 140.37187L53.25625 151.65312L52.56875 151.65312L60.2875 140.37187L60.975 140.37187ZM52.94375 140.37187Q54.00625 140.37187 54.584373 141.24687Q55.1625 142.12187 55.1625 143.2625Q55.1625 144.62187 54.50625 145.37187Q53.85 146.10625 52.928123 146.10625Q52.31875 146.10625 51.803123 145.7625Q51.2875 145.41875 50.975 144.74687Q50.6625 144.075 50.6625 143.2625Q50.6625 142.43437 50.975 141.74687Q51.2875 141.05937 51.834373 140.71562Q52.38125 140.37187 52.94375 140.37187ZM52.928123 140.80937Q52.521873 140.80937 52.209373 141.27812Q51.9125 141.74687 51.9125 143.24687Q51.9125 144.34062 52.084373 144.90312Q52.209373 145.34062 52.490623 145.575Q52.6625 145.71562 52.896873 145.71562Q53.271873 145.71562 53.5375 145.30937Q53.928123 144.7 53.928123 143.29375Q53.928123 141.80937 53.553123 141.21562Q53.303123 140.80937 52.928123 140.80937ZM60.615623 145.95Q61.178123 145.95 61.725 146.30937Q62.271873 146.65312 62.56875 147.325Q62.88125 147.99687 62.88125 148.80937Q62.88125 150.18437 62.209373 150.91875Q61.553123 151.65312 60.646873 151.65312Q60.06875 151.65312 59.5375 151.29375Q59.00625 150.95 58.69375 150.29375Q58.38125 149.6375 58.38125 148.80937Q58.38125 147.98125 58.69375 147.30937Q59.00625 146.62187 59.5375 146.29375Q60.06875 145.95 60.615623 145.95ZM60.63125 146.37187Q60.25625 146.37187 59.975 146.79375Q59.63125 147.34062 59.63125 148.85625Q59.63125 150.2625 59.990623 150.80937Q60.25625 151.21562 60.63125 151.21562Q60.990623 151.21562 61.271873 150.77812Q61.646873 150.21562 61.646873 148.825Q61.646873 147.35625 61.271873 146.7625Q61.00625 146.37187 60.63125 146.37187Z" fill-rule="nonzero"/><path stroke="#757575" stroke-width="1.0" stroke-linecap="butt" d="M22.1 134.71562L170.96666 134.71562L222.60664 134.71562" fill-rule="nonzero"/><path fill="#9e9e9e" d="M224.60664 134.71562C224.60664 133.61105 223.71121 132.71562 222.60664 132.71562C221.50206 132.71562 220.60664 133.61105 220.60664 134.71562C220.60664 135.82019 221.50206 136.71562 222.60664 136.71562C223.71121 136.71562 224.60664 135.82019 224.60664 134.71562" fill-rule="nonzero"/><path fill="#1a1a1a" d="M28.678125 228.06866Q28.396875 229.47491 27.553125 230.24054Q26.709375 231.00616 25.678125 231.00616Q24.459375 231.00616 23.553125 229.99054Q22.646875 228.95929 22.646875 227.20929Q22.646875 225.52179 23.646875 224.47491Q24.6625 223.41241 26.06875 223.41241Q27.115625 223.41241 27.7875 223.97491Q28.475 224.53741 28.475 225.13116Q28.475 225.42804 28.2875 225.61554Q28.1 225.80304 27.75625 225.80304Q27.2875 225.80304 27.053125 225.50616Q26.928125 225.33429 26.88125 224.88116Q26.834375 224.41241 26.56875 224.17804Q26.2875 223.94366 25.803125 223.94366Q25.021875 223.94366 24.553125 224.52179Q23.9125 225.28741 23.9125 226.53741Q23.9125 227.81866 24.5375 228.80304Q25.178125 229.78741 26.240625 229.78741Q27.00625 229.78741 27.615625 229.25616Q28.053125 228.89679 28.459375 227.95929L28.678125 228.06866ZM31.69375 223.41241L31.69375 225.02179Q32.6 223.41241 33.5375 223.41241Q33.975 223.41241 34.25625 223.67804Q34.5375 223.94366 34.5375 224.28741Q34.5375 224.58429 34.334373 224.80304Q34.13125 225.00616 33.85 225.00616Q33.56875 225.00616 33.225 224.74054Q32.896873 224.47491 32.725 224.47491Q32.584373 224.47491 32.428123 224.63116Q32.06875 224.94366 31.69375 225.67804L31.69375 229.11554Q31.69375 229.70929 31.85 230.00616Q31.94375 230.22491 32.19375 230.36554Q32.459373 230.50616 32.94375 230.50616L32.94375 230.78741L29.2875 230.78741L29.2875 230.50616Q29.834375 230.50616 30.1 230.33429Q30.2875 230.20929 30.365625 229.92804Q30.4125 229.80304 30.4125 229.17804L30.4125 226.39679Q30.4125 225.14679 30.35 224.91241Q30.303125 224.67804 30.1625 224.56866Q30.0375 224.45929 29.834375 224.45929Q29.584375 224.45929 29.2875 224.56866L29.209375 224.28741L31.365625 223.41241L31.69375 223.41241ZM38.1 223.41241Q39.725 223.41241 40.709373 224.64679Q41.553123 225.70929 41.553123 227.06866Q41.553123 228.03741 41.084373 229.02179Q40.63125 230.00616 39.81875 230.50616Q39.00625 231.00616 38.021873 231.00616Q36.396873 231.00616 35.44375 229.70929Q34.646873 228.63116 34.646873 227.27179Q34.646873 226.28741 35.13125 225.31866Q35.615623 224.34991 36.4125 223.88116Q37.209373 223.41241 38.1 223.41241ZM37.865623 223.92804Q37.44375 223.92804 37.021873 224.17804Q36.615623 224.41241 36.35 225.03741Q36.1 225.64679 36.1 226.61554Q36.1 228.17804 36.709373 229.31866Q37.334373 230.44366 38.35 230.44366Q39.115623 230.44366 39.6 229.81866Q40.1 229.19366 40.1 227.67804Q40.1 225.77179 39.271873 224.67804Q38.725 223.92804 37.865623 223.92804ZM47.225 223.41241L47.225 225.84991L46.975 225.84991Q46.678123 224.70929 46.209373 224.30304Q45.740623 223.88116 45.021873 223.88116Q44.475 223.88116 44.13125 224.17804Q43.803123 224.45929 43.803123 224.80304Q43.803123 225.24054 44.053123 225.55304Q44.303123 225.88116 45.0375 226.24054L46.178123 226.78741Q47.771873 227.56866 47.771873 228.83429Q47.771873 229.80304 47.021873 230.41241Q46.2875 231.00616 45.38125 231.00616Q44.725 231.00616 43.88125 230.77179Q43.615623 230.69366 43.459373 230.69366Q43.271873 230.69366 43.178123 230.89679L42.9125 230.89679L42.9125 228.33429L43.178123 228.33429Q43.396873 229.42804 44.00625 229.99054Q44.63125 230.53741 45.396873 230.53741Q45.928123 230.53741 46.271873 230.22491Q46.615623 229.91241 46.615623 229.45929Q46.615623 228.92804 46.225 228.56866Q45.85 228.19366 44.709373 227.63116Q43.584373 227.06866 43.240623 226.61554Q42.88125 226.16241 42.88125 225.49054Q42.88125 224.59991 43.490623 224.00616Q44.1 223.41241 45.053123 223.41241Q45.475 223.41241 46.084373 223.59991Q46.475 223.70929 46.615623 223.70929Q46.740623 223.70929 46.803123 223.66241Q46.88125 223.59991 46.975 223.41241L47.225 223.41241ZM53.225 223.41241L53.225 225.84991L52.975 225.84991Q52.678123 224.70929 52.209373 224.30304Q51.740623 223.88116 51.021873 223.88116Q50.475 223.88116 50.13125 224.17804Q49.803123 224.45929 49.803123 224.80304Q49.803123 225.24054 50.053123 225.55304Q50.303123 225.88116 51.0375 226.24054L52.178123 226.78741Q53.771873 227.56866 53.771873 228.83429Q53.771873 229.80304 53.021873 230.41241Q52.2875 231.00616 51.38125 231.00616Q50.725 231.00616 49.88125 230.77179Q49.615623 230.69366 49.459373 230.69366Q49.271873 230.69366 49.178123 230.89679L48.9125 230.89679L48.9125 228.33429L49.178123 228.33429Q49.396873 229.42804 50.00625 229.99054Q50.63125 230.53741 51.396873 230.53741Q51.928123 230.53741 52.271873 230.22491Q52.615623 229.91241 52.615623 229.45929Q52.615623 228.92804 52.225 228.56866Q51.85 228.19366 50.709373 227.63116Q49.584373 227.06866 49.240623 226.61554Q48.88125 226.16241 48.88125 225.49054Q48.88125 224.59991 49.490623 224.00616Q50.1 223.41241 51.053123 223.41241Q51.475 223.41241 52.084373 223.59991Q52.475 223.70929 52.615623 223.70929Q52.740623 223.70929 52.803123 223.66241Q52.88125 223.59991 52.975 223.41241L53.225 223.41241ZM58.240623 223.63116L61.6 223.63116L61.6 223.91241L61.38125 223.91241Q61.084373 223.91241 60.9125 224.06866Q60.75625 224.20929 60.75625 224.45929Q60.75625 224.74054 60.928123 225.11554L62.584373 229.06866L64.25625 224.95929Q64.44375 224.52179 64.44375 224.30304Q64.44375 224.19366 64.38125 224.11554Q64.2875 224.00616 64.14687 223.95929Q64.02187 223.91241 63.615623 223.91241L63.615623 223.63116L65.95937 223.63116L65.95937 223.91241Q65.55312 223.94366 65.39687 224.08429Q65.11562 224.31866 64.89687 224.86554L62.365623 231.00616L62.0375 231.00616L59.490623 224.95929Q59.31875 224.53741 59.1625 224.36554Q59.00625 224.17804 58.75625 224.05304Q58.63125 223.97491 58.240623 223.91241L58.240623 223.63116ZM70.6625 229.75616Q69.55312 230.59991 69.27187 230.74054Q68.85 230.94366 68.38125 230.94366Q67.63125 230.94366 67.14687 230.42804Q66.67812 229.91241 66.67812 229.08429Q66.67812 228.56866 66.9125 228.17804Q67.225 227.64679 68.02187 227.17804Q68.81875 226.70929 70.6625 226.03741L70.6625 225.75616Q70.6625 224.69366 70.31875 224.30304Q69.975 223.89679 69.33437 223.89679Q68.83437 223.89679 68.55312 224.16241Q68.25625 224.42804 68.25625 224.77179L68.27187 225.22491Q68.27187 225.58429 68.08437 225.78741Q67.89687 225.97491 67.6 225.97491Q67.31875 225.97491 67.13125 225.77179Q66.94375 225.56866 66.94375 225.20929Q66.94375 224.53741 67.63125 223.97491Q68.31875 223.41241 69.56875 223.41241Q70.52187 223.41241 71.13125 223.74054Q71.58437 223.97491 71.80312 224.49054Q71.94375 224.83429 71.94375 225.86554L71.94375 228.30304Q71.94375 229.31866 71.975 229.55304Q72.02187 229.78741 72.11562 229.86554Q72.20937 229.94366 72.31875 229.94366Q72.44375 229.94366 72.5375 229.88116Q72.70937 229.78741 73.17812 229.31866L73.17812 229.75616Q72.30312 230.92804 71.50625 230.92804Q71.11562 230.92804 70.88125 230.66241Q70.6625 230.39679 70.6625 229.75616ZM70.6625 229.24054L70.6625 226.52179Q69.475 226.99054 69.13125 227.17804Q68.52187 227.52179 68.25625 227.89679Q67.99062 228.27179 67.99062 228.72491Q67.99062 229.28741 68.31875 229.66241Q68.6625 230.02179 69.1 230.02179Q69.69375 230.02179 70.6625 229.24054ZM76.06875 219.67804L76.06875 229.16241Q76.06875 229.83429 76.1625 230.05304Q76.25625 230.27179 76.45937 230.39679Q76.6625 230.50616 77.225 230.50616L77.225 230.78741L73.70937 230.78741L73.70937 230.50616Q74.20937 230.50616 74.38125 230.41241Q74.56875 230.30304 74.6625 230.06866Q74.77187 229.83429 74.77187 229.16241L74.77187 222.66241Q74.77187 221.45929 74.70937 221.17804Q74.6625 220.89679 74.5375 220.80304Q74.4125 220.69366 74.225 220.69366Q74.02187 220.69366 73.70937 220.81866L73.58437 220.55304L75.70937 219.67804L76.06875 219.67804ZM79.42812 219.67804Q79.75625 219.67804 79.975 219.91241Q80.20937 220.13116 80.20937 220.45929Q80.20937 220.78741 79.975 221.02179Q79.75625 221.25616 79.42812 221.25616Q79.1 221.25616 78.86562 221.02179Q78.63125 220.78741 78.63125 220.45929Q78.63125 220.13116 78.85 219.91241Q79.08437 219.67804 79.42812 219.67804ZM80.06875 223.41241L80.06875 229.16241Q80.06875 229.83429 80.1625 230.06866Q80.27187 230.28741 80.45937 230.39679Q80.64687 230.50616 81.1625 230.50616L81.1625 230.78741L77.67812 230.78741L77.67812 230.50616Q78.20937 230.50616 78.38125 230.41241Q78.56875 230.30304 78.6625 230.06866Q78.77187 229.83429 78.77187 229.16241L78.77187 226.41241Q78.77187 225.24054 78.70937 224.89679Q78.64687 224.64679 78.52187 224.55304Q78.4125 224.45929 78.20937 224.45929Q77.99062 224.45929 77.67812 224.56866L77.56875 224.28741L79.725 223.41241L80.06875 223.41241ZM86.6625 229.97491Q86.13125 230.52179 85.63125 230.77179Q85.13125 231.00616 84.55312 231.00616Q83.38125 231.00616 82.50625 230.02179Q81.63125 229.03741 81.63125 227.50616Q81.63125 225.95929 82.6 224.69366Q83.56875 223.41241 85.1 223.41241Q86.0375 223.41241 86.6625 224.00616L86.6625 222.69366Q86.6625 221.45929 86.6 221.17804Q86.5375 220.89679 86.4125 220.80304Q86.2875 220.69366 86.1 220.69366Q85.89687 220.69366 85.56875 220.81866L85.45937 220.55304L87.6 219.67804L87.94375 219.67804L87.94375 227.94366Q87.94375 229.20929 88.00625 229.49054Q88.06875 229.75616 88.19375 229.86554Q88.31875 229.97491 88.49062 229.97491Q88.70937 229.97491 89.05312 229.84991L89.14687 230.11554L87.02187 231.00616L86.6625 231.00616L86.6625 229.97491ZM86.6625 229.42804L86.6625 225.74054Q86.61562 225.20929 86.38125 224.77179Q86.14687 224.33429 85.75625 224.11554Q85.36562 223.89679 85.00625 223.89679Q84.31875 223.89679 83.77187 224.50616Q83.06875 225.31866 83.06875 226.88116Q83.06875 228.45929 83.75625 229.30304Q84.44375 230.14679 85.2875 230.14679Q85.99062 230.14679 86.6625 229.42804ZM93.6625 229.75616Q92.55312 230.59991 92.27187 230.74054Q91.85 230.94366 91.38125 230.94366Q90.63125 230.94366 90.14687 230.42804Q89.67812 229.91241 89.67812 229.08429Q89.67812 228.56866 89.9125 228.17804Q90.225 227.64679 91.02187 227.17804Q91.81875 226.70929 93.6625 226.03741L93.6625 225.75616Q93.6625 224.69366 93.31875 224.30304Q92.975 223.89679 92.33437 223.89679Q91.83437 223.89679 91.55312 224.16241Q91.25625 224.42804 91.25625 224.77179L91.27187 225.22491Q91.27187 225.58429 91.08437 225.78741Q90.89687 225.97491 90.6 225.97491Q90.31875 225.97491 90.13125 225.77179Q89.94375 225.56866 89.94375 225.20929Q89.94375 224.53741 90.63125 223.97491Q91.31875 223.41241 92.56875 223.41241Q93.52187 223.41241 94.13125 223.74054Q94.58437 223.97491 94.80312 224.49054Q94.94375 224.83429 94.94375 225.86554L94.94375 228.30304Q94.94375 229.31866 94.975 229.55304Q95.02187 229.78741 95.11562 229.86554Q95.20937 229.94366 95.31875 229.94366Q95.44375 229.94366 95.5375 229.88116Q95.70937 229.78741 96.17812 229.31866L96.17812 229.75616Q95.30312 230.92804 94.50625 230.92804Q94.11562 230.92804 93.88125 230.66241Q93.6625 230.39679 93.6625 229.75616ZM93.6625 229.24054L93.6625 226.52179Q92.475 226.99054 92.13125 227.17804Q91.52187 227.52179 91.25625 227.89679Q90.99062 228.27179 90.99062 228.72491Q90.99062 229.28741 91.31875 229.66241Q91.6625 230.02179 92.1 230.02179Q92.69375 230.02179 93.6625 229.24054ZM98.67812 221.27179L98.67812 223.63116L100.35 223.63116L100.35 224.17804L98.67812 224.17804L98.67812 228.81866Q98.67812 229.50616 98.88125 229.75616Q99.08437 229.99054 99.39687 229.99054Q99.64687 229.99054 99.88125 229.83429Q100.13125 229.67804 100.27187 229.36554L100.56875 229.36554Q100.30312 230.13116 99.80312 230.52179Q99.30312 230.91241 98.77187 230.91241Q98.4125 230.91241 98.06875 230.70929Q97.725 230.50616 97.55312 230.13116Q97.39687 229.75616 97.39687 228.99054L97.39687 224.17804L96.25625 224.17804L96.25625 223.91241Q96.69375 223.74054 97.13125 223.33429Q97.58437 222.92804 97.94375 222.36554Q98.11562 222.06866 98.44375 221.27179L98.67812 221.27179ZM102.42812 219.67804Q102.75625 219.67804 102.975 219.91241Q103.20937 220.13116 103.20937 220.45929Q103.20937 220.78741 102.975 221.02179Q102.75625 221.25616 102.42812 221.25616Q102.1 221.25616 101.86562 221.02179Q101.63125 220.78741 101.63125 220.45929Q101.63125 220.13116 101.85 219.91241Q102.08437 219.67804 102.42812 219.67804ZM103.06875 223.41241L103.06875 229.16241Q103.06875 229.83429 103.1625 230.06866Q103.27187 230.28741 103.45937 230.39679Q103.64687 230.50616 104.1625 230.50616L104.1625 230.78741L100.67812 230.78741L100.67812 230.50616Q101.20937 230.50616 101.38125 230.41241Q101.56875 230.30304 101.6625 230.06866Q101.77187 229.83429 101.77187 229.16241L101.77187 226.41241Q101.77187 225.24054 101.70937 224.89679Q101.64687 224.64679 101.52187 224.55304Q101.4125 224.45929 101.20937 224.45929Q100.99062 224.45929 100.67812 224.56866L100.56875 224.28741L102.725 223.41241L103.06875 223.41241ZM108.1 223.41241Q109.725 223.41241 110.70937 224.64679Q111.55312 225.70929 111.55312 227.06866Q111.55312 228.03741 111.08437 229.02179Q110.63125 230.00616 109.81875 230.50616Q109.00625 231.00616 108.02187 231.00616Q106.39687 231.00616 105.44375 229.70929Q104.64687 228.63116 104.64687 227.27179Q104.64687 226.28741 105.13125 225.31866Q105.61562 224.34991 106.4125 223.88116Q107.20937 223.41241 108.1 223.41241ZM107.86562 223.92804Q107.44375 223.92804 107.02187 224.17804Q106.61562 224.41241 106.35 225.03741Q106.1 225.64679 106.1 226.61554Q106.1 228.17804 106.70937 229.31866Q107.33437 230.44366 108.35 230.44366Q109.11562 230.44366 109.6 229.81866Q110.1 229.19366 110.1 227.67804Q110.1 225.77179 109.27187 224.67804Q108.725 223.92804 107.86562 223.92804ZM114.69375 224.92804Q115.94375 223.41241 117.08437 223.41241Q117.67812 223.41241 118.1 223.70929Q118.52187 224.00616 118.77187 224.67804Q118.94375 225.14679 118.94375 226.11554L118.94375 229.16241Q118.94375 229.84991 119.05312 230.08429Q119.13125 230.28741 119.31875 230.39679Q119.52187 230.50616 120.0375 230.50616L120.0375 230.78741L116.49062 230.78741L116.49062 230.50616L116.64687 230.50616Q117.14687 230.50616 117.33437 230.34991Q117.5375 230.19366 117.61562 229.89679Q117.64687 229.78741 117.64687 229.16241L117.64687 226.24054Q117.64687 225.25616 117.39687 224.81866Q117.14687 224.38116 116.5375 224.38116Q115.61562 224.38116 114.69375 225.39679L114.69375 229.16241Q114.69375 229.89679 114.77187 230.06866Q114.88125 230.28741 115.06875 230.39679Q115.27187 230.50616 115.85 230.50616L115.85 230.78741L112.31875 230.78741L112.31875 230.50616L112.475 230.50616Q113.02187 230.50616 113.20937 230.22491Q113.39687 229.94366 113.39687 229.16241L113.39687 226.50616Q113.39687 225.22491 113.33437 224.94366Q113.2875 224.66241 113.1625 224.56866Q113.0375 224.45929 112.83437 224.45929Q112.61562 224.45929 112.31875 224.56866L112.19375 224.28741L114.35 223.41241L114.69375 223.41241L114.69375 224.92804Z" fill-rule="nonzero"/><path fill="#9e9e9e" d="M29.053125 243.19366L28.44375 244.52179L25.25625 244.52179L24.553125 245.94366Q26.63125 246.24054 27.834375 247.47491Q28.88125 248.53741 28.88125 249.97491Q28.88125 250.81866 28.5375 251.53741Q28.19375 252.24054 27.678125 252.74054Q27.1625 253.24054 26.5375 253.53741Q25.63125 253.97491 24.69375 253.97491Q23.740625 253.97491 23.303125 253.64679Q22.865625 253.31866 22.865625 252.92804Q22.865625 252.70929 23.0375 252.55304Q23.225 252.38116 23.50625 252.38116Q23.709375 252.38116 23.85 252.44366Q24.00625 252.50616 24.38125 252.75616Q24.959375 253.16241 25.56875 253.16241Q26.475 253.16241 27.1625 252.47491Q27.865625 251.78741 27.865625 250.78741Q27.865625 249.83429 27.240625 249.00616Q26.63125 248.16241 25.5375 247.70929Q24.69375 247.36554 23.225 247.30304L25.25625 243.19366L29.053125 243.19366ZM32.1 252.27179Q32.475 252.27179 32.725 252.52179Q32.975 252.77179 32.975 253.13116Q32.975 253.49054 32.709373 253.75616Q32.459373 254.00616 32.1 254.00616Q31.740625 254.00616 31.490625 253.75616Q31.240625 253.49054 31.240625 253.13116Q31.240625 252.77179 31.490625 252.52179Q31.740625 252.27179 32.1 252.27179ZM35.709373 243.19366L41.396873 243.19366L41.396873 243.49054L37.865623 254.00616L36.990623 254.00616L40.146873 244.45929L37.240623 244.45929Q36.35 244.45929 35.975 244.67804Q35.31875 245.03741 34.928123 245.78741L34.69375 245.69366L35.709373 243.19366ZM52.975 242.94366L45.25625 254.22491L44.56875 254.22491L52.2875 242.94366L52.975 242.94366ZM44.94375 242.94366Q46.00625 242.94366 46.584373 243.81866Q47.1625 244.69366 47.1625 245.83429Q47.1625 247.19366 46.50625 247.94366Q45.85 248.67804 44.928123 248.67804Q44.31875 248.67804 43.803123 248.33429Q43.2875 247.99054 42.975 247.31866Q42.6625 246.64679 42.6625 245.83429Q42.6625 245.00616 42.975 244.31866Q43.2875 243.63116 43.834373 243.28741Q44.38125 242.94366 44.94375 242.94366ZM44.928123 243.38116Q44.521873 243.38116 44.209373 243.84991Q43.9125 244.31866 43.9125 245.81866Q43.9125 246.91241 44.084373 247.47491Q44.209373 247.91241 44.490623 248.14679Q44.6625 248.28741 44.896873 248.28741Q45.271873 248.28741 45.5375 247.88116Q45.928123 247.27179 45.928123 245.86554Q45.928123 244.38116 45.553123 243.78741Q45.303123 243.38116 44.928123 243.38116ZM52.615623 248.52179Q53.178123 248.52179 53.725 248.88116Q54.271873 249.22491 54.56875 249.89679Q54.88125 250.56866 54.88125 251.38116Q54.88125 252.75616 54.209373 253.49054Q53.553123 254.22491 52.646873 254.22491Q52.06875 254.22491 51.5375 253.86554Q51.00625 253.52179 50.69375 252.86554Q50.38125 252.20929 50.38125 251.38116Q50.38125 250.55304 50.69375 249.88116Q51.00625 249.19366 51.5375 248.86554Q52.06875 248.52179 52.615623 248.52179ZM52.63125 248.94366Q52.25625 248.94366 51.975 249.36554Q51.63125 249.91241 51.63125 251.42804Q51.63125 252.83429 51.990623 253.38116Q52.25625 253.78741 52.63125 253.78741Q52.990623 253.78741 53.271873 253.34991Q53.646873 252.78741 53.646873 251.39679Q53.646873 249.92804 53.271873 249.33429Q53.00625 248.94366 52.63125 248.94366Z" fill-rule="nonzero"/><path stroke="#757575" stroke-width="1.0" stroke-linecap="butt" d="M22.1 237.28741L170.96666 237.28741L185.97113 237.28741" fill-rule="nonzero"/><path fill="#9e9e9e" d="M187.97113 237.28741C187.97113 236.18285 187.0757 235.28741 185.97113 235.28741C184.86656 235.28741 183.97113 236.18285 183.97113 237.28741C183.97113 238.39198 184.86656 239.28741 185.97113 239.28741C187.0757 239.28741 187.97113 238.39198 187.97113 237.28741" fill-rule="nonzero"/><path fill="#1a1a1a" d="M624.3219 73.22396Q623.66565 72.895836 623.3063 72.333336Q622.9625 71.75521 622.9625 71.052086Q622.9625 69.989586 623.7594 69.22396Q624.5563 68.458336 625.8063 68.458336Q626.8375 68.458336 627.5875 68.958336L629.10315 68.958336Q629.4313 68.958336 629.47815 68.989586Q629.54065 69.00521 629.5719 69.052086Q629.6188 69.114586 629.6188 69.302086Q629.6188 69.50521 629.5719 69.583336Q629.5563 69.614586 629.4938 69.645836Q629.4313 69.66146 629.10315 69.66146L628.16565 69.66146Q628.60315 70.22396 628.60315 71.09896Q628.60315 72.09896 627.8375 72.81771Q627.0719 73.520836 625.79065 73.520836Q625.2594 73.520836 624.6969 73.364586Q624.35315 73.66146 624.22815 73.895836Q624.1188 74.114586 624.1188 74.270836Q624.1188 74.395836 624.2438 74.520836Q624.3688 74.645836 624.7438 74.708336Q624.9625 74.739586 625.8375 74.75521Q627.4469 74.802086 627.9313 74.864586Q628.65 74.97396 629.0875 75.41146Q629.525 75.84896 629.525 76.489586Q629.525 77.38021 628.6969 78.145836Q627.47815 79.28646 625.5094 79.28646Q624.0094 79.28646 622.9625 78.614586Q622.3844 78.22396 622.3844 77.802086Q622.3844 77.614586 622.4625 77.427086Q622.60315 77.13021 623.0094 76.614586Q623.0719 76.552086 623.8063 75.770836Q623.4 75.520836 623.22815 75.333336Q623.0719 75.145836 623.0719 74.895836Q623.0719 74.63021 623.29065 74.270836Q623.5094 73.895836 624.3219 73.22396ZM625.6813 68.833336Q625.10315 68.833336 624.7125 69.302086Q624.3219 69.75521 624.3219 70.708336Q624.3219 71.94271 624.85315 72.63021Q625.2594 73.145836 625.8844 73.145836Q626.47815 73.145836 626.85315 72.708336Q627.2438 72.25521 627.2438 71.302086Q627.2438 70.052086 626.6969 69.34896Q626.3063 68.833336 625.6813 68.833336ZM624.2438 75.833336Q623.8688 76.239586 623.6813 76.583336Q623.4938 76.927086 623.4938 77.208336Q623.4938 77.583336 623.9469 77.864586Q624.72815 78.34896 626.2125 78.34896Q627.6188 78.34896 628.275 77.84896Q628.9469 77.364586 628.9469 76.802086Q628.9469 76.395836 628.5563 76.22396Q628.15 76.052086 626.9469 76.020836Q625.1813 75.97396 624.2438 75.833336ZM632.4938 68.458336L632.4938 70.06771Q633.4 68.458336 634.3375 68.458336Q634.775 68.458336 635.0563 68.72396Q635.3375 68.989586 635.3375 69.333336Q635.3375 69.63021 635.1344 69.84896Q634.9313 70.052086 634.65 70.052086Q634.3688 70.052086 634.025 69.78646Q633.6969 69.520836 633.525 69.520836Q633.3844 69.520836 633.22815 69.677086Q632.8688 69.989586 632.4938 70.72396L632.4938 74.16146Q632.4938 74.75521 632.65 75.052086Q632.7438 75.270836 632.9938 75.41146Q633.2594 75.552086 633.7438 75.552086L633.7438 75.833336L630.0875 75.833336L630.0875 75.552086Q630.6344 75.552086 630.9 75.38021Q631.0875 75.25521 631.16565 74.97396Q631.2125 74.84896 631.2125 74.22396L631.2125 71.44271Q631.2125 70.19271 631.15 69.958336Q631.10315 69.72396 630.9625 69.614586Q630.8375 69.50521 630.6344 69.50521Q630.3844 69.50521 630.0875 69.614586L630.0094 69.333336L632.16565 68.458336L632.4938 68.458336ZM637.22815 64.72396Q637.5563 64.72396 637.775 64.958336Q638.0094 65.177086 638.0094 65.50521Q638.0094 65.833336 637.775 66.06771Q637.5563 66.302086 637.22815 66.302086Q636.9 66.302086 636.66565 66.06771Q636.4313 65.833336 636.4313 65.50521Q636.4313 65.177086 636.65 64.958336Q636.8844 64.72396 637.22815 64.72396ZM637.8688 68.458336L637.8688 74.208336Q637.8688 74.88021 637.9625 75.114586Q638.0719 75.333336 638.2594 75.44271Q638.4469 75.552086 638.9625 75.552086L638.9625 75.833336L635.47815 75.833336L635.47815 75.552086Q636.0094 75.552086 636.1813 75.458336Q636.3688 75.34896 636.4625 75.114586Q636.5719 74.88021 636.5719 74.208336L636.5719 71.458336Q636.5719 70.28646 636.5094 69.94271Q636.4469 69.69271 636.3219 69.59896Q636.2125 69.50521 636.0094 69.50521Q635.79065 69.50521 635.47815 69.614586L635.3688 69.333336L637.525 68.458336L637.8688 68.458336ZM644.4625 75.020836Q643.9313 75.56771 643.4313 75.81771Q642.9313 76.052086 642.35315 76.052086Q641.1813 76.052086 640.3063 75.06771Q639.4313 74.083336 639.4313 72.552086Q639.4313 71.00521 640.4 69.739586Q641.3688 68.458336 642.9 68.458336Q643.8375 68.458336 644.4625 69.052086L644.4625 67.739586Q644.4625 66.50521 644.4 66.22396Q644.3375 65.94271 644.2125 65.84896Q644.0875 65.739586 643.9 65.739586Q643.6969 65.739586 643.3688 65.864586L643.2594 65.59896L645.4 64.72396L645.7438 64.72396L645.7438 72.989586Q645.7438 74.25521 645.8063 74.53646Q645.8688 74.802086 645.9938 74.91146Q646.1188 75.020836 646.29065 75.020836Q646.5094 75.020836 646.85315 74.895836L646.9469 75.16146L644.8219 76.052086L644.4625 76.052086L644.4625 75.020836ZM644.4625 74.47396L644.4625 70.78646Q644.41565 70.25521 644.1813 69.81771Q643.9469 69.38021 643.5563 69.16146Q643.16565 68.94271 642.8063 68.94271Q642.1188 68.94271 641.5719 69.552086Q640.8688 70.364586 640.8688 71.927086Q640.8688 73.50521 641.5563 74.34896Q642.2438 75.19271 643.0875 75.19271Q643.79065 75.19271 644.4625 74.47396ZM656.025 68.458336L656.025 70.895836L655.775 70.895836Q655.47815 69.75521 655.0094 69.34896Q654.54065 68.927086 653.8219 68.927086Q653.275 68.927086 652.9313 69.22396Q652.60315 69.50521 652.60315 69.84896Q652.60315 70.28646 652.85315 70.59896Q653.10315 70.927086 653.8375 71.28646L654.97815 71.833336Q656.5719 72.614586 656.5719 73.88021Q656.5719 74.84896 655.8219 75.458336Q655.0875 76.052086 654.1813 76.052086Q653.525 76.052086 652.6813 75.81771Q652.41565 75.739586 652.2594 75.739586Q652.0719 75.739586 651.97815 75.94271L651.7125 75.94271L651.7125 73.38021L651.97815 73.38021Q652.1969 74.47396 652.8063 75.03646Q653.4313 75.583336 654.1969 75.583336Q654.72815 75.583336 655.0719 75.270836Q655.41565 74.958336 655.41565 74.50521Q655.41565 73.97396 655.025 73.614586Q654.65 73.239586 653.5094 72.677086Q652.3844 72.114586 652.04065 71.66146Q651.6813 71.208336 651.6813 70.53646Q651.6813 69.645836 652.29065 69.052086Q652.9 68.458336 653.85315 68.458336Q654.275 68.458336 654.8844 68.645836Q655.275 68.75521 655.41565 68.75521Q655.54065 68.75521 655.60315 68.708336Q655.6813 68.645836 655.775 68.458336L656.025 68.458336ZM658.60315 71.364586Q658.60315 72.958336 659.3844 73.864586Q660.16565 74.770836 661.2125 74.770836Q661.91565 74.770836 662.4313 74.395836Q662.9625 74.00521 663.3063 73.06771L663.5563 73.22396Q663.3844 74.28646 662.5875 75.177086Q661.8063 76.052086 660.6188 76.052086Q659.3375 76.052086 658.41565 75.052086Q657.4938 74.03646 657.4938 72.34896Q657.4938 70.50521 658.4313 69.489586Q659.3844 68.458336 660.8063 68.458336Q662.0094 68.458336 662.775 69.25521Q663.5563 70.03646 663.5563 71.364586L658.60315 71.364586ZM658.60315 70.91146L661.91565 70.91146Q661.8844 70.22396 661.7594 69.94271Q661.5563 69.50521 661.16565 69.25521Q660.79065 69.00521 660.3688 69.00521Q659.7125 69.00521 659.1969 69.520836Q658.6969 70.020836 658.60315 70.91146ZM668.4625 74.802086Q667.35315 75.645836 667.0719 75.78646Q666.65 75.989586 666.1813 75.989586Q665.4313 75.989586 664.9469 75.47396Q664.47815 74.958336 664.47815 74.13021Q664.47815 73.614586 664.7125 73.22396Q665.025 72.69271 665.8219 72.22396Q666.6188 71.75521 668.4625 71.083336L668.4625 70.802086Q668.4625 69.739586 668.1188 69.34896Q667.775 68.94271 667.1344 68.94271Q666.6344 68.94271 666.35315 69.208336Q666.0563 69.47396 666.0563 69.81771L666.0719 70.270836Q666.0719 70.63021 665.8844 70.833336Q665.6969 71.020836 665.4 71.020836Q665.1188 71.020836 664.9313 70.81771Q664.7438 70.614586 664.7438 70.25521Q664.7438 69.583336 665.4313 69.020836Q666.1188 68.458336 667.3688 68.458336Q668.3219 68.458336 668.9313 68.78646Q669.3844 69.020836 669.60315 69.53646Q669.7438 69.88021 669.7438 70.91146L669.7438 73.34896Q669.7438 74.364586 669.775 74.59896Q669.8219 74.833336 669.91565 74.91146Q670.0094 74.989586 670.1188 74.989586Q670.2438 74.989586 670.3375 74.927086Q670.5094 74.833336 670.97815 74.364586L670.97815 74.802086Q670.10315 75.97396 669.3063 75.97396Q668.91565 75.97396 668.6813 75.708336Q668.4625 75.44271 668.4625 74.802086ZM668.4625 74.28646L668.4625 71.56771Q667.275 72.03646 666.9313 72.22396Q666.3219 72.56771 666.0563 72.94271Q665.79065 73.31771 665.79065 73.770836Q665.79065 74.333336 666.1188 74.708336Q666.4625 75.06771 666.9 75.06771Q667.4938 75.06771 668.4625 74.28646ZM673.4938 68.458336L673.4938 70.06771Q674.4 68.458336 675.3375 68.458336Q675.775 68.458336 676.0563 68.72396Q676.3375 68.989586 676.3375 69.333336Q676.3375 69.63021 676.1344 69.84896Q675.9313 70.052086 675.65 70.052086Q675.3688 70.052086 675.025 69.78646Q674.6969 69.520836 674.525 69.520836Q674.3844 69.520836 674.22815 69.677086Q673.8688 69.989586 673.4938 70.72396L673.4938 74.16146Q673.4938 74.75521 673.65 75.052086Q673.7438 75.270836 673.9938 75.41146Q674.2594 75.552086 674.7438 75.552086L674.7438 75.833336L671.0875 75.833336L671.0875 75.552086Q671.6344 75.552086 671.9 75.38021Q672.0875 75.25521 672.16565 74.97396Q672.2125 74.84896 672.2125 74.22396L672.2125 71.44271Q672.2125 70.19271 672.15 69.958336Q672.10315 69.72396 671.9625 69.614586Q671.8375 69.50521 671.6344 69.50521Q671.3844 69.50521 671.0875 69.614586L671.0094 69.333336L673.16565 68.458336L673.4938 68.458336ZM682.47815 73.114586Q682.1969 74.520836 681.35315 75.28646Q680.5094 76.052086 679.47815 76.052086Q678.2594 76.052086 677.35315 75.03646Q676.4469 74.00521 676.4469 72.25521Q676.4469 70.56771 677.4469 69.520836Q678.4625 68.458336 679.8688 68.458336Q680.91565 68.458336 681.5875 69.020836Q682.275 69.583336 682.275 70.177086Q682.275 70.47396 682.0875 70.66146Q681.9 70.84896 681.5563 70.84896Q681.0875 70.84896 680.85315 70.552086Q680.72815 70.38021 680.6813 69.927086Q680.6344 69.458336 680.3688 69.22396Q680.0875 68.989586 679.60315 68.989586Q678.8219 68.989586 678.35315 69.56771Q677.7125 70.333336 677.7125 71.583336Q677.7125 72.864586 678.3375 73.84896Q678.97815 74.833336 680.04065 74.833336Q680.8063 74.833336 681.41565 74.302086Q681.85315 73.94271 682.2594 73.00521L682.47815 73.114586ZM685.5094 64.72396L685.5094 69.958336Q686.3688 69.00521 686.8688 68.739586Q687.3844 68.458336 687.9 68.458336Q688.5094 68.458336 688.9469 68.802086Q689.3844 69.13021 689.5875 69.84896Q689.7438 70.34896 689.7438 71.677086L689.7438 74.208336Q689.7438 74.895836 689.85315 75.145836Q689.9313 75.333336 690.1188 75.44271Q690.3063 75.552086 690.8063 75.552086L690.8063 75.833336L687.29065 75.833336L687.29065 75.552086L687.4469 75.552086Q687.9469 75.552086 688.1344 75.395836Q688.3375 75.239586 688.41565 74.94271Q688.4469 74.81771 688.4469 74.208336L688.4469 71.677086Q688.4469 70.50521 688.3219 70.145836Q688.1969 69.770836 687.9313 69.59896Q687.66565 69.41146 687.29065 69.41146Q686.91565 69.41146 686.4938 69.614586Q686.0875 69.81771 685.5094 70.427086L685.5094 74.208336Q685.5094 74.94271 685.5875 75.13021Q685.66565 75.302086 685.8844 75.427086Q686.1188 75.552086 686.66565 75.552086L686.66565 75.833336L683.1188 75.833336L683.1188 75.552086Q683.5875 75.552086 683.8688 75.395836Q684.025 75.31771 684.1188 75.09896Q684.2125 74.88021 684.2125 74.208336L684.2125 67.739586Q684.2125 66.50521 684.15 66.22396Q684.0875 65.94271 683.9625 65.84896Q683.85315 65.739586 683.65 65.739586Q683.47815 65.739586 683.1188 65.864586L683.0094 65.59896L685.15 64.72396L685.5094 64.72396Z" fill-rule="nonzero"/><path fill="#9e9e9e" d="M660.97815 93.489586Q659.7125 92.458336 659.35315 91.833336Q658.9938 91.208336 658.9938 90.53646Q658.9938 89.50521 659.79065 88.770836Q660.5875 88.020836 661.9 88.020836Q663.1813 88.020836 663.9625 88.72396Q664.7438 89.41146 664.7438 90.302086Q664.7438 90.895836 664.3219 91.520836Q663.9 92.13021 662.5719 92.958336Q663.9469 94.020836 664.3844 94.63021Q664.97815 95.427086 664.97815 96.31771Q664.97815 97.427086 664.1188 98.22396Q663.275 99.020836 661.9 99.020836Q660.3844 99.020836 659.54065 98.06771Q658.8688 97.31771 658.8688 96.41146Q658.8688 95.708336 659.3375 95.020836Q659.8219 94.333336 660.97815 93.489586ZM662.1969 92.66146Q663.1344 91.81771 663.3844 91.333336Q663.6344 90.833336 663.6344 90.22396Q663.6344 89.395836 663.16565 88.94271Q662.7125 88.47396 661.91565 88.47396Q661.1188 88.47396 660.6188 88.94271Q660.1188 89.395836 660.1188 90.00521Q660.1188 90.41146 660.3219 90.81771Q660.54065 91.22396 660.91565 91.59896L662.1969 92.66146ZM661.3375 93.78646Q660.6969 94.333336 660.3844 94.989586Q660.0719 95.63021 660.0719 96.38021Q660.0719 97.38021 660.6188 97.989586Q661.16565 98.59896 662.025 98.59896Q662.8688 98.59896 663.3688 98.13021Q663.8844 97.645836 663.8844 96.958336Q663.8844 96.395836 663.5875 95.958336Q663.025 95.13021 661.3375 93.78646ZM667.9 97.31771Q668.275 97.31771 668.525 97.56771Q668.775 97.81771 668.775 98.177086Q668.775 98.53646 668.5094 98.802086Q668.2594 99.052086 667.9 99.052086Q667.54065 99.052086 667.29065 98.802086Q667.04065 98.53646 667.04065 98.177086Q667.04065 97.81771 667.29065 97.56771Q667.54065 97.31771 667.9 97.31771ZM670.47815 93.59896Q670.47815 91.78646 671.025 90.47396Q671.5719 89.16146 672.47815 88.520836Q673.1813 88.020836 673.9313 88.020836Q675.15 88.020836 676.1188 89.25521Q677.3375 90.802086 677.3375 93.427086Q677.3375 95.270836 676.8063 96.56771Q676.275 97.84896 675.4469 98.44271Q674.6188 99.020836 673.85315 99.020836Q672.3375 99.020836 671.3375 97.22396Q670.47815 95.72396 670.47815 93.59896ZM672.0094 93.78646Q672.0094 95.97396 672.5563 97.364586Q672.9938 98.520836 673.8844 98.520836Q674.3063 98.520836 674.7594 98.145836Q675.2125 97.770836 675.4469 96.88021Q675.8063 95.53646 675.8063 93.083336Q675.8063 91.270836 675.4313 90.06771Q675.15 89.16146 674.6969 88.78646Q674.3844 88.53646 673.9313 88.53646Q673.4 88.53646 672.97815 89.00521Q672.41565 89.66146 672.2125 91.052086Q672.0094 92.44271 672.0094 93.78646ZM688.775 87.989586L681.0563 99.270836L680.3688 99.270836L688.0875 87.989586L688.775 87.989586ZM680.7438 87.989586Q681.8063 87.989586 682.3844 88.864586Q682.9625 89.739586 682.9625 90.88021Q682.9625 92.239586 682.3063 92.989586Q681.65 93.72396 680.72815 93.72396Q680.1188 93.72396 679.60315 93.38021Q679.0875 93.03646 678.775 92.364586Q678.4625 91.69271 678.4625 90.88021Q678.4625 90.052086 678.775 89.364586Q679.0875 88.677086 679.6344 88.333336Q680.1813 87.989586 680.7438 87.989586ZM680.72815 88.427086Q680.3219 88.427086 680.0094 88.895836Q679.7125 89.364586 679.7125 90.864586Q679.7125 91.958336 679.8844 92.520836Q680.0094 92.958336 680.29065 93.19271Q680.4625 93.333336 680.6969 93.333336Q681.0719 93.333336 681.3375 92.927086Q681.72815 92.31771 681.72815 90.91146Q681.72815 89.427086 681.35315 88.833336Q681.10315 88.427086 680.72815 88.427086ZM688.41565 93.56771Q688.97815 93.56771 689.525 93.927086Q690.0719 94.270836 690.3688 94.94271Q690.6813 95.614586 690.6813 96.427086Q690.6813 97.802086 690.0094 98.53646Q689.35315 99.270836 688.4469 99.270836Q687.8688 99.270836 687.3375 98.91146Q686.8063 98.56771 686.4938 97.91146Q686.1813 97.25521 686.1813 96.427086Q686.1813 95.59896 686.4938 94.927086Q686.8063 94.239586 687.3375 93.91146Q687.8688 93.56771 688.41565 93.56771ZM688.4313 93.989586Q688.0563 93.989586 687.775 94.41146Q687.4313 94.958336 687.4313 96.47396Q687.4313 97.88021 687.79065 98.427086Q688.0563 98.833336 688.4313 98.833336Q688.79065 98.833336 689.0719 98.395836Q689.4469 97.833336 689.4469 96.44271Q689.4469 94.97396 689.0719 94.38021Q688.8063 93.989586 688.4313 93.989586Z" fill-rule="nonzero"/><path stroke="#757575" stroke-width="1.0" stroke-linecap="butt" d="M690.9 82.333336L542.0333 82.333336L399.1543 75.22979" fill-rule="nonzero"/><path fill="#9e9e9e" d="M401.1543 75.22979C401.1543 74.12522 400.25885 73.22979 399.1543 73.22979C398.0497 73.22979 397.1543 74.12522 397.1543 75.22979C397.1543 76.33436 398.0497 77.22979 399.1543 77.22979C400.25885 77.22979 401.1543 76.33436 401.1543 75.22979" fill-rule="nonzero"/><path fill="#1a1a1a" d="M662.4938 367.42413Q663.7438 365.9085 664.8844 365.9085Q665.47815 365.9085 665.9 366.20538Q666.3219 366.50226 666.5719 367.17413Q666.7438 367.64288 666.7438 368.61163L666.7438 371.6585Q666.7438 372.346 666.85315 372.58038Q666.9313 372.7835 667.1188 372.89288Q667.3219 373.00226 667.8375 373.00226L667.8375 373.2835L664.29065 373.2835L664.29065 373.00226L664.4469 373.00226Q664.9469 373.00226 665.1344 372.846Q665.3375 372.68976 665.41565 372.39288Q665.4469 372.2835 665.4469 371.6585L665.4469 368.73663Q665.4469 367.75226 665.1969 367.31476Q664.9469 366.87726 664.3375 366.87726Q663.41565 366.87726 662.4938 367.89288L662.4938 371.6585Q662.4938 372.39288 662.5719 372.56476Q662.6813 372.7835 662.8688 372.89288Q663.0719 373.00226 663.65 373.00226L663.65 373.2835L660.1188 373.2835L660.1188 373.00226L660.275 373.00226Q660.8219 373.00226 661.0094 372.721Q661.1969 372.43976 661.1969 371.6585L661.1969 369.00226Q661.1969 367.721 661.1344 367.43976Q661.0875 367.1585 660.9625 367.06476Q660.8375 366.95538 660.6344 366.95538Q660.41565 366.95538 660.1188 367.06476L659.9938 366.7835L662.15 365.9085L662.4938 365.9085L662.4938 367.42413ZM671.9 365.9085Q673.525 365.9085 674.5094 367.14288Q675.35315 368.20538 675.35315 369.56476Q675.35315 370.5335 674.8844 371.51788Q674.4313 372.50226 673.6188 373.00226Q672.8063 373.50226 671.8219 373.50226Q670.1969 373.50226 669.2438 372.20538Q668.4469 371.12726 668.4469 369.76788Q668.4469 368.7835 668.9313 367.81476Q669.41565 366.846 670.2125 366.37726Q671.0094 365.9085 671.9 365.9085ZM671.66565 366.42413Q671.2438 366.42413 670.8219 366.67413Q670.41565 366.9085 670.15 367.5335Q669.9 368.14288 669.9 369.11163Q669.9 370.67413 670.5094 371.81476Q671.1344 372.93976 672.15 372.93976Q672.91565 372.93976 673.4 372.31476Q673.9 371.68976 673.9 370.17413Q673.9 368.26788 673.0719 367.17413Q672.525 366.42413 671.66565 366.42413ZM678.4938 367.42413Q679.7438 365.9085 680.8844 365.9085Q681.47815 365.9085 681.9 366.20538Q682.3219 366.50226 682.5719 367.17413Q682.7438 367.64288 682.7438 368.61163L682.7438 371.6585Q682.7438 372.346 682.85315 372.58038Q682.9313 372.7835 683.1188 372.89288Q683.3219 373.00226 683.8375 373.00226L683.8375 373.2835L680.29065 373.2835L680.29065 373.00226L680.4469 373.00226Q680.9469 373.00226 681.1344 372.846Q681.3375 372.68976 681.41565 372.39288Q681.4469 372.2835 681.4469 371.6585L681.4469 368.73663Q681.4469 367.75226 681.1969 367.31476Q680.9469 366.87726 680.3375 366.87726Q679.41565 366.87726 678.4938 367.89288L678.4938 371.6585Q678.4938 372.39288 678.5719 372.56476Q678.6813 372.7835 678.8688 372.89288Q679.0719 373.00226 679.65 373.00226L679.65 373.2835L676.1188 373.2835L676.1188 373.00226L676.275 373.00226Q676.8219 373.00226 677.0094 372.721Q677.1969 372.43976 677.1969 371.6585L677.1969 369.00226Q677.1969 367.721 677.1344 367.43976Q677.0875 367.1585 676.9625 367.06476Q676.8375 366.95538 676.6344 366.95538Q676.41565 366.95538 676.1188 367.06476L675.9938 366.7835L678.15 365.9085L678.4938 365.9085L678.4938 367.42413ZM685.60315 368.81476Q685.60315 370.4085 686.3844 371.31476Q687.16565 372.221 688.2125 372.221Q688.91565 372.221 689.4313 371.846Q689.9625 371.45538 690.3063 370.51788L690.5563 370.67413Q690.3844 371.73663 689.5875 372.62726Q688.8063 373.50226 687.6188 373.50226Q686.3375 373.50226 685.41565 372.50226Q684.4938 371.48663 684.4938 369.79913Q684.4938 367.95538 685.4313 366.93976Q686.3844 365.9085 687.8063 365.9085Q689.0094 365.9085 689.775 366.70538Q690.5563 367.48663 690.5563 368.81476L685.60315 368.81476ZM685.60315 368.36163L688.91565 368.36163Q688.8844 367.67413 688.7594 367.39288Q688.5563 366.95538 688.16565 366.70538Q687.79065 366.45538 687.3688 366.45538Q686.7125 366.45538 686.1969 366.971Q685.6969 367.471 685.60315 368.36163Z" fill-rule="nonzero"/><path fill="#9e9e9e" d="M657.0719 385.471L657.0719 385.75226Q656.04065 385.86163 655.3844 386.17413Q654.7438 386.471 654.10315 387.11163Q653.4625 387.73663 653.04065 388.51788Q652.6344 389.29913 652.35315 390.36163Q653.47815 389.596 654.60315 389.596Q655.6969 389.596 656.4938 390.471Q657.29065 391.346 657.29065 392.721Q657.29065 394.04913 656.47815 395.14288Q655.5094 396.471 653.91565 396.471Q652.8375 396.471 652.0719 395.75226Q650.5875 394.346 650.5875 392.12726Q650.5875 390.70538 651.15 389.42413Q651.72815 388.14288 652.79065 387.1585Q653.85315 386.1585 654.8219 385.81476Q655.79065 385.471 656.6188 385.471L657.0719 385.471ZM652.2125 390.93976Q652.0719 391.98663 652.0719 392.64288Q652.0719 393.39288 652.35315 394.26788Q652.6344 395.14288 653.1813 395.6585Q653.5719 396.0335 654.15 396.0335Q654.8219 396.0335 655.35315 395.39288Q655.9 394.75226 655.9 393.56476Q655.9 392.221 655.3688 391.25226Q654.8375 390.26788 653.85315 390.26788Q653.5563 390.26788 653.2125 390.39288Q652.8844 390.51788 652.2125 390.93976ZM665.35315 392.37726L665.35315 393.48663L663.9313 393.48663L663.9313 396.2835L662.6344 396.2835L662.6344 393.48663L658.15 393.48663L658.15 392.48663L663.0719 385.471L663.9313 385.471L663.9313 392.37726L665.35315 392.37726ZM662.6344 392.37726L662.6344 387.11163L658.91565 392.37726L662.6344 392.37726ZM667.9 394.76788Q668.275 394.76788 668.525 395.01788Q668.775 395.26788 668.775 395.62726Q668.775 395.98663 668.5094 396.25226Q668.2594 396.50226 667.9 396.50226Q667.54065 396.50226 667.29065 396.25226Q667.04065 395.98663 667.04065 395.62726Q667.04065 395.26788 667.29065 395.01788Q667.54065 394.76788 667.9 394.76788ZM677.35315 392.37726L677.35315 393.48663L675.9313 393.48663L675.9313 396.2835L674.6344 396.2835L674.6344 393.48663L670.15 393.48663L670.15 392.48663L675.0719 385.471L675.9313 385.471L675.9313 392.37726L677.35315 392.37726ZM674.6344 392.37726L674.6344 387.11163L670.91565 392.37726L674.6344 392.37726ZM688.775 385.43976L681.0563 396.721L680.3688 396.721L688.0875 385.43976L688.775 385.43976ZM680.7438 385.43976Q681.8063 385.43976 682.3844 386.31476Q682.9625 387.18976 682.9625 388.33038Q682.9625 389.68976 682.3063 390.43976Q681.65 391.17413 680.72815 391.17413Q680.1188 391.17413 679.60315 390.83038Q679.0875 390.48663 678.775 389.81476Q678.4625 389.14288 678.4625 388.33038Q678.4625 387.50226 678.775 386.81476Q679.0875 386.12726 679.6344 385.7835Q680.1813 385.43976 680.7438 385.43976ZM680.72815 385.87726Q680.3219 385.87726 680.0094 386.346Q679.7125 386.81476 679.7125 388.31476Q679.7125 389.4085 679.8844 389.971Q680.0094 390.4085 680.29065 390.64288Q680.4625 390.7835 680.6969 390.7835Q681.0719 390.7835 681.3375 390.37726Q681.72815 389.76788 681.72815 388.36163Q681.72815 386.87726 681.35315 386.2835Q681.10315 385.87726 680.72815 385.87726ZM688.41565 391.01788Q688.97815 391.01788 689.525 391.37726Q690.0719 391.721 690.3688 392.39288Q690.6813 393.06476 690.6813 393.87726Q690.6813 395.25226 690.0094 395.98663Q689.35315 396.721 688.4469 396.721Q687.8688 396.721 687.3375 396.36163Q686.8063 396.01788 686.4938 395.36163Q686.1813 394.70538 686.1813 393.87726Q686.1813 393.04913 686.4938 392.37726Q686.8063 391.68976 687.3375 391.36163Q687.8688 391.01788 688.41565 391.01788ZM688.4313 391.43976Q688.0563 391.43976 687.775 391.86163Q687.4313 392.4085 687.4313 393.92413Q687.4313 395.33038 687.79065 395.87726Q688.0563 396.2835 688.4313 396.2835Q688.79065 396.2835 689.0719 395.846Q689.4469 395.2835 689.4469 393.89288Q689.4469 392.42413 689.0719 391.83038Q688.8063 391.43976 688.4313 391.43976Z" fill-rule="nonzero"/><path stroke="#757575" stroke-width="1.0" stroke-linecap="butt" d="M690.9 379.7835L542.0333 379.7835L454.74725 379.7835" fill-rule="nonzero"/><path fill="#9e9e9e" d="M456.74725 379.7835C456.74725 378.67892 455.85184 377.7835 454.74725 377.7835C453.6427 377.7835 452.74725 378.67892 452.74725 379.7835C452.74725 380.88806 453.6427 381.7835 454.74725 381.7835C455.85184 381.7835 456.74725 380.88806 456.74725 379.7835" fill-rule="nonzero"/><path fill="#757575" d="M23.709375 41.1L23.709375 26.787498L25.6 26.787498L25.6 32.6625L33.0375 32.6625L33.0375 26.787498L34.928123 26.787498L34.928123 41.1L33.0375 41.1L33.0375 34.35L25.6 34.35L25.6 41.1L23.709375 41.1ZM37.334373 45.1L37.146873 43.44375Q37.725 43.6 38.146873 43.6Q38.740623 43.6 39.084373 43.396873Q39.44375 43.209373 39.6625 42.865623Q39.834373 42.6 40.209373 41.553123Q40.25625 41.396873 40.365623 41.115623L36.428123 30.724998L38.31875 30.724998L40.475 36.740623Q40.896873 37.88125 41.225 39.13125Q41.5375 37.928123 41.94375 36.771873L44.1625 30.724998L45.928123 30.724998L41.975 41.271873Q41.35 42.990623 40.990623 43.63125Q40.521873 44.50625 39.9125 44.896873Q39.31875 45.303123 38.475 45.303123Q37.959373 45.303123 37.334373 45.1ZM47.4125 45.06875L47.4125 30.724998L49.021873 30.724998L49.021873 32.06875Q49.584373 31.287498 50.2875 30.896873Q51.00625 30.490623 52.021873 30.490623Q53.35 30.490623 54.365623 31.178123Q55.38125 31.865623 55.896873 33.115623Q56.428123 34.35 56.428123 35.834373Q56.428123 37.428123 55.85 38.709373Q55.2875 39.975 54.19375 40.6625Q53.1 41.334373 51.896873 41.334373Q51.021873 41.334373 50.31875 40.959373Q49.63125 40.584373 49.178123 40.021873L49.178123 45.06875L47.4125 45.06875ZM49.00625 35.975Q49.00625 37.975 49.81875 38.928123Q50.63125 39.88125 51.7875 39.88125Q52.959373 39.88125 53.7875 38.896873Q54.63125 37.9125 54.63125 35.81875Q54.63125 33.85 53.803123 32.865623Q52.990623 31.865623 51.865623 31.865623Q50.740623 31.865623 49.865623 32.928123Q49.00625 33.975 49.00625 35.975ZM65.52187 37.75625L67.33437 37.990623Q66.9125 39.56875 65.74062 40.459373Q64.58437 41.334373 62.771873 41.334373Q60.50625 41.334373 59.1625 39.94375Q57.834373 38.5375 57.834373 36.00625Q57.834373 33.38125 59.178123 31.943748Q60.521873 30.490623 62.678123 30.490623Q64.75625 30.490623 66.06875 31.912498Q67.39687 33.31875 67.39687 35.896873Q67.39687 36.053123 67.38125 36.365623L59.646873 36.365623Q59.740623 38.06875 60.615623 38.975Q61.490623 39.88125 62.7875 39.88125Q63.75625 39.88125 64.42812 39.38125Q65.11562 38.865623 65.52187 37.75625ZM59.740623 34.9125L65.5375 34.9125Q65.42812 33.615623 64.88125 32.959373Q64.0375 31.943748 62.69375 31.943748Q61.490623 31.943748 60.6625 32.75625Q59.834373 33.553123 59.740623 34.9125ZM69.39687 41.1L69.39687 30.724998L70.975 30.724998L70.975 32.303123Q71.58437 31.193748 72.1 30.849998Q72.61562 30.490623 73.225 30.490623Q74.11562 30.490623 75.0375 31.053123L74.42812 32.69375Q73.7875 32.303123 73.14687 32.303123Q72.56875 32.303123 72.1 32.6625Q71.64687 33.00625 71.44375 33.615623Q71.1625 34.553123 71.1625 35.6625L71.1625 41.1L69.39687 41.1ZM76.4125 45.06875L76.4125 30.724998L78.02187 30.724998L78.02187 32.06875Q78.58437 31.287498 79.2875 30.896873Q80.00625 30.490623 81.02187 30.490623Q82.35 30.490623 83.36562 31.178123Q84.38125 31.865623 84.89687 33.115623Q85.42812 34.35 85.42812 35.834373Q85.42812 37.428123 84.85 38.709373Q84.2875 39.975 83.19375 40.6625Q82.1 41.334373 80.89687 41.334373Q80.02187 41.334373 79.31875 40.959373Q78.63125 40.584373 78.17812 40.021873L78.17812 45.06875L76.4125 45.06875ZM78.00625 35.975Q78.00625 37.975 78.81875 38.928123Q79.63125 39.88125 80.7875 39.88125Q81.95937 39.88125 82.7875 38.896873Q83.63125 37.9125 83.63125 35.81875Q83.63125 33.85 82.80312 32.865623Q81.99062 31.865623 80.86562 31.865623Q79.74062 31.865623 78.86562 32.928123Q78.00625 33.975 78.00625 35.975ZM94.19375 39.81875Q93.20937 40.646873 92.30312 40.990623Q91.39687 41.334373 90.36562 41.334373Q88.6625 41.334373 87.74062 40.50625Q86.81875 39.6625 86.81875 38.365623Q86.81875 37.6 87.1625 36.975Q87.52187 36.35 88.08437 35.975Q88.64687 35.584373 89.35 35.38125Q89.86562 35.25625 90.9125 35.115623Q93.0375 34.865623 94.0375 34.521873Q94.05312 34.1625 94.05312 34.053123Q94.05312 32.990623 93.55312 32.5375Q92.88125 31.943748 91.55312 31.943748Q90.30312 31.943748 89.70937 32.38125Q89.13125 32.81875 88.85 33.928123L87.13125 33.69375Q87.36562 32.584373 87.89687 31.912498Q88.42812 31.224998 89.44375 30.865623Q90.45937 30.490623 91.80312 30.490623Q93.13125 30.490623 93.95937 30.803123Q94.7875 31.115623 95.17812 31.599998Q95.56875 32.06875 95.725 32.7875Q95.81875 33.240623 95.81875 34.4125L95.81875 36.75625Q95.81875 39.209373 95.92812 39.865623Q96.0375 40.50625 96.38125 41.1L94.5375 41.1Q94.27187 40.553123 94.19375 39.81875ZM94.0375 35.896873Q93.08437 36.2875 91.1625 36.553123Q90.08437 36.709373 89.63125 36.9125Q89.19375 37.1 88.94375 37.475Q88.69375 37.85 88.69375 38.31875Q88.69375 39.021873 89.225 39.490623Q89.75625 39.959373 90.7875 39.959373Q91.80312 39.959373 92.58437 39.521873Q93.38125 39.06875 93.75625 38.303123Q94.0375 37.69375 94.0375 36.5375L94.0375 35.896873ZM98.39687 41.1L98.39687 30.724998L99.975 30.724998L99.975 32.303123Q100.58437 31.193748 101.1 30.849998Q101.61562 30.490623 102.225 30.490623Q103.11562 30.490623 104.0375 31.053123L103.42812 32.69375Q102.7875 32.303123 102.14687 32.303123Q101.56875 32.303123 101.1 32.6625Q100.64687 33.00625 100.44375 33.615623Q100.1625 34.553123 100.1625 35.6625L100.1625 41.1L98.39687 41.1ZM112.19375 39.81875Q111.20937 40.646873 110.30312 40.990623Q109.39687 41.334373 108.36562 41.334373Q106.6625 41.334373 105.74062 40.50625Q104.81875 39.6625 104.81875 38.365623Q104.81875 37.6 105.1625 36.975Q105.52187 36.35 106.08437 35.975Q106.64687 35.584373 107.35 35.38125Q107.86562 35.25625 108.9125 35.115623Q111.0375 34.865623 112.0375 34.521873Q112.05312 34.1625 112.05312 34.053123Q112.05312 32.990623 111.55312 32.5375Q110.88125 31.943748 109.55312 31.943748Q108.30312 31.943748 107.70937 32.38125Q107.13125 32.81875 106.85 33.928123L105.13125 33.69375Q105.36562 32.584373 105.89687 31.912498Q106.42812 31.224998 107.44375 30.865623Q108.45937 30.490623 109.80312 30.490623Q111.13125 30.490623 111.95937 30.803123Q112.7875 31.115623 113.17812 31.599998Q113.56875 32.06875 113.725 32.7875Q113.81875 33.240623 113.81875 34.4125L113.81875 36.75625Q113.81875 39.209373 113.92812 39.865623Q114.0375 40.50625 114.38125 41.1L112.5375 41.1Q112.27187 40.553123 112.19375 39.81875ZM112.0375 35.896873Q111.08437 36.2875 109.1625 36.553123Q108.08437 36.709373 107.63125 36.9125Q107.19375 37.1 106.94375 37.475Q106.69375 37.85 106.69375 38.31875Q106.69375 39.021873 107.225 39.490623Q107.75625 39.959373 108.7875 39.959373Q109.80312 39.959373 110.58437 39.521873Q111.38125 39.06875 111.75625 38.303123Q112.0375 37.69375 112.0375 36.5375L112.0375 35.896873ZM116.4125 41.1L116.4125 30.724998L117.99062 30.724998L117.99062 32.178123Q118.475 31.428123 119.2875 30.959373Q120.1 30.490623 121.13125 30.490623Q122.2875 30.490623 123.02187 30.974998Q123.75625 31.443748 124.06875 32.303123Q125.30312 30.490623 127.27187 30.490623Q128.81876 30.490623 129.64688 31.349998Q130.475 32.209373 130.475 33.975L130.475 41.1L128.725 41.1L128.725 34.56875Q128.725 33.50625 128.55313 33.053123Q128.38126 32.584373 127.92812 32.303123Q127.49062 32.021873 126.88125 32.021873Q125.7875 32.021873 125.05312 32.75625Q124.33437 33.475 124.33437 35.06875L124.33437 41.1L122.58437 41.1L122.58437 34.365623Q122.58437 33.19375 122.14687 32.615623Q121.725 32.021873 120.74062 32.021873Q120.00625 32.021873 119.36562 32.4125Q118.74062 32.803123 118.45937 33.553123Q118.17812 34.303123 118.17812 35.725L118.17812 41.1L116.4125 41.1ZM140.52188 37.75625L142.33438 37.990623Q141.9125 39.56875 140.74063 40.459373Q139.58438 41.334373 137.77188 41.334373Q135.50626 41.334373 134.1625 39.94375Q132.83438 38.5375 132.83438 36.00625Q132.83438 33.38125 134.17813 31.943748Q135.52188 30.490623 137.67813 30.490623Q139.75626 30.490623 141.06876 31.912498Q142.39688 33.31875 142.39688 35.896873Q142.39688 36.053123 142.38126 36.365623L134.64688 36.365623Q134.74063 38.06875 135.61563 38.975Q136.49063 39.88125 137.7875 39.88125Q138.75626 39.88125 139.42813 39.38125Q140.11563 38.865623 140.52188 37.75625ZM134.74063 34.9125L140.5375 34.9125Q140.42813 33.615623 139.88126 32.959373Q139.0375 31.943748 137.69376 31.943748Q136.49063 31.943748 135.6625 32.75625Q134.83438 33.553123 134.74063 34.9125ZM148.25626 39.521873L148.50626 41.084373Q147.77188 41.240623 147.17813 41.240623Q146.225 41.240623 145.69376 40.94375Q145.17813 40.63125 144.95938 40.146873Q144.74063 39.646873 144.74063 38.06875L144.74063 32.1L143.45938 32.1L143.45938 30.724998L144.74063 30.724998L144.74063 28.162498L146.49063 27.099998L146.49063 30.724998L148.25626 30.724998L148.25626 32.1L146.49063 32.1L146.49063 38.1625Q146.49063 38.9125 146.58438 39.13125Q146.67813 39.334373 146.88126 39.475Q147.1 39.6 147.49063 39.6Q147.77188 39.6 148.25626 39.521873ZM157.52188 37.75625L159.33438 37.990623Q158.9125 39.56875 157.74063 40.459373Q156.58438 41.334373 154.77188 41.334373Q152.50626 41.334373 151.1625 39.94375Q149.83438 38.5375 149.83438 36.00625Q149.83438 33.38125 151.17813 31.943748Q152.52188 30.490623 154.67813 30.490623Q156.75626 30.490623 158.06876 31.912498Q159.39688 33.31875 159.39688 35.896873Q159.39688 36.053123 159.38126 36.365623L151.64688 36.365623Q151.74063 38.06875 152.61563 38.975Q153.49063 39.88125 154.7875 39.88125Q155.75626 39.88125 156.42813 39.38125Q157.11563 38.865623 157.52188 37.75625ZM151.74063 34.9125L157.5375 34.9125Q157.42813 33.615623 156.88126 32.959373Q156.0375 31.943748 154.69376 31.943748Q153.49063 31.943748 152.6625 32.75625Q151.83438 33.553123 151.74063 34.9125ZM161.39688 41.1L161.39688 30.724998L162.975 30.724998L162.975 32.303123Q163.58438 31.193748 164.1 30.849998Q164.61563 30.490623 165.225 30.490623Q166.11563 30.490623 167.0375 31.053123L166.42813 32.69375Q165.7875 32.303123 165.14688 32.303123Q164.56876 32.303123 164.1 32.6625Q163.64688 33.00625 163.44376 33.615623Q163.1625 34.553123 163.1625 35.6625L163.1625 41.1L161.39688 41.1ZM178.25626 39.521873L178.50626 41.084373Q177.77188 41.240623 177.17813 41.240623Q176.225 41.240623 175.69376 40.94375Q175.17813 40.63125 174.95938 40.146873Q174.74063 39.646873 174.74063 38.06875L174.74063 32.1L173.45938 32.1L173.45938 30.724998L174.74063 30.724998L174.74063 28.162498L176.49063 27.099998L176.49063 30.724998L178.25626 30.724998L178.25626 32.1L176.49063 32.1L176.49063 38.1625Q176.49063 38.9125 176.58438 39.13125Q176.67813 39.334373 176.88126 39.475Q177.1 39.6 177.49063 39.6Q177.77188 39.6 178.25626 39.521873ZM187.20938 41.1L187.20938 39.56875Q186.00626 41.334373 183.92813 41.334373Q183.00626 41.334373 182.20938 40.990623Q181.4125 40.63125 181.02188 40.1Q180.64688 39.56875 180.49063 38.7875Q180.38126 38.271873 180.38126 37.146873L180.38126 30.724998L182.13126 30.724998L182.13126 36.475Q182.13126 37.85 182.24063 38.334373Q182.4125 39.021873 182.94376 39.428123Q183.49063 39.81875 184.27188 39.81875Q185.06876 39.81875 185.75626 39.4125Q186.45938 39.00625 186.74063 38.31875Q187.0375 37.615623 187.0375 36.2875L187.0375 30.724998L188.7875 30.724998L188.7875 41.1L187.20938 41.1ZM191.4125 41.1L191.4125 30.724998L193.00626 30.724998L193.00626 32.209373Q194.14688 30.490623 196.30313 30.490623Q197.24063 30.490623 198.02188 30.834373Q198.81876 31.162498 199.20938 31.709373Q199.6 32.25625 199.75626 33.00625Q199.85 33.50625 199.85 34.725L199.85 41.1L198.08438 41.1L198.08438 34.7875Q198.08438 33.709373 197.88126 33.178123Q197.67813 32.646873 197.14688 32.334373Q196.63126 32.021873 195.92813 32.021873Q194.80313 32.021873 193.99063 32.740623Q193.17813 33.44375 193.17813 35.428123L193.17813 41.1L191.4125 41.1ZM202.42813 28.803123L202.42813 26.787498L204.19376 26.787498L204.19376 28.803123L202.42813 28.803123ZM202.42813 41.1L202.42813 30.724998L204.19376 30.724998L204.19376 41.1L202.42813 41.1ZM206.4125 41.1L206.4125 30.724998L208.00626 30.724998L208.00626 32.209373Q209.14688 30.490623 211.30313 30.490623Q212.24063 30.490623 213.02188 30.834373Q213.81876 31.162498 214.20938 31.709373Q214.6 32.25625 214.75626 33.00625Q214.85 33.50625 214.85 34.725L214.85 41.1L213.08438 41.1L213.08438 34.7875Q213.08438 33.709373 212.88126 33.178123Q212.67813 32.646873 212.14688 32.334373Q211.63126 32.021873 210.92813 32.021873Q209.80313 32.021873 208.99063 32.740623Q208.17813 33.44375 208.17813 35.428123L208.17813 41.1L206.4125 41.1ZM217.1 41.959373L218.80313 42.209373Q218.9125 43.00625 219.39688 43.365623Q220.05313 43.85 221.19376 43.85Q222.4125 43.85 223.06876 43.365623Q223.74063 42.88125 223.975 42.00625Q224.11563 41.459373 224.1 39.740623Q222.94376 41.1 221.225 41.1Q219.08438 41.1 217.9125 39.553123Q216.74063 38.00625 216.74063 35.85Q216.74063 34.365623 217.27188 33.115623Q217.81876 31.865623 218.83438 31.178123Q219.86563 30.490623 221.24063 30.490623Q223.06876 30.490623 224.27188 31.974998L224.27188 30.724998L225.88126 30.724998L225.88126 39.69375Q225.88126 42.115623 225.38126 43.115623Q224.89688 44.13125 223.81876 44.709373Q222.75626 45.303123 221.19376 45.303123Q219.35 45.303123 218.19376 44.475Q217.05313 43.646873 217.1 41.959373ZM218.55313 35.725Q218.55313 37.771873 219.36563 38.709373Q220.17813 39.646873 221.39688 39.646873Q222.6 39.646873 223.4125 38.709373Q224.24063 37.771873 224.24063 35.7875Q224.24063 33.88125 223.39688 32.9125Q222.55313 31.943748 221.36563 31.943748Q220.19376 31.943748 219.36563 32.896873Q218.55313 33.85 218.55313 35.725Z" fill-rule="nonzero"/></svg>