<svg version="1.1" viewBox="0.0 0.0 512.0 317.0" fill="none" stroke="none" stroke-linecap="square" stroke-miterlimit="10" width="512" height="317" xmlns:xlink="http://www.w3.org/1999/xlink" xmlns="http://www.w3.org/2000/svg"><path fill="#ffffff" d="M0 0L512.0 0L512.0 317.0L0 317.0L0 0Z" fill-rule="nonzero"/><path fill="#ea4335" d="M187.60811 280.85165C141.09467 250.57475 120.02388 193.31862 135.815 140.11305C151.60614 86.9075 200.50053 50.416668 256.0 50.416668L256.0 175.78334Z" fill-rule="nonzero"/><path fill="#4285f4" d="M256.0 50.416668C309.52332 50.416668 357.1436 84.39666 374.55106 135.01016C391.9585 185.62367 375.31345 241.70638 333.11304 274.62857C290.9126 307.55078 232.46538 310.05048 187.60811 280.85165L256.0 175.78334Z" fill-rule="nonzero"/><path fill="#1a1a1a" d="M16.771875 137.39658L16.771875 128.80283L17.928125 128.80283L22.44375 135.55283L22.44375 128.80283L23.5375 128.80283L23.5375 137.39658L22.365625 137.39658L17.85 130.64658L17.85 137.39658L16.771875 137.39658ZM25.25625 134.2872Q25.25625 132.55283 26.209375 131.7247Q27.00625 131.0372 28.1625 131.0372Q29.44375 131.0372 30.25625 131.88095Q31.084375 132.70908 31.084375 134.19345Q31.084375 135.39658 30.725 136.08408Q30.365625 136.77158 29.6625 137.1622Q28.975 137.5372 28.1625 137.5372Q26.865625 137.5372 26.053125 136.70908Q25.25625 135.86533 25.25625 134.2872ZM26.334375 134.2872Q26.334375 135.4747 26.85 136.06845Q27.38125 136.6622 28.1625 136.6622Q28.959375 136.6622 29.475 136.06845Q29.990625 135.4747 29.990625 134.25595Q29.990625 133.0997 29.459375 132.50595Q28.94375 131.9122 28.1625 131.9122Q27.38125 131.9122 26.85 132.50595Q26.334375 133.08408 26.334375 134.2872Z" fill-rule="nonzero"/><path fill="#9e9e9e" d="M19.725 154.39658L19.725 152.33408L16.00625 152.33408L16.00625 151.36533L19.928125 145.80283L20.7875 145.80283L20.7875 151.36533L21.94375 151.36533L21.94375 152.33408L20.7875 152.33408L20.7875 154.39658L19.725 154.39658ZM19.725 151.36533L19.725 147.50595L17.0375 151.36533L19.725 151.36533ZM23.35 150.1622Q23.35 148.63095 23.6625 147.70908Q23.975 146.77158 24.584375 146.27158Q25.209375 145.77158 26.146875 145.77158Q26.834375 145.77158 27.35 146.05283Q27.88125 146.33408 28.225 146.86533Q28.56875 147.38095 28.75625 148.13095Q28.94375 148.88095 28.94375 150.1622Q28.94375 151.67783 28.63125 152.5997Q28.334375 153.52158 27.709375 154.0372Q27.1 154.5372 26.146875 154.5372Q24.9125 154.5372 24.19375 153.64658Q23.35 152.58408 23.35 150.1622ZM24.428125 150.1622Q24.428125 152.27158 24.928125 152.9747Q25.428125 153.67783 26.146875 153.67783Q26.88125 153.67783 27.365625 152.9747Q27.865625 152.27158 27.865625 150.1622Q27.865625 148.0372 27.365625 147.3497Q26.88125 146.64658 26.13125 146.64658Q25.4125 146.64658 24.975 147.25595Q24.428125 148.0372 24.428125 150.1622ZM30.94375 154.39658L30.94375 153.19345L32.146873 153.19345L32.146873 154.39658L30.94375 154.39658ZM34.975 149.74033Q34.31875 149.49033 33.990623 149.05283Q33.678123 148.5997 33.678123 147.99033Q33.678123 147.05283 34.35 146.4122Q35.0375 145.77158 36.146873 145.77158Q37.271873 145.77158 37.959373 146.42783Q38.646873 147.08408 38.646873 148.02158Q38.646873 148.61533 38.334373 149.05283Q38.021873 149.49033 37.38125 149.74033Q38.178123 149.99033 38.584373 150.56845Q38.990623 151.14658 38.990623 151.94345Q38.990623 153.0372 38.209373 153.7872Q37.44375 154.5372 36.1625 154.5372Q34.896873 154.5372 34.115623 153.7872Q33.334373 153.0372 33.334373 151.9122Q33.334373 151.06845 33.75625 150.50595Q34.19375 149.94345 34.975 149.74033ZM34.75625 147.94345Q34.75625 148.55283 35.146873 148.94345Q35.553123 149.33408 36.178123 149.33408Q36.7875 149.33408 37.178123 148.95908Q37.56875 148.56845 37.56875 148.00595Q37.56875 147.42783 37.1625 147.0372Q36.75625 146.63095 36.1625 146.63095Q35.553123 146.63095 35.146873 147.02158Q34.75625 147.4122 34.75625 147.94345ZM34.428123 151.9122Q34.428123 152.36533 34.63125 152.7872Q34.85 153.20908 35.271873 153.44345Q35.69375 153.67783 36.178123 153.67783Q36.928123 153.67783 37.4125 153.19345Q37.9125 152.70908 37.9125 151.95908Q37.9125 151.19345 37.4125 150.69345Q36.9125 150.19345 36.146873 150.19345Q35.396873 150.19345 34.9125 150.69345Q34.428123 151.17783 34.428123 151.9122ZM40.553123 147.86533Q40.553123 146.94345 41.00625 146.30283Q41.475 145.6622 42.35 145.6622Q43.1625 145.6622 43.69375 146.24033Q44.225 146.81845 44.225 147.92783Q44.225 149.02158 43.678123 149.61533Q43.146873 150.19345 42.365623 150.19345Q41.584373 150.19345 41.06875 149.61533Q40.553123 149.0372 40.553123 147.86533ZM42.38125 146.38095Q41.990623 146.38095 41.725 146.7247Q41.475 147.06845 41.475 147.9747Q41.475 148.80283 41.725 149.14658Q41.990623 149.4747 42.38125 149.4747Q42.7875 149.4747 43.0375 149.13095Q43.303123 148.7872 43.303123 147.89658Q43.303123 147.05283 43.0375 146.7247Q42.771873 146.38095 42.38125 146.38095ZM42.38125 154.70908L47.084373 145.6622L47.94375 145.6622L43.25625 154.70908L42.38125 154.70908ZM46.1 152.38095Q46.1 151.45908 46.553123 150.81845Q47.021873 150.17783 47.9125 150.17783Q48.725 150.17783 49.25625 150.75595Q49.7875 151.31845 49.7875 152.44345Q49.7875 153.5372 49.240623 154.13095Q48.709373 154.70908 47.9125 154.70908Q47.146873 154.70908 46.615623 154.13095Q46.1 153.55283 46.1 152.38095ZM47.94375 150.89658Q47.5375 150.89658 47.271873 151.24033Q47.021873 151.58408 47.021873 152.49033Q47.021873 153.30283 47.2875 153.64658Q47.553123 153.99033 47.94375 153.99033Q48.334373 153.99033 48.6 153.64658Q48.865623 153.30283 48.865623 152.39658Q48.865623 151.56845 48.6 151.24033Q48.334373 150.89658 47.94375 150.89658Z" fill-rule="nonzero"/><path stroke="#757575" stroke-width="1.0" stroke-linecap="butt" d="M15.85 141.89658L124.63333 141.89658L141.82425 141.89658" fill-rule="nonzero"/><path fill="#9e9e9e" d="M143.82425 141.89658C143.82425 140.792 142.92883 139.89658 141.82425 139.89658C140.71968 139.89658 139.82425 140.792 139.82425 141.89658C139.82425 143.00114 140.71968 143.89658 141.82425 143.89658C142.92883 143.89658 143.82425 143.00114 143.82425 141.89658" fill-rule="nonzero"/><path fill="#1a1a1a" d="M478.49374 205.17009L478.49374 201.52946L475.18124 196.57634L476.57187 196.57634L478.25937 199.17009Q478.72812 199.88884 479.13437 200.62321Q479.525 199.95134 480.07187 199.10759L481.74374 196.57634L483.05624 196.57634L479.63437 201.52946L479.63437 205.17009L478.49374 205.17009ZM488.19687 203.17009L489.29062 203.29509Q489.04062 204.24821 488.3375 204.77946Q487.63437 205.31071 486.55624 205.31071Q485.19687 205.31071 484.38437 204.46696Q483.5875 203.62321 483.5875 202.10759Q483.5875 200.54509 484.4 199.68571Q485.2125 198.81071 486.49374 198.81071Q487.74374 198.81071 488.525 199.65446Q489.32187 200.49821 489.32187 202.04509Q489.32187 202.13884 489.32187 202.32634L484.68124 202.32634Q484.74374 203.35759 485.25937 203.90446Q485.775 204.43571 486.55624 204.43571Q487.13437 204.43571 487.54062 204.13884Q487.9625 203.82634 488.19687 203.17009ZM484.74374 201.46696L488.2125 201.46696Q488.15 200.67009 487.82187 200.27946Q487.30624 199.67009 486.50937 199.67009Q485.775 199.67009 485.275 200.15446Q484.79062 200.63884 484.74374 201.46696ZM490.525 203.31071L491.55624 203.15446Q491.65 203.77946 492.04062 204.10759Q492.44687 204.43571 493.18124 204.43571Q493.9 204.43571 494.24374 204.15446Q494.60312 203.85759 494.60312 203.45134Q494.60312 203.09196 494.29062 202.88884Q494.07187 202.74821 493.2125 202.52946Q492.05624 202.23259 491.60312 202.02946Q491.16562 201.81071 490.93124 201.43571Q490.69687 201.06071 490.69687 200.59196Q490.69687 200.18571 490.88437 199.82634Q491.07187 199.46696 491.4 199.23259Q491.65 199.06071 492.07187 198.93571Q492.49374 198.81071 492.99374 198.81071Q493.7125 198.81071 494.25937 199.02946Q494.82187 199.23259 495.0875 199.59196Q495.35312 199.95134 495.44687 200.54509L494.41562 200.68571Q494.35312 200.21696 494.00937 199.95134Q493.68124 199.67009 493.05624 199.67009Q492.3375 199.67009 492.025 199.92009Q491.7125 200.15446 491.7125 200.48259Q491.7125 200.68571 491.8375 200.84196Q491.97812 201.01384 492.24374 201.12321Q492.4 201.18571 493.18124 201.38884Q494.30624 201.70134 494.74374 201.88884Q495.18124 202.07634 495.43124 202.43571Q495.68124 202.79509 495.68124 203.34196Q495.68124 203.87321 495.36874 204.34196Q495.07187 204.79509 494.49374 205.06071Q493.91562 205.31071 493.18124 205.31071Q491.9625 205.31071 491.32187 204.81071Q490.69687 204.29509 490.525 203.31071Z" fill-rule="nonzero"/><path fill="#9e9e9e" d="M461.65 219.92009L462.75937 219.82634Q462.88437 220.63884 463.32187 221.04509Q463.775 221.45134 464.41562 221.45134Q465.16562 221.45134 465.69687 220.87321Q466.22812 220.29509 466.22812 219.35759Q466.22812 218.45134 465.7125 217.93571Q465.2125 217.40446 464.38437 217.40446Q463.88437 217.40446 463.4625 217.63884Q463.05624 217.87321 462.82187 218.23259L461.8375 218.10759L462.66562 213.70134L466.94687 213.70134L466.94687 214.70134L463.50937 214.70134L463.05624 217.01384Q463.82187 216.46696 464.66562 216.46696Q465.79062 216.46696 466.55624 217.24821Q467.3375 218.02946 467.3375 219.26384Q467.3375 220.42009 466.66562 221.27946Q465.8375 222.31071 464.41562 222.31071Q463.24374 222.31071 462.49374 221.65446Q461.75937 220.99821 461.65 219.92009ZM468.80624 220.18571L469.82187 220.09196Q469.94687 220.81071 470.30624 221.13884Q470.68124 221.45134 471.24374 221.45134Q471.72812 221.45134 472.0875 221.23259Q472.4625 220.99821 472.69687 220.63884Q472.93124 220.26384 473.0875 219.63884Q473.24374 218.99821 473.24374 218.34196Q473.24374 218.26384 473.24374 218.12321Q472.93124 218.62321 472.38437 218.95134Q471.8375 219.26384 471.19687 219.26384Q470.11874 219.26384 469.38437 218.49821Q468.65 217.71696 468.65 216.45134Q468.65 215.13884 469.41562 214.34196Q470.19687 213.54509 471.35312 213.54509Q472.18124 213.54509 472.86874 213.99821Q473.57187 214.45134 473.93124 215.29509Q474.29062 216.12321 474.29062 217.70134Q474.29062 219.34196 473.93124 220.32634Q473.5875 221.29509 472.86874 221.81071Q472.16562 222.31071 471.22812 222.31071Q470.2125 222.31071 469.57187 221.76384Q468.93124 221.20134 468.80624 220.18571ZM473.11874 216.38884Q473.11874 215.48259 472.63437 214.95134Q472.16562 214.42009 471.47812 214.42009Q470.775 214.42009 470.24374 214.99821Q469.72812 215.56071 469.72812 216.48259Q469.72812 217.29509 470.22812 217.81071Q470.72812 218.32634 471.44687 218.32634Q472.18124 218.32634 472.65 217.81071Q473.11874 217.29509 473.11874 216.38884ZM476.24374 222.17009L476.24374 220.96696L477.44687 220.96696L477.44687 222.17009L476.24374 222.17009ZM484.19687 221.15446L484.19687 222.17009L478.50937 222.17009Q478.50937 221.79509 478.63437 221.43571Q478.85312 220.85759 479.32187 220.29509Q479.80624 219.73259 480.7125 218.99821Q482.11874 217.84196 482.60312 217.17009Q483.10312 216.49821 483.10312 215.90446Q483.10312 215.27946 482.65 214.85759Q482.19687 214.42009 481.47812 214.42009Q480.7125 214.42009 480.25937 214.87321Q479.80624 215.32634 479.79062 216.13884L478.7125 216.02946Q478.82187 214.81071 479.54062 214.18571Q480.275 213.54509 481.50937 213.54509Q482.74374 213.54509 483.4625 214.23259Q484.18124 214.92009 484.18124 215.93571Q484.18124 216.45134 483.9625 216.95134Q483.75937 217.43571 483.25937 217.99821Q482.775 218.54509 481.65 219.49821Q480.69687 220.29509 480.41562 220.59196Q480.15 220.87321 479.97812 221.15446L484.19687 221.15446ZM485.85312 215.63884Q485.85312 214.71696 486.30624 214.07634Q486.775 213.43571 487.65 213.43571Q488.4625 213.43571 488.99374 214.01384Q489.525 214.59196 489.525 215.70134Q489.525 216.79509 488.97812 217.38884Q488.44687 217.96696 487.66562 217.96696Q486.88437 217.96696 486.36874 217.38884Q485.85312 216.81071 485.85312 215.63884ZM487.68124 214.15446Q487.29062 214.15446 487.025 214.49821Q486.775 214.84196 486.775 215.74821Q486.775 216.57634 487.025 216.92009Q487.29062 217.24821 487.68124 217.24821Q488.0875 217.24821 488.3375 216.90446Q488.60312 216.56071 488.60312 215.67009Q488.60312 214.82634 488.3375 214.49821Q488.07187 214.15446 487.68124 214.15446ZM487.68124 222.48259L492.38437 213.43571L493.24374 213.43571L488.55624 222.48259L487.68124 222.48259ZM491.4 220.15446Q491.4 219.23259 491.85312 218.59196Q492.32187 217.95134 493.2125 217.95134Q494.025 217.95134 494.55624 218.52946Q495.0875 219.09196 495.0875 220.21696Q495.0875 221.31071 494.54062 221.90446Q494.00937 222.48259 493.2125 222.48259Q492.44687 222.48259 491.91562 221.90446Q491.4 221.32634 491.4 220.15446ZM493.24374 218.67009Q492.8375 218.67009 492.57187 219.01384Q492.32187 219.35759 492.32187 220.26384Q492.32187 221.07634 492.5875 221.42009Q492.85312 221.76384 493.24374 221.76384Q493.63437 221.76384 493.9 221.42009Q494.16562 221.07634 494.16562 220.17009Q494.16562 219.34196 493.9 219.01384Q493.63437 218.67009 493.24374 218.67009Z" fill-rule="nonzero"/><path stroke="#757575" stroke-width="1.0" stroke-linecap="butt" d="M496.15 209.67009L387.36667 209.67009L370.17575 209.67009" fill-rule="nonzero"/><path fill="#9e9e9e" d="M372.17575 209.67009C372.17575 208.56552 371.2803 207.67009 370.17575 207.67009C369.07117 207.67009 368.17575 208.56552 368.17575 209.67009C368.17575 210.77466 369.07117 211.67009 370.17575 211.67009C371.2803 211.67009 372.17575 210.77466 372.17575 209.67009" fill-rule="nonzero"/><path fill="#757575" d="M17.396875 34.85L17.396875 20.537498L22.7875 20.537498Q24.225 20.537498 24.975 20.662498Q26.021875 20.849998 26.740625 21.349998Q27.459375 21.834373 27.88125 22.724998Q28.31875 23.615623 28.31875 24.678123Q28.31875 26.506248 27.146875 27.771873Q25.990625 29.021873 22.959375 29.021873L19.2875 29.021873L19.2875 34.85L17.396875 34.85ZM19.2875 27.334373L22.990625 27.334373Q24.81875 27.334373 25.584375 26.662498Q26.365625 25.974998 26.365625 24.724998Q26.365625 23.834373 25.9125 23.193748Q25.459375 22.553123 24.725 22.349998Q24.240625 22.224998 22.94375 22.224998L19.2875 22.224998L19.2875 27.334373ZM36.94375 33.56875Q35.959373 34.396873 35.053123 34.740623Q34.146873 35.084373 33.115623 35.084373Q31.4125 35.084373 30.490625 34.25625Q29.56875 33.4125 29.56875 32.115623Q29.56875 31.349998 29.9125 30.724998Q30.271875 30.099998 30.834375 29.724998Q31.396875 29.334373 32.1 29.131248Q32.615623 29.006248 33.6625 28.865623Q35.7875 28.615623 36.7875 28.271873Q36.803123 27.912498 36.803123 27.803123Q36.803123 26.740623 36.303123 26.287498Q35.63125 25.693748 34.303123 25.693748Q33.053123 25.693748 32.459373 26.131248Q31.88125 26.568748 31.6 27.678123L29.88125 27.443748Q30.115625 26.334373 30.646875 25.662498Q31.178125 24.974998 32.19375 24.615623Q33.209373 24.240623 34.553123 24.240623Q35.88125 24.240623 36.709373 24.553123Q37.5375 24.865623 37.928123 25.349998Q38.31875 25.818748 38.475 26.537498Q38.56875 26.990623 38.56875 28.162498L38.56875 30.506248Q38.56875 32.959373 38.678123 33.615623Q38.7875 34.25625 39.13125 34.85L37.2875 34.85Q37.021873 34.303123 36.94375 33.56875ZM36.7875 29.646873Q35.834373 30.037498 33.9125 30.303123Q32.834373 30.459373 32.38125 30.662498Q31.94375 30.849998 31.69375 31.224998Q31.44375 31.599998 31.44375 32.06875Q31.44375 32.771873 31.975 33.240623Q32.50625 33.709373 33.5375 33.709373Q34.553123 33.709373 35.334373 33.271873Q36.13125 32.81875 36.50625 32.053123Q36.7875 31.443748 36.7875 30.287498L36.7875 29.646873ZM41.1625 38.81875L41.1625 24.474998L42.771873 24.474998L42.771873 25.818748Q43.334373 25.037498 44.0375 24.646873Q44.75625 24.240623 45.771873 24.240623Q47.1 24.240623 48.115623 24.928123Q49.13125 25.615623 49.646873 26.865623Q50.178123 28.099998 50.178123 29.584373Q50.178123 31.178123 49.6 32.459373Q49.0375 33.725 47.94375 34.4125Q46.85 35.084373 45.646873 35.084373Q44.771873 35.084373 44.06875 34.709373Q43.38125 34.334373 42.928123 33.771873L42.928123 38.81875L41.1625 38.81875ZM42.75625 29.724998Q42.75625 31.724998 43.56875 32.678123Q44.38125 33.63125 45.5375 33.63125Q46.709373 33.63125 47.5375 32.646873Q48.38125 31.662498 48.38125 29.568748Q48.38125 27.599998 47.553123 26.615623Q46.740623 25.615623 45.615623 25.615623Q44.490623 25.615623 43.615623 26.678123Q42.75625 27.724998 42.75625 29.724998ZM59.271873 31.506248L61.084373 31.740623Q60.6625 33.31875 59.490623 34.209373Q58.334373 35.084373 56.521873 35.084373Q54.25625 35.084373 52.9125 33.69375Q51.584373 32.2875 51.584373 29.756248Q51.584373 27.131248 52.928123 25.693748Q54.271873 24.240623 56.428123 24.240623Q58.50625 24.240623 59.81875 25.662498Q61.146873 27.068748 61.146873 29.646873Q61.146873 29.803123 61.13125 30.115623L53.396873 30.115623Q53.490623 31.818748 54.365623 32.725Q55.240623 33.63125 56.5375 33.63125Q57.50625 33.63125 58.178123 33.13125Q58.865623 32.615623 59.271873 31.506248ZM53.490623 28.662498L59.2875 28.662498Q59.178123 27.365623 58.63125 26.709373Q57.7875 25.693748 56.44375 25.693748Q55.240623 25.693748 54.4125 26.506248Q53.584373 27.303123 53.490623 28.662498ZM63.146873 34.85L63.146873 24.474998L64.725 24.474998L64.725 26.053123Q65.33437 24.943748 65.85 24.599998Q66.36562 24.240623 66.975 24.240623Q67.86562 24.240623 68.7875 24.803123L68.17812 26.443748Q67.5375 26.053123 66.89687 26.053123Q66.31875 26.053123 65.85 26.412498Q65.39687 26.756248 65.19375 27.365623Q64.9125 28.303123 64.9125 29.412498L64.9125 34.85L63.146873 34.85ZM69.45937 31.756248L71.20937 31.474998Q71.35 32.521873 72.02187 33.084373Q72.69375 33.63125 73.89687 33.63125Q75.1 33.63125 75.67812 33.146873Q76.27187 32.646873 76.27187 31.990623Q76.27187 31.396873 75.75625 31.053123Q75.39687 30.818748 73.95937 30.459373Q72.02187 29.959373 71.27187 29.615623Q70.5375 29.256248 70.14687 28.631248Q69.75625 27.990623 69.75625 27.224998Q69.75625 26.537498 70.06875 25.943748Q70.39687 25.349998 70.94375 24.959373Q71.35 24.662498 72.05312 24.459373Q72.77187 24.240623 73.58437 24.240623Q74.80312 24.240623 75.725 24.599998Q76.64687 24.943748 77.08437 25.553123Q77.52187 26.146873 77.69375 27.146873L75.975 27.381248Q75.85 26.584373 75.2875 26.146873Q74.725 25.693748 73.70937 25.693748Q72.49062 25.693748 71.975 26.099998Q71.45937 26.490623 71.45937 27.021873Q71.45937 27.365623 71.67812 27.646873Q71.88125 27.928123 72.35 28.115623Q72.61562 28.209373 73.89687 28.553123Q75.77187 29.053123 76.50625 29.381248Q77.24062 29.693748 77.6625 30.303123Q78.08437 30.896873 78.08437 31.803123Q78.08437 32.678123 77.56875 33.459373Q77.05312 34.240623 76.08437 34.6625Q75.11562 35.084373 73.89687 35.084373Q71.88125 35.084373 70.81875 34.240623Q69.75625 33.396873 69.45937 31.756248ZM92.94375 31.053123L94.6625 31.271873Q94.38125 33.06875 93.20937 34.084373Q92.05312 35.084373 90.35 35.084373Q88.225 35.084373 86.92812 33.69375Q85.63125 32.303123 85.63125 29.709373Q85.63125 28.021873 86.17812 26.771873Q86.74062 25.506248 87.88125 24.881248Q89.02187 24.240623 90.36562 24.240623Q92.05312 24.240623 93.11562 25.099998Q94.19375 25.959373 94.50625 27.521873L92.7875 27.787498Q92.55312 26.740623 91.92812 26.224998Q91.30312 25.693748 90.42812 25.693748Q89.1 25.693748 88.27187 26.646873Q87.44375 27.599998 87.44375 29.646873Q87.44375 31.740623 88.24062 32.69375Q89.0375 33.63125 90.33437 33.63125Q91.36562 33.63125 92.05312 33.00625Q92.75625 32.365623 92.94375 31.053123ZM95.52187 29.662498Q95.52187 26.787498 97.11562 25.396873Q98.45937 24.240623 100.38125 24.240623Q102.52187 24.240623 103.86562 25.646873Q105.225 27.053123 105.225 29.521873Q105.225 31.521873 104.63125 32.678123Q104.0375 33.81875 102.88125 34.459373Q101.74062 35.084373 100.38125 35.084373Q98.19375 35.084373 96.85 33.69375Q95.52187 32.2875 95.52187 29.662498ZM97.31875 29.662498Q97.31875 31.662498 98.17812 32.646873Q99.05312 33.63125 100.38125 33.63125Q101.69375 33.63125 102.55312 32.646873Q103.42812 31.646873 103.42812 29.599998Q103.42812 27.678123 102.55312 26.693748Q101.67812 25.693748 100.38125 25.693748Q99.05312 25.693748 98.17812 26.693748Q97.31875 27.678123 97.31875 29.662498ZM107.1625 34.85L107.1625 24.474998L108.74062 24.474998L108.74062 25.928123Q109.225 25.178123 110.0375 24.709373Q110.85 24.240623 111.88125 24.240623Q113.0375 24.240623 113.77187 24.724998Q114.50625 25.193748 114.81875 26.053123Q116.05312 24.240623 118.02187 24.240623Q119.56875 24.240623 120.39687 25.099998Q121.225 25.959373 121.225 27.724998L121.225 34.85L119.475 34.85L119.475 28.318748Q119.475 27.256248 119.30312 26.803123Q119.13125 26.334373 118.67812 26.053123Q118.24062 25.771873 117.63125 25.771873Q116.5375 25.771873 115.80312 26.506248Q115.08437 27.224998 115.08437 28.818748L115.08437 34.85L113.33437 34.85L113.33437 28.115623Q113.33437 26.943748 112.89687 26.365623Q112.475 25.771873 111.49062 25.771873Q110.75625 25.771873 110.11562 26.162498Q109.49062 26.553123 109.20937 27.303123Q108.92812 28.053123 108.92812 29.474998L108.92812 34.85L107.1625 34.85ZM124.1625 38.81875L124.1625 24.474998L125.77187 24.474998L125.77187 25.818748Q126.33437 25.037498 127.0375 24.646873Q127.75625 24.240623 128.77188 24.240623Q130.1 24.240623 131.11563 24.928123Q132.13126 25.615623 132.64688 26.865623Q133.17813 28.099998 133.17813 29.584373Q133.17813 31.178123 132.6 32.459373Q132.0375 33.725 130.94376 34.4125Q129.85 35.084373 128.64688 35.084373Q127.77187 35.084373 127.06875 34.709373Q126.38125 34.334373 125.92812 33.771873L125.92812 38.81875L124.1625 38.81875ZM125.75625 29.724998Q125.75625 31.724998 126.56875 32.678123Q127.38125 33.63125 128.5375 33.63125Q129.70938 33.63125 130.5375 32.646873Q131.38126 31.662498 131.38126 29.568748Q131.38126 27.599998 130.55313 26.615623Q129.74063 25.615623 128.61563 25.615623Q127.49062 25.615623 126.61562 26.678123Q125.75625 27.724998 125.75625 29.724998ZM141.94376 33.56875Q140.95938 34.396873 140.05313 34.740623Q139.14688 35.084373 138.11563 35.084373Q136.4125 35.084373 135.49063 34.25625Q134.56876 33.4125 134.56876 32.115623Q134.56876 31.349998 134.9125 30.724998Q135.27188 30.099998 135.83438 29.724998Q136.39688 29.334373 137.1 29.131248Q137.61563 29.006248 138.6625 28.865623Q140.7875 28.615623 141.7875 28.271873Q141.80313 27.912498 141.80313 27.803123Q141.80313 26.740623 141.30313 26.287498Q140.63126 25.693748 139.30313 25.693748Q138.05313 25.693748 137.45938 26.131248Q136.88126 26.568748 136.6 27.678123L134.88126 27.443748Q135.11563 26.334373 135.64688 25.662498Q136.17813 24.974998 137.19376 24.615623Q138.20938 24.240623 139.55313 24.240623Q140.88126 24.240623 141.70938 24.553123Q142.5375 24.865623 142.92813 25.349998Q143.31876 25.818748 143.475 26.537498Q143.56876 26.990623 143.56876 28.162498L143.56876 30.506248Q143.56876 32.959373 143.67813 33.615623Q143.7875 34.25625 144.13126 34.85L142.2875 34.85Q142.02188 34.303123 141.94376 33.56875ZM141.7875 29.646873Q140.83438 30.037498 138.9125 30.303123Q137.83438 30.459373 137.38126 30.662498Q136.94376 30.849998 136.69376 31.224998Q136.44376 31.599998 136.44376 32.06875Q136.44376 32.771873 136.975 33.240623Q137.50626 33.709373 138.5375 33.709373Q139.55313 33.709373 140.33438 33.271873Q141.13126 32.81875 141.50626 32.053123Q141.7875 31.443748 141.7875 30.287498L141.7875 29.646873ZM146.14688 34.85L146.14688 24.474998L147.725 24.474998L147.725 26.053123Q148.33438 24.943748 148.85 24.599998Q149.36563 24.240623 149.975 24.240623Q150.86563 24.240623 151.7875 24.803123L151.17813 26.443748Q150.5375 26.053123 149.89688 26.053123Q149.31876 26.053123 148.85 26.412498Q148.39688 26.756248 148.19376 27.365623Q147.9125 28.303123 147.9125 29.412498L147.9125 34.85L146.14688 34.85ZM153.17813 22.553123L153.17813 20.537498L154.94376 20.537498L154.94376 22.553123L153.17813 22.553123ZM153.17813 34.85L153.17813 24.474998L154.94376 24.474998L154.94376 34.85L153.17813 34.85ZM157.1625 34.85L157.1625 24.474998L158.75626 24.474998L158.75626 25.959373Q159.89688 24.240623 162.05313 24.240623Q162.99063 24.240623 163.77188 24.584373Q164.56876 24.912498 164.95938 25.459373Q165.35 26.006248 165.50626 26.756248Q165.6 27.256248 165.6 28.474998L165.6 34.85L163.83438 34.85L163.83438 28.537498Q163.83438 27.459373 163.63126 26.928123Q163.42813 26.396873 162.89688 26.084373Q162.38126 25.771873 161.67813 25.771873Q160.55313 25.771873 159.74063 26.490623Q158.92813 27.193748 158.92813 29.178123L158.92813 34.85L157.1625 34.85ZM167.85 35.709373L169.55313 35.959373Q169.6625 36.75625 170.14688 37.115623Q170.80313 37.6 171.94376 37.6Q173.1625 37.6 173.81876 37.115623Q174.49063 36.63125 174.725 35.75625Q174.86563 35.209373 174.85 33.490623Q173.69376 34.85 171.975 34.85Q169.83438 34.85 168.6625 33.303123Q167.49063 31.756248 167.49063 29.599998Q167.49063 28.115623 168.02188 26.865623Q168.56876 25.615623 169.58438 24.928123Q170.61563 24.240623 171.99063 24.240623Q173.81876 24.240623 175.02188 25.724998L175.02188 24.474998L176.63126 24.474998L176.63126 33.44375Q176.63126 35.865623 176.13126 36.865623Q175.64688 37.88125 174.56876 38.459373Q173.50626 39.053123 171.94376 39.053123Q170.1 39.053123 168.94376 38.225Q167.80313 37.396873 167.85 35.709373ZM169.30313 29.474998Q169.30313 31.521873 170.11563 32.459373Q170.92813 33.396873 172.14688 33.396873Q173.35 33.396873 174.1625 32.459373Q174.99063 31.521873 174.99063 29.537498Q174.99063 27.631248 174.14688 26.662498Q173.30313 25.693748 172.11563 25.693748Q170.94376 25.693748 170.11563 26.646873Q169.30313 27.599998 169.30313 29.474998ZM189.00626 33.271873L189.25626 34.834373Q188.52188 34.990623 187.92813 34.990623Q186.975 34.990623 186.44376 34.69375Q185.92813 34.38125 185.70938 33.896873Q185.49063 33.396873 185.49063 31.818748L185.49063 25.849998L184.20938 25.849998L184.20938 24.474998L185.49063 24.474998L185.49063 21.912498L187.24063 20.849998L187.24063 24.474998L189.00626 24.474998L189.00626 25.849998L187.24063 25.849998L187.24063 31.912498Q187.24063 32.6625 187.33438 32.88125Q187.42813 33.084373 187.63126 33.225Q187.85 33.35 188.24063 33.35Q188.52188 33.35 189.00626 33.271873ZM190.52188 29.662498Q190.52188 26.787498 192.11563 25.396873Q193.45938 24.240623 195.38126 24.240623Q197.52188 24.240623 198.86563 25.646873Q200.225 27.053123 200.225 29.521873Q200.225 31.521873 199.63126 32.678123Q199.0375 33.81875 197.88126 34.459373Q196.74063 35.084373 195.38126 35.084373Q193.19376 35.084373 191.85 33.69375Q190.52188 32.2875 190.52188 29.662498ZM192.31876 29.662498Q192.31876 31.662498 193.17813 32.646873Q194.05313 33.63125 195.38126 33.63125Q196.69376 33.63125 197.55313 32.646873Q198.42813 31.646873 198.42813 29.599998Q198.42813 27.678123 197.55313 26.693748Q196.67813 25.693748 195.38126 25.693748Q194.05313 25.693748 193.17813 26.693748Q192.31876 27.678123 192.31876 29.662498ZM208.1625 34.85L208.1625 24.474998L209.75626 24.474998L209.75626 25.959373Q210.89688 24.240623 213.05313 24.240623Q213.99063 24.240623 214.77188 24.584373Q215.56876 24.912498 215.95938 25.459373Q216.35 26.006248 216.50626 26.756248Q216.6 27.256248 216.6 28.474998L216.6 34.85L214.83438 34.85L214.83438 28.537498Q214.83438 27.459373 214.63126 26.928123Q214.42813 26.396873 213.89688 26.084373Q213.38126 25.771873 212.67813 25.771873Q211.55313 25.771873 210.74063 26.490623Q209.92813 27.193748 209.92813 29.178123L209.92813 34.85L208.1625 34.85ZM218.52188 29.662498Q218.52188 26.787498 220.11563 25.396873Q221.45938 24.240623 223.38126 24.240623Q225.52188 24.240623 226.86563 25.646873Q228.225 27.053123 228.225 29.521873Q228.225 31.521873 227.63126 32.678123Q227.0375 33.81875 225.88126 34.459373Q224.74063 35.084373 223.38126 35.084373Q221.19376 35.084373 219.85 33.69375Q218.52188 32.2875 218.52188 29.662498ZM220.31876 29.662498Q220.31876 31.662498 221.17813 32.646873Q222.05313 33.63125 223.38126 33.63125Q224.69376 33.63125 225.55313 32.646873Q226.42813 31.646873 226.42813 29.599998Q226.42813 27.678123 225.55313 26.693748Q224.67813 25.693748 223.38126 25.693748Q222.05313 25.693748 221.17813 26.693748Q220.31876 27.678123 220.31876 29.662498ZM230.1625 34.85L230.1625 24.474998L231.75626 24.474998L231.75626 25.959373Q232.89688 24.240623 235.05313 24.240623Q235.99063 24.240623 236.77188 24.584373Q237.56876 24.912498 237.95938 25.459373Q238.35 26.006248 238.50626 26.756248Q238.6 27.256248 238.6 28.474998L238.6 34.85L236.83438 34.85L236.83438 28.537498Q236.83438 27.459373 236.63126 26.928123Q236.42813 26.396873 235.89688 26.084373Q235.38126 25.771873 234.67813 25.771873Q233.55313 25.771873 232.74063 26.490623Q231.92813 27.193748 231.92813 29.178123L231.92813 34.85L230.1625 34.85ZM240.49063 30.553123L240.49063 28.787498L245.88126 28.787498L245.88126 30.553123L240.49063 30.553123ZM248.39688 34.85L248.39688 20.537498L253.31876 20.537498Q254.99063 20.537498 255.88126 20.740623Q257.1 21.021873 257.975 21.756248Q259.1 22.724998 259.6625 24.209373Q260.225 25.693748 260.225 27.615623Q260.225 29.240623 259.85 30.506248Q259.475 31.756248 258.86563 32.584373Q258.27188 33.4125 257.56876 33.896873Q256.86563 34.365623 255.86563 34.615623Q254.86563 34.85 253.55313 34.85L248.39688 34.85ZM250.2875 33.1625L253.35 33.1625Q254.75626 33.1625 255.55313 32.896873Q256.36563 32.63125 256.85 32.146873Q257.52188 31.474998 257.89688 30.349998Q258.27188 29.209373 258.27188 27.584373Q258.27188 25.334373 257.5375 24.131248Q256.80313 22.928123 255.74063 22.521873Q254.99063 22.224998 253.30313 22.224998L250.2875 22.224998L250.2875 33.1625ZM262.31876 34.85L262.31876 20.537498L264.20938 20.537498L264.20938 33.1625L271.25626 33.1625L271.25626 34.85L262.31876 34.85Z" fill-rule="nonzero"/></svg>