<svg version="1.1" viewBox="0.0 0.0 512.0 317.0" fill="none" stroke="none" stroke-linecap="square" stroke-miterlimit="10" width="512" height="317" xmlns:xlink="http://www.w3.org/1999/xlink" xmlns="http://www.w3.org/2000/svg"><path fill="#ffffff" d="M0 0L512.0 0L512.0 317.0L0 317.0L0 0Z" fill-rule="nonzero"/><path fill="#4285f4" d="M256.0 50.416668C314.49026 50.416668 365.20816 90.86284 378.22345 147.88663L256.0 175.78334Z" fill-rule="nonzero"/><path fill="#ea4335" d="M378.22345 147.88663C389.9148 199.10968 368.42532 252.18906 324.3919 280.85165L256.0 175.78334Z" fill-rule="nonzero"/><path fill="#34a853" d="M157.98439 253.94817C127.95919 216.29776 122.15414 164.77644 143.04854 121.38878C163.94293 78.0011 207.8433 50.416668 256.0 50.416668L256.0 175.78334Z" fill-rule="nonzero"/><path fill="#fbbc04" d="M324.3919 280.85165C270.2722 316.07968 198.24638 304.43512 157.98439 253.94817L256.0 175.78334Z" fill-rule="nonzero"/><path fill="#1a1a1a" d="M22.9125 116.59288L24.0375 116.889755Q23.678125 118.28038 22.75625 119.014755Q21.834375 119.74913 20.490625 119.74913Q19.1 119.74913 18.225 119.18663Q17.35 118.62413 16.896875 117.56163Q16.44375 116.483505 16.44375 115.24913Q16.44375 113.90538 16.959375 112.90538Q17.475 111.90538 18.4125 111.389755Q19.365625 110.87413 20.50625 110.87413Q21.7875 110.87413 22.6625 111.53038Q23.553125 112.18663 23.896875 113.37413L22.771875 113.639755Q22.475 112.702255 21.896875 112.28038Q21.334375 111.84288 20.475 111.84288Q19.490625 111.84288 18.81875 112.327255Q18.1625 112.796005 17.88125 113.59288Q17.615625 114.389755 17.615625 115.24913Q17.615625 116.34288 17.928125 117.15538Q18.25625 117.96788 18.928125 118.37413Q19.6 118.78038 20.396875 118.78038Q21.35 118.78038 22.00625 118.233505Q22.678125 117.68663 22.9125 116.59288ZM25.25625 116.49913Q25.25625 114.764755 26.209375 113.93663Q27.00625 113.24913 28.1625 113.24913Q29.44375 113.24913 30.25625 114.09288Q31.084375 114.921005 31.084375 116.40538Q31.084375 117.608505 30.725 118.296005Q30.365625 118.983505 29.6625 119.37413Q28.975 119.74913 28.1625 119.74913Q26.865625 119.74913 26.053125 118.921005Q25.25625 118.077255 25.25625 116.49913ZM26.334375 116.49913Q26.334375 117.68663 26.85 118.28038Q27.38125 118.87413 28.1625 118.87413Q28.959375 118.87413 29.475 118.28038Q29.990625 117.68663 29.990625 116.46788Q29.990625 115.31163 29.459375 114.71788Q28.94375 114.12413 28.1625 114.12413Q27.38125 114.12413 26.85 114.71788Q26.334375 115.296005 26.334375 116.49913ZM36.678123 119.608505L36.678123 118.827255Q36.084373 119.74913 34.94375 119.74913Q34.19375 119.74913 33.56875 119.34288Q32.94375 118.921005 32.6 118.18663Q32.25625 117.452255 32.25625 116.49913Q32.25625 115.577255 32.56875 114.81163Q32.88125 114.046005 33.50625 113.65538Q34.13125 113.24913 34.896873 113.24913Q35.459373 113.24913 35.896873 113.483505Q36.334373 113.71788 36.615623 114.09288L36.615623 111.014755L37.6625 111.014755L37.6625 119.608505L36.678123 119.608505ZM33.35 116.49913Q33.35 117.702255 33.85 118.296005Q34.35 118.87413 35.0375 118.87413Q35.725 118.87413 36.209373 118.31163Q36.69375 117.74913 36.69375 116.59288Q36.69375 115.31163 36.19375 114.71788Q35.709373 114.12413 34.990623 114.12413Q34.2875 114.12413 33.81875 114.702255Q33.35 115.264755 33.35 116.49913ZM43.896873 117.608505L44.990623 117.733505Q44.740623 118.68663 44.0375 119.21788Q43.334373 119.74913 42.25625 119.74913Q40.896873 119.74913 40.084373 118.90538Q39.2875 118.06163 39.2875 116.546005Q39.2875 114.983505 40.1 114.12413Q40.9125 113.24913 42.19375 113.24913Q43.44375 113.24913 44.225 114.09288Q45.021873 114.93663 45.021873 116.483505Q45.021873 116.577255 45.021873 116.764755L40.38125 116.764755Q40.44375 117.796005 40.959373 118.34288Q41.475 118.87413 42.25625 118.87413Q42.834373 118.87413 43.240623 118.577255Q43.6625 118.264755 43.896873 117.608505ZM40.44375 115.90538L43.9125 115.90538Q43.85 115.108505 43.521873 114.71788Q43.00625 114.108505 42.209373 114.108505Q41.475 114.108505 40.975 114.59288Q40.490623 115.077255 40.44375 115.90538ZM53.709373 118.84288Q53.115623 119.34288 52.56875 119.546005Q52.0375 119.74913 51.4125 119.74913Q50.38125 119.74913 49.834373 119.24913Q49.2875 118.74913 49.2875 117.96788Q49.2875 117.514755 49.490623 117.139755Q49.69375 116.74913 50.0375 116.53038Q50.38125 116.296005 50.803123 116.18663Q51.1 116.09288 51.740623 116.014755Q53.00625 115.87413 53.615623 115.65538Q53.615623 115.43663 53.615623 115.389755Q53.615623 114.733505 53.31875 114.46788Q52.9125 114.12413 52.115623 114.12413Q51.38125 114.12413 51.021873 114.389755Q50.6625 114.639755 50.490623 115.296005L49.459373 115.15538Q49.6 114.49913 49.928123 114.09288Q50.25625 113.68663 50.865623 113.46788Q51.475 113.24913 52.271873 113.24913Q53.06875 113.24913 53.56875 113.43663Q54.06875 113.62413 54.303123 113.90538Q54.5375 114.18663 54.63125 114.62413Q54.678123 114.889755 54.678123 115.59288L54.678123 116.99913Q54.678123 118.46788 54.740623 118.858505Q54.81875 119.24913 55.021873 119.608505L53.9125 119.608505Q53.75625 119.28038 53.709373 118.84288ZM53.615623 116.483505Q53.0375 116.71788 51.896873 116.889755Q51.240623 116.983505 50.975 117.108505Q50.709373 117.21788 50.553123 117.43663Q50.4125 117.65538 50.4125 117.93663Q50.4125 118.358505 50.725 118.639755Q51.053123 118.921005 51.6625 118.921005Q52.271873 118.921005 52.740623 118.65538Q53.225 118.389755 53.44375 117.921005Q53.615623 117.56163 53.615623 116.87413L53.615623 116.483505ZM56.646873 119.608505L56.646873 113.389755L57.584373 113.389755L57.584373 114.264755Q58.271873 113.24913 59.56875 113.24913Q60.13125 113.24913 60.6 113.452255Q61.084373 113.65538 61.31875 113.983505Q61.553123 114.31163 61.646873 114.74913Q61.69375 115.046005 61.69375 115.78038L61.69375 119.608505L60.646873 119.608505L60.646873 115.827255Q60.646873 115.171005 60.521873 114.858505Q60.396873 114.546005 60.084373 114.358505Q59.771873 114.15538 59.35 114.15538Q58.678123 114.15538 58.178123 114.59288Q57.69375 115.014755 57.69375 116.202255L57.69375 119.608505L56.646873 119.608505ZM67.67812 119.608505L67.67812 118.827255Q67.08437 119.74913 65.94375 119.74913Q65.19375 119.74913 64.56875 119.34288Q63.94375 118.921005 63.6 118.18663Q63.25625 117.452255 63.25625 116.49913Q63.25625 115.577255 63.56875 114.81163Q63.88125 114.046005 64.50625 113.65538Q65.13125 113.24913 65.89687 113.24913Q66.45937 113.24913 66.89687 113.483505Q67.33437 113.71788 67.61562 114.09288L67.61562 111.014755L68.6625 111.014755L68.6625 119.608505L67.67812 119.608505ZM64.35 116.49913Q64.35 117.702255 64.85 118.296005Q65.35 118.87413 66.0375 118.87413Q66.725 118.87413 67.20937 118.31163Q67.69375 117.74913 67.69375 116.59288Q67.69375 115.31163 67.19375 114.71788Q66.70937 114.12413 65.99062 114.12413Q65.2875 114.12413 64.81875 114.702255Q64.35 115.264755 64.35 116.49913ZM73.77187 119.608505L73.77187 111.014755L76.74062 111.014755Q77.74062 111.014755 78.27187 111.139755Q79.00625 111.31163 79.52187 111.74913Q80.20937 112.327255 80.5375 113.233505Q80.88125 114.12413 80.88125 115.264755Q80.88125 116.24913 80.64687 116.99913Q80.42812 117.74913 80.06875 118.24913Q79.70937 118.74913 79.27187 119.03038Q78.85 119.31163 78.25625 119.46788Q77.6625 119.608505 76.88125 119.608505L73.77187 119.608505ZM74.9125 118.59288L76.74062 118.59288Q77.6 118.59288 78.08437 118.43663Q78.56875 118.28038 78.85 117.983505Q79.25625 117.59288 79.475 116.90538Q79.70937 116.21788 79.70937 115.24913Q79.70937 113.90538 79.25625 113.18663Q78.81875 112.452255 78.19375 112.202255Q77.725 112.03038 76.725 112.03038L74.9125 112.03038L74.9125 118.59288ZM86.70937 118.84288Q86.11562 119.34288 85.56875 119.546005Q85.0375 119.74913 84.4125 119.74913Q83.38125 119.74913 82.83437 119.24913Q82.2875 118.74913 82.2875 117.96788Q82.2875 117.514755 82.49062 117.139755Q82.69375 116.74913 83.0375 116.53038Q83.38125 116.296005 83.80312 116.18663Q84.1 116.09288 84.74062 116.014755Q86.00625 115.87413 86.61562 115.65538Q86.61562 115.43663 86.61562 115.389755Q86.61562 114.733505 86.31875 114.46788Q85.9125 114.12413 85.11562 114.12413Q84.38125 114.12413 84.02187 114.389755Q83.6625 114.639755 83.49062 115.296005L82.45937 115.15538Q82.6 114.49913 82.92812 114.09288Q83.25625 113.68663 83.86562 113.46788Q84.475 113.24913 85.27187 113.24913Q86.06875 113.24913 86.56875 113.43663Q87.06875 113.62413 87.30312 113.90538Q87.5375 114.18663 87.63125 114.62413Q87.67812 114.889755 87.67812 115.59288L87.67812 116.99913Q87.67812 118.46788 87.74062 118.858505Q87.81875 119.24913 88.02187 119.608505L86.9125 119.608505Q86.75625 119.28038 86.70937 118.84288ZM86.61562 116.483505Q86.0375 116.71788 84.89687 116.889755Q84.24062 116.983505 83.975 117.108505Q83.70937 117.21788 83.55312 117.43663Q83.4125 117.65538 83.4125 117.93663Q83.4125 118.358505 83.725 118.639755Q84.05312 118.921005 84.6625 118.921005Q85.27187 118.921005 85.74062 118.65538Q86.225 118.389755 86.44375 117.921005Q86.61562 117.56163 86.61562 116.87413L86.61562 116.483505ZM91.94375 118.671005L92.1 119.59288Q91.64687 119.68663 91.30312 119.68663Q90.725 119.68663 90.4125 119.514755Q90.1 119.327255 89.95937 119.03038Q89.83437 118.733505 89.83437 117.78038L89.83437 114.202255L89.06875 114.202255L89.06875 113.389755L89.83437 113.389755L89.83437 111.84288L90.88125 111.21788L90.88125 113.389755L91.94375 113.389755L91.94375 114.202255L90.88125 114.202255L90.88125 117.84288Q90.88125 118.296005 90.92812 118.421005Q90.99062 118.546005 91.11562 118.62413Q91.24062 118.702255 91.475 118.702255Q91.6625 118.702255 91.94375 118.671005ZM96.70937 118.84288Q96.11562 119.34288 95.56875 119.546005Q95.0375 119.74913 94.4125 119.74913Q93.38125 119.74913 92.83437 119.24913Q92.2875 118.74913 92.2875 117.96788Q92.2875 117.514755 92.49062 117.139755Q92.69375 116.74913 93.0375 116.53038Q93.38125 116.296005 93.80312 116.18663Q94.1 116.09288 94.74062 116.014755Q96.00625 115.87413 96.61562 115.65538Q96.61562 115.43663 96.61562 115.389755Q96.61562 114.733505 96.31875 114.46788Q95.9125 114.12413 95.11562 114.12413Q94.38125 114.12413 94.02187 114.389755Q93.6625 114.639755 93.49062 115.296005L92.45937 115.15538Q92.6 114.49913 92.92812 114.09288Q93.25625 113.68663 93.86562 113.46788Q94.475 113.24913 95.27187 113.24913Q96.06875 113.24913 96.56875 113.43663Q97.06875 113.62413 97.30312 113.90538Q97.5375 114.18663 97.63125 114.62413Q97.67812 114.889755 97.67812 115.59288L97.67812 116.99913Q97.67812 118.46788 97.74062 118.858505Q97.81875 119.24913 98.02187 119.608505L96.9125 119.608505Q96.75625 119.28038 96.70937 118.84288ZM96.61562 116.483505Q96.0375 116.71788 94.89687 116.889755Q94.24062 116.983505 93.975 117.108505Q93.70937 117.21788 93.55312 117.43663Q93.4125 117.65538 93.4125 117.93663Q93.4125 118.358505 93.725 118.639755Q94.05312 118.921005 94.6625 118.921005Q95.27187 118.921005 95.74062 118.65538Q96.225 118.389755 96.44375 117.921005Q96.61562 117.56163 96.61562 116.87413L96.61562 116.483505Z" fill-rule="nonzero"/><path fill="#9e9e9e" d="M16.35 134.34288L17.4125 134.20226Q17.584375 135.09288 18.021875 135.49913Q18.459375 135.88976 19.084375 135.88976Q19.834375 135.88976 20.35 135.37413Q20.865625 134.8585 20.865625 134.09288Q20.865625 133.37413 20.38125 132.90538Q19.9125 132.421 19.178125 132.421Q18.88125 132.421 18.428125 132.546L18.553125 131.6085Q18.6625 131.62413 18.725 131.62413Q19.396875 131.62413 19.928125 131.28038Q20.475 130.921 20.475 130.18663Q20.475 129.6085 20.084375 129.2335Q19.69375 128.84288 19.06875 128.84288Q18.459375 128.84288 18.0375 129.2335Q17.63125 129.62413 17.521875 130.38976L16.459375 130.20226Q16.646875 129.15538 17.334375 128.57726Q18.021875 127.983505 19.0375 127.983505Q19.740625 127.983505 20.334375 128.296Q20.928125 128.59288 21.240625 129.1085Q21.553125 129.62413 21.553125 130.21788Q21.553125 130.76476 21.25625 131.2335Q20.959375 131.68663 20.38125 131.95226Q21.13125 132.12413 21.553125 132.68663Q21.975 133.2335 21.975 134.07726Q21.975 135.20226 21.146875 135.9835Q20.334375 136.76476 19.084375 136.76476Q17.959375 136.76476 17.209375 136.09288Q16.459375 135.40538 16.35 134.34288ZM23.35 134.3585L24.459375 134.26476Q24.584375 135.07726 25.021875 135.4835Q25.475 135.88976 26.115625 135.88976Q26.865625 135.88976 27.396875 135.31163Q27.928125 134.7335 27.928125 133.796Q27.928125 132.88976 27.4125 132.37413Q26.9125 131.84288 26.084375 131.84288Q25.584375 131.84288 25.1625 132.07726Q24.75625 132.31163 24.521875 132.671L23.5375 132.546L24.365625 128.13976L28.646875 128.13976L28.646875 129.13976L25.209375 129.13976L24.75625 131.45226Q25.521875 130.90538 26.365625 130.90538Q27.490625 130.90538 28.25625 131.68663Q29.0375 132.46788 29.0375 133.70226Q29.0375 134.8585 28.365625 135.71788Q27.5375 136.74913 26.115625 136.74913Q24.94375 136.74913 24.19375 136.09288Q23.459375 135.43663 23.35 134.3585ZM30.94375 136.6085L30.94375 135.40538L32.146873 135.40538L32.146873 136.6085L30.94375 136.6085ZM33.4125 129.13976L33.4125 128.12413L38.975 128.12413L38.975 128.95226Q38.1625 129.82726 37.35 131.28038Q36.553123 132.71788 36.115623 134.24913Q35.7875 135.32726 35.709373 136.6085L34.615623 136.6085Q34.63125 135.59288 35.00625 134.15538Q35.396873 132.71788 36.1 131.38976Q36.81875 130.06163 37.63125 129.13976L33.4125 129.13976ZM40.553123 130.07726Q40.553123 129.15538 41.00625 128.51476Q41.475 127.87413 42.35 127.87413Q43.1625 127.87413 43.69375 128.45226Q44.225 129.03038 44.225 130.13976Q44.225 131.2335 43.678123 131.82726Q43.146873 132.40538 42.365623 132.40538Q41.584373 132.40538 41.06875 131.82726Q40.553123 131.24913 40.553123 130.07726ZM42.38125 128.59288Q41.990623 128.59288 41.725 128.93663Q41.475 129.28038 41.475 130.18663Q41.475 131.01476 41.725 131.3585Q41.990623 131.68663 42.38125 131.68663Q42.7875 131.68663 43.0375 131.34288Q43.303123 130.99913 43.303123 130.1085Q43.303123 129.26476 43.0375 128.93663Q42.771873 128.59288 42.38125 128.59288ZM42.38125 136.921L47.084373 127.87413L47.94375 127.87413L43.25625 136.921L42.38125 136.921ZM46.1 134.59288Q46.1 133.671 46.553123 133.03038Q47.021873 132.38976 47.9125 132.38976Q48.725 132.38976 49.25625 132.96788Q49.7875 133.53038 49.7875 134.65538Q49.7875 135.74913 49.240623 136.34288Q48.709373 136.921 47.9125 136.921Q47.146873 136.921 46.615623 136.34288Q46.1 135.76476 46.1 134.59288ZM47.94375 133.1085Q47.5375 133.1085 47.271873 133.45226Q47.021873 133.796 47.021873 134.70226Q47.021873 135.51476 47.2875 135.8585Q47.553123 136.20226 47.94375 136.20226Q48.334373 136.20226 48.6 135.8585Q48.865623 135.51476 48.865623 134.6085Q48.865623 133.78038 48.6 133.45226Q48.334373 133.1085 47.94375 133.1085Z" fill-rule="nonzero"/><path stroke="#757575" stroke-width="1.0" stroke-linecap="butt" d="M15.85 124.108505L124.63333 124.108505L148.6961 124.108505" fill-rule="nonzero"/><path fill="#9e9e9e" d="M150.6961 124.108505C150.6961 123.00394 149.80067 122.108505 148.6961 122.108505C147.59154 122.108505 146.6961 123.00394 146.6961 124.108505C146.6961 125.21307 147.59154 126.108505 148.6961 126.108505C149.80067 126.108505 150.6961 125.21307 150.6961 124.108505" fill-rule="nonzero"/><path fill="#1a1a1a" d="M16.771875 281.15L16.771875 272.55624L19.740625 272.55624Q20.740625 272.55624 21.271875 272.68124Q22.00625 272.85312 22.521875 273.29062Q23.209375 273.86874 23.5375 274.775Q23.88125 275.66562 23.88125 276.80624Q23.88125 277.79062 23.646875 278.54062Q23.428125 279.29062 23.06875 279.79062Q22.709375 280.29062 22.271875 280.57187Q21.85 280.85312 21.25625 281.00937Q20.6625 281.15 19.88125 281.15L16.771875 281.15ZM17.9125 280.13437L19.740625 280.13437Q20.6 280.13437 21.084375 279.97812Q21.56875 279.82187 21.85 279.525Q22.25625 279.13437 22.475 278.44687Q22.709375 277.75937 22.709375 276.79062Q22.709375 275.44687 22.25625 274.72812Q21.81875 273.99374 21.19375 273.74374Q20.725 273.57187 19.725 273.57187L17.9125 273.57187L17.9125 280.13437ZM29.709375 280.38437Q29.115625 280.88437 28.56875 281.0875Q28.0375 281.29062 27.4125 281.29062Q26.38125 281.29062 25.834375 280.79062Q25.2875 280.29062 25.2875 279.50937Q25.2875 279.05624 25.490625 278.68124Q25.69375 278.29062 26.0375 278.07187Q26.38125 277.8375 26.803125 277.72812Q27.1 277.63437 27.740625 277.55624Q29.00625 277.41562 29.615625 277.19687Q29.615625 276.97812 29.615625 276.93124Q29.615625 276.275 29.31875 276.00937Q28.9125 275.66562 28.115625 275.66562Q27.38125 275.66562 27.021875 275.93124Q26.6625 276.18124 26.490625 276.8375L25.459375 276.69687Q25.6 276.04062 25.928125 275.63437Q26.25625 275.22812 26.865625 275.00937Q27.475 274.79062 28.271875 274.79062Q29.06875 274.79062 29.56875 274.97812Q30.06875 275.16562 30.303125 275.44687Q30.5375 275.72812 30.63125 276.16562Q30.678125 276.43124 30.678125 277.13437L30.678125 278.54062Q30.678125 280.00937 30.740625 280.4Q30.81875 280.79062 31.021875 281.15L29.9125 281.15Q29.75625 280.82187 29.709375 280.38437ZM29.615625 278.025Q29.0375 278.25937 27.896875 278.43124Q27.240625 278.525 26.975 278.65Q26.709375 278.75937 26.553125 278.97812Q26.4125 279.19687 26.4125 279.47812Q26.4125 279.9 26.725 280.18124Q27.053125 280.4625 27.6625 280.4625Q28.271875 280.4625 28.740625 280.19687Q29.225 279.93124 29.44375 279.4625Q29.615625 279.10312 29.615625 278.41562L29.615625 278.025ZM34.94375 280.2125L35.1 281.13437Q34.646873 281.22812 34.303123 281.22812Q33.725 281.22812 33.4125 281.05624Q33.1 280.86874 32.959373 280.57187Q32.834373 280.275 32.834373 279.32187L32.834373 275.74374L32.06875 275.74374L32.06875 274.93124L32.834373 274.93124L32.834373 273.38437L33.88125 272.75937L33.88125 274.93124L34.94375 274.93124L34.94375 275.74374L33.88125 275.74374L33.88125 279.38437Q33.88125 279.8375 33.928123 279.9625Q33.990623 280.0875 34.115623 280.16562Q34.240623 280.24374 34.475 280.24374Q34.6625 280.24374 34.94375 280.2125ZM39.709373 280.38437Q39.115623 280.88437 38.56875 281.0875Q38.0375 281.29062 37.4125 281.29062Q36.38125 281.29062 35.834373 280.79062Q35.2875 280.29062 35.2875 279.50937Q35.2875 279.05624 35.490623 278.68124Q35.69375 278.29062 36.0375 278.07187Q36.38125 277.8375 36.803123 277.72812Q37.1 277.63437 37.740623 277.55624Q39.00625 277.41562 39.615623 277.19687Q39.615623 276.97812 39.615623 276.93124Q39.615623 276.275 39.31875 276.00937Q38.9125 275.66562 38.115623 275.66562Q37.38125 275.66562 37.021873 275.93124Q36.6625 276.18124 36.490623 276.8375L35.459373 276.69687Q35.6 276.04062 35.928123 275.63437Q36.25625 275.22812 36.865623 275.00937Q37.475 274.79062 38.271873 274.79062Q39.06875 274.79062 39.56875 274.97812Q40.06875 275.16562 40.303123 275.44687Q40.5375 275.72812 40.63125 276.16562Q40.678123 276.43124 40.678123 277.13437L40.678123 278.54062Q40.678123 280.00937 40.740623 280.4Q40.81875 280.79062 41.021873 281.15L39.9125 281.15Q39.75625 280.82187 39.709373 280.38437ZM39.615623 278.025Q39.0375 278.25937 37.896873 278.43124Q37.240623 278.525 36.975 278.65Q36.709373 278.75937 36.553123 278.97812Q36.4125 279.19687 36.4125 279.47812Q36.4125 279.9 36.725 280.18124Q37.053123 280.4625 37.6625 280.4625Q38.271873 280.4625 38.740623 280.19687Q39.225 279.93124 39.44375 279.4625Q39.615623 279.10312 39.615623 278.41562L39.615623 278.025ZM45.25625 278.04062Q45.25625 276.30624 46.209373 275.47812Q47.00625 274.79062 48.1625 274.79062Q49.44375 274.79062 50.25625 275.63437Q51.084373 276.4625 51.084373 277.94687Q51.084373 279.15 50.725 279.8375Q50.365623 280.525 49.6625 280.91562Q48.975 281.29062 48.1625 281.29062Q46.865623 281.29062 46.053123 280.4625Q45.25625 279.61874 45.25625 278.04062ZM46.334373 278.04062Q46.334373 279.22812 46.85 279.82187Q47.38125 280.41562 48.1625 280.41562Q48.959373 280.41562 49.475 279.82187Q49.990623 279.22812 49.990623 278.00937Q49.990623 276.85312 49.459373 276.25937Q48.94375 275.66562 48.1625 275.66562Q47.38125 275.66562 46.85 276.25937Q46.334373 276.8375 46.334373 278.04062ZM52.646873 281.15L52.646873 274.93124L53.584373 274.93124L53.584373 275.80624Q54.271873 274.79062 55.56875 274.79062Q56.13125 274.79062 56.6 274.99374Q57.084373 275.19687 57.31875 275.525Q57.553123 275.85312 57.646873 276.29062Q57.69375 276.5875 57.69375 277.32187L57.69375 281.15L56.646873 281.15L56.646873 277.36874Q56.646873 276.7125 56.521873 276.4Q56.396873 276.0875 56.084373 275.9Q55.771873 275.69687 55.35 275.69687Q54.678123 275.69687 54.178123 276.13437Q53.69375 276.55624 53.69375 277.74374L53.69375 281.15L52.646873 281.15ZM59.615623 281.15L59.615623 272.55624L60.678123 272.55624L60.678123 281.15L59.615623 281.15ZM62.6 283.54062L62.475 282.55624Q62.81875 282.65 63.084373 282.65Q63.428123 282.65 63.63125 282.525Q63.85 282.41562 63.990623 282.2125Q64.08437 282.04062 64.31875 281.41562Q64.33437 281.3375 64.4125 281.16562L62.0375 274.93124L63.178123 274.93124L64.475 278.525Q64.725 279.2125 64.92812 279.97812Q65.11562 279.24374 65.36562 278.55624L66.69375 274.93124L67.74062 274.93124L65.38125 281.25937Q64.99062 282.275 64.7875 282.66562Q64.50625 283.19687 64.13125 283.43124Q63.771873 283.68124 63.271873 283.68124Q62.975 283.68124 62.6 283.54062Z" fill-rule="nonzero"/><path fill="#9e9e9e" d="M21.896875 297.13437L21.896875 298.15L16.209375 298.15Q16.209375 297.775 16.334375 297.41562Q16.553125 296.8375 17.021875 296.275Q17.50625 295.7125 18.4125 294.97812Q19.81875 293.82187 20.303125 293.15Q20.803125 292.47812 20.803125 291.88437Q20.803125 291.25937 20.35 290.8375Q19.896875 290.4 19.178125 290.4Q18.4125 290.4 17.959375 290.85312Q17.50625 291.30624 17.490625 292.11874L16.4125 292.00937Q16.521875 290.79062 17.240625 290.16562Q17.975 289.525 19.209375 289.525Q20.44375 289.525 21.1625 290.2125Q21.88125 290.9 21.88125 291.91562Q21.88125 292.43124 21.6625 292.93124Q21.459375 293.41562 20.959375 293.97812Q20.475 294.525 19.35 295.47812Q18.396875 296.275 18.115625 296.57187Q17.85 296.85312 17.678125 297.13437L21.896875 297.13437ZM23.35 295.88437L24.4125 295.74374Q24.584375 296.63437 25.021875 297.04062Q25.459375 297.43124 26.084375 297.43124Q26.834375 297.43124 27.35 296.91562Q27.865625 296.4 27.865625 295.63437Q27.865625 294.91562 27.38125 294.44687Q26.9125 293.9625 26.178125 293.9625Q25.88125 293.9625 25.428125 294.0875L25.553125 293.15Q25.6625 293.16562 25.725 293.16562Q26.396875 293.16562 26.928125 292.82187Q27.475 292.4625 27.475 291.72812Q27.475 291.15 27.084375 290.775Q26.69375 290.38437 26.06875 290.38437Q25.459375 290.38437 25.0375 290.775Q24.63125 291.16562 24.521875 291.93124L23.459375 291.74374Q23.646875 290.69687 24.334375 290.11874Q25.021875 289.525 26.0375 289.525Q26.740625 289.525 27.334375 289.8375Q27.928125 290.13437 28.240625 290.65Q28.553125 291.16562 28.553125 291.75937Q28.553125 292.30624 28.25625 292.775Q27.959375 293.22812 27.38125 293.49374Q28.13125 293.66562 28.553125 294.22812Q28.975 294.775 28.975 295.61874Q28.975 296.74374 28.146875 297.525Q27.334375 298.30624 26.084375 298.30624Q24.959375 298.30624 24.209375 297.63437Q23.459375 296.94687 23.35 295.88437ZM30.94375 298.15L30.94375 296.94687L32.146873 296.94687L32.146873 298.15L30.94375 298.15ZM33.35 295.9L34.459373 295.80624Q34.584373 296.61874 35.021873 297.025Q35.475 297.43124 36.115623 297.43124Q36.865623 297.43124 37.396873 296.85312Q37.928123 296.275 37.928123 295.3375Q37.928123 294.43124 37.4125 293.91562Q36.9125 293.38437 36.084373 293.38437Q35.584373 293.38437 35.1625 293.61874Q34.75625 293.85312 34.521873 294.2125L33.5375 294.0875L34.365623 289.68124L38.646873 289.68124L38.646873 290.68124L35.209373 290.68124L34.75625 292.99374Q35.521873 292.44687 36.365623 292.44687Q37.490623 292.44687 38.25625 293.22812Q39.0375 294.00937 39.0375 295.24374Q39.0375 296.4 38.365623 297.25937Q37.5375 298.29062 36.115623 298.29062Q34.94375 298.29062 34.19375 297.63437Q33.459373 296.97812 33.35 295.9ZM40.553123 291.61874Q40.553123 290.69687 41.00625 290.05624Q41.475 289.41562 42.35 289.41562Q43.1625 289.41562 43.69375 289.99374Q44.225 290.57187 44.225 291.68124Q44.225 292.775 43.678123 293.36874Q43.146873 293.94687 42.365623 293.94687Q41.584373 293.94687 41.06875 293.36874Q40.553123 292.79062 40.553123 291.61874ZM42.38125 290.13437Q41.990623 290.13437 41.725 290.47812Q41.475 290.82187 41.475 291.72812Q41.475 292.55624 41.725 292.9Q41.990623 293.22812 42.38125 293.22812Q42.7875 293.22812 43.0375 292.88437Q43.303123 292.54062 43.303123 291.65Q43.303123 290.80624 43.0375 290.47812Q42.771873 290.13437 42.38125 290.13437ZM42.38125 298.4625L47.084373 289.41562L47.94375 289.41562L43.25625 298.4625L42.38125 298.4625ZM46.1 296.13437Q46.1 295.2125 46.553123 294.57187Q47.021873 293.93124 47.9125 293.93124Q48.725 293.93124 49.25625 294.50937Q49.7875 295.07187 49.7875 296.19687Q49.7875 297.29062 49.240623 297.88437Q48.709373 298.4625 47.9125 298.4625Q47.146873 298.4625 46.615623 297.88437Q46.1 297.30624 46.1 296.13437ZM47.94375 294.65Q47.5375 294.65 47.271873 294.99374Q47.021873 295.3375 47.021873 296.24374Q47.021873 297.05624 47.2875 297.4Q47.553123 297.74374 47.94375 297.74374Q48.334373 297.74374 48.6 297.4Q48.865623 297.05624 48.865623 296.15Q48.865623 295.32187 48.6 294.99374Q48.334373 294.65 47.94375 294.65Z" fill-rule="nonzero"/><path stroke="#757575" stroke-width="1.0" stroke-linecap="butt" d="M15.85 285.65L124.63333 285.65L236.99191 293.35504" fill-rule="nonzero"/><path fill="#9e9e9e" d="M238.99191 293.35504C238.99191 292.25046 238.09648 291.35504 236.99191 291.35504C235.88734 291.35504 234.99191 292.25046 234.99191 293.35504C234.99191 294.4596 235.88734 295.35504 236.99191 295.35504C238.09648 295.35504 238.99191 294.4596 238.99191 293.35504" fill-rule="nonzero"/><path fill="#1a1a1a" d="M467.07187 78.16851L467.07187 69.57476L468.22812 69.57476L472.74374 76.32476L472.74374 69.57476L473.8375 69.57476L473.8375 78.16851L472.66562 78.16851L468.15 71.41851L468.15 78.16851L467.07187 78.16851ZM475.55624 75.059135Q475.55624 73.32476 476.50937 72.496635Q477.30624 71.809135 478.4625 71.809135Q479.74374 71.809135 480.55624 72.652885Q481.38437 73.48101 481.38437 74.965385Q481.38437 76.16851 481.025 76.85601Q480.66562 77.54351 479.9625 77.934135Q479.275 78.309135 478.4625 78.309135Q477.16562 78.309135 476.35312 77.48101Q475.55624 76.63726 475.55624 75.059135ZM476.63437 75.059135Q476.63437 76.246635 477.15 76.840385Q477.68124 77.434135 478.4625 77.434135Q479.25937 77.434135 479.775 76.840385Q480.29062 76.246635 480.29062 75.027885Q480.29062 73.871635 479.75937 73.277885Q479.24374 72.684135 478.4625 72.684135Q477.68124 72.684135 477.15 73.277885Q476.63437 73.85601 476.63437 75.059135ZM482.94687 78.16851L482.94687 71.94976L483.88437 71.94976L483.88437 72.82476Q484.57187 71.809135 485.86874 71.809135Q486.43124 71.809135 486.9 72.01226Q487.38437 72.215385 487.61874 72.54351Q487.85312 72.871635 487.94687 73.309135Q487.99374 73.60601 487.99374 74.340385L487.99374 78.16851L486.94687 78.16851L486.94687 74.38726Q486.94687 73.73101 486.82187 73.41851Q486.69687 73.10601 486.38437 72.91851Q486.07187 72.715385 485.65 72.715385Q484.97812 72.715385 484.47812 73.152885Q483.99374 73.57476 483.99374 74.76226L483.99374 78.16851L482.94687 78.16851ZM494.19687 76.16851L495.29062 76.29351Q495.04062 77.246635 494.3375 77.777885Q493.63437 78.309135 492.55624 78.309135Q491.19687 78.309135 490.38437 77.465385Q489.5875 76.621635 489.5875 75.10601Q489.5875 73.54351 490.4 72.684135Q491.2125 71.809135 492.49374 71.809135Q493.74374 71.809135 494.525 72.652885Q495.32187 73.496635 495.32187 75.04351Q495.32187 75.13726 495.32187 75.32476L490.68124 75.32476Q490.74374 76.35601 491.25937 76.902885Q491.775 77.434135 492.55624 77.434135Q493.13437 77.434135 493.54062 77.13726Q493.9625 76.82476 494.19687 76.16851ZM490.74374 74.465385L494.2125 74.465385Q494.15 73.66851 493.82187 73.277885Q493.30624 72.66851 492.50937 72.66851Q491.775 72.66851 491.275 73.152885Q490.79062 73.63726 490.74374 74.465385Z" fill-rule="nonzero"/><path fill="#9e9e9e" d="M467.19687 94.152885L467.19687 95.16851L461.50937 95.16851Q461.50937 94.79351 461.63437 94.434135Q461.85312 93.85601 462.32187 93.29351Q462.80624 92.73101 463.7125 91.996635Q465.11874 90.840385 465.60312 90.16851Q466.10312 89.496635 466.10312 88.902885Q466.10312 88.277885 465.65 87.85601Q465.19687 87.41851 464.47812 87.41851Q463.7125 87.41851 463.25937 87.871635Q462.80624 88.32476 462.79062 89.13726L461.7125 89.027885Q461.82187 87.809135 462.54062 87.184135Q463.275 86.54351 464.50937 86.54351Q465.74374 86.54351 466.4625 87.23101Q467.18124 87.91851 467.18124 88.934135Q467.18124 89.44976 466.9625 89.94976Q466.75937 90.434135 466.25937 90.996635Q465.775 91.54351 464.65 92.496635Q463.69687 93.29351 463.41562 93.590385Q463.15 93.871635 462.97812 94.152885L467.19687 94.152885ZM472.61874 95.16851L471.57187 95.16851L471.57187 88.44976Q471.18124 88.809135 470.55624 89.184135Q469.94687 89.54351 469.4625 89.715385L469.4625 88.69976Q470.3375 88.277885 470.99374 87.69976Q471.66562 87.10601 471.94687 86.54351L472.61874 86.54351L472.61874 95.16851ZM476.24374 95.16851L476.24374 93.965385L477.44687 93.965385L477.44687 95.16851L476.24374 95.16851ZM482.025 95.16851L482.025 93.10601L478.30624 93.10601L478.30624 92.13726L482.22812 86.57476L483.0875 86.57476L483.0875 92.13726L484.24374 92.13726L484.24374 93.10601L483.0875 93.10601L483.0875 95.16851L482.025 95.16851ZM482.025 92.13726L482.025 88.277885L479.3375 92.13726L482.025 92.13726ZM485.85312 88.63726Q485.85312 87.715385 486.30624 87.07476Q486.775 86.434135 487.65 86.434135Q488.4625 86.434135 488.99374 87.01226Q489.525 87.590385 489.525 88.69976Q489.525 89.79351 488.97812 90.38726Q488.44687 90.965385 487.66562 90.965385Q486.88437 90.965385 486.36874 90.38726Q485.85312 89.809135 485.85312 88.63726ZM487.68124 87.152885Q487.29062 87.152885 487.025 87.496635Q486.775 87.840385 486.775 88.746635Q486.775 89.57476 487.025 89.91851Q487.29062 90.246635 487.68124 90.246635Q488.0875 90.246635 488.3375 89.902885Q488.60312 89.559135 488.60312 88.66851Q488.60312 87.82476 488.3375 87.496635Q488.07187 87.152885 487.68124 87.152885ZM487.68124 95.48101L492.38437 86.434135L493.24374 86.434135L488.55624 95.48101L487.68124 95.48101ZM491.4 93.152885Q491.4 92.23101 491.85312 91.590385Q492.32187 90.94976 493.2125 90.94976Q494.025 90.94976 494.55624 91.527885Q495.0875 92.090385 495.0875 93.215385Q495.0875 94.309135 494.54062 94.902885Q494.00937 95.48101 493.2125 95.48101Q492.44687 95.48101 491.91562 94.902885Q491.4 94.32476 491.4 93.152885ZM493.24374 91.66851Q492.8375 91.66851 492.57187 92.01226Q492.32187 92.35601 492.32187 93.26226Q492.32187 94.07476 492.5875 94.41851Q492.85312 94.76226 493.24374 94.76226Q493.63437 94.76226 493.9 94.41851Q494.16562 94.07476 494.16562 93.16851Q494.16562 92.340385 493.9 92.01226Q493.63437 91.66851 493.24374 91.66851Z" fill-rule="nonzero"/><path stroke="#757575" stroke-width="1.0" stroke-linecap="butt" d="M496.15 82.66851L387.36667 82.66851L330.2566 82.66851" fill-rule="nonzero"/><path fill="#9e9e9e" d="M332.2566 82.66851C332.2566 81.563934 331.36118 80.66851 330.2566 80.66851C329.15204 80.66851 328.2566 81.563934 328.2566 82.66851C328.2566 83.77308 329.15204 84.66851 330.2566 84.66851C331.36118 84.66851 332.2566 83.77308 332.2566 82.66851" fill-rule="nonzero"/><path fill="#1a1a1a" d="M447.2125 212.96138L448.3375 213.25826Q447.97812 214.64888 447.05624 215.38326Q446.13437 216.11763 444.79062 216.11763Q443.4 216.11763 442.525 215.55513Q441.65 214.99263 441.19687 213.93013Q440.74374 212.852 440.74374 211.61763Q440.74374 210.27388 441.25937 209.27388Q441.775 208.27388 442.7125 207.75826Q443.66562 207.24263 444.80624 207.24263Q446.0875 207.24263 446.9625 207.89888Q447.85312 208.55513 448.19687 209.74263L447.07187 210.00826Q446.775 209.07076 446.19687 208.64888Q445.63437 208.21138 444.775 208.21138Q443.79062 208.21138 443.11874 208.69576Q442.4625 209.1645 442.18124 209.96138Q441.91562 210.75826 441.91562 211.61763Q441.91562 212.71138 442.22812 213.52388Q442.55624 214.33638 443.22812 214.74263Q443.9 215.14888 444.69687 215.14888Q445.65 215.14888 446.30624 214.602Q446.97812 214.05513 447.2125 212.96138ZM449.55624 212.86763Q449.55624 211.13326 450.50937 210.30513Q451.30624 209.61763 452.4625 209.61763Q453.74374 209.61763 454.55624 210.46138Q455.38437 211.2895 455.38437 212.77388Q455.38437 213.977 455.025 214.6645Q454.66562 215.352 453.9625 215.74263Q453.275 216.11763 452.4625 216.11763Q451.16562 216.11763 450.35312 215.2895Q449.55624 214.44576 449.55624 212.86763ZM450.63437 212.86763Q450.63437 214.05513 451.15 214.64888Q451.68124 215.24263 452.4625 215.24263Q453.25937 215.24263 453.775 214.64888Q454.29062 214.05513 454.29062 212.83638Q454.29062 211.68013 453.75937 211.08638Q453.24374 210.49263 452.4625 210.49263Q451.68124 210.49263 451.15 211.08638Q450.63437 211.6645 450.63437 212.86763ZM460.97812 215.977L460.97812 215.19576Q460.38437 216.11763 459.24374 216.11763Q458.49374 216.11763 457.86874 215.71138Q457.24374 215.2895 456.9 214.55513Q456.55624 213.82076 456.55624 212.86763Q456.55624 211.94576 456.86874 211.18013Q457.18124 210.4145 457.80624 210.02388Q458.43124 209.61763 459.19687 209.61763Q459.75937 209.61763 460.19687 209.852Q460.63437 210.08638 460.91562 210.46138L460.91562 207.38326L461.9625 207.38326L461.9625 215.977L460.97812 215.977ZM457.65 212.86763Q457.65 214.07076 458.15 214.6645Q458.65 215.24263 459.3375 215.24263Q460.025 215.24263 460.50937 214.68013Q460.99374 214.11763 460.99374 212.96138Q460.99374 211.68013 460.49374 211.08638Q460.00937 210.49263 459.29062 210.49263Q458.5875 210.49263 458.11874 211.07076Q457.65 211.63326 457.65 212.86763ZM468.19687 213.977L469.29062 214.102Q469.04062 215.05513 468.3375 215.58638Q467.63437 216.11763 466.55624 216.11763Q465.19687 216.11763 464.38437 215.27388Q463.5875 214.43013 463.5875 212.9145Q463.5875 211.352 464.4 210.49263Q465.2125 209.61763 466.49374 209.61763Q467.74374 209.61763 468.525 210.46138Q469.32187 211.30513 469.32187 212.852Q469.32187 212.94576 469.32187 213.13326L464.68124 213.13326Q464.74374 214.1645 465.25937 214.71138Q465.775 215.24263 466.55624 215.24263Q467.13437 215.24263 467.54062 214.94576Q467.9625 214.63326 468.19687 213.977ZM464.74374 212.27388L468.2125 212.27388Q468.15 211.477 467.82187 211.08638Q467.30624 210.477 466.50937 210.477Q465.775 210.477 465.275 210.96138Q464.79062 211.44576 464.74374 212.27388ZM473.55624 212.86763Q473.55624 211.13326 474.50937 210.30513Q475.30624 209.61763 476.4625 209.61763Q477.74374 209.61763 478.55624 210.46138Q479.38437 211.2895 479.38437 212.77388Q479.38437 213.977 479.025 214.6645Q478.66562 215.352 477.9625 215.74263Q477.275 216.11763 476.4625 216.11763Q475.16562 216.11763 474.35312 215.2895Q473.55624 214.44576 473.55624 212.86763ZM474.63437 212.86763Q474.63437 214.05513 475.15 214.64888Q475.68124 215.24263 476.4625 215.24263Q477.25937 215.24263 477.775 214.64888Q478.29062 214.05513 478.29062 212.83638Q478.29062 211.68013 477.75937 211.08638Q477.24374 210.49263 476.4625 210.49263Q475.68124 210.49263 475.15 211.08638Q474.63437 211.6645 474.63437 212.86763ZM480.94687 215.977L480.94687 209.75826L481.88437 209.75826L481.88437 210.63326Q482.57187 209.61763 483.86874 209.61763Q484.43124 209.61763 484.9 209.82076Q485.38437 210.02388 485.61874 210.352Q485.85312 210.68013 485.94687 211.11763Q485.99374 211.4145 485.99374 212.14888L485.99374 215.977L484.94687 215.977L484.94687 212.19576Q484.94687 211.5395 484.82187 211.227Q484.69687 210.9145 484.38437 210.727Q484.07187 210.52388 483.65 210.52388Q482.97812 210.52388 482.47812 210.96138Q481.99374 211.38326 481.99374 212.57076L481.99374 215.977L480.94687 215.977ZM487.91562 215.977L487.91562 207.38326L488.97812 207.38326L488.97812 215.977L487.91562 215.977ZM490.9 218.36763L490.775 217.38326Q491.11874 217.477 491.38437 217.477Q491.72812 217.477 491.93124 217.352Q492.15 217.24263 492.29062 217.0395Q492.38437 216.86763 492.61874 216.24263Q492.63437 216.1645 492.7125 215.99263L490.3375 209.75826L491.47812 209.75826L492.775 213.352Q493.025 214.0395 493.22812 214.80513Q493.41562 214.07076 493.66562 213.38326L494.99374 209.75826L496.04062 209.75826L493.68124 216.08638Q493.29062 217.102 493.0875 217.49263Q492.80624 218.02388 492.43124 218.25826Q492.07187 218.50826 491.57187 218.50826Q491.275 218.50826 490.9 218.36763Z" fill-rule="nonzero"/><path fill="#9e9e9e" d="M465.61874 232.977L464.57187 232.977L464.57187 226.25826Q464.18124 226.61763 463.55624 226.99263Q462.94687 227.352 462.4625 227.52388L462.4625 226.50826Q463.3375 226.08638 463.99374 225.50826Q464.66562 224.9145 464.94687 224.352L465.61874 224.352L465.61874 232.977ZM468.80624 230.99263L469.82187 230.89888Q469.94687 231.61763 470.30624 231.94576Q470.68124 232.25826 471.24374 232.25826Q471.72812 232.25826 472.0875 232.0395Q472.4625 231.80513 472.69687 231.44576Q472.93124 231.07076 473.0875 230.44576Q473.24374 229.80513 473.24374 229.14888Q473.24374 229.07076 473.24374 228.93013Q472.93124 229.43013 472.38437 229.75826Q471.8375 230.07076 471.19687 230.07076Q470.11874 230.07076 469.38437 229.30513Q468.65 228.52388 468.65 227.25826Q468.65 225.94576 469.41562 225.14888Q470.19687 224.352 471.35312 224.352Q472.18124 224.352 472.86874 224.80513Q473.57187 225.25826 473.93124 226.102Q474.29062 226.93013 474.29062 228.50826Q474.29062 230.14888 473.93124 231.13326Q473.5875 232.102 472.86874 232.61763Q472.16562 233.11763 471.22812 233.11763Q470.2125 233.11763 469.57187 232.57076Q468.93124 232.00826 468.80624 230.99263ZM473.11874 227.19576Q473.11874 226.2895 472.63437 225.75826Q472.16562 225.227 471.47812 225.227Q470.775 225.227 470.24374 225.80513Q469.72812 226.36763 469.72812 227.2895Q469.72812 228.102 470.22812 228.61763Q470.72812 229.13326 471.44687 229.13326Q472.18124 229.13326 472.65 228.61763Q473.11874 228.102 473.11874 227.19576ZM476.24374 232.977L476.24374 231.77388L477.44687 231.77388L477.44687 232.977L476.24374 232.977ZM482.025 232.977L482.025 230.9145L478.30624 230.9145L478.30624 229.94576L482.22812 224.38326L483.0875 224.38326L483.0875 229.94576L484.24374 229.94576L484.24374 230.9145L483.0875 230.9145L483.0875 232.977L482.025 232.977ZM482.025 229.94576L482.025 226.08638L479.3375 229.94576L482.025 229.94576ZM485.85312 226.44576Q485.85312 225.52388 486.30624 224.88326Q486.775 224.24263 487.65 224.24263Q488.4625 224.24263 488.99374 224.82076Q489.525 225.39888 489.525 226.50826Q489.525 227.602 488.97812 228.19576Q488.44687 228.77388 487.66562 228.77388Q486.88437 228.77388 486.36874 228.19576Q485.85312 227.61763 485.85312 226.44576ZM487.68124 224.96138Q487.29062 224.96138 487.025 225.30513Q486.775 225.64888 486.775 226.55513Q486.775 227.38326 487.025 227.727Q487.29062 228.05513 487.68124 228.05513Q488.0875 228.05513 488.3375 227.71138Q488.60312 227.36763 488.60312 226.477Q488.60312 225.63326 488.3375 225.30513Q488.07187 224.96138 487.68124 224.96138ZM487.68124 233.2895L492.38437 224.24263L493.24374 224.24263L488.55624 233.2895L487.68124 233.2895ZM491.4 230.96138Q491.4 230.0395 491.85312 229.39888Q492.32187 228.75826 493.2125 228.75826Q494.025 228.75826 494.55624 229.33638Q495.0875 229.89888 495.0875 231.02388Q495.0875 232.11763 494.54062 232.71138Q494.00937 233.2895 493.2125 233.2895Q492.44687 233.2895 491.91562 232.71138Q491.4 232.13326 491.4 230.96138ZM493.24374 229.477Q492.8375 229.477 492.57187 229.82076Q492.32187 230.1645 492.32187 231.07076Q492.32187 231.88326 492.5875 232.227Q492.85312 232.57076 493.24374 232.57076Q493.63437 232.57076 493.9 232.227Q494.16562 231.88326 494.16562 230.977Q494.16562 230.14888 493.9 229.82076Q493.63437 229.477 493.24374 229.477Z" fill-rule="nonzero"/><path stroke="#757575" stroke-width="1.0" stroke-linecap="butt" d="M496.15 220.477L387.36667 220.477L366.39423 220.477" fill-rule="nonzero"/><path fill="#9e9e9e" d="M368.39423 220.477C368.39423 219.37244 367.4988 218.477 366.39423 218.477C365.28967 218.477 364.39423 219.37244 364.39423 220.477C364.39423 221.58157 365.28967 222.477 366.39423 222.477C367.4988 222.477 368.39423 221.58157 368.39423 220.477" fill-rule="nonzero"/><path fill="#757575" d="M17.396875 34.85L17.396875 20.537498L22.7875 20.537498Q24.225 20.537498 24.975 20.662498Q26.021875 20.849998 26.740625 21.349998Q27.459375 21.834373 27.88125 22.724998Q28.31875 23.615623 28.31875 24.678123Q28.31875 26.506248 27.146875 27.771873Q25.990625 29.021873 22.959375 29.021873L19.2875 29.021873L19.2875 34.85L17.396875 34.85ZM19.2875 27.334373L22.990625 27.334373Q24.81875 27.334373 25.584375 26.662498Q26.365625 25.974998 26.365625 24.724998Q26.365625 23.834373 25.9125 23.193748Q25.459375 22.553123 24.725 22.349998Q24.240625 22.224998 22.94375 22.224998L19.2875 22.224998L19.2875 27.334373ZM36.94375 33.56875Q35.959373 34.396873 35.053123 34.740623Q34.146873 35.084373 33.115623 35.084373Q31.4125 35.084373 30.490625 34.25625Q29.56875 33.4125 29.56875 32.115623Q29.56875 31.349998 29.9125 30.724998Q30.271875 30.099998 30.834375 29.724998Q31.396875 29.334373 32.1 29.131248Q32.615623 29.006248 33.6625 28.865623Q35.7875 28.615623 36.7875 28.271873Q36.803123 27.912498 36.803123 27.803123Q36.803123 26.740623 36.303123 26.287498Q35.63125 25.693748 34.303123 25.693748Q33.053123 25.693748 32.459373 26.131248Q31.88125 26.568748 31.6 27.678123L29.88125 27.443748Q30.115625 26.334373 30.646875 25.662498Q31.178125 24.974998 32.19375 24.615623Q33.209373 24.240623 34.553123 24.240623Q35.88125 24.240623 36.709373 24.553123Q37.5375 24.865623 37.928123 25.349998Q38.31875 25.818748 38.475 26.537498Q38.56875 26.990623 38.56875 28.162498L38.56875 30.506248Q38.56875 32.959373 38.678123 33.615623Q38.7875 34.25625 39.13125 34.85L37.2875 34.85Q37.021873 34.303123 36.94375 33.56875ZM36.7875 29.646873Q35.834373 30.037498 33.9125 30.303123Q32.834373 30.459373 32.38125 30.662498Q31.94375 30.849998 31.69375 31.224998Q31.44375 31.599998 31.44375 32.06875Q31.44375 32.771873 31.975 33.240623Q32.50625 33.709373 33.5375 33.709373Q34.553123 33.709373 35.334373 33.271873Q36.13125 32.81875 36.50625 32.053123Q36.7875 31.443748 36.7875 30.287498L36.7875 29.646873ZM41.1625 38.81875L41.1625 24.474998L42.771873 24.474998L42.771873 25.818748Q43.334373 25.037498 44.0375 24.646873Q44.75625 24.240623 45.771873 24.240623Q47.1 24.240623 48.115623 24.928123Q49.13125 25.615623 49.646873 26.865623Q50.178123 28.099998 50.178123 29.584373Q50.178123 31.178123 49.6 32.459373Q49.0375 33.725 47.94375 34.4125Q46.85 35.084373 45.646873 35.084373Q44.771873 35.084373 44.06875 34.709373Q43.38125 34.334373 42.928123 33.771873L42.928123 38.81875L41.1625 38.81875ZM42.75625 29.724998Q42.75625 31.724998 43.56875 32.678123Q44.38125 33.63125 45.5375 33.63125Q46.709373 33.63125 47.5375 32.646873Q48.38125 31.662498 48.38125 29.568748Q48.38125 27.599998 47.553123 26.615623Q46.740623 25.615623 45.615623 25.615623Q44.490623 25.615623 43.615623 26.678123Q42.75625 27.724998 42.75625 29.724998ZM59.271873 31.506248L61.084373 31.740623Q60.6625 33.31875 59.490623 34.209373Q58.334373 35.084373 56.521873 35.084373Q54.25625 35.084373 52.9125 33.69375Q51.584373 32.2875 51.584373 29.756248Q51.584373 27.131248 52.928123 25.693748Q54.271873 24.240623 56.428123 24.240623Q58.50625 24.240623 59.81875 25.662498Q61.146873 27.068748 61.146873 29.646873Q61.146873 29.803123 61.13125 30.115623L53.396873 30.115623Q53.490623 31.818748 54.365623 32.725Q55.240623 33.63125 56.5375 33.63125Q57.50625 33.63125 58.178123 33.13125Q58.865623 32.615623 59.271873 31.506248ZM53.490623 28.662498L59.2875 28.662498Q59.178123 27.365623 58.63125 26.709373Q57.7875 25.693748 56.44375 25.693748Q55.240623 25.693748 54.4125 26.506248Q53.584373 27.303123 53.490623 28.662498ZM63.146873 34.85L63.146873 24.474998L64.725 24.474998L64.725 26.053123Q65.33437 24.943748 65.85 24.599998Q66.36562 24.240623 66.975 24.240623Q67.86562 24.240623 68.7875 24.803123L68.17812 26.443748Q67.5375 26.053123 66.89687 26.053123Q66.31875 26.053123 65.85 26.412498Q65.39687 26.756248 65.19375 27.365623Q64.9125 28.303123 64.9125 29.412498L64.9125 34.85L63.146873 34.85ZM69.45937 31.756248L71.20937 31.474998Q71.35 32.521873 72.02187 33.084373Q72.69375 33.63125 73.89687 33.63125Q75.1 33.63125 75.67812 33.146873Q76.27187 32.646873 76.27187 31.990623Q76.27187 31.396873 75.75625 31.053123Q75.39687 30.818748 73.95937 30.459373Q72.02187 29.959373 71.27187 29.615623Q70.5375 29.256248 70.14687 28.631248Q69.75625 27.990623 69.75625 27.224998Q69.75625 26.537498 70.06875 25.943748Q70.39687 25.349998 70.94375 24.959373Q71.35 24.662498 72.05312 24.459373Q72.77187 24.240623 73.58437 24.240623Q74.80312 24.240623 75.725 24.599998Q76.64687 24.943748 77.08437 25.553123Q77.52187 26.146873 77.69375 27.146873L75.975 27.381248Q75.85 26.584373 75.2875 26.146873Q74.725 25.693748 73.70937 25.693748Q72.49062 25.693748 71.975 26.099998Q71.45937 26.490623 71.45937 27.021873Q71.45937 27.365623 71.67812 27.646873Q71.88125 27.928123 72.35 28.115623Q72.61562 28.209373 73.89687 28.553123Q75.77187 29.053123 76.50625 29.381248Q77.24062 29.693748 77.6625 30.303123Q78.08437 30.896873 78.08437 31.803123Q78.08437 32.678123 77.56875 33.459373Q77.05312 34.240623 76.08437 34.6625Q75.11562 35.084373 73.89687 35.084373Q71.88125 35.084373 70.81875 34.240623Q69.75625 33.396873 69.45937 31.756248ZM88.08437 34.85L84.9125 24.474998L86.725 24.474998L88.38125 30.459373L88.99062 32.69375Q89.0375 32.521873 89.52187 30.553123L91.17812 24.474998L92.99062 24.474998L94.5375 30.490623L95.05312 32.475L95.64687 30.474998L97.42812 24.474998L99.13125 24.474998L95.89687 34.85L94.06875 34.85L92.4125 28.631248L92.02187 26.865623L89.9125 34.85L88.08437 34.85ZM100.17812 22.553123L100.17812 20.537498L101.94375 20.537498L101.94375 22.553123L100.17812 22.553123ZM100.17812 34.85L100.17812 24.474998L101.94375 24.474998L101.94375 34.85L100.17812 34.85ZM108.00625 33.271873L108.25625 34.834373Q107.52187 34.990623 106.92812 34.990623Q105.975 34.990623 105.44375 34.69375Q104.92812 34.38125 104.70937 33.896873Q104.49062 33.396873 104.49062 31.818748L104.49062 25.849998L103.20937 25.849998L103.20937 24.474998L104.49062 24.474998L104.49062 21.912498L106.24062 20.849998L106.24062 24.474998L108.00625 24.474998L108.00625 25.849998L106.24062 25.849998L106.24062 31.912498Q106.24062 32.6625 106.33437 32.88125Q106.42812 33.084373 106.63125 33.225Q106.85 33.35 107.24062 33.35Q107.52187 33.35 108.00625 33.271873ZM110.1625 34.85L110.1625 20.537498L111.92812 20.537498L111.92812 25.662498Q113.1625 24.240623 115.0375 24.240623Q116.17812 24.240623 117.02187 24.693748Q117.88125 25.146873 118.24062 25.959373Q118.61562 26.756248 118.61562 28.271873L118.61562 34.85L116.86562 34.85L116.86562 28.271873Q116.86562 26.959373 116.2875 26.365623Q115.70937 25.756248 114.67812 25.756248Q113.89687 25.756248 113.19375 26.162498Q112.50625 26.568748 112.20937 27.271873Q111.92812 27.959373 111.92812 29.178123L111.92812 34.85L110.1625 34.85ZM133.94376 31.053123L135.6625 31.271873Q135.38126 33.06875 134.20938 34.084373Q133.05313 35.084373 131.35 35.084373Q129.225 35.084373 127.92812 33.69375Q126.63125 32.303123 126.63125 29.709373Q126.63125 28.021873 127.17812 26.771873Q127.74062 25.506248 128.88126 24.881248Q130.02188 24.240623 131.36563 24.240623Q133.05313 24.240623 134.11563 25.099998Q135.19376 25.959373 135.50626 27.521873L133.7875 27.787498Q133.55313 26.740623 132.92813 26.224998Q132.30313 25.693748 131.42813 25.693748Q130.1 25.693748 129.27188 26.646873Q128.44376 27.599998 128.44376 29.646873Q128.44376 31.740623 129.24063 32.69375Q130.0375 33.63125 131.33438 33.63125Q132.36563 33.63125 133.05313 33.00625Q133.75626 32.365623 133.94376 31.053123ZM136.52188 29.662498Q136.52188 26.787498 138.11563 25.396873Q139.45938 24.240623 141.38126 24.240623Q143.52188 24.240623 144.86563 25.646873Q146.225 27.053123 146.225 29.521873Q146.225 31.521873 145.63126 32.678123Q145.0375 33.81875 143.88126 34.459373Q142.74063 35.084373 141.38126 35.084373Q139.19376 35.084373 137.85 33.69375Q136.52188 32.2875 136.52188 29.662498ZM138.31876 29.662498Q138.31876 31.662498 139.17813 32.646873Q140.05313 33.63125 141.38126 33.63125Q142.69376 33.63125 143.55313 32.646873Q144.42813 31.646873 144.42813 29.599998Q144.42813 27.678123 143.55313 26.693748Q142.67813 25.693748 141.38126 25.693748Q140.05313 25.693748 139.17813 26.693748Q138.31876 27.678123 138.31876 29.662498ZM154.89688 34.85L154.89688 33.5375Q153.9125 35.084373 151.99063 35.084373Q150.75626 35.084373 149.70938 34.396873Q148.67813 33.709373 148.1 32.490623Q147.5375 31.271873 147.5375 29.678123Q147.5375 28.115623 148.05313 26.849998Q148.56876 25.584373 149.6 24.912498Q150.64688 24.240623 151.9125 24.240623Q152.85 24.240623 153.58438 24.646873Q154.31876 25.037498 154.7875 25.662498L154.7875 20.537498L156.52188 20.537498L156.52188 34.85L154.89688 34.85ZM149.33438 29.678123Q149.33438 31.662498 150.17813 32.646873Q151.02188 33.63125 152.1625 33.63125Q153.31876 33.63125 154.11563 32.69375Q154.92813 31.756248 154.92813 29.818748Q154.92813 27.693748 154.1 26.693748Q153.2875 25.693748 152.08438 25.693748Q150.9125 25.693748 150.11563 26.662498Q149.33438 27.615623 149.33438 29.678123ZM166.27188 31.506248L168.08438 31.740623Q167.6625 33.31875 166.49063 34.209373Q165.33438 35.084373 163.52188 35.084373Q161.25626 35.084373 159.9125 33.69375Q158.58438 32.2875 158.58438 29.756248Q158.58438 27.131248 159.92813 25.693748Q161.27188 24.240623 163.42813 24.240623Q165.50626 24.240623 166.81876 25.662498Q168.14688 27.068748 168.14688 29.646873Q168.14688 29.803123 168.13126 30.115623L160.39688 30.115623Q160.49063 31.818748 161.36563 32.725Q162.24063 33.63125 163.5375 33.63125Q164.50626 33.63125 165.17813 33.13125Q165.86563 32.615623 166.27188 31.506248ZM160.49063 28.662498L166.2875 28.662498Q166.17813 27.365623 165.63126 26.709373Q164.7875 25.693748 163.44376 25.693748Q162.24063 25.693748 161.4125 26.506248Q160.58438 27.303123 160.49063 28.662498ZM182.94376 33.56875Q181.95938 34.396873 181.05313 34.740623Q180.14688 35.084373 179.11563 35.084373Q177.4125 35.084373 176.49063 34.25625Q175.56876 33.4125 175.56876 32.115623Q175.56876 31.349998 175.9125 30.724998Q176.27188 30.099998 176.83438 29.724998Q177.39688 29.334373 178.1 29.131248Q178.61563 29.006248 179.6625 28.865623Q181.7875 28.615623 182.7875 28.271873Q182.80313 27.912498 182.80313 27.803123Q182.80313 26.740623 182.30313 26.287498Q181.63126 25.693748 180.30313 25.693748Q179.05313 25.693748 178.45938 26.131248Q177.88126 26.568748 177.6 27.678123L175.88126 27.443748Q176.11563 26.334373 176.64688 25.662498Q177.17813 24.974998 178.19376 24.615623Q179.20938 24.240623 180.55313 24.240623Q181.88126 24.240623 182.70938 24.553123Q183.5375 24.865623 183.92813 25.349998Q184.31876 25.818748 184.475 26.537498Q184.56876 26.990623 184.56876 28.162498L184.56876 30.506248Q184.56876 32.959373 184.67813 33.615623Q184.7875 34.25625 185.13126 34.85L183.2875 34.85Q183.02188 34.303123 182.94376 33.56875ZM182.7875 29.646873Q181.83438 30.037498 179.9125 30.303123Q178.83438 30.459373 178.38126 30.662498Q177.94376 30.849998 177.69376 31.224998Q177.44376 31.599998 177.44376 32.06875Q177.44376 32.771873 177.975 33.240623Q178.50626 33.709373 179.5375 33.709373Q180.55313 33.709373 181.33438 33.271873Q182.13126 32.81875 182.50626 32.053123Q182.7875 31.443748 182.7875 30.287498L182.7875 29.646873ZM187.1625 34.85L187.1625 24.474998L188.75626 24.474998L188.75626 25.959373Q189.89688 24.240623 192.05313 24.240623Q192.99063 24.240623 193.77188 24.584373Q194.56876 24.912498 194.95938 25.459373Q195.35 26.006248 195.50626 26.756248Q195.6 27.256248 195.6 28.474998L195.6 34.85L193.83438 34.85L193.83438 28.537498Q193.83438 27.459373 193.63126 26.928123Q193.42813 26.396873 192.89688 26.084373Q192.38126 25.771873 191.67813 25.771873Q190.55313 25.771873 189.74063 26.490623Q188.92813 27.193748 188.92813 29.178123L188.92813 34.85L187.1625 34.85ZM204.89688 34.85L204.89688 33.5375Q203.9125 35.084373 201.99063 35.084373Q200.75626 35.084373 199.70938 34.396873Q198.67813 33.709373 198.1 32.490623Q197.5375 31.271873 197.5375 29.678123Q197.5375 28.115623 198.05313 26.849998Q198.56876 25.584373 199.6 24.912498Q200.64688 24.240623 201.9125 24.240623Q202.85 24.240623 203.58438 24.646873Q204.31876 25.037498 204.7875 25.662498L204.7875 20.537498L206.52188 20.537498L206.52188 34.85L204.89688 34.85ZM199.33438 29.678123Q199.33438 31.662498 200.17813 32.646873Q201.02188 33.63125 202.1625 33.63125Q203.31876 33.63125 204.11563 32.69375Q204.92813 31.756248 204.92813 29.818748Q204.92813 27.693748 204.1 26.693748Q203.2875 25.693748 202.08438 25.693748Q200.9125 25.693748 200.11563 26.662498Q199.33438 27.615623 199.33438 29.678123ZM221.89688 34.85L221.89688 33.5375Q220.9125 35.084373 218.99063 35.084373Q217.75626 35.084373 216.70938 34.396873Q215.67813 33.709373 215.1 32.490623Q214.5375 31.271873 214.5375 29.678123Q214.5375 28.115623 215.05313 26.849998Q215.56876 25.584373 216.6 24.912498Q217.64688 24.240623 218.9125 24.240623Q219.85 24.240623 220.58438 24.646873Q221.31876 25.037498 221.7875 25.662498L221.7875 20.537498L223.52188 20.537498L223.52188 34.85L221.89688 34.85ZM216.33438 29.678123Q216.33438 31.662498 217.17813 32.646873Q218.02188 33.63125 219.1625 33.63125Q220.31876 33.63125 221.11563 32.69375Q221.92813 31.756248 221.92813 29.818748Q221.92813 27.693748 221.1 26.693748Q220.2875 25.693748 219.08438 25.693748Q217.9125 25.693748 217.11563 26.662498Q216.33438 27.615623 216.33438 29.678123ZM232.94376 33.56875Q231.95938 34.396873 231.05313 34.740623Q230.14688 35.084373 229.11563 35.084373Q227.4125 35.084373 226.49063 34.25625Q225.56876 33.4125 225.56876 32.115623Q225.56876 31.349998 225.9125 30.724998Q226.27188 30.099998 226.83438 29.724998Q227.39688 29.334373 228.1 29.131248Q228.61563 29.006248 229.6625 28.865623Q231.7875 28.615623 232.7875 28.271873Q232.80313 27.912498 232.80313 27.803123Q232.80313 26.740623 232.30313 26.287498Q231.63126 25.693748 230.30313 25.693748Q229.05313 25.693748 228.45938 26.131248Q227.88126 26.568748 227.6 27.678123L225.88126 27.443748Q226.11563 26.334373 226.64688 25.662498Q227.17813 24.974998 228.19376 24.615623Q229.20938 24.240623 230.55313 24.240623Q231.88126 24.240623 232.70938 24.553123Q233.5375 24.865623 233.92813 25.349998Q234.31876 25.818748 234.475 26.537498Q234.56876 26.990623 234.56876 28.162498L234.56876 30.506248Q234.56876 32.959373 234.67813 33.615623Q234.7875 34.25625 235.13126 34.85L233.2875 34.85Q233.02188 34.303123 232.94376 33.56875ZM232.7875 29.646873Q231.83438 30.037498 229.9125 30.303123Q228.83438 30.459373 228.38126 30.662498Q227.94376 30.849998 227.69376 31.224998Q227.44376 31.599998 227.44376 32.06875Q227.44376 32.771873 227.975 33.240623Q228.50626 33.709373 229.5375 33.709373Q230.55313 33.709373 231.33438 33.271873Q232.13126 32.81875 232.50626 32.053123Q232.7875 31.443748 232.7875 30.287498L232.7875 29.646873ZM241.00626 33.271873L241.25626 34.834373Q240.52188 34.990623 239.92813 34.990623Q238.975 34.990623 238.44376 34.69375Q237.92813 34.38125 237.70938 33.896873Q237.49063 33.396873 237.49063 31.818748L237.49063 25.849998L236.20938 25.849998L236.20938 24.474998L237.49063 24.474998L237.49063 21.912498L239.24063 20.849998L239.24063 24.474998L241.00626 24.474998L241.00626 25.849998L239.24063 25.849998L239.24063 31.912498Q239.24063 32.6625 239.33438 32.88125Q239.42813 33.084373 239.63126 33.225Q239.85 33.35 240.24063 33.35Q240.52188 33.35 241.00626 33.271873ZM249.94376 33.56875Q248.95938 34.396873 248.05313 34.740623Q247.14688 35.084373 246.11563 35.084373Q244.4125 35.084373 243.49063 34.25625Q242.56876 33.4125 242.56876 32.115623Q242.56876 31.349998 242.9125 30.724998Q243.27188 30.099998 243.83438 29.724998Q244.39688 29.334373 245.1 29.131248Q245.61563 29.006248 246.6625 28.865623Q248.7875 28.615623 249.7875 28.271873Q249.80313 27.912498 249.80313 27.803123Q249.80313 26.740623 249.30313 26.287498Q248.63126 25.693748 247.30313 25.693748Q246.05313 25.693748 245.45938 26.131248Q244.88126 26.568748 244.6 27.678123L242.88126 27.443748Q243.11563 26.334373 243.64688 25.662498Q244.17813 24.974998 245.19376 24.615623Q246.20938 24.240623 247.55313 24.240623Q248.88126 24.240623 249.70938 24.553123Q250.5375 24.865623 250.92813 25.349998Q251.31876 25.818748 251.475 26.537498Q251.56876 26.990623 251.56876 28.162498L251.56876 30.506248Q251.56876 32.959373 251.67813 33.615623Q251.7875 34.25625 252.13126 34.85L250.2875 34.85Q250.02188 34.303123 249.94376 33.56875ZM249.7875 29.646873Q248.83438 30.037498 246.9125 30.303123Q245.83438 30.459373 245.38126 30.662498Q244.94376 30.849998 244.69376 31.224998Q244.44376 31.599998 244.44376 32.06875Q244.44376 32.771873 244.975 33.240623Q245.50626 33.709373 246.5375 33.709373Q247.55313 33.709373 248.33438 33.271873Q249.13126 32.81875 249.50626 32.053123Q249.7875 31.443748 249.7875 30.287498L249.7875 29.646873Z" fill-rule="nonzero"/></svg>