<svg version="1.1" viewBox="0.0 0.0 512.0 317.0" fill="none" stroke="none" stroke-linecap="square" stroke-miterlimit="10" width="512" height="317" xmlns:xlink="http://www.w3.org/1999/xlink" xmlns="http://www.w3.org/2000/svg"><path fill="#ffffff" d="M0 0L512.0 0L512.0 317.0L0 317.0L0 0Z" fill-rule="nonzero"/><path fill="#4285f4" d="M256.0 49.416668C314.08383 49.416668 364.6249 89.1626 378.3187 145.60915L256.0 175.28334Z" fill-rule="nonzero"/><path fill="#ea4335" d="M378.3187 145.60915C391.31326 199.17358 367.9453 254.96191 320.65485 283.27484L256.0 175.28334Z" fill-rule="nonzero"/><path fill="#34a853" d="M155.8401 251.5094C126.871254 213.44476 121.98267 162.2493 143.22424 119.39015C164.46582 76.531 208.16579 49.416668 256.0 49.416668L256.0 175.28334Z" fill-rule="nonzero"/><path fill="#fbbc04" d="M320.65485 283.27484C265.64474 316.20956 194.66913 302.53015 155.8401 251.5094L256.0 175.28334Z" fill-rule="nonzero"/><path fill="#1a1a1a" d="M25.490625 104.84106L25.725 108.45043L25.490625 108.45043Q25.00625 106.82543 24.1 106.12231Q23.209375 105.40356 21.94375 105.40356Q20.896875 105.40356 20.0375 105.95043Q19.19375 106.48168 18.69375 107.65356Q18.209375 108.82543 18.209375 110.55981Q18.209375 111.99731 18.6625 113.05981Q19.13125 114.10668 20.053125 114.66918Q20.990625 115.23168 22.178125 115.23168Q23.209375 115.23168 23.990625 114.79418Q24.7875 114.35668 25.725 113.04418L25.975 113.20043Q25.178125 114.60668 24.115625 115.27856Q23.053125 115.93481 21.584375 115.93481Q18.959375 115.93481 17.50625 113.96606Q16.428125 112.51293 16.428125 110.54418Q16.428125 108.96606 17.13125 107.63793Q17.85 106.30981 19.1 105.57543Q20.35 104.84106 21.81875 104.84106Q22.975 104.84106 24.084375 105.40356Q24.4125 105.57543 24.553125 105.57543Q24.771875 105.57543 24.928125 105.43481Q25.13125 105.21606 25.209375 104.84106L25.490625 104.84106ZM30.85 108.30981Q32.475 108.30981 33.459373 109.54418Q34.303123 110.60668 34.303123 111.96606Q34.303123 112.93481 33.834373 113.91918Q33.38125 114.90356 32.56875 115.40356Q31.75625 115.90356 30.771875 115.90356Q29.146875 115.90356 28.19375 114.60668Q27.396875 113.52856 27.396875 112.16918Q27.396875 111.18481 27.88125 110.21606Q28.365625 109.24731 29.1625 108.77856Q29.959375 108.30981 30.85 108.30981ZM30.615625 108.82543Q30.19375 108.82543 29.771875 109.07543Q29.365625 109.30981 29.1 109.93481Q28.85 110.54418 28.85 111.51293Q28.85 113.07543 29.459375 114.21606Q30.084375 115.34106 31.1 115.34106Q31.865625 115.34106 32.35 114.71606Q32.85 114.09106 32.85 112.57543Q32.85 110.66918 32.021873 109.57543Q31.475 108.82543 30.615625 108.82543ZM40.4125 114.87231Q39.88125 115.41918 39.38125 115.66918Q38.88125 115.90356 38.303123 115.90356Q37.13125 115.90356 36.25625 114.91918Q35.38125 113.93481 35.38125 112.40356Q35.38125 110.85668 36.35 109.59106Q37.31875 108.30981 38.85 108.30981Q39.7875 108.30981 40.4125 108.90356L40.4125 107.59106Q40.4125 106.35668 40.35 106.07543Q40.2875 105.79418 40.1625 105.70043Q40.0375 105.59106 39.85 105.59106Q39.646873 105.59106 39.31875 105.71606L39.209373 105.45043L41.35 104.57543L41.69375 104.57543L41.69375 112.84106Q41.69375 114.10668 41.75625 114.38793Q41.81875 114.65356 41.94375 114.76293Q42.06875 114.87231 42.240623 114.87231Q42.459373 114.87231 42.803123 114.74731L42.896873 115.01293L40.771873 115.90356L40.4125 115.90356L40.4125 114.87231ZM40.4125 114.32543L40.4125 110.63793Q40.365623 110.10668 40.13125 109.66918Q39.896873 109.23168 39.50625 109.01293Q39.115623 108.79418 38.75625 108.79418Q38.06875 108.79418 37.521873 109.40356Q36.81875 110.21606 36.81875 111.77856Q36.81875 113.35668 37.50625 114.20043Q38.19375 115.04418 39.0375 115.04418Q39.740623 115.04418 40.4125 114.32543ZM44.553123 111.21606Q44.553123 112.80981 45.334373 113.71606Q46.115623 114.62231 47.1625 114.62231Q47.865623 114.62231 48.38125 114.24731Q48.9125 113.85668 49.25625 112.91918L49.50625 113.07543Q49.334373 114.13793 48.5375 115.02856Q47.75625 115.90356 46.56875 115.90356Q45.2875 115.90356 44.365623 114.90356Q43.44375 113.88793 43.44375 112.20043Q43.44375 110.35668 44.38125 109.34106Q45.334373 108.30981 46.75625 108.30981Q47.959373 108.30981 48.725 109.10668Q49.50625 109.88793 49.50625 111.21606L44.553123 111.21606ZM44.553123 110.76293L47.865623 110.76293Q47.834373 110.07543 47.709373 109.79418Q47.50625 109.35668 47.115623 109.10668Q46.740623 108.85668 46.31875 108.85668Q45.6625 108.85668 45.146873 109.37231Q44.646873 109.87231 44.553123 110.76293ZM58.4125 114.65356Q57.303123 115.49731 57.021873 115.63793Q56.6 115.84106 56.13125 115.84106Q55.38125 115.84106 54.896873 115.32543Q54.428123 114.80981 54.428123 113.98168Q54.428123 113.46606 54.6625 113.07543Q54.975 112.54418 55.771873 112.07543Q56.56875 111.60668 58.4125 110.93481L58.4125 110.65356Q58.4125 109.59106 58.06875 109.20043Q57.725 108.79418 57.084373 108.79418Q56.584373 108.79418 56.303123 109.05981Q56.00625 109.32543 56.00625 109.66918L56.021873 110.12231Q56.021873 110.48168 55.834373 110.68481Q55.646873 110.87231 55.35 110.87231Q55.06875 110.87231 54.88125 110.66918Q54.69375 110.46606 54.69375 110.10668Q54.69375 109.43481 55.38125 108.87231Q56.06875 108.30981 57.31875 108.30981Q58.271873 108.30981 58.88125 108.63793Q59.334373 108.87231 59.553123 109.38793Q59.69375 109.73168 59.69375 110.76293L59.69375 113.20043Q59.69375 114.21606 59.725 114.45043Q59.771873 114.68481 59.865623 114.76293Q59.959373 114.84106 60.06875 114.84106Q60.19375 114.84106 60.2875 114.77856Q60.459373 114.68481 60.928123 114.21606L60.928123 114.65356Q60.053123 115.82543 59.25625 115.82543Q58.865623 115.82543 58.63125 115.55981Q58.4125 115.29418 58.4125 114.65356ZM58.4125 114.13793L58.4125 111.41918Q57.225 111.88793 56.88125 112.07543Q56.271873 112.41918 56.00625 112.79418Q55.740623 113.16918 55.740623 113.62231Q55.740623 114.18481 56.06875 114.55981Q56.4125 114.91918 56.85 114.91918Q57.44375 114.91918 58.4125 114.13793ZM63.44375 109.82543Q64.69375 108.30981 65.83437 108.30981Q66.42812 108.30981 66.85 108.60668Q67.27187 108.90356 67.52187 109.57543Q67.69375 110.04418 67.69375 111.01293L67.69375 114.05981Q67.69375 114.74731 67.80312 114.98168Q67.88125 115.18481 68.06875 115.29418Q68.27187 115.40356 68.7875 115.40356L68.7875 115.68481L65.24062 115.68481L65.24062 115.40356L65.39687 115.40356Q65.89687 115.40356 66.08437 115.24731Q66.2875 115.09106 66.36562 114.79418Q66.39687 114.68481 66.39687 114.05981L66.39687 111.13793Q66.39687 110.15356 66.14687 109.71606Q65.89687 109.27856 65.2875 109.27856Q64.36562 109.27856 63.44375 110.29418L63.44375 114.05981Q63.44375 114.79418 63.521873 114.96606Q63.63125 115.18481 63.81875 115.29418Q64.02187 115.40356 64.6 115.40356L64.6 115.68481L61.06875 115.68481L61.06875 115.40356L61.225 115.40356Q61.771873 115.40356 61.959373 115.12231Q62.146873 114.84106 62.146873 114.05981L62.146873 111.40356Q62.146873 110.12231 62.084373 109.84106Q62.0375 109.55981 61.9125 109.46606Q61.7875 109.35668 61.584373 109.35668Q61.365623 109.35668 61.06875 109.46606L60.94375 109.18481L63.1 108.30981L63.44375 108.30981L63.44375 109.82543ZM74.4125 114.87231Q73.88125 115.41918 73.38125 115.66918Q72.88125 115.90356 72.30312 115.90356Q71.13125 115.90356 70.25625 114.91918Q69.38125 113.93481 69.38125 112.40356Q69.38125 110.85668 70.35 109.59106Q71.31875 108.30981 72.85 108.30981Q73.7875 108.30981 74.4125 108.90356L74.4125 107.59106Q74.4125 106.35668 74.35 106.07543Q74.2875 105.79418 74.1625 105.70043Q74.0375 105.59106 73.85 105.59106Q73.64687 105.59106 73.31875 105.71606L73.20937 105.45043L75.35 104.57543L75.69375 104.57543L75.69375 112.84106Q75.69375 114.10668 75.75625 114.38793Q75.81875 114.65356 75.94375 114.76293Q76.06875 114.87231 76.24062 114.87231Q76.45937 114.87231 76.80312 114.74731L76.89687 115.01293L74.77187 115.90356L74.4125 115.90356L74.4125 114.87231ZM74.4125 114.32543L74.4125 110.63793Q74.36562 110.10668 74.13125 109.66918Q73.89687 109.23168 73.50625 109.01293Q73.11562 108.79418 72.75625 108.79418Q72.06875 108.79418 71.52187 109.40356Q70.81875 110.21606 70.81875 111.77856Q70.81875 113.35668 71.50625 114.20043Q72.19375 115.04418 73.0375 115.04418Q73.74062 115.04418 74.4125 114.32543ZM81.13125 115.68481L81.13125 115.38793L81.52187 115.38793Q82.19375 115.38793 82.475 114.96606Q82.64687 114.70043 82.64687 113.80981L82.64687 106.96606Q82.64687 105.96606 82.42812 105.71606Q82.13125 105.37231 81.52187 105.37231L81.13125 105.37231L81.13125 105.09106L85.44375 105.09106Q87.81875 105.09106 89.05312 105.63793Q90.2875 106.16918 91.0375 107.43481Q91.80312 108.68481 91.80312 110.32543Q91.80312 112.54418 90.45937 114.02856Q88.94375 115.68481 85.86562 115.68481L81.13125 115.68481ZM84.14687 114.91918Q85.14687 115.13793 85.81875 115.13793Q87.63125 115.13793 88.81875 113.87231Q90.02187 112.59106 90.02187 110.40356Q90.02187 108.21606 88.81875 106.95043Q87.63125 105.68481 85.75625 105.68481Q85.05312 105.68481 84.14687 105.90356L84.14687 114.91918ZM97.4125 114.65356Q96.30312 115.49731 96.02187 115.63793Q95.6 115.84106 95.13125 115.84106Q94.38125 115.84106 93.89687 115.32543Q93.42812 114.80981 93.42812 113.98168Q93.42812 113.46606 93.6625 113.07543Q93.975 112.54418 94.77187 112.07543Q95.56875 111.60668 97.4125 110.93481L97.4125 110.65356Q97.4125 109.59106 97.06875 109.20043Q96.725 108.79418 96.08437 108.79418Q95.58437 108.79418 95.30312 109.05981Q95.00625 109.32543 95.00625 109.66918L95.02187 110.12231Q95.02187 110.48168 94.83437 110.68481Q94.64687 110.87231 94.35 110.87231Q94.06875 110.87231 93.88125 110.66918Q93.69375 110.46606 93.69375 110.10668Q93.69375 109.43481 94.38125 108.87231Q95.06875 108.30981 96.31875 108.30981Q97.27187 108.30981 97.88125 108.63793Q98.33437 108.87231 98.55312 109.38793Q98.69375 109.73168 98.69375 110.76293L98.69375 113.20043Q98.69375 114.21606 98.725 114.45043Q98.77187 114.68481 98.86562 114.76293Q98.95937 114.84106 99.06875 114.84106Q99.19375 114.84106 99.2875 114.77856Q99.45937 114.68481 99.92812 114.21606L99.92812 114.65356Q99.05312 115.82543 98.25625 115.82543Q97.86562 115.82543 97.63125 115.55981Q97.4125 115.29418 97.4125 114.65356ZM97.4125 114.13793L97.4125 111.41918Q96.225 111.88793 95.88125 112.07543Q95.27187 112.41918 95.00625 112.79418Q94.74062 113.16918 94.74062 113.62231Q94.74062 114.18481 95.06875 114.55981Q95.4125 114.91918 95.85 114.91918Q96.44375 114.91918 97.4125 114.13793ZM102.42812 106.16918L102.42812 108.52856L104.1 108.52856L104.1 109.07543L102.42812 109.07543L102.42812 113.71606Q102.42812 114.40356 102.63125 114.65356Q102.83437 114.88793 103.14687 114.88793Q103.39687 114.88793 103.63125 114.73168Q103.88125 114.57543 104.02187 114.26293L104.31875 114.26293Q104.05312 115.02856 103.55312 115.41918Q103.05312 115.80981 102.52187 115.80981Q102.1625 115.80981 101.81875 115.60668Q101.475 115.40356 101.30312 115.02856Q101.14687 114.65356 101.14687 113.88793L101.14687 109.07543L100.00625 109.07543L100.00625 108.80981Q100.44375 108.63793 100.88125 108.23168Q101.33437 107.82543 101.69375 107.26293Q101.86562 106.96606 102.19375 106.16918L102.42812 106.16918ZM108.4125 114.65356Q107.30312 115.49731 107.02187 115.63793Q106.6 115.84106 106.13125 115.84106Q105.38125 115.84106 104.89687 115.32543Q104.42812 114.80981 104.42812 113.98168Q104.42812 113.46606 104.6625 113.07543Q104.975 112.54418 105.77187 112.07543Q106.56875 111.60668 108.4125 110.93481L108.4125 110.65356Q108.4125 109.59106 108.06875 109.20043Q107.725 108.79418 107.08437 108.79418Q106.58437 108.79418 106.30312 109.05981Q106.00625 109.32543 106.00625 109.66918L106.02187 110.12231Q106.02187 110.48168 105.83437 110.68481Q105.64687 110.87231 105.35 110.87231Q105.06875 110.87231 104.88125 110.66918Q104.69375 110.46606 104.69375 110.10668Q104.69375 109.43481 105.38125 108.87231Q106.06875 108.30981 107.31875 108.30981Q108.27187 108.30981 108.88125 108.63793Q109.33437 108.87231 109.55312 109.38793Q109.69375 109.73168 109.69375 110.76293L109.69375 113.20043Q109.69375 114.21606 109.725 114.45043Q109.77187 114.68481 109.86562 114.76293Q109.95937 114.84106 110.06875 114.84106Q110.19375 114.84106 110.2875 114.77856Q110.45937 114.68481 110.92812 114.21606L110.92812 114.65356Q110.05312 115.82543 109.25625 115.82543Q108.86562 115.82543 108.63125 115.55981Q108.4125 115.29418 108.4125 114.65356ZM108.4125 114.13793L108.4125 111.41918Q107.225 111.88793 106.88125 112.07543Q106.27187 112.41918 106.00625 112.79418Q105.74062 113.16918 105.74062 113.62231Q105.74062 114.18481 106.06875 114.55981Q106.4125 114.91918 106.85 114.91918Q107.44375 114.91918 108.4125 114.13793Z" fill-rule="nonzero"/><path fill="#9e9e9e" d="M16.6625 130.10669Q17.115625 129.02856 17.803125 128.45044Q18.50625 127.872314 19.5375 127.872314Q20.803125 127.872314 21.490625 128.70044Q22.00625 129.30981 22.00625 130.01294Q22.00625 131.16919 20.553125 132.40356Q21.521875 132.79419 22.021875 133.51294Q22.521875 134.21606 22.521875 135.16919Q22.521875 136.54419 21.646875 137.55981Q20.50625 138.87231 18.35 138.87231Q17.271875 138.87231 16.88125 138.60669Q16.50625 138.34106 16.50625 138.02856Q16.50625 137.80981 16.678125 137.63794Q16.865625 137.46606 17.13125 137.46606Q17.31875 137.46606 17.521875 137.52856Q17.6625 137.55981 18.13125 137.80981Q18.6 138.05981 18.771875 138.10669Q19.06875 138.18481 19.396875 138.18481Q20.19375 138.18481 20.771875 137.57544Q21.365625 136.95044 21.365625 136.10669Q21.365625 135.49731 21.1 134.90356Q20.896875 134.46606 20.646875 134.24731Q20.31875 133.93481 19.725 133.68481Q19.146875 133.41919 18.5375 133.41919L18.2875 133.41919L18.2875 133.18481Q18.896875 133.10669 19.521875 132.74731Q20.146875 132.37231 20.428125 131.85669Q20.709375 131.34106 20.709375 130.73169Q20.709375 129.91919 20.19375 129.43481Q19.69375 128.93481 18.94375 128.93481Q17.740625 128.93481 16.928125 130.23169L16.6625 130.10669ZM30.803125 128.09106L30.19375 129.41919L27.00625 129.41919L26.303125 130.84106Q28.38125 131.13794 29.584375 132.37231Q30.63125 133.43481 30.63125 134.87231Q30.63125 135.71606 30.2875 136.43481Q29.94375 137.13794 29.428125 137.63794Q28.9125 138.13794 28.2875 138.43481Q27.38125 138.87231 26.44375 138.87231Q25.490625 138.87231 25.053125 138.54419Q24.615625 138.21606 24.615625 137.82544Q24.615625 137.60669 24.7875 137.45044Q24.975 137.27856 25.25625 137.27856Q25.459375 137.27856 25.6 137.34106Q25.75625 137.40356 26.13125 137.65356Q26.709375 138.05981 27.31875 138.05981Q28.225 138.05981 28.9125 137.37231Q29.615625 136.68481 29.615625 135.68481Q29.615625 134.73169 28.990625 133.90356Q28.38125 133.05981 27.2875 132.60669Q26.44375 132.26294 24.975 132.20044L27.00625 128.09106L30.803125 128.09106ZM33.85 137.16919Q34.225 137.16919 34.475 137.41919Q34.725 137.66919 34.725 138.02856Q34.725 138.38794 34.459373 138.65356Q34.209373 138.90356 33.85 138.90356Q33.490623 138.90356 33.240623 138.65356Q32.990623 138.38794 32.990623 138.02856Q32.990623 137.66919 33.240623 137.41919Q33.490623 137.16919 33.85 137.16919ZM43.303123 134.77856L43.303123 135.88794L41.88125 135.88794L41.88125 138.68481L40.584373 138.68481L40.584373 135.88794L36.1 135.88794L36.1 134.88794L41.021873 127.872314L41.88125 127.872314L41.88125 134.77856L43.303123 134.77856ZM40.584373 134.77856L40.584373 129.51294L36.865623 134.77856L40.584373 134.77856ZM54.725 127.841064L47.00625 139.12231L46.31875 139.12231L54.0375 127.841064L54.725 127.841064ZM46.69375 127.841064Q47.75625 127.841064 48.334373 128.71606Q48.9125 129.59106 48.9125 130.73169Q48.9125 132.09106 48.25625 132.84106Q47.6 133.57544 46.678123 133.57544Q46.06875 133.57544 45.553123 133.23169Q45.0375 132.88794 44.725 132.21606Q44.4125 131.54419 44.4125 130.73169Q44.4125 129.90356 44.725 129.21606Q45.0375 128.52856 45.584373 128.18481Q46.13125 127.841064 46.69375 127.841064ZM46.678123 128.27856Q46.271873 128.27856 45.959373 128.74731Q45.6625 129.21606 45.6625 130.71606Q45.6625 131.80981 45.834373 132.37231Q45.959373 132.80981 46.240623 133.04419Q46.4125 133.18481 46.646873 133.18481Q47.021873 133.18481 47.2875 132.77856Q47.678123 132.16919 47.678123 130.76294Q47.678123 129.27856 47.303123 128.68481Q47.053123 128.27856 46.678123 128.27856ZM54.365623 133.41919Q54.928123 133.41919 55.475 133.77856Q56.021873 134.12231 56.31875 134.79419Q56.63125 135.46606 56.63125 136.27856Q56.63125 137.65356 55.959373 138.38794Q55.303123 139.12231 54.396873 139.12231Q53.81875 139.12231 53.2875 138.76294Q52.75625 138.41919 52.44375 137.76294Q52.13125 137.10669 52.13125 136.27856Q52.13125 135.45044 52.44375 134.77856Q52.75625 134.09106 53.2875 133.76294Q53.81875 133.41919 54.365623 133.41919ZM54.38125 133.84106Q54.00625 133.84106 53.725 134.26294Q53.38125 134.80981 53.38125 136.32544Q53.38125 137.73169 53.740623 138.27856Q54.00625 138.68481 54.38125 138.68481Q54.740623 138.68481 55.021873 138.24731Q55.396873 137.68481 55.396873 136.29419Q55.396873 134.82544 55.021873 134.23169Q54.75625 133.84106 54.38125 133.84106Z" fill-rule="nonzero"/><path stroke="#757575" stroke-width="1.0" stroke-linecap="butt" d="M15.85 122.18481L124.13333 122.18481L148.86304 122.18481" fill-rule="nonzero"/><path fill="#9e9e9e" d="M150.86304 122.18481C150.86304 121.08024 149.9676 120.18481 148.86304 120.18481C147.75847 120.18481 146.86304 121.08024 146.86304 122.18481C146.86304 123.289375 147.75847 124.18481 148.86304 124.18481C149.9676 124.18481 150.86304 123.289375 150.86304 122.18481" fill-rule="nonzero"/><path fill="#1a1a1a" d="M16.13125 273.15L16.13125 272.85312L16.521875 272.85312Q17.19375 272.85312 17.475 272.43124Q17.646875 272.16562 17.646875 271.275L17.646875 264.43124Q17.646875 263.43124 17.428125 263.18124Q17.13125 262.8375 16.521875 262.8375L16.13125 262.8375L16.13125 262.55624L20.44375 262.55624Q22.81875 262.55624 24.053125 263.10312Q25.2875 263.63437 26.0375 264.9Q26.803125 266.15 26.803125 267.79062Q26.803125 270.00937 25.459375 271.49374Q23.94375 273.15 20.865625 273.15L16.13125 273.15ZM19.146875 272.38437Q20.146875 272.60312 20.81875 272.60312Q22.63125 272.60312 23.81875 271.3375Q25.021875 270.05624 25.021875 267.86874Q25.021875 265.68124 23.81875 264.41562Q22.63125 263.15 20.75625 263.15Q20.053125 263.15 19.146875 263.36874L19.146875 272.38437ZM32.4125 272.11874Q31.303125 272.9625 31.021875 273.10312Q30.6 273.30624 30.13125 273.30624Q29.38125 273.30624 28.896875 272.79062Q28.428125 272.275 28.428125 271.44687Q28.428125 270.93124 28.6625 270.54062Q28.975 270.00937 29.771875 269.54062Q30.56875 269.07187 32.4125 268.4L32.4125 268.11874Q32.4125 267.05624 32.06875 266.66562Q31.725 266.25937 31.084375 266.25937Q30.584375 266.25937 30.303125 266.525Q30.00625 266.79062 30.00625 267.13437L30.021875 267.5875Q30.021875 267.94687 29.834375 268.15Q29.646875 268.3375 29.35 268.3375Q29.06875 268.3375 28.88125 268.13437Q28.69375 267.93124 28.69375 267.57187Q28.69375 266.9 29.38125 266.3375Q30.06875 265.775 31.31875 265.775Q32.271873 265.775 32.88125 266.10312Q33.334373 266.3375 33.553123 266.85312Q33.69375 267.19687 33.69375 268.22812L33.69375 270.66562Q33.69375 271.68124 33.725 271.91562Q33.771873 272.15 33.865623 272.22812Q33.959373 272.30624 34.06875 272.30624Q34.19375 272.30624 34.2875 272.24374Q34.459373 272.15 34.928123 271.68124L34.928123 272.11874Q34.053123 273.29062 33.25625 273.29062Q32.865623 273.29062 32.63125 273.025Q32.4125 272.75937 32.4125 272.11874ZM32.4125 271.60312L32.4125 268.88437Q31.225 269.35312 30.88125 269.54062Q30.271875 269.88437 30.00625 270.25937Q29.740625 270.63437 29.740625 271.0875Q29.740625 271.65 30.06875 272.025Q30.4125 272.38437 30.85 272.38437Q31.44375 272.38437 32.4125 271.60312ZM37.428123 263.63437L37.428123 265.99374L39.1 265.99374L39.1 266.54062L37.428123 266.54062L37.428123 271.18124Q37.428123 271.86874 37.63125 272.11874Q37.834373 272.35312 38.146873 272.35312Q38.396873 272.35312 38.63125 272.19687Q38.88125 272.04062 39.021873 271.72812L39.31875 271.72812Q39.053123 272.49374 38.553123 272.88437Q38.053123 273.275 37.521873 273.275Q37.1625 273.275 36.81875 273.07187Q36.475 272.86874 36.303123 272.49374Q36.146873 272.11874 36.146873 271.35312L36.146873 266.54062L35.00625 266.54062L35.00625 266.275Q35.44375 266.10312 35.88125 265.69687Q36.334373 265.29062 36.69375 264.72812Q36.865623 264.43124 37.19375 263.63437L37.428123 263.63437ZM43.4125 272.11874Q42.303123 272.9625 42.021873 273.10312Q41.6 273.30624 41.13125 273.30624Q40.38125 273.30624 39.896873 272.79062Q39.428123 272.275 39.428123 271.44687Q39.428123 270.93124 39.6625 270.54062Q39.975 270.00937 40.771873 269.54062Q41.56875 269.07187 43.4125 268.4L43.4125 268.11874Q43.4125 267.05624 43.06875 266.66562Q42.725 266.25937 42.084373 266.25937Q41.584373 266.25937 41.303123 266.525Q41.00625 266.79062 41.00625 267.13437L41.021873 267.5875Q41.021873 267.94687 40.834373 268.15Q40.646873 268.3375 40.35 268.3375Q40.06875 268.3375 39.88125 268.13437Q39.69375 267.93124 39.69375 267.57187Q39.69375 266.9 40.38125 266.3375Q41.06875 265.775 42.31875 265.775Q43.271873 265.775 43.88125 266.10312Q44.334373 266.3375 44.553123 266.85312Q44.69375 267.19687 44.69375 268.22812L44.69375 270.66562Q44.69375 271.68124 44.725 271.91562Q44.771873 272.15 44.865623 272.22812Q44.959373 272.30624 45.06875 272.30624Q45.19375 272.30624 45.2875 272.24374Q45.459373 272.15 45.928123 271.68124L45.928123 272.11874Q45.053123 273.29062 44.25625 273.29062Q43.865623 273.29062 43.63125 273.025Q43.4125 272.75937 43.4125 272.11874ZM43.4125 271.60312L43.4125 268.88437Q42.225 269.35312 41.88125 269.54062Q41.271873 269.88437 41.00625 270.25937Q40.740623 270.63437 40.740623 271.0875Q40.740623 271.65 41.06875 272.025Q41.4125 272.38437 41.85 272.38437Q42.44375 272.38437 43.4125 271.60312ZM53.85 265.775Q55.475 265.775 56.459373 267.00937Q57.303123 268.07187 57.303123 269.43124Q57.303123 270.4 56.834373 271.38437Q56.38125 272.36874 55.56875 272.86874Q54.75625 273.36874 53.771873 273.36874Q52.146873 273.36874 51.19375 272.07187Q50.396873 270.99374 50.396873 269.63437Q50.396873 268.65 50.88125 267.68124Q51.365623 266.7125 52.1625 266.24374Q52.959373 265.775 53.85 265.775ZM53.615623 266.29062Q53.19375 266.29062 52.771873 266.54062Q52.365623 266.775 52.1 267.4Q51.85 268.00937 51.85 268.97812Q51.85 270.54062 52.459373 271.68124Q53.084373 272.80624 54.1 272.80624Q54.865623 272.80624 55.35 272.18124Q55.85 271.55624 55.85 270.04062Q55.85 268.13437 55.021873 267.04062Q54.475 266.29062 53.615623 266.29062ZM60.44375 267.29062Q61.69375 265.775 62.834373 265.775Q63.428123 265.775 63.85 266.07187Q64.27187 266.36874 64.52187 267.04062Q64.69375 267.50937 64.69375 268.47812L64.69375 271.525Q64.69375 272.2125 64.80312 272.44687Q64.88125 272.65 65.06875 272.75937Q65.27187 272.86874 65.7875 272.86874L65.7875 273.15L62.240623 273.15L62.240623 272.86874L62.396873 272.86874Q62.896873 272.86874 63.084373 272.7125Q63.2875 272.55624 63.365623 272.25937Q63.396873 272.15 63.396873 271.525L63.396873 268.60312Q63.396873 267.61874 63.146873 267.18124Q62.896873 266.74374 62.2875 266.74374Q61.365623 266.74374 60.44375 267.75937L60.44375 271.525Q60.44375 272.25937 60.521873 272.43124Q60.63125 272.65 60.81875 272.75937Q61.021873 272.86874 61.6 272.86874L61.6 273.15L58.06875 273.15L58.06875 272.86874L58.225 272.86874Q58.771873 272.86874 58.959373 272.5875Q59.146873 272.30624 59.146873 271.525L59.146873 268.86874Q59.146873 267.5875 59.084373 267.30624Q59.0375 267.025 58.9125 266.93124Q58.7875 266.82187 58.584373 266.82187Q58.365623 266.82187 58.06875 266.93124L57.94375 266.65L60.1 265.775L60.44375 265.775L60.44375 267.29062ZM68.81875 262.04062L68.81875 271.525Q68.81875 272.19687 68.9125 272.41562Q69.00625 272.63437 69.20937 272.75937Q69.4125 272.86874 69.975 272.86874L69.975 273.15L66.45937 273.15L66.45937 272.86874Q66.95937 272.86874 67.13125 272.775Q67.31875 272.66562 67.4125 272.43124Q67.52187 272.19687 67.52187 271.525L67.52187 265.025Q67.52187 263.82187 67.45937 263.54062Q67.4125 263.25937 67.2875 263.16562Q67.1625 263.05624 66.975 263.05624Q66.77187 263.05624 66.45937 263.18124L66.33437 262.91562L68.45937 262.04062L68.81875 262.04062ZM69.94375 265.99374L73.2875 265.99374L73.2875 266.275L73.11562 266.275Q72.77187 266.275 72.58437 266.43124Q72.4125 266.5875 72.4125 266.80624Q72.4125 267.11874 72.67812 267.65L74.4125 271.25937L76.02187 267.30624Q76.14687 266.99374 76.14687 266.68124Q76.14687 266.54062 76.1 266.4625Q76.0375 266.38437 75.89687 266.3375Q75.77187 266.275 75.42812 266.275L75.42812 265.99374L77.75625 265.99374L77.75625 266.275Q77.475 266.30624 77.31875 266.4Q77.1625 266.49374 76.975 266.75937Q76.89687 266.86874 76.70937 267.35312L73.7875 274.50937Q73.36562 275.54062 72.67812 276.07187Q72.00625 276.60312 71.36562 276.60312Q70.9125 276.60312 70.61562 276.3375Q70.31875 276.07187 70.31875 275.72812Q70.31875 275.4 70.52187 275.19687Q70.74062 275.00937 71.11562 275.00937Q71.38125 275.00937 71.81875 275.18124Q72.13125 275.29062 72.20937 275.29062Q72.44375 275.29062 72.725 275.04062Q73.00625 274.80624 73.2875 274.11874L73.7875 272.86874L71.225 267.4625Q71.1 267.22812 70.85 266.86874Q70.64687 266.5875 70.52187 266.49374Q70.35 266.36874 69.94375 266.275L69.94375 265.99374Z" fill-rule="nonzero"/><path fill="#9e9e9e" d="M23.19375 294.10312L22.44375 296.15L16.19375 296.15L16.19375 295.85312Q18.959375 293.3375 20.084375 291.74374Q21.209375 290.15 21.209375 288.8375Q21.209375 287.82187 20.584375 287.18124Q19.975 286.525 19.115625 286.525Q18.334375 286.525 17.709375 286.99374Q17.084375 287.44687 16.7875 288.32187L16.50625 288.32187Q16.69375 286.88437 17.50625 286.11874Q18.31875 285.3375 19.521875 285.3375Q20.81875 285.3375 21.678125 286.16562Q22.5375 286.99374 22.5375 288.11874Q22.5375 288.91562 22.1625 289.72812Q21.584375 290.99374 20.2875 292.4Q18.35 294.525 17.865625 294.9625L20.63125 294.9625Q21.475 294.9625 21.803125 294.9Q22.146875 294.8375 22.4125 294.65Q22.69375 294.4625 22.896875 294.10312L23.19375 294.10312ZM24.6625 287.57187Q25.115625 286.49374 25.803125 285.91562Q26.50625 285.3375 27.5375 285.3375Q28.803125 285.3375 29.490625 286.16562Q30.00625 286.775 30.00625 287.47812Q30.00625 288.63437 28.553125 289.86874Q29.521875 290.25937 30.021875 290.97812Q30.521875 291.68124 30.521875 292.63437Q30.521875 294.00937 29.646875 295.025Q28.50625 296.3375 26.35 296.3375Q25.271875 296.3375 24.88125 296.07187Q24.50625 295.80624 24.50625 295.49374Q24.50625 295.275 24.678125 295.10312Q24.865625 294.93124 25.13125 294.93124Q25.31875 294.93124 25.521875 294.99374Q25.6625 295.025 26.13125 295.275Q26.6 295.525 26.771875 295.57187Q27.06875 295.65 27.396875 295.65Q28.19375 295.65 28.771875 295.04062Q29.365625 294.41562 29.365625 293.57187Q29.365625 292.9625 29.1 292.36874Q28.896875 291.93124 28.646875 291.7125Q28.31875 291.4 27.725 291.15Q27.146875 290.88437 26.5375 290.88437L26.2875 290.88437L26.2875 290.65Q26.896875 290.57187 27.521875 290.2125Q28.146875 289.8375 28.428125 289.32187Q28.709375 288.80624 28.709375 288.19687Q28.709375 287.38437 28.19375 286.9Q27.69375 286.4 26.94375 286.4Q25.740625 286.4 24.928125 287.69687L24.6625 287.57187ZM33.85 294.63437Q34.225 294.63437 34.475 294.88437Q34.725 295.13437 34.725 295.49374Q34.725 295.85312 34.459373 296.11874Q34.209373 296.36874 33.85 296.36874Q33.490623 296.36874 33.240623 296.11874Q32.990623 295.85312 32.990623 295.49374Q32.990623 295.13437 33.240623 294.88437Q33.490623 294.63437 33.85 294.63437ZM43.19375 294.10312L42.44375 296.15L36.19375 296.15L36.19375 295.85312Q38.959373 293.3375 40.084373 291.74374Q41.209373 290.15 41.209373 288.8375Q41.209373 287.82187 40.584373 287.18124Q39.975 286.525 39.115623 286.525Q38.334373 286.525 37.709373 286.99374Q37.084373 287.44687 36.7875 288.32187L36.50625 288.32187Q36.69375 286.88437 37.50625 286.11874Q38.31875 285.3375 39.521873 285.3375Q40.81875 285.3375 41.678123 286.16562Q42.5375 286.99374 42.5375 288.11874Q42.5375 288.91562 42.1625 289.72812Q41.584373 290.99374 40.2875 292.4Q38.35 294.525 37.865623 294.9625L40.63125 294.9625Q41.475 294.9625 41.803123 294.9Q42.146873 294.8375 42.4125 294.65Q42.69375 294.4625 42.896873 294.10312L43.19375 294.10312ZM54.725 285.30624L47.00625 296.5875L46.31875 296.5875L54.0375 285.30624L54.725 285.30624ZM46.69375 285.30624Q47.75625 285.30624 48.334373 286.18124Q48.9125 287.05624 48.9125 288.19687Q48.9125 289.55624 48.25625 290.30624Q47.6 291.04062 46.678123 291.04062Q46.06875 291.04062 45.553123 290.69687Q45.0375 290.35312 44.725 289.68124Q44.4125 289.00937 44.4125 288.19687Q44.4125 287.36874 44.725 286.68124Q45.0375 285.99374 45.584373 285.65Q46.13125 285.30624 46.69375 285.30624ZM46.678123 285.74374Q46.271873 285.74374 45.959373 286.2125Q45.6625 286.68124 45.6625 288.18124Q45.6625 289.275 45.834373 289.8375Q45.959373 290.275 46.240623 290.50937Q46.4125 290.65 46.646873 290.65Q47.021873 290.65 47.2875 290.24374Q47.678123 289.63437 47.678123 288.22812Q47.678123 286.74374 47.303123 286.15Q47.053123 285.74374 46.678123 285.74374ZM54.365623 290.88437Q54.928123 290.88437 55.475 291.24374Q56.021873 291.5875 56.31875 292.25937Q56.63125 292.93124 56.63125 293.74374Q56.63125 295.11874 55.959373 295.85312Q55.303123 296.5875 54.396873 296.5875Q53.81875 296.5875 53.2875 296.22812Q52.75625 295.88437 52.44375 295.22812Q52.13125 294.57187 52.13125 293.74374Q52.13125 292.91562 52.44375 292.24374Q52.75625 291.55624 53.2875 291.22812Q53.81875 290.88437 54.365623 290.88437ZM54.38125 291.30624Q54.00625 291.30624 53.725 291.72812Q53.38125 292.275 53.38125 293.79062Q53.38125 295.19687 53.740623 295.74374Q54.00625 296.15 54.38125 296.15Q54.740623 296.15 55.021873 295.7125Q55.396873 295.15 55.396873 293.75937Q55.396873 292.29062 55.021873 291.69687Q54.75625 291.30624 54.38125 291.30624Z" fill-rule="nonzero"/><path stroke="#757575" stroke-width="1.0" stroke-linecap="butt" d="M15.85 279.65L124.13333 279.65L233.3706 292.69583" fill-rule="nonzero"/><path fill="#9e9e9e" d="M235.3706 292.69583C235.3706 291.59125 234.47517 290.69583 233.3706 290.69583C232.26602 290.69583 231.3706 291.59125 231.3706 292.69583C231.3706 293.80038 232.26602 294.69583 233.3706 294.69583C234.47517 294.69583 235.3706 293.80038 235.3706 292.69583" fill-rule="nonzero"/><path fill="#1a1a1a" d="M460.93124 64.19859L463.82187 64.19859L470.29062 72.13609L470.29062 66.02672Q470.29062 65.05797 470.07187 64.80797Q469.79062 64.47984 469.16562 64.47984L468.79062 64.47984L468.79062 64.19859L472.47812 64.19859L472.47812 64.47984L472.10312 64.47984Q471.43124 64.47984 471.15 64.88609Q470.97812 65.13609 470.97812 66.02672L470.97812 74.96422L470.69687 74.96422L463.7125 66.43297L463.7125 72.94859Q463.7125 73.93297 463.93124 74.16734Q464.22812 74.49547 464.8375 74.49547L465.2125 74.49547L465.2125 74.79234L461.525 74.79234L461.525 74.49547L461.9 74.49547Q462.57187 74.49547 462.85312 74.08922Q463.025 73.83922 463.025 72.94859L463.025 65.58922Q462.57187 65.04234 462.32187 64.87047Q462.0875 64.69859 461.63437 64.55797Q461.4 64.47984 460.93124 64.47984L460.93124 64.19859ZM477.15 67.41734Q478.775 67.41734 479.75937 68.65172Q480.60312 69.71422 480.60312 71.07359Q480.60312 72.04234 480.13437 73.02672Q479.68124 74.01109 478.86874 74.51109Q478.05624 75.01109 477.07187 75.01109Q475.44687 75.01109 474.49374 73.71422Q473.69687 72.63609 473.69687 71.27672Q473.69687 70.29234 474.18124 69.32359Q474.66562 68.35484 475.4625 67.88609Q476.25937 67.41734 477.15 67.41734ZM476.91562 67.93297Q476.49374 67.93297 476.07187 68.18297Q475.66562 68.41734 475.4 69.04234Q475.15 69.65172 475.15 70.62047Q475.15 72.18297 475.75937 73.32359Q476.38437 74.44859 477.4 74.44859Q478.16562 74.44859 478.65 73.82359Q479.15 73.19859 479.15 71.68297Q479.15 69.77672 478.32187 68.68297Q477.775 67.93297 476.91562 67.93297ZM483.74374 68.93297Q484.99374 67.41734 486.13437 67.41734Q486.72812 67.41734 487.15 67.71422Q487.57187 68.01109 487.82187 68.68297Q487.99374 69.15172 487.99374 70.12047L487.99374 73.16734Q487.99374 73.85484 488.10312 74.08922Q488.18124 74.29234 488.36874 74.40172Q488.57187 74.51109 489.0875 74.51109L489.0875 74.79234L485.54062 74.79234L485.54062 74.51109L485.69687 74.51109Q486.19687 74.51109 486.38437 74.35484Q486.5875 74.19859 486.66562 73.90172Q486.69687 73.79234 486.69687 73.16734L486.69687 70.24547Q486.69687 69.26109 486.44687 68.82359Q486.19687 68.38609 485.5875 68.38609Q484.66562 68.38609 483.74374 69.40172L483.74374 73.16734Q483.74374 73.90172 483.82187 74.07359Q483.93124 74.29234 484.11874 74.40172Q484.32187 74.51109 484.9 74.51109L484.9 74.79234L481.36874 74.79234L481.36874 74.51109L481.525 74.51109Q482.07187 74.51109 482.25937 74.22984Q482.44687 73.94859 482.44687 73.16734L482.44687 70.51109Q482.44687 69.22984 482.38437 68.94859Q482.3375 68.66734 482.2125 68.57359Q482.0875 68.46422 481.88437 68.46422Q481.66562 68.46422 481.36874 68.57359L481.24374 68.29234L483.4 67.41734L483.74374 67.41734L483.74374 68.93297ZM490.85312 70.32359Q490.85312 71.91734 491.63437 72.82359Q492.41562 73.72984 493.4625 73.72984Q494.16562 73.72984 494.68124 73.35484Q495.2125 72.96422 495.55624 72.02672L495.80624 72.18297Q495.63437 73.24547 494.8375 74.13609Q494.05624 75.01109 492.86874 75.01109Q491.5875 75.01109 490.66562 74.01109Q489.74374 72.99547 489.74374 71.30797Q489.74374 69.46422 490.68124 68.44859Q491.63437 67.41734 493.05624 67.41734Q494.25937 67.41734 495.025 68.21422Q495.80624 68.99547 495.80624 70.32359L490.85312 70.32359ZM490.85312 69.87047L494.16562 69.87047Q494.13437 69.18297 494.00937 68.90172Q493.80624 68.46422 493.41562 68.21422Q493.04062 67.96422 492.61874 67.96422Q491.9625 67.96422 491.44687 68.47984Q490.94687 68.97984 490.85312 69.87047Z" fill-rule="nonzero"/><path fill="#9e9e9e" d="M462.49374 95.74547L461.74374 97.79234L455.49374 97.79234L455.49374 97.49547Q458.25937 94.97984 459.38437 93.38609Q460.50937 91.79234 460.50937 90.47984Q460.50937 89.46422 459.88437 88.82359Q459.275 88.16734 458.41562 88.16734Q457.63437 88.16734 457.00937 88.63609Q456.38437 89.08922 456.0875 89.96422L455.80624 89.96422Q455.99374 88.52672 456.80624 87.76109Q457.61874 86.97984 458.82187 86.97984Q460.11874 86.97984 460.97812 87.80797Q461.8375 88.63609 461.8375 89.76109Q461.8375 90.55797 461.4625 91.37047Q460.88437 92.63609 459.5875 94.04234Q457.65 96.16734 457.16562 96.60484L459.93124 96.60484Q460.775 96.60484 461.10312 96.54234Q461.44687 96.47984 461.7125 96.29234Q461.99374 96.10484 462.19687 95.74547L462.49374 95.74547ZM465.025 88.22984L467.60312 86.97984L467.86874 86.97984L467.86874 95.91734Q467.86874 96.80797 467.93124 97.02672Q468.00937 97.24547 468.24374 97.37047Q468.47812 97.47984 469.19687 97.49547L469.19687 97.79234L465.2125 97.79234L465.2125 97.49547Q465.9625 97.47984 466.18124 97.37047Q466.4 97.26109 466.47812 97.07359Q466.57187 96.87047 466.57187 95.91734L466.57187 90.19859Q466.57187 89.04234 466.49374 88.71422Q466.44687 88.46422 466.29062 88.35484Q466.15 88.22984 465.94687 88.22984Q465.66562 88.22984 465.15 88.47984L465.025 88.22984ZM473.15 96.27672Q473.525 96.27672 473.775 96.52672Q474.025 96.77672 474.025 97.13609Q474.025 97.49547 473.75937 97.76109Q473.50937 98.01109 473.15 98.01109Q472.79062 98.01109 472.54062 97.76109Q472.29062 97.49547 472.29062 97.13609Q472.29062 96.77672 472.54062 96.52672Q472.79062 96.27672 473.15 96.27672ZM482.49374 95.74547L481.74374 97.79234L475.49374 97.79234L475.49374 97.49547Q478.25937 94.97984 479.38437 93.38609Q480.50937 91.79234 480.50937 90.47984Q480.50937 89.46422 479.88437 88.82359Q479.275 88.16734 478.41562 88.16734Q477.63437 88.16734 477.00937 88.63609Q476.38437 89.08922 476.0875 89.96422L475.80624 89.96422Q475.99374 88.52672 476.80624 87.76109Q477.61874 86.97984 478.82187 86.97984Q480.11874 86.97984 480.97812 87.80797Q481.8375 88.63609 481.8375 89.76109Q481.8375 90.55797 481.4625 91.37047Q480.88437 92.63609 479.5875 94.04234Q477.65 96.16734 477.16562 96.60484L479.93124 96.60484Q480.775 96.60484 481.10312 96.54234Q481.44687 96.47984 481.7125 96.29234Q481.99374 96.10484 482.19687 95.74547L482.49374 95.74547ZM494.025 86.94859L486.30624 98.22984L485.61874 98.22984L493.3375 86.94859L494.025 86.94859ZM485.99374 86.94859Q487.05624 86.94859 487.63437 87.82359Q488.2125 88.69859 488.2125 89.83922Q488.2125 91.19859 487.55624 91.94859Q486.9 92.68297 485.97812 92.68297Q485.36874 92.68297 484.85312 92.33922Q484.3375 91.99547 484.025 91.32359Q483.7125 90.65172 483.7125 89.83922Q483.7125 89.01109 484.025 88.32359Q484.3375 87.63609 484.88437 87.29234Q485.43124 86.94859 485.99374 86.94859ZM485.97812 87.38609Q485.57187 87.38609 485.25937 87.85484Q484.9625 88.32359 484.9625 89.82359Q484.9625 90.91734 485.13437 91.47984Q485.25937 91.91734 485.54062 92.15172Q485.7125 92.29234 485.94687 92.29234Q486.32187 92.29234 486.5875 91.88609Q486.97812 91.27672 486.97812 89.87047Q486.97812 88.38609 486.60312 87.79234Q486.35312 87.38609 485.97812 87.38609ZM493.66562 92.52672Q494.22812 92.52672 494.775 92.88609Q495.32187 93.22984 495.61874 93.90172Q495.93124 94.57359 495.93124 95.38609Q495.93124 96.76109 495.25937 97.49547Q494.60312 98.22984 493.69687 98.22984Q493.11874 98.22984 492.5875 97.87047Q492.05624 97.52672 491.74374 96.87047Q491.43124 96.21422 491.43124 95.38609Q491.43124 94.55797 491.74374 93.88609Q492.05624 93.19859 492.5875 92.87047Q493.11874 92.52672 493.66562 92.52672ZM493.68124 92.94859Q493.30624 92.94859 493.025 93.37047Q492.68124 93.91734 492.68124 95.43297Q492.68124 96.83922 493.04062 97.38609Q493.30624 97.79234 493.68124 97.79234Q494.04062 97.79234 494.32187 97.35484Q494.69687 96.79234 494.69687 95.40172Q494.69687 93.93297 494.32187 93.33922Q494.05624 92.94859 493.68124 92.94859Z" fill-rule="nonzero"/><path stroke="#757575" stroke-width="1.0" stroke-linecap="butt" d="M496.15 81.29234L387.86667 81.29234L329.91534 81.29234" fill-rule="nonzero"/><path fill="#9e9e9e" d="M331.91534 81.29234C331.91534 80.187775 331.0199 79.29234 329.91534 79.29234C328.81076 79.29234 327.91534 80.187775 327.91534 81.29234C327.91534 82.39691 328.81076 83.29234 329.91534 83.29234C331.0199 83.29234 331.91534 82.39691 331.91534 81.29234" fill-rule="nonzero"/><path fill="#1a1a1a" d="M439.79062 204.13615L440.025 207.74553L439.79062 207.74553Q439.30624 206.12053 438.4 205.4174Q437.50937 204.69865 436.24374 204.69865Q435.19687 204.69865 434.3375 205.24553Q433.49374 205.77678 432.99374 206.94865Q432.50937 208.12053 432.50937 209.8549Q432.50937 211.2924 432.9625 212.3549Q433.43124 213.40178 434.35312 213.96428Q435.29062 214.52678 436.47812 214.52678Q437.50937 214.52678 438.29062 214.08928Q439.0875 213.65178 440.025 212.33928L440.275 212.49553Q439.47812 213.90178 438.41562 214.57365Q437.35312 215.2299 435.88437 215.2299Q433.25937 215.2299 431.80624 213.26115Q430.72812 211.80803 430.72812 209.83928Q430.72812 208.26115 431.43124 206.93303Q432.15 205.6049 433.4 204.87053Q434.65 204.13615 436.11874 204.13615Q437.275 204.13615 438.38437 204.69865Q438.7125 204.87053 438.85312 204.87053Q439.07187 204.87053 439.22812 204.7299Q439.43124 204.51115 439.50937 204.13615L439.79062 204.13615ZM445.15 207.6049Q446.775 207.6049 447.75937 208.83928Q448.60312 209.90178 448.60312 211.26115Q448.60312 212.2299 448.13437 213.21428Q447.68124 214.19865 446.86874 214.69865Q446.05624 215.19865 445.07187 215.19865Q443.44687 215.19865 442.49374 213.90178Q441.69687 212.82365 441.69687 211.46428Q441.69687 210.4799 442.18124 209.51115Q442.66562 208.5424 443.4625 208.07365Q444.25937 207.6049 445.15 207.6049ZM444.91562 208.12053Q444.49374 208.12053 444.07187 208.37053Q443.66562 208.6049 443.4 209.2299Q443.15 209.83928 443.15 210.80803Q443.15 212.37053 443.75937 213.51115Q444.38437 214.63615 445.4 214.63615Q446.16562 214.63615 446.65 214.01115Q447.15 213.38615 447.15 211.87053Q447.15 209.96428 446.32187 208.87053Q445.775 208.12053 444.91562 208.12053ZM454.7125 214.1674Q454.18124 214.71428 453.68124 214.96428Q453.18124 215.19865 452.60312 215.19865Q451.43124 215.19865 450.55624 214.21428Q449.68124 213.2299 449.68124 211.69865Q449.68124 210.15178 450.65 208.88615Q451.61874 207.6049 453.15 207.6049Q454.0875 207.6049 454.7125 208.19865L454.7125 206.88615Q454.7125 205.65178 454.65 205.37053Q454.5875 205.08928 454.4625 204.99553Q454.3375 204.88615 454.15 204.88615Q453.94687 204.88615 453.61874 205.01115L453.50937 204.74553L455.65 203.87053L455.99374 203.87053L455.99374 212.13615Q455.99374 213.40178 456.05624 213.68303Q456.11874 213.94865 456.24374 214.05803Q456.36874 214.1674 456.54062 214.1674Q456.75937 214.1674 457.10312 214.0424L457.19687 214.30803L455.07187 215.19865L454.7125 215.19865L454.7125 214.1674ZM454.7125 213.62053L454.7125 209.93303Q454.66562 209.40178 454.43124 208.96428Q454.19687 208.52678 453.80624 208.30803Q453.41562 208.08928 453.05624 208.08928Q452.36874 208.08928 451.82187 208.69865Q451.11874 209.51115 451.11874 211.07365Q451.11874 212.65178 451.80624 213.49553Q452.49374 214.33928 453.3375 214.33928Q454.04062 214.33928 454.7125 213.62053ZM458.85312 210.51115Q458.85312 212.1049 459.63437 213.01115Q460.41562 213.9174 461.4625 213.9174Q462.16562 213.9174 462.68124 213.5424Q463.2125 213.15178 463.55624 212.21428L463.80624 212.37053Q463.63437 213.43303 462.8375 214.32365Q462.05624 215.19865 460.86874 215.19865Q459.5875 215.19865 458.66562 214.19865Q457.74374 213.18303 457.74374 211.49553Q457.74374 209.65178 458.68124 208.63615Q459.63437 207.6049 461.05624 207.6049Q462.25937 207.6049 463.025 208.40178Q463.80624 209.18303 463.80624 210.51115L458.85312 210.51115ZM458.85312 210.05803L462.16562 210.05803Q462.13437 209.37053 462.00937 209.08928Q461.80624 208.65178 461.41562 208.40178Q461.04062 208.15178 460.61874 208.15178Q459.9625 208.15178 459.44687 208.6674Q458.94687 209.1674 458.85312 210.05803ZM472.15 207.6049Q473.775 207.6049 474.75937 208.83928Q475.60312 209.90178 475.60312 211.26115Q475.60312 212.2299 475.13437 213.21428Q474.68124 214.19865 473.86874 214.69865Q473.05624 215.19865 472.07187 215.19865Q470.44687 215.19865 469.49374 213.90178Q468.69687 212.82365 468.69687 211.46428Q468.69687 210.4799 469.18124 209.51115Q469.66562 208.5424 470.4625 208.07365Q471.25937 207.6049 472.15 207.6049ZM471.91562 208.12053Q471.49374 208.12053 471.07187 208.37053Q470.66562 208.6049 470.4 209.2299Q470.15 209.83928 470.15 210.80803Q470.15 212.37053 470.75937 213.51115Q471.38437 214.63615 472.4 214.63615Q473.16562 214.63615 473.65 214.01115Q474.15 213.38615 474.15 211.87053Q474.15 209.96428 473.32187 208.87053Q472.775 208.12053 471.91562 208.12053ZM478.74374 209.12053Q479.99374 207.6049 481.13437 207.6049Q481.72812 207.6049 482.15 207.90178Q482.57187 208.19865 482.82187 208.87053Q482.99374 209.33928 482.99374 210.30803L482.99374 213.3549Q482.99374 214.0424 483.10312 214.27678Q483.18124 214.4799 483.36874 214.58928Q483.57187 214.69865 484.0875 214.69865L484.0875 214.9799L480.54062 214.9799L480.54062 214.69865L480.69687 214.69865Q481.19687 214.69865 481.38437 214.5424Q481.5875 214.38615 481.66562 214.08928Q481.69687 213.9799 481.69687 213.3549L481.69687 210.43303Q481.69687 209.44865 481.44687 209.01115Q481.19687 208.57365 480.5875 208.57365Q479.66562 208.57365 478.74374 209.58928L478.74374 213.3549Q478.74374 214.08928 478.82187 214.26115Q478.93124 214.4799 479.11874 214.58928Q479.32187 214.69865 479.9 214.69865L479.9 214.9799L476.36874 214.9799L476.36874 214.69865L476.525 214.69865Q477.07187 214.69865 477.25937 214.4174Q477.44687 214.13615 477.44687 213.3549L477.44687 210.69865Q477.44687 209.4174 477.38437 209.13615Q477.3375 208.8549 477.2125 208.76115Q477.0875 208.65178 476.88437 208.65178Q476.66562 208.65178 476.36874 208.76115L476.24374 208.4799L478.4 207.6049L478.74374 207.6049L478.74374 209.12053ZM487.11874 203.87053L487.11874 213.3549Q487.11874 214.02678 487.2125 214.24553Q487.30624 214.46428 487.50937 214.58928Q487.7125 214.69865 488.275 214.69865L488.275 214.9799L484.75937 214.9799L484.75937 214.69865Q485.25937 214.69865 485.43124 214.6049Q485.61874 214.49553 485.7125 214.26115Q485.82187 214.02678 485.82187 213.3549L485.82187 206.8549Q485.82187 205.65178 485.75937 205.37053Q485.7125 205.08928 485.5875 204.99553Q485.4625 204.88615 485.275 204.88615Q485.07187 204.88615 484.75937 205.01115L484.63437 204.74553L486.75937 203.87053L487.11874 203.87053ZM488.24374 207.82365L491.5875 207.82365L491.5875 208.1049L491.41562 208.1049Q491.07187 208.1049 490.88437 208.26115Q490.7125 208.4174 490.7125 208.63615Q490.7125 208.94865 490.97812 209.4799L492.7125 213.08928L494.32187 209.13615Q494.44687 208.82365 494.44687 208.51115Q494.44687 208.37053 494.4 208.2924Q494.3375 208.21428 494.19687 208.1674Q494.07187 208.1049 493.72812 208.1049L493.72812 207.82365L496.05624 207.82365L496.05624 208.1049Q495.775 208.13615 495.61874 208.2299Q495.4625 208.32365 495.275 208.58928Q495.19687 208.69865 495.00937 209.18303L492.0875 216.33928Q491.66562 217.37053 490.97812 217.90178Q490.30624 218.43303 489.66562 218.43303Q489.2125 218.43303 488.91562 218.1674Q488.61874 217.90178 488.61874 217.55803Q488.61874 217.2299 488.82187 217.02678Q489.04062 216.83928 489.41562 216.83928Q489.68124 216.83928 490.11874 217.01115Q490.43124 217.12053 490.50937 217.12053Q490.74374 217.12053 491.025 216.87053Q491.30624 216.63615 491.5875 215.94865L492.0875 214.69865L489.525 209.2924Q489.4 209.05803 489.15 208.69865Q488.94687 208.4174 488.82187 208.32365Q488.65 208.19865 488.24374 208.1049L488.24374 207.82365Z" fill-rule="nonzero"/><path fill="#9e9e9e" d="M462.49374 235.93303L461.74374 237.9799L455.49374 237.9799L455.49374 237.68303Q458.25937 235.1674 459.38437 233.57365Q460.50937 231.9799 460.50937 230.6674Q460.50937 229.65178 459.88437 229.01115Q459.275 228.3549 458.41562 228.3549Q457.63437 228.3549 457.00937 228.82365Q456.38437 229.27678 456.0875 230.15178L455.80624 230.15178Q455.99374 228.71428 456.80624 227.94865Q457.61874 227.1674 458.82187 227.1674Q460.11874 227.1674 460.97812 227.99553Q461.8375 228.82365 461.8375 229.94865Q461.8375 230.74553 461.4625 231.55803Q460.88437 232.82365 459.5875 234.2299Q457.65 236.3549 457.16562 236.7924L459.93124 236.7924Q460.775 236.7924 461.10312 236.7299Q461.44687 236.6674 461.7125 236.4799Q461.99374 236.2924 462.19687 235.93303L462.49374 235.93303ZM463.72812 232.74553Q463.72812 230.93303 464.275 229.62053Q464.82187 228.30803 465.72812 227.6674Q466.43124 227.1674 467.18124 227.1674Q468.4 227.1674 469.36874 228.40178Q470.5875 229.94865 470.5875 232.57365Q470.5875 234.4174 470.05624 235.71428Q469.525 236.99553 468.69687 237.58928Q467.86874 238.1674 467.10312 238.1674Q465.5875 238.1674 464.5875 236.37053Q463.72812 234.87053 463.72812 232.74553ZM465.25937 232.93303Q465.25937 235.12053 465.80624 236.51115Q466.24374 237.6674 467.13437 237.6674Q467.55624 237.6674 468.00937 237.2924Q468.4625 236.9174 468.69687 236.02678Q469.05624 234.68303 469.05624 232.2299Q469.05624 230.4174 468.68124 229.21428Q468.4 228.30803 467.94687 227.93303Q467.63437 227.68303 467.18124 227.68303Q466.65 227.68303 466.22812 228.15178Q465.66562 228.80803 465.4625 230.19865Q465.25937 231.58928 465.25937 232.93303ZM473.15 236.46428Q473.525 236.46428 473.775 236.71428Q474.025 236.96428 474.025 237.32365Q474.025 237.68303 473.75937 237.94865Q473.50937 238.19865 473.15 238.19865Q472.79062 238.19865 472.54062 237.94865Q472.29062 237.68303 472.29062 237.32365Q472.29062 236.96428 472.54062 236.71428Q472.79062 236.46428 473.15 236.46428ZM482.49374 235.93303L481.74374 237.9799L475.49374 237.9799L475.49374 237.68303Q478.25937 235.1674 479.38437 233.57365Q480.50937 231.9799 480.50937 230.6674Q480.50937 229.65178 479.88437 229.01115Q479.275 228.3549 478.41562 228.3549Q477.63437 228.3549 477.00937 228.82365Q476.38437 229.27678 476.0875 230.15178L475.80624 230.15178Q475.99374 228.71428 476.80624 227.94865Q477.61874 227.1674 478.82187 227.1674Q480.11874 227.1674 480.97812 227.99553Q481.8375 228.82365 481.8375 229.94865Q481.8375 230.74553 481.4625 231.55803Q480.88437 232.82365 479.5875 234.2299Q477.65 236.3549 477.16562 236.7924L479.93124 236.7924Q480.775 236.7924 481.10312 236.7299Q481.44687 236.6674 481.7125 236.4799Q481.99374 236.2924 482.19687 235.93303L482.49374 235.93303ZM494.025 227.13615L486.30624 238.4174L485.61874 238.4174L493.3375 227.13615L494.025 227.13615ZM485.99374 227.13615Q487.05624 227.13615 487.63437 228.01115Q488.2125 228.88615 488.2125 230.02678Q488.2125 231.38615 487.55624 232.13615Q486.9 232.87053 485.97812 232.87053Q485.36874 232.87053 484.85312 232.52678Q484.3375 232.18303 484.025 231.51115Q483.7125 230.83928 483.7125 230.02678Q483.7125 229.19865 484.025 228.51115Q484.3375 227.82365 484.88437 227.4799Q485.43124 227.13615 485.99374 227.13615ZM485.97812 227.57365Q485.57187 227.57365 485.25937 228.0424Q484.9625 228.51115 484.9625 230.01115Q484.9625 231.1049 485.13437 231.6674Q485.25937 232.1049 485.54062 232.33928Q485.7125 232.4799 485.94687 232.4799Q486.32187 232.4799 486.5875 232.07365Q486.97812 231.46428 486.97812 230.05803Q486.97812 228.57365 486.60312 227.9799Q486.35312 227.57365 485.97812 227.57365ZM493.66562 232.71428Q494.22812 232.71428 494.775 233.07365Q495.32187 233.4174 495.61874 234.08928Q495.93124 234.76115 495.93124 235.57365Q495.93124 236.94865 495.25937 237.68303Q494.60312 238.4174 493.69687 238.4174Q493.11874 238.4174 492.5875 238.05803Q492.05624 237.71428 491.74374 237.05803Q491.43124 236.40178 491.43124 235.57365Q491.43124 234.74553 491.74374 234.07365Q492.05624 233.38615 492.5875 233.05803Q493.11874 232.71428 493.66562 232.71428ZM493.68124 233.13615Q493.30624 233.13615 493.025 233.55803Q492.68124 234.1049 492.68124 235.62053Q492.68124 237.02678 493.04062 237.57365Q493.30624 237.9799 493.68124 237.9799Q494.04062 237.9799 494.32187 237.5424Q494.69687 236.9799 494.69687 235.58928Q494.69687 234.12053 494.32187 233.52678Q494.05624 233.13615 493.68124 233.13615Z" fill-rule="nonzero"/><path stroke="#757575" stroke-width="1.0" stroke-linecap="butt" d="M496.15 221.4799L387.86667 221.4799L366.28897 221.4799" fill-rule="nonzero"/><path fill="#9e9e9e" d="M368.28897 221.4799C368.28897 220.37534 367.39355 219.4799 366.28897 219.4799C365.18442 219.4799 364.28897 220.37534 364.28897 221.4799C364.28897 222.58447 365.18442 223.4799 366.28897 223.4799C367.39355 223.4799 368.28897 222.58447 368.28897 221.4799" fill-rule="nonzero"/><path fill="#757575" d="M19.959375 27.646873L19.959375 31.506248Q19.959375 32.75625 20.225 33.053123Q20.6 33.490623 21.35 33.490623L21.85 33.490623L21.85 33.85L16.178125 33.85L16.178125 33.490623L16.678125 33.490623Q17.521875 33.490623 17.88125 32.94375Q18.084375 32.63125 18.084375 31.506248L18.084375 22.943748Q18.084375 21.693748 17.81875 21.396873Q17.428125 20.974998 16.678125 20.974998L16.178125 20.974998L16.178125 20.599998L21.0375 20.599998Q22.81875 20.599998 23.834375 20.974998Q24.865625 21.334373 25.56875 22.209373Q26.271875 23.084373 26.271875 24.271873Q26.271875 25.896873 25.19375 26.912498Q24.13125 27.928123 22.178125 27.928123Q21.69375 27.928123 21.13125 27.865623Q20.584375 27.787498 19.959375 27.646873ZM19.959375 27.084373Q20.475 27.193748 20.865625 27.240623Q21.271875 27.287498 21.553125 27.287498Q22.56875 27.287498 23.303125 26.506248Q24.0375 25.709373 24.0375 24.459373Q24.0375 23.599998 23.678125 22.865623Q23.334375 22.131248 22.69375 21.771873Q22.053125 21.396873 21.225 21.396873Q20.740625 21.396873 19.959375 21.584373L19.959375 27.084373ZM32.5375 32.553123Q31.1625 33.63125 30.81875 33.7875Q30.2875 34.0375 29.69375 34.0375Q28.771875 34.0375 28.1625 33.4125Q27.56875 32.771873 27.56875 31.724998Q27.56875 31.068748 27.85 30.599998Q28.25625 29.928123 29.240625 29.349998Q30.240625 28.756248 32.5375 27.928123L32.5375 27.568748Q32.5375 26.224998 32.115623 25.740623Q31.69375 25.240623 30.88125 25.240623Q30.271875 25.240623 29.9125 25.568748Q29.5375 25.896873 29.5375 26.334373L29.553125 26.896873Q29.553125 27.349998 29.31875 27.599998Q29.1 27.834373 28.725 27.834373Q28.365625 27.834373 28.13125 27.584373Q27.9125 27.318748 27.9125 26.881248Q27.9125 26.053123 28.771875 25.349998Q29.63125 24.646873 31.178125 24.646873Q32.365623 24.646873 33.13125 25.037498Q33.709373 25.349998 33.975 25.990623Q34.1625 26.412498 34.1625 27.709373L34.1625 30.740623Q34.1625 32.021873 34.209373 32.31875Q34.25625 32.6 34.365623 32.69375Q34.475 32.7875 34.63125 32.7875Q34.7875 32.7875 34.896873 32.725Q35.1 32.6 35.69375 32.00625L35.69375 32.553123Q34.6 34.021873 33.6 34.021873Q33.115623 34.021873 32.834373 33.69375Q32.553123 33.365623 32.5375 32.553123ZM32.5375 31.928123L32.5375 28.521873Q31.06875 29.099998 30.646875 29.349998Q29.865625 29.771873 29.5375 30.240623Q29.209375 30.709373 29.209375 31.271873Q29.209375 31.974998 29.615625 32.44375Q30.0375 32.896873 30.584375 32.896873Q31.334375 32.896873 32.5375 31.928123ZM35.834373 25.787498L38.584373 24.678123L38.959373 24.678123L38.959373 26.771873Q39.646873 25.584373 40.35 25.115623Q41.053123 24.646873 41.81875 24.646873Q43.1625 24.646873 44.06875 25.693748Q45.1625 26.990623 45.1625 29.053123Q45.1625 31.365623 43.834373 32.88125Q42.740623 34.13125 41.084373 34.13125Q40.365623 34.13125 39.834373 33.9125Q39.44375 33.771873 38.959373 33.334373L38.959373 36.053123Q38.959373 36.975 39.06875 37.225Q39.178123 37.475 39.459373 37.615623Q39.740623 37.771873 40.475 37.771873L40.475 38.13125L35.7875 38.13125L35.7875 37.771873L36.021873 37.771873Q36.56875 37.771873 36.94375 37.56875Q37.13125 37.459373 37.225 37.209373Q37.334373 36.975 37.334373 36.00625L37.334373 27.537498Q37.334373 26.678123 37.25625 26.443748Q37.178123 26.209373 37.00625 26.099998Q36.834373 25.974998 36.5375 25.974998Q36.303123 25.974998 35.94375 26.099998L35.834373 25.787498ZM38.959373 27.349998L38.959373 30.678123Q38.959373 31.771873 39.0375 32.115623Q39.178123 32.678123 39.709373 33.115623Q40.240623 33.5375 41.053123 33.5375Q42.0375 33.5375 42.63125 32.771873Q43.428123 31.771873 43.428123 29.974998Q43.428123 27.928123 42.5375 26.818748Q41.9125 26.053123 41.053123 26.053123Q40.584373 26.053123 40.115623 26.287498Q39.771873 26.459373 38.959373 27.349998ZM47.975 28.271873Q47.975 30.271873 48.94375 31.396873Q49.928123 32.5375 51.240623 32.5375Q52.115623 32.5375 52.75625 32.053123Q53.4125 31.568748 53.865623 30.396873L54.1625 30.584373Q53.959373 31.928123 52.975 33.0375Q51.990623 34.13125 50.50625 34.13125Q48.88125 34.13125 47.740623 32.88125Q46.6 31.615623 46.6 29.490623Q46.6 27.193748 47.771873 25.912498Q48.94375 24.631248 50.725 24.631248Q52.225 24.631248 53.19375 25.631248Q54.1625 26.615623 54.1625 28.271873L47.975 28.271873ZM47.975 27.709373L52.115623 27.709373Q52.06875 26.849998 51.9125 26.490623Q51.678123 25.943748 51.19375 25.631248Q50.709373 25.318748 50.178123 25.318748Q49.365623 25.318748 48.725 25.959373Q48.084373 26.584373 47.975 27.709373ZM58.1 24.646873L58.1 26.646873Q59.209373 24.646873 60.396873 24.646873Q60.928123 24.646873 61.271873 24.974998Q61.63125 25.287498 61.63125 25.724998Q61.63125 26.099998 61.38125 26.365623Q61.13125 26.631248 60.771873 26.631248Q60.44375 26.631248 60.00625 26.303123Q59.584373 25.959373 59.38125 25.959373Q59.209373 25.959373 59.00625 26.146873Q58.56875 26.553123 58.1 27.474998L58.1 31.756248Q58.1 32.50625 58.271873 32.88125Q58.4125 33.146873 58.725 33.31875Q59.053123 33.490623 59.6625 33.490623L59.6625 33.85L55.06875 33.85L55.06875 33.490623Q55.75625 33.490623 56.084373 33.2875Q56.334373 33.13125 56.428123 32.7875Q56.475 32.615623 56.475 31.834373L56.475 28.365623Q56.475 26.803123 56.4125 26.506248Q56.35 26.209373 56.178123 26.084373Q56.00625 25.943748 55.75625 25.943748Q55.459373 25.943748 55.06875 26.084373L54.975 25.740623L57.678123 24.646873L58.1 24.646873ZM68.25625 24.646873L68.25625 27.693748L67.92812 27.693748Q67.56875 26.256248 66.975 25.740623Q66.39687 25.209373 65.50625 25.209373Q64.81875 25.209373 64.39687 25.584373Q63.975 25.943748 63.975 26.381248Q63.975 26.928123 64.2875 27.318748Q64.6 27.709373 65.52187 28.162498L66.94375 28.865623Q68.92812 29.818748 68.92812 31.412498Q68.92812 32.63125 68.00625 33.38125Q67.08437 34.13125 65.94375 34.13125Q65.11562 34.13125 64.06875 33.834373Q63.740623 33.725 63.5375 33.725Q63.31875 33.725 63.19375 33.990623L62.865623 33.990623L62.865623 30.787498L63.19375 30.787498Q63.459373 32.1625 64.225 32.865623Q65.00625 33.553123 65.95937 33.553123Q66.63125 33.553123 67.05312 33.1625Q67.49062 32.75625 67.49062 32.19375Q67.49062 31.521873 67.00625 31.068748Q66.5375 30.599998 65.11562 29.896873Q63.709373 29.193748 63.271873 28.631248Q62.834373 28.084373 62.834373 27.224998Q62.834373 26.131248 63.584373 25.396873Q64.33437 24.646873 65.5375 24.646873Q66.06875 24.646873 66.81875 24.865623Q67.31875 25.006248 67.49062 25.006248Q67.64687 25.006248 67.725 24.943748Q67.81875 24.881248 67.92812 24.646873L68.25625 24.646873ZM74.975 24.896873L78.725 24.896873L78.725 25.271873Q78.20937 25.303123 78.0375 25.459373Q77.88125 25.599998 77.88125 25.865623Q77.88125 26.178123 78.05312 26.599998L79.975 31.756248L81.89687 27.553123L81.38125 26.240623Q81.14687 25.662498 80.77187 25.428123Q80.55312 25.287498 79.975 25.271873L79.975 24.896873L84.225 24.896873L84.225 25.271873Q83.52187 25.287498 83.225 25.521873Q83.0375 25.678123 83.0375 26.021873Q83.0375 26.209373 83.11562 26.412498L85.14687 31.553123L87.02187 26.599998Q87.225 26.068748 87.225 25.756248Q87.225 25.584373 87.0375 25.443748Q86.85 25.287498 86.2875 25.271873L86.2875 24.896873L89.11562 24.896873L89.11562 25.271873Q88.25625 25.396873 87.86562 26.412498L84.86562 34.13125L84.475 34.13125L82.24062 28.412498L79.63125 34.13125L79.27187 34.13125L76.39687 26.599998Q76.11562 25.896873 75.83437 25.646873Q75.56875 25.396873 74.975 25.271873L74.975 24.896873ZM91.75625 19.959373Q92.1625 19.959373 92.44375 20.256248Q92.74062 20.537498 92.74062 20.943748Q92.74062 21.365623 92.44375 21.662498Q92.1625 21.943748 91.75625 21.943748Q91.33437 21.943748 91.0375 21.662498Q90.75625 21.365623 90.75625 20.943748Q90.75625 20.537498 91.0375 20.256248Q91.33437 19.959373 91.75625 19.959373ZM92.56875 24.646873L92.56875 31.834373Q92.56875 32.6625 92.67812 32.94375Q92.80312 33.225 93.0375 33.365623Q93.2875 33.490623 93.9125 33.490623L93.9125 33.85L89.56875 33.85L89.56875 33.490623Q90.225 33.490623 90.44375 33.365623Q90.67812 33.240623 90.80312 32.959373Q90.94375 32.6625 90.94375 31.834373L90.94375 28.381248Q90.94375 26.928123 90.85 26.490623Q90.7875 26.178123 90.63125 26.068748Q90.49062 25.943748 90.24062 25.943748Q89.95937 25.943748 89.56875 26.084373L89.44375 25.740623L92.13125 24.646873L92.56875 24.646873ZM98.06875 21.959373L98.06875 24.896873L100.1625 24.896873L100.1625 25.584373L98.06875 25.584373L98.06875 31.381248Q98.06875 32.25625 98.31875 32.56875Q98.56875 32.865623 98.95937 32.865623Q99.2875 32.865623 99.58437 32.6625Q99.89687 32.459373 100.05312 32.06875L100.44375 32.06875Q100.1 33.021873 99.475 33.50625Q98.85 33.990623 98.17812 33.990623Q97.725 33.990623 97.2875 33.740623Q96.86562 33.490623 96.6625 33.0375Q96.45937 32.56875 96.45937 31.599998L96.45937 25.584373L95.05312 25.584373L95.05312 25.271873Q95.58437 25.053123 96.14687 24.537498Q96.70937 24.021873 97.14687 23.318748Q97.36562 22.943748 97.77187 21.959373L98.06875 21.959373ZM104.1 19.959373L104.1 26.506248Q105.19375 25.318748 105.81875 24.990623Q106.45937 24.646873 107.08437 24.646873Q107.85 24.646873 108.39687 25.068748Q108.94375 25.474998 109.20937 26.381248Q109.39687 27.006248 109.39687 28.662498L109.39687 31.834373Q109.39687 32.678123 109.5375 32.990623Q109.63125 33.225 109.86562 33.365623Q110.1 33.490623 110.725 33.490623L110.725 33.85L106.33437 33.85L106.33437 33.490623L106.5375 33.490623Q107.1625 33.490623 107.39687 33.303123Q107.64687 33.115623 107.74062 32.740623Q107.77187 32.584373 107.77187 31.834373L107.77187 28.662498Q107.77187 27.193748 107.61562 26.740623Q107.475 26.287498 107.13125 26.053123Q106.80312 25.818748 106.33437 25.818748Q105.86562 25.818748 105.33437 26.084373Q104.81875 26.334373 104.1 27.099998L104.1 31.834373Q104.1 32.740623 104.19375 32.975Q104.30312 33.19375 104.58437 33.35Q104.86562 33.490623 105.55312 33.490623L105.55312 33.85L101.11562 33.85L101.11562 33.490623Q101.70937 33.490623 102.05312 33.31875Q102.24062 33.209373 102.35 32.94375Q102.475 32.6625 102.475 31.834373L102.475 23.724998Q102.475 22.193748 102.39687 21.849998Q102.33437 21.490623 102.17812 21.365623Q102.0375 21.240623 101.77187 21.240623Q101.56875 21.240623 101.11562 21.396873L100.975 21.053123L103.64687 19.959373L104.1 19.959373ZM124.06875 30.443748Q123.70937 32.225 122.64687 33.178123Q121.6 34.13125 120.31875 34.13125Q118.80312 34.13125 117.6625 32.85Q116.5375 31.568748 116.5375 29.381248Q116.5375 27.271873 117.7875 25.959373Q119.0375 24.646873 120.80312 24.646873Q122.11562 24.646873 122.95937 25.349998Q123.81875 26.037498 123.81875 26.787498Q123.81875 27.162498 123.56875 27.396873Q123.33437 27.615623 122.9125 27.615623Q122.33437 27.615623 122.0375 27.240623Q121.88125 27.037498 121.81875 26.474998Q121.77187 25.896873 121.42812 25.584373Q121.08437 25.287498 120.475 25.287498Q119.50625 25.287498 118.9125 26.021873Q118.11562 26.974998 118.11562 28.553123Q118.11562 30.146873 118.89687 31.381248Q119.69375 32.6 121.02187 32.6Q121.99062 32.6 122.74062 31.943748Q123.2875 31.490623 123.7875 30.318748L124.06875 30.443748ZM129.85 24.646873Q131.88126 24.646873 133.11563 26.178123Q134.1625 27.506248 134.1625 29.209373Q134.1625 30.412498 133.58438 31.646873Q133.00626 32.865623 131.99063 33.50625Q130.99063 34.13125 129.74063 34.13125Q127.725 34.13125 126.5375 32.50625Q125.52187 31.146873 125.52187 29.459373Q125.52187 28.240623 126.13125 27.021873Q126.74062 25.803123 127.74062 25.224998Q128.74063 24.646873 129.85 24.646873ZM129.55313 25.271873Q129.0375 25.271873 128.50626 25.584373Q127.99062 25.896873 127.6625 26.662498Q127.33437 27.428123 127.33437 28.646873Q127.33437 30.599998 128.11563 32.021873Q128.89688 33.428123 130.1625 33.428123Q131.11563 33.428123 131.725 32.646873Q132.33438 31.865623 132.33438 29.959373Q132.33438 27.584373 131.31876 26.209373Q130.61563 25.271873 129.55313 25.271873ZM141.7875 32.85Q141.14688 33.521873 140.52188 33.834373Q139.89688 34.13125 139.1625 34.13125Q137.70938 34.13125 136.61563 32.9125Q135.52188 31.678123 135.52188 29.740623Q135.52188 27.818748 136.725 26.224998Q137.94376 24.631248 139.83438 24.631248Q141.02188 24.631248 141.7875 25.381248L141.7875 23.724998Q141.7875 22.193748 141.70938 21.849998Q141.64688 21.490623 141.49063 21.365623Q141.33438 21.240623 141.1 21.240623Q140.85 21.240623 140.42813 21.396873L140.30313 21.053123L142.95938 19.959373L143.4125 19.959373L143.4125 30.303123Q143.4125 31.881248 143.475 32.225Q143.55313 32.56875 143.70938 32.709373Q143.88126 32.85 144.08438 32.85Q144.35 32.85 144.7875 32.678123L144.89688 33.021873L142.24063 34.13125L141.7875 34.13125L141.7875 32.85ZM141.7875 32.1625L141.7875 27.553123Q141.74063 26.881248 141.44376 26.334373Q141.14688 25.787498 140.6625 25.521873Q140.17813 25.240623 139.725 25.240623Q138.86563 25.240623 138.19376 26.006248Q137.30313 27.021873 137.30313 28.974998Q137.30313 30.943748 138.1625 32.00625Q139.02188 33.053123 140.06876 33.053123Q140.95938 33.053123 141.7875 32.1625ZM146.975 28.271873Q146.975 30.271873 147.94376 31.396873Q148.92813 32.5375 150.24063 32.5375Q151.11563 32.5375 151.75626 32.053123Q152.4125 31.568748 152.86563 30.396873L153.1625 30.584373Q152.95938 31.928123 151.975 33.0375Q150.99063 34.13125 149.50626 34.13125Q147.88126 34.13125 146.74063 32.88125Q145.6 31.615623 145.6 29.490623Q145.6 27.193748 146.77188 25.912498Q147.94376 24.631248 149.725 24.631248Q151.225 24.631248 152.19376 25.631248Q153.1625 26.615623 153.1625 28.271873L146.975 28.271873ZM146.975 27.709373L151.11563 27.709373Q151.06876 26.849998 150.9125 26.490623Q150.67813 25.943748 150.19376 25.631248Q149.70938 25.318748 149.17813 25.318748Q148.36563 25.318748 147.725 25.959373Q147.08438 26.584373 146.975 27.709373ZM164.5375 32.553123Q163.1625 33.63125 162.81876 33.7875Q162.2875 34.0375 161.69376 34.0375Q160.77188 34.0375 160.1625 33.4125Q159.56876 32.771873 159.56876 31.724998Q159.56876 31.068748 159.85 30.599998Q160.25626 29.928123 161.24063 29.349998Q162.24063 28.756248 164.5375 27.928123L164.5375 27.568748Q164.5375 26.224998 164.11563 25.740623Q163.69376 25.240623 162.88126 25.240623Q162.27188 25.240623 161.9125 25.568748Q161.5375 25.896873 161.5375 26.334373L161.55313 26.896873Q161.55313 27.349998 161.31876 27.599998Q161.1 27.834373 160.725 27.834373Q160.36563 27.834373 160.13126 27.584373Q159.9125 27.318748 159.9125 26.881248Q159.9125 26.053123 160.77188 25.349998Q161.63126 24.646873 163.17813 24.646873Q164.36563 24.646873 165.13126 25.037498Q165.70938 25.349998 165.975 25.990623Q166.1625 26.412498 166.1625 27.709373L166.1625 30.740623Q166.1625 32.021873 166.20938 32.31875Q166.25626 32.6 166.36563 32.69375Q166.475 32.7875 166.63126 32.7875Q166.7875 32.7875 166.89688 32.725Q167.1 32.6 167.69376 32.00625L167.69376 32.553123Q166.6 34.021873 165.6 34.021873Q165.11563 34.021873 164.83438 33.69375Q164.55313 33.365623 164.5375 32.553123ZM164.5375 31.928123L164.5375 28.521873Q163.06876 29.099998 162.64688 29.349998Q161.86563 29.771873 161.5375 30.240623Q161.20938 30.709373 161.20938 31.271873Q161.20938 31.974998 161.61563 32.44375Q162.0375 32.896873 162.58438 32.896873Q163.33438 32.896873 164.5375 31.928123ZM171.08438 26.537498Q172.6625 24.646873 174.08438 24.646873Q174.81876 24.646873 175.33438 25.006248Q175.86563 25.365623 176.17813 26.209373Q176.39688 26.803123 176.39688 28.006248L176.39688 31.834373Q176.39688 32.678123 176.5375 32.975Q176.64688 33.225 176.88126 33.365623Q177.11563 33.490623 177.75626 33.490623L177.75626 33.85L173.33438 33.85L173.33438 33.490623L173.52188 33.490623Q174.14688 33.490623 174.39688 33.303123Q174.64688 33.115623 174.74063 32.740623Q174.7875 32.6 174.7875 31.834373L174.7875 28.162498Q174.7875 26.943748 174.45938 26.396873Q174.14688 25.834373 173.39688 25.834373Q172.24063 25.834373 171.08438 27.115623L171.08438 31.834373Q171.08438 32.740623 171.19376 32.94375Q171.33438 33.240623 171.56876 33.365623Q171.80313 33.490623 172.5375 33.490623L172.5375 33.85L168.11563 33.85L168.11563 33.490623L168.30313 33.490623Q168.99063 33.490623 169.225 33.146873Q169.475 32.803123 169.475 31.834373L169.475 28.506248Q169.475 26.896873 169.39688 26.553123Q169.31876 26.193748 169.1625 26.068748Q169.02188 25.943748 168.77188 25.943748Q168.49063 25.943748 168.11563 26.084373L167.975 25.740623L170.6625 24.646873L171.08438 24.646873L171.08438 26.537498ZM184.7875 32.85Q184.14688 33.521873 183.52188 33.834373Q182.89688 34.13125 182.1625 34.13125Q180.70938 34.13125 179.61563 32.9125Q178.52188 31.678123 178.52188 29.740623Q178.52188 27.818748 179.725 26.224998Q180.94376 24.631248 182.83438 24.631248Q184.02188 24.631248 184.7875 25.381248L184.7875 23.724998Q184.7875 22.193748 184.70938 21.849998Q184.64688 21.490623 184.49063 21.365623Q184.33438 21.240623 184.1 21.240623Q183.85 21.240623 183.42813 21.396873L183.30313 21.053123L185.95938 19.959373L186.4125 19.959373L186.4125 30.303123Q186.4125 31.881248 186.475 32.225Q186.55313 32.56875 186.70938 32.709373Q186.88126 32.85 187.08438 32.85Q187.35 32.85 187.7875 32.678123L187.89688 33.021873L185.24063 34.13125L184.7875 34.13125L184.7875 32.85ZM184.7875 32.1625L184.7875 27.553123Q184.74063 26.881248 184.44376 26.334373Q184.14688 25.787498 183.6625 25.521873Q183.17813 25.240623 182.725 25.240623Q181.86563 25.240623 181.19376 26.006248Q180.30313 27.021873 180.30313 28.974998Q180.30313 30.943748 181.1625 32.00625Q182.02188 33.053123 183.06876 33.053123Q183.95938 33.053123 184.7875 32.1625ZM199.7875 32.85Q199.14688 33.521873 198.52188 33.834373Q197.89688 34.13125 197.1625 34.13125Q195.70938 34.13125 194.61563 32.9125Q193.52188 31.678123 193.52188 29.740623Q193.52188 27.818748 194.725 26.224998Q195.94376 24.631248 197.83438 24.631248Q199.02188 24.631248 199.7875 25.381248L199.7875 23.724998Q199.7875 22.193748 199.70938 21.849998Q199.64688 21.490623 199.49063 21.365623Q199.33438 21.240623 199.1 21.240623Q198.85 21.240623 198.42813 21.396873L198.30313 21.053123L200.95938 19.959373L201.4125 19.959373L201.4125 30.303123Q201.4125 31.881248 201.475 32.225Q201.55313 32.56875 201.70938 32.709373Q201.88126 32.85 202.08438 32.85Q202.35 32.85 202.7875 32.678123L202.89688 33.021873L200.24063 34.13125L199.7875 34.13125L199.7875 32.85ZM199.7875 32.1625L199.7875 27.553123Q199.74063 26.881248 199.44376 26.334373Q199.14688 25.787498 198.6625 25.521873Q198.17813 25.240623 197.725 25.240623Q196.86563 25.240623 196.19376 26.006248Q195.30313 27.021873 195.30313 28.974998Q195.30313 30.943748 196.1625 32.00625Q197.02188 33.053123 198.06876 33.053123Q198.95938 33.053123 199.7875 32.1625ZM208.5375 32.553123Q207.1625 33.63125 206.81876 33.7875Q206.2875 34.0375 205.69376 34.0375Q204.77188 34.0375 204.1625 33.4125Q203.56876 32.771873 203.56876 31.724998Q203.56876 31.068748 203.85 30.599998Q204.25626 29.928123 205.24063 29.349998Q206.24063 28.756248 208.5375 27.928123L208.5375 27.568748Q208.5375 26.224998 208.11563 25.740623Q207.69376 25.240623 206.88126 25.240623Q206.27188 25.240623 205.9125 25.568748Q205.5375 25.896873 205.5375 26.334373L205.55313 26.896873Q205.55313 27.349998 205.31876 27.599998Q205.1 27.834373 204.725 27.834373Q204.36563 27.834373 204.13126 27.584373Q203.9125 27.318748 203.9125 26.881248Q203.9125 26.053123 204.77188 25.349998Q205.63126 24.646873 207.17813 24.646873Q208.36563 24.646873 209.13126 25.037498Q209.70938 25.349998 209.975 25.990623Q210.1625 26.412498 210.1625 27.709373L210.1625 30.740623Q210.1625 32.021873 210.20938 32.31875Q210.25626 32.6 210.36563 32.69375Q210.475 32.7875 210.63126 32.7875Q210.7875 32.7875 210.89688 32.725Q211.1 32.6 211.69376 32.00625L211.69376 32.553123Q210.6 34.021873 209.6 34.021873Q209.11563 34.021873 208.83438 33.69375Q208.55313 33.365623 208.5375 32.553123ZM208.5375 31.928123L208.5375 28.521873Q207.06876 29.099998 206.64688 29.349998Q205.86563 29.771873 205.5375 30.240623Q205.20938 30.709373 205.20938 31.271873Q205.20938 31.974998 205.61563 32.44375Q206.0375 32.896873 206.58438 32.896873Q207.33438 32.896873 208.5375 31.928123ZM215.06876 21.959373L215.06876 24.896873L217.1625 24.896873L217.1625 25.584373L215.06876 25.584373L215.06876 31.381248Q215.06876 32.25625 215.31876 32.56875Q215.56876 32.865623 215.95938 32.865623Q216.2875 32.865623 216.58438 32.6625Q216.89688 32.459373 217.05313 32.06875L217.44376 32.06875Q217.1 33.021873 216.475 33.50625Q215.85 33.990623 215.17813 33.990623Q214.725 33.990623 214.2875 33.740623Q213.86563 33.490623 213.6625 33.0375Q213.45938 32.56875 213.45938 31.599998L213.45938 25.584373L212.05313 25.584373L212.05313 25.271873Q212.58438 25.053123 213.14688 24.537498Q213.70938 24.021873 214.14688 23.318748Q214.36563 22.943748 214.77188 21.959373L215.06876 21.959373ZM223.5375 32.553123Q222.1625 33.63125 221.81876 33.7875Q221.2875 34.0375 220.69376 34.0375Q219.77188 34.0375 219.1625 33.4125Q218.56876 32.771873 218.56876 31.724998Q218.56876 31.068748 218.85 30.599998Q219.25626 29.928123 220.24063 29.349998Q221.24063 28.756248 223.5375 27.928123L223.5375 27.568748Q223.5375 26.224998 223.11563 25.740623Q222.69376 25.240623 221.88126 25.240623Q221.27188 25.240623 220.9125 25.568748Q220.5375 25.896873 220.5375 26.334373L220.55313 26.896873Q220.55313 27.349998 220.31876 27.599998Q220.1 27.834373 219.725 27.834373Q219.36563 27.834373 219.13126 27.584373Q218.9125 27.318748 218.9125 26.881248Q218.9125 26.053123 219.77188 25.349998Q220.63126 24.646873 222.17813 24.646873Q223.36563 24.646873 224.13126 25.037498Q224.70938 25.349998 224.975 25.990623Q225.1625 26.412498 225.1625 27.709373L225.1625 30.740623Q225.1625 32.021873 225.20938 32.31875Q225.25626 32.6 225.36563 32.69375Q225.475 32.7875 225.63126 32.7875Q225.7875 32.7875 225.89688 32.725Q226.1 32.6 226.69376 32.00625L226.69376 32.553123Q225.6 34.021873 224.6 34.021873Q224.11563 34.021873 223.83438 33.69375Q223.55313 33.365623 223.5375 32.553123ZM223.5375 31.928123L223.5375 28.521873Q222.06876 29.099998 221.64688 29.349998Q220.86563 29.771873 220.5375 30.240623Q220.20938 30.709373 220.20938 31.271873Q220.20938 31.974998 220.61563 32.44375Q221.0375 32.896873 221.58438 32.896873Q222.33438 32.896873 223.5375 31.928123Z" fill-rule="nonzero"/></svg>