<svg version="1.1" viewBox="0.0 0.0 512.0 317.0" fill="none" stroke="none" stroke-linecap="square" stroke-miterlimit="10" width="512" height="317" xmlns:xlink="http://www.w3.org/1999/xlink" xmlns="http://www.w3.org/2000/svg"><path fill="#ffffff" d="M0 0L512.0 0L512.0 317.0L0 317.0L0 0Z" fill-rule="nonzero"/><path fill="#71c287" d="M248.90738 50.617462C251.26921 50.483624 253.63437 50.416668 256.0 50.416668L256.0 175.78334Z" fill-rule="nonzero"/><path fill="#fcd04f" d="M227.85626 53.616516C234.77571 52.022476 241.81807 51.01918 248.90738 50.617462L256.0 175.78334Z" fill-rule="nonzero"/><path fill="#f07b72" d="M214.23537 57.57793C218.69727 56.001446 223.24484 54.678856 227.85626 53.616516L256.0 175.78334Z" fill-rule="nonzero"/><path fill="#7baaf7" d="M182.88661 73.94408C192.5104 67.034874 203.06497 61.52468 214.23537 57.57793L256.0 175.78334Z" fill-rule="nonzero"/><path fill="#46bdc6" d="M166.72737 87.76517C171.71265 82.708824 177.1185 78.085175 182.88661 73.94408L256.0 175.78334Z" fill-rule="nonzero"/><path fill="#ff6d01" d="M153.13632 104.11838C157.19537 98.29225 161.74208 92.82151 166.72737 87.76517L256.0 175.78334Z" fill-rule="nonzero"/><path fill="#34a853" d="M133.44716 149.37117C136.9471 133.13136 143.63982 117.74912 153.13632 104.11838L256.0 175.78334Z" fill-rule="nonzero"/><path fill="#fbbc04" d="M130.64589 177.55737C130.51186 168.08632 131.4516 158.63058 133.44716 149.37117L256.0 175.78334Z" fill-rule="nonzero"/><path fill="#ea4335" d="M210.90703 292.7595C163.14229 274.34674 131.37029 228.74307 130.64589 177.55737L256.0 175.78334Z" fill-rule="nonzero"/><path fill="#4285f4" d="M256.0 50.416668C306.32962 50.416668 351.78024 80.51519 371.4237 126.85312C391.0672 173.19104 381.09506 226.78429 346.09903 262.95538C311.103 299.12646 257.8682 310.8625 210.90703 292.7595L256.0 175.78334Z" fill-rule="nonzero"/><path fill="#1a1a1a" d="M16.428125 57.229168Q16.428125 55.088543 17.56875 53.885418Q18.725 52.666668 20.5375 52.666668Q21.740625 52.666668 22.69375 53.244793Q23.646875 53.807293 24.146875 54.822918Q24.646875 55.838543 24.646875 57.135418Q24.646875 58.432293 24.115625 59.463543Q23.584375 60.494793 22.615625 61.026043Q21.6625 61.557293 20.5375 61.557293Q19.31875 61.557293 18.365625 60.979168Q17.4125 60.385418 16.9125 59.385418Q16.428125 58.369793 16.428125 57.229168ZM17.6 57.244793Q17.6 58.807293 18.428125 59.697918Q19.271875 60.588543 20.5375 60.588543Q21.81875 60.588543 22.646875 59.697918Q23.475 58.791668 23.475 57.119793Q23.475 56.072918 23.115625 55.291668Q22.771875 54.510418 22.084375 54.088543Q21.396875 53.651043 20.553125 53.651043Q19.35 53.651043 18.475 54.479168Q17.6 55.307293 17.6 57.244793ZM27.94375 60.479168L28.1 61.401043Q27.646875 61.494793 27.303125 61.494793Q26.725 61.494793 26.4125 61.322918Q26.1 61.135418 25.959375 60.838543Q25.834375 60.541668 25.834375 59.588543L25.834375 56.010418L25.06875 56.010418L25.06875 55.197918L25.834375 55.197918L25.834375 53.651043L26.88125 53.026043L26.88125 55.197918L27.94375 55.197918L27.94375 56.010418L26.88125 56.010418L26.88125 59.651043Q26.88125 60.104168 26.928125 60.229168Q26.990625 60.354168 27.115625 60.432293Q27.240625 60.510418 27.475 60.510418Q27.6625 60.510418 27.94375 60.479168ZM28.646875 61.416668L28.646875 52.822918L29.69375 52.822918L29.69375 55.901043Q30.428125 55.057293 31.553125 55.057293Q32.25625 55.057293 32.75625 55.338543Q33.271873 55.604168 33.490623 56.088543Q33.709373 56.557293 33.709373 57.479168L33.709373 61.416668L32.6625 61.416668L32.6625 57.479168Q32.6625 56.682293 32.31875 56.322918Q31.975 55.963543 31.35 55.963543Q30.88125 55.963543 30.459375 56.213543Q30.053125 56.447918 29.865625 56.869793Q29.69375 57.276043 29.69375 58.010418L29.69375 61.416668L28.646875 61.416668ZM39.896873 59.416668L40.990623 59.541668Q40.740623 60.494793 40.0375 61.026043Q39.334373 61.557293 38.25625 61.557293Q36.896873 61.557293 36.084373 60.713543Q35.2875 59.869793 35.2875 58.354168Q35.2875 56.791668 36.1 55.932293Q36.9125 55.057293 38.19375 55.057293Q39.44375 55.057293 40.225 55.901043Q41.021873 56.744793 41.021873 58.291668Q41.021873 58.385418 41.021873 58.572918L36.38125 58.572918Q36.44375 59.604168 36.959373 60.151043Q37.475 60.682293 38.25625 60.682293Q38.834373 60.682293 39.240623 60.385418Q39.6625 60.072918 39.896873 59.416668ZM36.44375 57.713543L39.9125 57.713543Q39.85 56.916668 39.521873 56.526043Q39.00625 55.916668 38.209373 55.916668Q37.475 55.916668 36.975 56.401043Q36.490623 56.885418 36.44375 57.713543ZM42.63125 61.416668L42.63125 55.197918L43.584373 55.197918L43.584373 56.135418Q43.94375 55.479168 44.240623 55.276043Q44.553123 55.057293 44.928123 55.057293Q45.459373 55.057293 46.00625 55.385418L45.646873 56.369793Q45.25625 56.135418 44.88125 56.135418Q44.521873 56.135418 44.240623 56.354168Q43.975 56.557293 43.865623 56.932293Q43.678123 57.494793 43.678123 58.151043L43.678123 61.416668L42.63125 61.416668Z" fill-rule="nonzero"/><path fill="#9e9e9e" d="M21.896875 77.40104L21.896875 78.416664L16.209375 78.416664Q16.209375 78.041664 16.334375 77.68229Q16.553125 77.104164 17.021875 76.541664Q17.50625 75.979164 18.4125 75.24479Q19.81875 74.08854 20.303125 73.416664Q20.803125 72.74479 20.803125 72.15104Q20.803125 71.52604 20.35 71.104164Q19.896875 70.666664 19.178125 70.666664Q18.4125 70.666664 17.959375 71.11979Q17.50625 71.572914 17.490625 72.385414L16.4125 72.27604Q16.521875 71.05729 17.240625 70.43229Q17.975 69.791664 19.209375 69.791664Q20.44375 69.791664 21.1625 70.479164Q21.88125 71.166664 21.88125 72.18229Q21.88125 72.697914 21.6625 73.197914Q21.459375 73.68229 20.959375 74.24479Q20.475 74.791664 19.35 75.74479Q18.396875 76.541664 18.115625 76.83854Q17.85 77.11979 17.678125 77.40104L21.896875 77.40104ZM23.94375 78.416664L23.94375 77.21354L25.146875 77.21354L25.146875 78.416664L23.94375 78.416664ZM26.4125 70.947914L26.4125 69.93229L31.975 69.93229L31.975 70.760414Q31.1625 71.635414 30.35 73.08854Q29.553125 74.52604 29.115625 76.05729Q28.7875 77.135414 28.709375 78.416664L27.615625 78.416664Q27.63125 77.40104 28.00625 75.96354Q28.396875 74.52604 29.1 73.197914Q29.81875 71.86979 30.63125 70.947914L26.4125 70.947914ZM33.553123 71.885414Q33.553123 70.96354 34.00625 70.322914Q34.475 69.68229 35.35 69.68229Q36.1625 69.68229 36.69375 70.260414Q37.225 70.83854 37.225 71.947914Q37.225 73.041664 36.678123 73.635414Q36.146873 74.21354 35.365623 74.21354Q34.584373 74.21354 34.06875 73.635414Q33.553123 73.05729 33.553123 71.885414ZM35.38125 70.40104Q34.990623 70.40104 34.725 70.74479Q34.475 71.08854 34.475 71.99479Q34.475 72.822914 34.725 73.166664Q34.990623 73.49479 35.38125 73.49479Q35.7875 73.49479 36.0375 73.15104Q36.303123 72.80729 36.303123 71.916664Q36.303123 71.072914 36.0375 70.74479Q35.771873 70.40104 35.38125 70.40104ZM35.38125 78.729164L40.084373 69.68229L40.94375 69.68229L36.25625 78.729164L35.38125 78.729164ZM39.1 76.40104Q39.1 75.479164 39.553123 74.83854Q40.021873 74.197914 40.9125 74.197914Q41.725 74.197914 42.25625 74.77604Q42.7875 75.33854 42.7875 76.46354Q42.7875 77.55729 42.240623 78.15104Q41.709373 78.729164 40.9125 78.729164Q40.146873 78.729164 39.615623 78.15104Q39.1 77.572914 39.1 76.40104ZM40.94375 74.916664Q40.5375 74.916664 40.271873 75.260414Q40.021873 75.604164 40.021873 76.510414Q40.021873 77.322914 40.2875 77.666664Q40.553123 78.010414 40.94375 78.010414Q41.334373 78.010414 41.6 77.666664Q41.865623 77.322914 41.865623 76.416664Q41.865623 75.58854 41.6 75.260414Q41.334373 74.916664 40.94375 74.916664Z" fill-rule="nonzero"/><path stroke="#757575" stroke-width="1.0" stroke-linecap="butt" d="M15.85 65.916664L124.63333 65.916664L239.20221 57.87554" fill-rule="nonzero"/><path fill="#9e9e9e" d="M241.20221 57.87554C241.20221 56.770973 240.30678 55.87554 239.20221 55.87554C238.09764 55.87554 237.20221 56.770973 237.20221 57.87554C237.20221 58.98011 238.09764 59.87554 239.20221 59.87554C240.30678 59.87554 241.20221 58.98011 241.20221 57.87554" fill-rule="nonzero"/><path fill="#1a1a1a" d="M15.834375 92.416664L19.13125 83.822914L20.35 83.822914L23.865625 92.416664L22.584375 92.416664L21.56875 89.80729L17.990625 89.80729L17.0375 92.416664L15.834375 92.416664ZM18.31875 88.885414L21.225 88.885414L20.334375 86.510414Q19.9125 85.43229 19.725 84.729164Q19.553125 85.55729 19.25625 86.36979L18.31875 88.885414ZM26.94375 91.479164L27.1 92.40104Q26.646875 92.49479 26.303125 92.49479Q25.725 92.49479 25.4125 92.322914Q25.1 92.135414 24.959375 91.83854Q24.834375 91.541664 24.834375 90.58854L24.834375 87.010414L24.06875 87.010414L24.06875 86.197914L24.834375 86.197914L24.834375 84.65104L25.88125 84.02604L25.88125 86.197914L26.94375 86.197914L26.94375 87.010414L25.88125 87.010414L25.88125 90.65104Q25.88125 91.104164 25.928125 91.229164Q25.990625 91.354164 26.115625 91.43229Q26.240625 91.510414 26.475 91.510414Q26.6625 91.510414 26.94375 91.479164ZM29.94375 91.479164L30.1 92.40104Q29.646875 92.49479 29.303125 92.49479Q28.725 92.49479 28.4125 92.322914Q28.1 92.135414 27.959375 91.83854Q27.834375 91.541664 27.834375 90.58854L27.834375 87.010414L27.06875 87.010414L27.06875 86.197914L27.834375 86.197914L27.834375 84.65104L28.88125 84.02604L28.88125 86.197914L29.94375 86.197914L29.94375 87.010414L28.88125 87.010414L28.88125 90.65104Q28.88125 91.104164 28.928125 91.229164Q28.990625 91.354164 29.115625 91.43229Q29.240625 91.510414 29.475 91.510414Q29.6625 91.510414 29.94375 91.479164ZM34.896873 90.416664L35.990623 90.541664Q35.740623 91.49479 35.0375 92.02604Q34.334373 92.55729 33.25625 92.55729Q31.896875 92.55729 31.084375 91.71354Q30.2875 90.86979 30.2875 89.354164Q30.2875 87.791664 31.1 86.93229Q31.9125 86.05729 33.19375 86.05729Q34.44375 86.05729 35.225 86.90104Q36.021873 87.74479 36.021873 89.291664Q36.021873 89.385414 36.021873 89.572914L31.38125 89.572914Q31.44375 90.604164 31.959375 91.15104Q32.475 91.68229 33.25625 91.68229Q33.834373 91.68229 34.240623 91.385414Q34.6625 91.072914 34.896873 90.416664ZM31.44375 88.71354L34.9125 88.71354Q34.85 87.916664 34.521873 87.52604Q34.00625 86.916664 33.209373 86.916664Q32.475 86.916664 31.975 87.40104Q31.490625 87.885414 31.44375 88.71354ZM37.646873 92.416664L37.646873 86.197914L38.584373 86.197914L38.584373 87.072914Q39.271873 86.05729 40.56875 86.05729Q41.13125 86.05729 41.6 86.260414Q42.084373 86.46354 42.31875 86.791664Q42.553123 87.11979 42.646873 87.55729Q42.69375 87.854164 42.69375 88.58854L42.69375 92.416664L41.646873 92.416664L41.646873 88.635414Q41.646873 87.979164 41.521873 87.666664Q41.396873 87.354164 41.084373 87.166664Q40.771873 86.96354 40.35 86.96354Q39.678123 86.96354 39.178123 87.40104Q38.69375 87.822914 38.69375 89.010414L38.69375 92.416664L37.646873 92.416664ZM46.94375 91.479164L47.1 92.40104Q46.646873 92.49479 46.303123 92.49479Q45.725 92.49479 45.4125 92.322914Q45.1 92.135414 44.959373 91.83854Q44.834373 91.541664 44.834373 90.58854L44.834373 87.010414L44.06875 87.010414L44.06875 86.197914L44.834373 86.197914L44.834373 84.65104L45.88125 84.02604L45.88125 86.197914L46.94375 86.197914L46.94375 87.010414L45.88125 87.010414L45.88125 90.65104Q45.88125 91.104164 45.928123 91.229164Q45.990623 91.354164 46.115623 91.43229Q46.240623 91.510414 46.475 91.510414Q46.6625 91.510414 46.94375 91.479164ZM47.646873 85.041664L47.646873 83.822914L48.709373 83.822914L48.709373 85.041664L47.646873 85.041664ZM47.646873 92.416664L47.646873 86.197914L48.709373 86.197914L48.709373 92.416664L47.646873 92.416664ZM50.25625 89.30729Q50.25625 87.572914 51.209373 86.74479Q52.00625 86.05729 53.1625 86.05729Q54.44375 86.05729 55.25625 86.90104Q56.084373 87.729164 56.084373 89.21354Q56.084373 90.416664 55.725 91.104164Q55.365623 91.791664 54.6625 92.18229Q53.975 92.55729 53.1625 92.55729Q51.865623 92.55729 51.053123 91.729164Q50.25625 90.885414 50.25625 89.30729ZM51.334373 89.30729Q51.334373 90.49479 51.85 91.08854Q52.38125 91.68229 53.1625 91.68229Q53.959373 91.68229 54.475 91.08854Q54.990623 90.49479 54.990623 89.27604Q54.990623 88.11979 54.459373 87.52604Q53.94375 86.93229 53.1625 86.93229Q52.38125 86.93229 51.85 87.52604Q51.334373 88.104164 51.334373 89.30729ZM57.646873 92.416664L57.646873 86.197914L58.584373 86.197914L58.584373 87.072914Q59.271873 86.05729 60.56875 86.05729Q61.13125 86.05729 61.6 86.260414Q62.084373 86.46354 62.31875 86.791664Q62.553123 87.11979 62.646873 87.55729Q62.69375 87.854164 62.69375 88.58854L62.69375 92.416664L61.646873 92.416664L61.646873 88.635414Q61.646873 87.979164 61.521873 87.666664Q61.396873 87.354164 61.084373 87.166664Q60.771873 86.96354 60.35 86.96354Q59.678123 86.96354 59.178123 87.40104Q58.69375 87.822914 58.69375 89.010414L58.69375 92.416664L57.646873 92.416664Z" fill-rule="nonzero"/><path fill="#9e9e9e" d="M19.725 109.416664L19.725 107.354164L16.00625 107.354164L16.00625 106.385414L19.928125 100.822914L20.7875 100.822914L20.7875 106.385414L21.94375 106.385414L21.94375 107.354164L20.7875 107.354164L20.7875 109.416664L19.725 109.416664ZM19.725 106.385414L19.725 102.52604L17.0375 106.385414L19.725 106.385414ZM23.94375 109.416664L23.94375 108.21354L25.146875 108.21354L25.146875 109.416664L23.94375 109.416664ZM26.35 107.166664L27.459375 107.072914Q27.584375 107.885414 28.021875 108.291664Q28.475 108.697914 29.115625 108.697914Q29.865625 108.697914 30.396875 108.11979Q30.928125 107.541664 30.928125 106.604164Q30.928125 105.697914 30.4125 105.18229Q29.9125 104.65104 29.084375 104.65104Q28.584375 104.65104 28.1625 104.885414Q27.75625 105.11979 27.521875 105.479164L26.5375 105.354164L27.365625 100.947914L31.646875 100.947914L31.646875 101.947914L28.209375 101.947914L27.75625 104.260414Q28.521875 103.71354 29.365625 103.71354Q30.490625 103.71354 31.25625 104.49479Q32.0375 105.27604 32.0375 106.510414Q32.0375 107.666664 31.365625 108.52604Q30.5375 109.55729 29.115625 109.55729Q27.94375 109.55729 27.19375 108.90104Q26.459375 108.24479 26.35 107.166664ZM33.553123 102.885414Q33.553123 101.96354 34.00625 101.322914Q34.475 100.68229 35.35 100.68229Q36.1625 100.68229 36.69375 101.260414Q37.225 101.83854 37.225 102.947914Q37.225 104.041664 36.678123 104.635414Q36.146873 105.21354 35.365623 105.21354Q34.584373 105.21354 34.06875 104.635414Q33.553123 104.05729 33.553123 102.885414ZM35.38125 101.40104Q34.990623 101.40104 34.725 101.74479Q34.475 102.08854 34.475 102.99479Q34.475 103.822914 34.725 104.166664Q34.990623 104.49479 35.38125 104.49479Q35.7875 104.49479 36.0375 104.15104Q36.303123 103.80729 36.303123 102.916664Q36.303123 102.072914 36.0375 101.74479Q35.771873 101.40104 35.38125 101.40104ZM35.38125 109.729164L40.084373 100.68229L40.94375 100.68229L36.25625 109.729164L35.38125 109.729164ZM39.1 107.40104Q39.1 106.479164 39.553123 105.83854Q40.021873 105.197914 40.9125 105.197914Q41.725 105.197914 42.25625 105.77604Q42.7875 106.33854 42.7875 107.46354Q42.7875 108.55729 42.240623 109.15104Q41.709373 109.729164 40.9125 109.729164Q40.146873 109.729164 39.615623 109.15104Q39.1 108.572914 39.1 107.40104ZM40.94375 105.916664Q40.5375 105.916664 40.271873 106.260414Q40.021873 106.604164 40.021873 107.510414Q40.021873 108.322914 40.2875 108.666664Q40.553123 109.010414 40.94375 109.010414Q41.334373 109.010414 41.6 108.666664Q41.865623 108.322914 41.865623 107.416664Q41.865623 106.58854 41.6 106.260414Q41.334373 105.916664 40.94375 105.916664Z" fill-rule="nonzero"/><path stroke="#757575" stroke-width="1.0" stroke-linecap="butt" d="M15.85 96.916664L124.63333 96.916664L200.88197 70.20675" fill-rule="nonzero"/><path fill="#9e9e9e" d="M202.88197 70.20675C202.88197 69.10218 201.98654 68.20675 200.88197 68.20675C199.7774 68.20675 198.88197 69.10218 198.88197 70.20675C198.88197 71.31132 199.7774 72.20675 200.88197 72.20675C201.98654 72.20675 202.88197 71.31132 202.88197 70.20675" fill-rule="nonzero"/><path fill="#1a1a1a" d="M17.7875 123.416664L15.88125 117.197914L16.975 117.197914L17.959375 120.791664L18.334375 122.11979Q18.365625 122.02604 18.6625 120.83854L19.646875 117.197914L20.725 117.197914L21.6625 120.80729L21.975 121.99479L22.334375 120.791664L23.396875 117.197914L24.428125 117.197914L22.475 123.416664L21.38125 123.416664L20.396875 119.68229L20.146875 118.635414L18.896875 123.416664L17.7875 123.416664ZM25.25625 120.30729Q25.25625 118.572914 26.209375 117.74479Q27.00625 117.05729 28.1625 117.05729Q29.44375 117.05729 30.25625 117.90104Q31.084375 118.729164 31.084375 120.21354Q31.084375 121.416664 30.725 122.104164Q30.365625 122.791664 29.6625 123.18229Q28.975 123.55729 28.1625 123.55729Q26.865625 123.55729 26.053125 122.729164Q25.25625 121.885414 25.25625 120.30729ZM26.334375 120.30729Q26.334375 121.49479 26.85 122.08854Q27.38125 122.68229 28.1625 122.68229Q28.959375 122.68229 29.475 122.08854Q29.990625 121.49479 29.990625 120.27604Q29.990625 119.11979 29.459375 118.52604Q28.94375 117.93229 28.1625 117.93229Q27.38125 117.93229 26.85 118.52604Q26.334375 119.104164 26.334375 120.30729ZM32.63125 123.416664L32.63125 117.197914L33.584373 117.197914L33.584373 118.135414Q33.94375 117.479164 34.240623 117.27604Q34.553123 117.05729 34.928123 117.05729Q35.459373 117.05729 36.00625 117.385414L35.646873 118.36979Q35.25625 118.135414 34.88125 118.135414Q34.521873 118.135414 34.240623 118.354164Q33.975 118.55729 33.865623 118.93229Q33.678123 119.49479 33.678123 120.15104L33.678123 123.416664L32.63125 123.416664ZM40.678123 123.416664L40.678123 122.635414Q40.084373 123.55729 38.94375 123.55729Q38.19375 123.55729 37.56875 123.15104Q36.94375 122.729164 36.6 121.99479Q36.25625 121.260414 36.25625 120.30729Q36.25625 119.385414 36.56875 118.61979Q36.88125 117.854164 37.50625 117.46354Q38.13125 117.05729 38.896873 117.05729Q39.459373 117.05729 39.896873 117.291664Q40.334373 117.52604 40.615623 117.90104L40.615623 114.822914L41.6625 114.822914L41.6625 123.416664L40.678123 123.416664ZM37.35 120.30729Q37.35 121.510414 37.85 122.104164Q38.35 122.68229 39.0375 122.68229Q39.725 122.68229 40.209373 122.11979Q40.69375 121.55729 40.69375 120.40104Q40.69375 119.11979 40.19375 118.52604Q39.709373 117.93229 38.990623 117.93229Q38.2875 117.93229 37.81875 118.510414Q37.35 119.072914 37.35 120.30729ZM48.896873 122.40104L48.896873 123.416664L43.209373 123.416664Q43.209373 123.041664 43.334373 122.68229Q43.553123 122.104164 44.021873 121.541664Q44.50625 120.979164 45.4125 120.24479Q46.81875 119.08854 47.303123 118.416664Q47.803123 117.74479 47.803123 117.15104Q47.803123 116.52604 47.35 116.104164Q46.896873 115.666664 46.178123 115.666664Q45.4125 115.666664 44.959373 116.11979Q44.50625 116.572914 44.490623 117.385414L43.4125 117.27604Q43.521873 116.05729 44.240623 115.43229Q44.975 114.791664 46.209373 114.791664Q47.44375 114.791664 48.1625 115.479164Q48.88125 116.166664 48.88125 117.18229Q48.88125 117.697914 48.6625 118.197914Q48.459373 118.68229 47.959373 119.24479Q47.475 119.791664 46.35 120.74479Q45.396873 121.541664 45.115623 121.83854Q44.85 122.11979 44.678123 122.40104L48.896873 122.40104ZM52.365623 123.416664L50.00625 117.197914L51.115623 117.197914L52.459373 120.916664Q52.6625 121.52604 52.85 122.166664Q52.990623 121.68229 53.240623 120.99479L54.63125 117.197914L55.709373 117.197914L53.35 123.416664L52.365623 123.416664ZM60.896873 121.416664L61.990623 121.541664Q61.740623 122.49479 61.0375 123.02604Q60.334373 123.55729 59.25625 123.55729Q57.896873 123.55729 57.084373 122.71354Q56.2875 121.86979 56.2875 120.354164Q56.2875 118.791664 57.1 117.93229Q57.9125 117.05729 59.19375 117.05729Q60.44375 117.05729 61.225 117.90104Q62.021873 118.74479 62.021873 120.291664Q62.021873 120.385414 62.021873 120.572914L57.38125 120.572914Q57.44375 121.604164 57.959373 122.15104Q58.475 122.68229 59.25625 122.68229Q59.834373 122.68229 60.240623 122.385414Q60.6625 122.072914 60.896873 121.416664ZM57.44375 119.71354L60.9125 119.71354Q60.85 118.916664 60.521873 118.52604Q60.00625 117.916664 59.209373 117.916664Q58.475 117.916664 57.975 118.40104Q57.490623 118.885414 57.44375 119.71354ZM67.70937 121.135414L68.74062 121.27604Q68.56875 122.33854 67.86562 122.947914Q67.1625 123.55729 66.14687 123.55729Q64.86562 123.55729 64.08437 122.729164Q63.31875 121.885414 63.31875 120.322914Q63.31875 119.322914 63.646873 118.572914Q63.990623 117.80729 64.6625 117.43229Q65.35 117.05729 66.1625 117.05729Q67.1625 117.05729 67.80312 117.572914Q68.45937 118.072914 68.64687 119.02604L67.61562 119.18229Q67.475 118.55729 67.1 118.24479Q66.725 117.916664 66.19375 117.916664Q65.39687 117.916664 64.89687 118.49479Q64.39687 119.05729 64.39687 120.291664Q64.39687 121.55729 64.88125 122.11979Q65.36562 122.68229 66.13125 122.68229Q66.75625 122.68229 67.1625 122.30729Q67.58437 121.93229 67.70937 121.135414Z" fill-rule="nonzero"/><path fill="#9e9e9e" d="M21.896875 139.40105L21.896875 140.41667L16.209375 140.41667Q16.209375 140.04167 16.334375 139.6823Q16.553125 139.10417 17.021875 138.54167Q17.50625 137.97917 18.4125 137.2448Q19.81875 136.08855 20.303125 135.41667Q20.803125 134.7448 20.803125 134.15105Q20.803125 133.52605 20.35 133.10417Q19.896875 132.66667 19.178125 132.66667Q18.4125 132.66667 17.959375 133.1198Q17.50625 133.57292 17.490625 134.38542L16.4125 134.27605Q16.521875 133.0573 17.240625 132.4323Q17.975 131.79167 19.209375 131.79167Q20.44375 131.79167 21.1625 132.47917Q21.88125 133.16667 21.88125 134.1823Q21.88125 134.69792 21.6625 135.19792Q21.459375 135.6823 20.959375 136.2448Q20.475 136.79167 19.35 137.7448Q18.396875 138.54167 18.115625 138.83855Q17.85 139.1198 17.678125 139.40105L21.896875 139.40105ZM23.94375 140.41667L23.94375 139.21355L25.146875 139.21355L25.146875 140.41667L23.94375 140.41667ZM26.4125 132.94792L26.4125 131.9323L31.975 131.9323L31.975 132.76042Q31.1625 133.63542 30.35 135.08855Q29.553125 136.52605 29.115625 138.0573Q28.7875 139.13542 28.709375 140.41667L27.615625 140.41667Q27.63125 139.40105 28.00625 137.96355Q28.396875 136.52605 29.1 135.19792Q29.81875 133.8698 30.63125 132.94792L26.4125 132.94792ZM33.553123 133.88542Q33.553123 132.96355 34.00625 132.32292Q34.475 131.6823 35.35 131.6823Q36.1625 131.6823 36.69375 132.26042Q37.225 132.83855 37.225 133.94792Q37.225 135.04167 36.678123 135.63542Q36.146873 136.21355 35.365623 136.21355Q34.584373 136.21355 34.06875 135.63542Q33.553123 135.0573 33.553123 133.88542ZM35.38125 132.40105Q34.990623 132.40105 34.725 132.7448Q34.475 133.08855 34.475 133.9948Q34.475 134.82292 34.725 135.16667Q34.990623 135.4948 35.38125 135.4948Q35.7875 135.4948 36.0375 135.15105Q36.303123 134.8073 36.303123 133.91667Q36.303123 133.07292 36.0375 132.7448Q35.771873 132.40105 35.38125 132.40105ZM35.38125 140.72917L40.084373 131.6823L40.94375 131.6823L36.25625 140.72917L35.38125 140.72917ZM39.1 138.40105Q39.1 137.47917 39.553123 136.83855Q40.021873 136.19792 40.9125 136.19792Q41.725 136.19792 42.25625 136.77605Q42.7875 137.33855 42.7875 138.46355Q42.7875 139.5573 42.240623 140.15105Q41.709373 140.72917 40.9125 140.72917Q40.146873 140.72917 39.615623 140.15105Q39.1 139.57292 39.1 138.40105ZM40.94375 136.91667Q40.5375 136.91667 40.271873 137.26042Q40.021873 137.60417 40.021873 138.51042Q40.021873 139.32292 40.2875 139.66667Q40.553123 140.01042 40.94375 140.01042Q41.334373 140.01042 41.6 139.66667Q41.865623 139.32292 41.865623 138.41667Q41.865623 137.58855 41.6 137.26042Q41.334373 136.91667 40.94375 136.91667Z" fill-rule="nonzero"/><path stroke="#757575" stroke-width="1.0" stroke-linecap="butt" d="M15.85 127.916664L124.63333 127.916664L178.58775 85.275" fill-rule="nonzero"/><path fill="#9e9e9e" d="M180.58775 85.275C180.58775 84.17043 179.69232 83.275 178.58775 83.275C177.48318 83.275 176.58775 84.17043 176.58775 85.275C176.58775 86.37957 177.48318 87.275 178.58775 87.275C179.69232 87.275 180.58775 86.37957 180.58775 85.275" fill-rule="nonzero"/><path fill="#1a1a1a" d="M16.803125 154.41667L16.803125 145.82292L23.00625 145.82292L23.00625 146.83855L17.94375 146.83855L17.94375 149.46355L22.69375 149.46355L22.69375 150.47917L17.94375 150.47917L17.94375 153.40105L23.209375 153.40105L23.209375 154.41667L16.803125 154.41667ZM24.646875 154.41667L24.646875 148.19792L25.584375 148.19792L25.584375 149.07292Q25.88125 148.60417 26.365625 148.33855Q26.85 148.0573 27.475 148.0573Q28.1625 148.0573 28.6 148.33855Q29.053125 148.6198 29.225 149.13542Q29.975 148.0573 31.146875 148.0573Q32.084373 148.0573 32.56875 148.57292Q33.06875 149.07292 33.06875 150.15105L33.06875 154.41667L32.021873 154.41667L32.021873 150.4948Q32.021873 149.8698 31.9125 149.58855Q31.81875 149.3073 31.553125 149.13542Q31.2875 148.96355 30.9125 148.96355Q30.25625 148.96355 29.81875 149.40105Q29.396875 149.83855 29.396875 150.8073L29.396875 154.41667L28.334375 154.41667L28.334375 150.3698Q28.334375 149.66667 28.06875 149.32292Q27.81875 148.96355 27.240625 148.96355Q26.7875 148.96355 26.4125 149.19792Q26.0375 149.4323 25.865625 149.88542Q25.69375 150.33855 25.69375 151.1823L25.69375 154.41667L24.646875 154.41667ZM35.615623 154.41667L34.63125 154.41667L34.63125 145.82292L35.69375 145.82292L35.69375 148.88542Q36.365623 148.0573 37.396873 148.0573Q37.975 148.0573 38.475 148.29167Q38.990623 148.51042 39.31875 148.9323Q39.6625 149.35417 39.85 149.94792Q40.0375 150.54167 40.0375 151.21355Q40.0375 152.8073 39.240623 153.6823Q38.44375 154.5573 37.35 154.5573Q36.240623 154.5573 35.615623 153.63542L35.615623 154.41667ZM35.6 151.26042Q35.6 152.3698 35.9125 152.8698Q36.4125 153.6823 37.25625 153.6823Q37.94375 153.6823 38.44375 153.08855Q38.959373 152.4948 38.959373 151.29167Q38.959373 150.07292 38.475 149.4948Q37.990623 148.91667 37.303123 148.91667Q36.615623 148.91667 36.1 149.52605Q35.6 150.1198 35.6 151.26042ZM45.896873 152.41667L46.990623 152.54167Q46.740623 153.4948 46.0375 154.02605Q45.334373 154.5573 44.25625 154.5573Q42.896873 154.5573 42.084373 153.71355Q41.2875 152.8698 41.2875 151.35417Q41.2875 149.79167 42.1 148.9323Q42.9125 148.0573 44.19375 148.0573Q45.44375 148.0573 46.225 148.90105Q47.021873 149.7448 47.021873 151.29167Q47.021873 151.38542 47.021873 151.57292L42.38125 151.57292Q42.44375 152.60417 42.959373 153.15105Q43.475 153.6823 44.25625 153.6823Q44.834373 153.6823 45.240623 153.38542Q45.6625 153.07292 45.896873 152.41667ZM42.44375 150.71355L45.9125 150.71355Q45.85 149.91667 45.521873 149.52605Q45.00625 148.91667 44.209373 148.91667Q43.475 148.91667 42.975 149.40105Q42.490623 149.88542 42.44375 150.71355ZM52.678123 154.41667L52.678123 153.63542Q52.084373 154.5573 50.94375 154.5573Q50.19375 154.5573 49.56875 154.15105Q48.94375 153.72917 48.6 152.9948Q48.25625 152.26042 48.25625 151.3073Q48.25625 150.38542 48.56875 149.6198Q48.88125 148.85417 49.50625 148.46355Q50.13125 148.0573 50.896873 148.0573Q51.459373 148.0573 51.896873 148.29167Q52.334373 148.52605 52.615623 148.90105L52.615623 145.82292L53.6625 145.82292L53.6625 154.41667L52.678123 154.41667ZM49.35 151.3073Q49.35 152.51042 49.85 153.10417Q50.35 153.6823 51.0375 153.6823Q51.725 153.6823 52.209373 153.1198Q52.69375 152.5573 52.69375 151.40105Q52.69375 150.1198 52.19375 149.52605Q51.709373 148.9323 50.990623 148.9323Q50.2875 148.9323 49.81875 149.51042Q49.35 150.07292 49.35 151.3073ZM59.678123 154.41667L59.678123 153.63542Q59.084373 154.5573 57.94375 154.5573Q57.19375 154.5573 56.56875 154.15105Q55.94375 153.72917 55.6 152.9948Q55.25625 152.26042 55.25625 151.3073Q55.25625 150.38542 55.56875 149.6198Q55.88125 148.85417 56.50625 148.46355Q57.13125 148.0573 57.896873 148.0573Q58.459373 148.0573 58.896873 148.29167Q59.334373 148.52605 59.615623 148.90105L59.615623 145.82292L60.6625 145.82292L60.6625 154.41667L59.678123 154.41667ZM56.35 151.3073Q56.35 152.51042 56.85 153.10417Q57.35 153.6823 58.0375 153.6823Q58.725 153.6823 59.209373 153.1198Q59.69375 152.5573 59.69375 151.40105Q59.69375 150.1198 59.19375 149.52605Q58.709373 148.9323 57.990623 148.9323Q57.2875 148.9323 56.81875 149.51042Q56.35 150.07292 56.35 151.3073ZM62.646873 147.04167L62.646873 145.82292L63.709373 145.82292L63.709373 147.04167L62.646873 147.04167ZM62.646873 154.41667L62.646873 148.19792L63.709373 148.19792L63.709373 154.41667L62.646873 154.41667ZM65.64687 154.41667L65.64687 148.19792L66.58437 148.19792L66.58437 149.07292Q67.27187 148.0573 68.56875 148.0573Q69.13125 148.0573 69.6 148.26042Q70.08437 148.46355 70.31875 148.79167Q70.55312 149.1198 70.64687 149.5573Q70.69375 149.85417 70.69375 150.58855L70.69375 154.41667L69.64687 154.41667L69.64687 150.63542Q69.64687 149.97917 69.52187 149.66667Q69.39687 149.35417 69.08437 149.16667Q68.77187 148.96355 68.35 148.96355Q67.67812 148.96355 67.17812 149.40105Q66.69375 149.82292 66.69375 151.01042L66.69375 154.41667L65.64687 154.41667ZM72.44375 154.9323L73.475 155.08855Q73.5375 155.5573 73.83437 155.77605Q74.225 156.07292 74.89687 156.07292Q75.63125 156.07292 76.02187 155.77605Q76.42812 155.47917 76.56875 154.96355Q76.6625 154.63542 76.64687 153.60417Q75.95937 154.41667 74.92812 154.41667Q73.64687 154.41667 72.94375 153.4948Q72.24062 152.5573 72.24062 151.27605Q72.24062 150.38542 72.55312 149.63542Q72.88125 148.8698 73.49062 148.46355Q74.1 148.0573 74.92812 148.0573Q76.0375 148.0573 76.75625 148.94792L76.75625 148.19792L77.725 148.19792L77.725 153.57292Q77.725 155.02605 77.42812 155.63542Q77.13125 156.2448 76.49062 156.58855Q75.85 156.94792 74.9125 156.94792Q73.80312 156.94792 73.11562 156.44792Q72.42812 155.94792 72.44375 154.9323ZM73.31875 151.19792Q73.31875 152.41667 73.80312 152.97917Q74.2875 153.54167 75.02187 153.54167Q75.75625 153.54167 76.24062 152.97917Q76.74062 152.41667 76.74062 151.22917Q76.74062 150.08855 76.225 149.51042Q75.725 148.9323 75.00625 148.9323Q74.30312 148.9323 73.80312 149.51042Q73.31875 150.07292 73.31875 151.19792Z" fill-rule="nonzero"/><path fill="#9e9e9e" d="M21.81875 164.9323L20.771875 165.01042Q20.63125 164.38542 20.38125 164.10417Q19.94375 163.65105 19.31875 163.65105Q18.81875 163.65105 18.428125 163.9323Q17.94375 164.3073 17.646875 165.01042Q17.365625 165.69792 17.35 166.97917Q17.725 166.40105 18.271875 166.1198Q18.834375 165.83855 19.44375 165.83855Q20.490625 165.83855 21.225 166.6198Q21.975 167.40105 21.975 168.6198Q21.975 169.4323 21.615625 170.13542Q21.271875 170.82292 20.6625 171.19792Q20.053125 171.5573 19.2875 171.5573Q17.959375 171.5573 17.13125 170.58855Q16.303125 169.6198 16.303125 167.40105Q16.303125 164.90105 17.225 163.77605Q18.021875 162.79167 19.38125 162.79167Q20.396875 162.79167 21.0375 163.3698Q21.69375 163.9323 21.81875 164.9323ZM17.521875 168.63542Q17.521875 169.1823 17.740625 169.6823Q17.975 170.16667 18.38125 170.4323Q18.803125 170.69792 19.271875 170.69792Q19.928125 170.69792 20.4125 170.16667Q20.896875 169.6198 20.896875 168.69792Q20.896875 167.8073 20.4125 167.29167Q19.94375 166.77605 19.225 166.77605Q18.50625 166.77605 18.00625 167.29167Q17.521875 167.8073 17.521875 168.63542ZM23.94375 171.41667L23.94375 170.21355L25.146875 170.21355L25.146875 171.41667L23.94375 171.41667ZM26.35 169.15105L27.4125 169.01042Q27.584375 169.90105 28.021875 170.3073Q28.459375 170.69792 29.084375 170.69792Q29.834375 170.69792 30.35 170.1823Q30.865625 169.66667 30.865625 168.90105Q30.865625 168.1823 30.38125 167.71355Q29.9125 167.22917 29.178125 167.22917Q28.88125 167.22917 28.428125 167.35417L28.553125 166.41667Q28.6625 166.4323 28.725 166.4323Q29.396875 166.4323 29.928125 166.08855Q30.475 165.72917 30.475 164.9948Q30.475 164.41667 30.084375 164.04167Q29.69375 163.65105 29.06875 163.65105Q28.459375 163.65105 28.0375 164.04167Q27.63125 164.4323 27.521875 165.19792L26.459375 165.01042Q26.646875 163.96355 27.334375 163.38542Q28.021875 162.79167 29.0375 162.79167Q29.740625 162.79167 30.334375 163.10417Q30.928125 163.40105 31.240625 163.91667Q31.553125 164.4323 31.553125 165.02605Q31.553125 165.57292 31.25625 166.04167Q30.959375 166.4948 30.38125 166.76042Q31.13125 166.9323 31.553125 167.4948Q31.975 168.04167 31.975 168.88542Q31.975 170.01042 31.146875 170.79167Q30.334375 171.57292 29.084375 171.57292Q27.959375 171.57292 27.209375 170.90105Q26.459375 170.21355 26.35 169.15105ZM33.553123 164.88542Q33.553123 163.96355 34.00625 163.32292Q34.475 162.6823 35.35 162.6823Q36.1625 162.6823 36.69375 163.26042Q37.225 163.83855 37.225 164.94792Q37.225 166.04167 36.678123 166.63542Q36.146873 167.21355 35.365623 167.21355Q34.584373 167.21355 34.06875 166.63542Q33.553123 166.0573 33.553123 164.88542ZM35.38125 163.40105Q34.990623 163.40105 34.725 163.7448Q34.475 164.08855 34.475 164.9948Q34.475 165.82292 34.725 166.16667Q34.990623 166.4948 35.38125 166.4948Q35.7875 166.4948 36.0375 166.15105Q36.303123 165.8073 36.303123 164.91667Q36.303123 164.07292 36.0375 163.7448Q35.771873 163.40105 35.38125 163.40105ZM35.38125 171.72917L40.084373 162.6823L40.94375 162.6823L36.25625 171.72917L35.38125 171.72917ZM39.1 169.40105Q39.1 168.47917 39.553123 167.83855Q40.021873 167.19792 40.9125 167.19792Q41.725 167.19792 42.25625 167.77605Q42.7875 168.33855 42.7875 169.46355Q42.7875 170.5573 42.240623 171.15105Q41.709373 171.72917 40.9125 171.72917Q40.146873 171.72917 39.615623 171.15105Q39.1 170.57292 39.1 169.40105ZM40.94375 167.91667Q40.5375 167.91667 40.271873 168.26042Q40.021873 168.60417 40.021873 169.51042Q40.021873 170.32292 40.2875 170.66667Q40.553123 171.01042 40.94375 171.01042Q41.334373 171.01042 41.6 170.66667Q41.865623 170.32292 41.865623 169.41667Q41.865623 168.58855 41.6 168.26042Q41.334373 167.91667 40.94375 167.91667Z" fill-rule="nonzero"/><path stroke="#757575" stroke-width="1.0" stroke-linecap="butt" d="M15.85 158.91667L124.63333 158.91667L146.79088 128.26723" fill-rule="nonzero"/><path fill="#9e9e9e" d="M148.79088 128.26723C148.79088 127.16266 147.89545 126.26723 146.79088 126.26723C145.68631 126.26723 144.79088 127.16266 144.79088 128.26723C144.79088 129.3718 145.68631 130.26723 146.79088 130.26723C147.89545 130.26723 148.79088 129.3718 148.79088 128.26723" fill-rule="nonzero"/><path fill="#1a1a1a" d="M16.834375 185.41667L16.834375 176.82292L22.63125 176.82292L22.63125 177.83855L17.975 177.83855L17.975 180.4948L22.00625 180.4948L22.00625 181.51042L17.975 181.51042L17.975 185.41667L16.834375 185.41667ZM27.896875 183.41667L28.990625 183.54167Q28.740625 184.4948 28.0375 185.02605Q27.334375 185.5573 26.25625 185.5573Q24.896875 185.5573 24.084375 184.71355Q23.2875 183.8698 23.2875 182.35417Q23.2875 180.79167 24.1 179.9323Q24.9125 179.0573 26.19375 179.0573Q27.44375 179.0573 28.225 179.90105Q29.021875 180.7448 29.021875 182.29167Q29.021875 182.38542 29.021875 182.57292L24.38125 182.57292Q24.44375 183.60417 24.959375 184.15105Q25.475 184.6823 26.25625 184.6823Q26.834375 184.6823 27.240625 184.38542Q27.6625 184.07292 27.896875 183.41667ZM24.44375 181.71355L27.9125 181.71355Q27.85 180.91667 27.521875 180.52605Q27.00625 179.91667 26.209375 179.91667Q25.475 179.91667 24.975 180.40105Q24.490625 180.88542 24.44375 181.71355ZM34.896873 183.41667L35.990623 183.54167Q35.740623 184.4948 35.0375 185.02605Q34.334373 185.5573 33.25625 185.5573Q31.896875 185.5573 31.084375 184.71355Q30.2875 183.8698 30.2875 182.35417Q30.2875 180.79167 31.1 179.9323Q31.9125 179.0573 33.19375 179.0573Q34.44375 179.0573 35.225 179.90105Q36.021873 180.7448 36.021873 182.29167Q36.021873 182.38542 36.021873 182.57292L31.38125 182.57292Q31.44375 183.60417 31.959375 184.15105Q32.475 184.6823 33.25625 184.6823Q33.834373 184.6823 34.240623 184.38542Q34.6625 184.07292 34.896873 183.41667ZM31.44375 181.71355L34.9125 181.71355Q34.85 180.91667 34.521873 180.52605Q34.00625 179.91667 33.209373 179.91667Q32.475 179.91667 31.975 180.40105Q31.490625 180.88542 31.44375 181.71355ZM41.678123 185.41667L41.678123 184.63542Q41.084373 185.5573 39.94375 185.5573Q39.19375 185.5573 38.56875 185.15105Q37.94375 184.72917 37.6 183.9948Q37.25625 183.26042 37.25625 182.3073Q37.25625 181.38542 37.56875 180.6198Q37.88125 179.85417 38.50625 179.46355Q39.13125 179.0573 39.896873 179.0573Q40.459373 179.0573 40.896873 179.29167Q41.334373 179.52605 41.615623 179.90105L41.615623 176.82292L42.6625 176.82292L42.6625 185.41667L41.678123 185.41667ZM38.35 182.3073Q38.35 183.51042 38.85 184.10417Q39.35 184.6823 40.0375 184.6823Q40.725 184.6823 41.209373 184.1198Q41.69375 183.5573 41.69375 182.40105Q41.69375 181.1198 41.19375 180.52605Q40.709373 179.9323 39.990623 179.9323Q39.2875 179.9323 38.81875 180.51042Q38.35 181.07292 38.35 182.3073ZM44.896873 185.41667L44.896873 180.01042L43.959373 180.01042L43.959373 179.19792L44.896873 179.19792L44.896873 178.52605Q44.896873 177.90105 45.00625 177.60417Q45.1625 177.1823 45.5375 176.9323Q45.928123 176.6823 46.615623 176.6823Q47.06875 176.6823 47.6 176.79167L47.44375 177.69792Q47.115623 177.65105 46.81875 177.65105Q46.334373 177.65105 46.13125 177.85417Q45.94375 178.0573 45.94375 178.6198L45.94375 179.19792L47.1625 179.19792L47.1625 180.01042L45.94375 180.01042L45.94375 185.41667L44.896873 185.41667ZM47.25625 182.3073Q47.25625 180.57292 48.209373 179.7448Q49.00625 179.0573 50.1625 179.0573Q51.44375 179.0573 52.25625 179.90105Q53.084373 180.72917 53.084373 182.21355Q53.084373 183.41667 52.725 184.10417Q52.365623 184.79167 51.6625 185.1823Q50.975 185.5573 50.1625 185.5573Q48.865623 185.5573 48.053123 184.72917Q47.25625 183.88542 47.25625 182.3073ZM48.334373 182.3073Q48.334373 183.4948 48.85 184.08855Q49.38125 184.6823 50.1625 184.6823Q50.959373 184.6823 51.475 184.08855Q51.990623 183.4948 51.990623 182.27605Q51.990623 181.1198 51.459373 180.52605Q50.94375 179.9323 50.1625 179.9323Q49.38125 179.9323 48.85 180.52605Q48.334373 181.10417 48.334373 182.3073ZM54.63125 185.41667L54.63125 179.19792L55.584373 179.19792L55.584373 180.13542Q55.94375 179.47917 56.240623 179.27605Q56.553123 179.0573 56.928123 179.0573Q57.459373 179.0573 58.00625 179.38542L57.646873 180.3698Q57.25625 180.13542 56.88125 180.13542Q56.521873 180.13542 56.240623 180.35417Q55.975 180.5573 55.865623 180.9323Q55.678123 181.4948 55.678123 182.15105L55.678123 185.41667L54.63125 185.41667ZM59.7875 185.41667L57.88125 179.19792L58.975 179.19792L59.959373 182.79167L60.334373 184.1198Q60.365623 184.02605 60.6625 182.83855L61.646873 179.19792L62.725 179.19792L63.6625 182.8073L63.975 183.9948L64.33437 182.79167L65.39687 179.19792L66.42812 179.19792L64.475 185.41667L63.38125 185.41667L62.396873 181.6823L62.146873 180.63542L60.896873 185.41667L59.7875 185.41667ZM71.70937 184.65105Q71.11562 185.15105 70.56875 185.35417Q70.0375 185.5573 69.4125 185.5573Q68.38125 185.5573 67.83437 185.0573Q67.2875 184.5573 67.2875 183.77605Q67.2875 183.32292 67.49062 182.94792Q67.69375 182.5573 68.0375 182.33855Q68.38125 182.10417 68.80312 181.9948Q69.1 181.90105 69.74062 181.82292Q71.00625 181.6823 71.61562 181.46355Q71.61562 181.2448 71.61562 181.19792Q71.61562 180.54167 71.31875 180.27605Q70.9125 179.9323 70.11562 179.9323Q69.38125 179.9323 69.02187 180.19792Q68.6625 180.44792 68.49062 181.10417L67.45937 180.96355Q67.6 180.3073 67.92812 179.90105Q68.25625 179.4948 68.86562 179.27605Q69.475 179.0573 70.27187 179.0573Q71.06875 179.0573 71.56875 179.2448Q72.06875 179.4323 72.30312 179.71355Q72.5375 179.9948 72.63125 180.4323Q72.67812 180.69792 72.67812 181.40105L72.67812 182.8073Q72.67812 184.27605 72.74062 184.66667Q72.81875 185.0573 73.02187 185.41667L71.9125 185.41667Q71.75625 185.08855 71.70937 184.65105ZM71.61562 182.29167Q71.0375 182.52605 69.89687 182.69792Q69.24062 182.79167 68.975 182.91667Q68.70937 183.02605 68.55312 183.2448Q68.4125 183.46355 68.4125 183.7448Q68.4125 184.16667 68.725 184.44792Q69.05312 184.72917 69.6625 184.72917Q70.27187 184.72917 70.74062 184.46355Q71.225 184.19792 71.44375 183.72917Q71.61562 183.3698 71.61562 182.6823L71.61562 182.29167ZM74.63125 185.41667L74.63125 179.19792L75.58437 179.19792L75.58437 180.13542Q75.94375 179.47917 76.24062 179.27605Q76.55312 179.0573 76.92812 179.0573Q77.45937 179.0573 78.00625 179.38542L77.64687 180.3698Q77.25625 180.13542 76.88125 180.13542Q76.52187 180.13542 76.24062 180.35417Q75.975 180.5573 75.86562 180.9323Q75.67812 181.4948 75.67812 182.15105L75.67812 185.41667L74.63125 185.41667ZM82.67812 185.41667L82.67812 184.63542Q82.08437 185.5573 80.94375 185.5573Q80.19375 185.5573 79.56875 185.15105Q78.94375 184.72917 78.6 183.9948Q78.25625 183.26042 78.25625 182.3073Q78.25625 181.38542 78.56875 180.6198Q78.88125 179.85417 79.50625 179.46355Q80.13125 179.0573 80.89687 179.0573Q81.45937 179.0573 81.89687 179.29167Q82.33437 179.52605 82.61562 179.90105L82.61562 176.82292L83.6625 176.82292L83.6625 185.41667L82.67812 185.41667ZM79.35 182.3073Q79.35 183.51042 79.85 184.10417Q80.35 184.6823 81.0375 184.6823Q81.725 184.6823 82.20937 184.1198Q82.69375 183.5573 82.69375 182.40105Q82.69375 181.1198 82.19375 180.52605Q81.70937 179.9323 80.99062 179.9323Q80.2875 179.9323 79.81875 180.51042Q79.35 181.07292 79.35 182.3073Z" fill-rule="nonzero"/><path fill="#9e9e9e" d="M16.35 200.15105L17.4125 200.01042Q17.584375 200.90105 18.021875 201.3073Q18.459375 201.69792 19.084375 201.69792Q19.834375 201.69792 20.35 201.1823Q20.865625 200.66667 20.865625 199.90105Q20.865625 199.1823 20.38125 198.71355Q19.9125 198.22917 19.178125 198.22917Q18.88125 198.22917 18.428125 198.35417L18.553125 197.41667Q18.6625 197.4323 18.725 197.4323Q19.396875 197.4323 19.928125 197.08855Q20.475 196.72917 20.475 195.9948Q20.475 195.41667 20.084375 195.04167Q19.69375 194.65105 19.06875 194.65105Q18.459375 194.65105 18.0375 195.04167Q17.63125 195.4323 17.521875 196.19792L16.459375 196.01042Q16.646875 194.96355 17.334375 194.38542Q18.021875 193.79167 19.0375 193.79167Q19.740625 193.79167 20.334375 194.10417Q20.928125 194.40105 21.240625 194.91667Q21.553125 195.4323 21.553125 196.02605Q21.553125 196.57292 21.25625 197.04167Q20.959375 197.4948 20.38125 197.76042Q21.13125 197.9323 21.553125 198.4948Q21.975 199.04167 21.975 199.88542Q21.975 201.01042 21.146875 201.79167Q20.334375 202.57292 19.084375 202.57292Q17.959375 202.57292 17.209375 201.90105Q16.459375 201.21355 16.35 200.15105ZM23.94375 202.41667L23.94375 201.21355L25.146875 201.21355L25.146875 202.41667L23.94375 202.41667ZM31.81875 195.9323L30.771875 196.01042Q30.63125 195.38542 30.38125 195.10417Q29.94375 194.65105 29.31875 194.65105Q28.81875 194.65105 28.428125 194.9323Q27.94375 195.3073 27.646875 196.01042Q27.365625 196.69792 27.35 197.97917Q27.725 197.40105 28.271875 197.1198Q28.834375 196.83855 29.44375 196.83855Q30.490625 196.83855 31.225 197.6198Q31.975 198.40105 31.975 199.6198Q31.975 200.4323 31.615625 201.13542Q31.271875 201.82292 30.6625 202.19792Q30.053125 202.5573 29.2875 202.5573Q27.959375 202.5573 27.13125 201.58855Q26.303125 200.6198 26.303125 198.40105Q26.303125 195.90105 27.225 194.77605Q28.021875 193.79167 29.38125 193.79167Q30.396875 193.79167 31.0375 194.3698Q31.69375 194.9323 31.81875 195.9323ZM27.521875 199.63542Q27.521875 200.1823 27.740625 200.6823Q27.975 201.16667 28.38125 201.4323Q28.803125 201.69792 29.271875 201.69792Q29.928125 201.69792 30.4125 201.16667Q30.896875 200.6198 30.896875 199.69792Q30.896875 198.8073 30.4125 198.29167Q29.94375 197.77605 29.225 197.77605Q28.50625 197.77605 28.00625 198.29167Q27.521875 198.8073 27.521875 199.63542ZM33.553123 195.88542Q33.553123 194.96355 34.00625 194.32292Q34.475 193.6823 35.35 193.6823Q36.1625 193.6823 36.69375 194.26042Q37.225 194.83855 37.225 195.94792Q37.225 197.04167 36.678123 197.63542Q36.146873 198.21355 35.365623 198.21355Q34.584373 198.21355 34.06875 197.63542Q33.553123 197.0573 33.553123 195.88542ZM35.38125 194.40105Q34.990623 194.40105 34.725 194.7448Q34.475 195.08855 34.475 195.9948Q34.475 196.82292 34.725 197.16667Q34.990623 197.4948 35.38125 197.4948Q35.7875 197.4948 36.0375 197.15105Q36.303123 196.8073 36.303123 195.91667Q36.303123 195.07292 36.0375 194.7448Q35.771873 194.40105 35.38125 194.40105ZM35.38125 202.72917L40.084373 193.6823L40.94375 193.6823L36.25625 202.72917L35.38125 202.72917ZM39.1 200.40105Q39.1 199.47917 39.553123 198.83855Q40.021873 198.19792 40.9125 198.19792Q41.725 198.19792 42.25625 198.77605Q42.7875 199.33855 42.7875 200.46355Q42.7875 201.5573 42.240623 202.15105Q41.709373 202.72917 40.9125 202.72917Q40.146873 202.72917 39.615623 202.15105Q39.1 201.57292 39.1 200.40105ZM40.94375 198.91667Q40.5375 198.91667 40.271873 199.26042Q40.021873 199.60417 40.021873 200.51042Q40.021873 201.32292 40.2875 201.66667Q40.553123 202.01042 40.94375 202.01042Q41.334373 202.01042 41.6 201.66667Q41.865623 201.32292 41.865623 200.41667Q41.865623 199.58855 41.6 199.26042Q41.334373 198.91667 40.94375 198.91667Z" fill-rule="nonzero"/><path stroke="#757575" stroke-width="1.0" stroke-linecap="butt" d="M15.85 189.91667L124.63333 189.91667L137.48553 164.00484" fill-rule="nonzero"/><path fill="#9e9e9e" d="M139.48553 164.00484C139.48553 162.90025 138.5901 162.00484 137.48553 162.00484C136.38097 162.00484 135.48553 162.90025 135.48553 164.00484C135.48553 165.1094 136.38097 166.00484 137.48553 166.00484C138.5901 166.00484 139.48553 165.1094 139.48553 164.00484" fill-rule="nonzero"/><path fill="#1a1a1a" d="M22.9125 236.34941L24.0375 236.64629Q23.678125 238.03691 22.75625 238.77129Q21.834375 239.50566 20.490625 239.50566Q19.1 239.50566 18.225 238.94316Q17.35 238.38066 16.896875 237.31816Q16.44375 236.24004 16.44375 235.00566Q16.44375 233.66191 16.959375 232.66191Q17.475 231.66191 18.4125 231.14629Q19.365625 230.63066 20.50625 230.63066Q21.7875 230.63066 22.6625 231.28691Q23.553125 231.94316 23.896875 233.13066L22.771875 233.39629Q22.475 232.45879 21.896875 232.03691Q21.334375 231.59941 20.475 231.59941Q19.490625 231.59941 18.81875 232.08379Q18.1625 232.55254 17.88125 233.34941Q17.615625 234.14629 17.615625 235.00566Q17.615625 236.09941 17.928125 236.91191Q18.25625 237.72441 18.928125 238.13066Q19.6 238.53691 20.396875 238.53691Q21.35 238.53691 22.00625 237.99004Q22.678125 237.44316 22.9125 236.34941ZM25.25625 236.25566Q25.25625 234.52129 26.209375 233.69316Q27.00625 233.00566 28.1625 233.00566Q29.44375 233.00566 30.25625 233.84941Q31.084375 234.67754 31.084375 236.16191Q31.084375 237.36504 30.725 238.05254Q30.365625 238.74004 29.6625 239.13066Q28.975 239.50566 28.1625 239.50566Q26.865625 239.50566 26.053125 238.67754Q25.25625 237.83379 25.25625 236.25566ZM26.334375 236.25566Q26.334375 237.44316 26.85 238.03691Q27.38125 238.63066 28.1625 238.63066Q28.959375 238.63066 29.475 238.03691Q29.990625 237.44316 29.990625 236.22441Q29.990625 235.06816 29.459375 234.47441Q28.94375 233.88066 28.1625 233.88066Q27.38125 233.88066 26.85 234.47441Q26.334375 235.05254 26.334375 236.25566ZM32.646873 239.36504L32.646873 233.14629L33.584373 233.14629L33.584373 234.02129Q34.271873 233.00566 35.56875 233.00566Q36.13125 233.00566 36.6 233.20879Q37.084373 233.41191 37.31875 233.74004Q37.553123 234.06816 37.646873 234.50566Q37.69375 234.80254 37.69375 235.53691L37.69375 239.36504L36.646873 239.36504L36.646873 235.58379Q36.646873 234.92754 36.521873 234.61504Q36.396873 234.30254 36.084373 234.11504Q35.771873 233.91191 35.35 233.91191Q34.678123 233.91191 34.178123 234.34941Q33.69375 234.77129 33.69375 235.95879L33.69375 239.36504L32.646873 239.36504ZM41.365623 239.36504L39.00625 233.14629L40.115623 233.14629L41.459373 236.86504Q41.6625 237.47441 41.85 238.11504Q41.990623 237.63066 42.240623 236.94316L43.63125 233.14629L44.709373 233.14629L42.35 239.36504L41.365623 239.36504ZM45.25625 236.25566Q45.25625 234.52129 46.209373 233.69316Q47.00625 233.00566 48.1625 233.00566Q49.44375 233.00566 50.25625 233.84941Q51.084373 234.67754 51.084373 236.16191Q51.084373 237.36504 50.725 238.05254Q50.365623 238.74004 49.6625 239.13066Q48.975 239.50566 48.1625 239.50566Q46.865623 239.50566 46.053123 238.67754Q45.25625 237.83379 45.25625 236.25566ZM46.334373 236.25566Q46.334373 237.44316 46.85 238.03691Q47.38125 238.63066 48.1625 238.63066Q48.959373 238.63066 49.475 238.03691Q49.990623 237.44316 49.990623 236.22441Q49.990623 235.06816 49.459373 234.47441Q48.94375 233.88066 48.1625 233.88066Q47.38125 233.88066 46.85 234.47441Q46.334373 235.05254 46.334373 236.25566ZM52.615623 239.36504L52.615623 230.77129L53.678123 230.77129L53.678123 239.36504L52.615623 239.36504ZM59.725 239.36504L59.725 238.44316Q58.990623 239.50566 57.740623 239.50566Q57.19375 239.50566 56.709373 239.30254Q56.240623 239.08379 56.00625 238.77129Q55.771873 238.44316 55.678123 237.97441Q55.615623 237.67754 55.615623 236.99004L55.615623 233.14629L56.678123 233.14629L56.678123 236.59941Q56.678123 237.41191 56.740623 237.70879Q56.834373 238.11504 57.146873 238.36504Q57.475 238.59941 57.959373 238.59941Q58.428123 238.59941 58.834373 238.36504Q59.25625 238.11504 59.428123 237.69316Q59.615623 237.27129 59.615623 236.47441L59.615623 233.14629L60.6625 233.14629L60.6625 239.36504L59.725 239.36504ZM64.94375 238.42754L65.1 239.34941Q64.64687 239.44316 64.30312 239.44316Q63.725 239.44316 63.4125 239.27129Q63.1 239.08379 62.959373 238.78691Q62.834373 238.49004 62.834373 237.53691L62.834373 233.95879L62.06875 233.95879L62.06875 233.14629L62.834373 233.14629L62.834373 231.59941L63.88125 230.97441L63.88125 233.14629L64.94375 233.14629L64.94375 233.95879L63.88125 233.95879L63.88125 237.59941Q63.88125 238.05254 63.928123 238.17754Q63.990623 238.30254 64.11562 238.38066Q64.24062 238.45879 64.475 238.45879Q64.6625 238.45879 64.94375 238.42754ZM65.64687 231.99004L65.64687 230.77129L66.70937 230.77129L66.70937 231.99004L65.64687 231.99004ZM65.64687 239.36504L65.64687 233.14629L66.70937 233.14629L66.70937 239.36504L65.64687 239.36504ZM68.25625 236.25566Q68.25625 234.52129 69.20937 233.69316Q70.00625 233.00566 71.1625 233.00566Q72.44375 233.00566 73.25625 233.84941Q74.08437 234.67754 74.08437 236.16191Q74.08437 237.36504 73.725 238.05254Q73.36562 238.74004 72.6625 239.13066Q71.975 239.50566 71.1625 239.50566Q69.86562 239.50566 69.05312 238.67754Q68.25625 237.83379 68.25625 236.25566ZM69.33437 236.25566Q69.33437 237.44316 69.85 238.03691Q70.38125 238.63066 71.1625 238.63066Q71.95937 238.63066 72.475 238.03691Q72.99062 237.44316 72.99062 236.22441Q72.99062 235.06816 72.45937 234.47441Q71.94375 233.88066 71.1625 233.88066Q70.38125 233.88066 69.85 234.47441Q69.33437 235.05254 69.33437 236.25566ZM75.64687 239.36504L75.64687 233.14629L76.58437 233.14629L76.58437 234.02129Q77.27187 233.00566 78.56875 233.00566Q79.13125 233.00566 79.6 233.20879Q80.08437 233.41191 80.31875 233.74004Q80.55312 234.06816 80.64687 234.50566Q80.69375 234.80254 80.69375 235.53691L80.69375 239.36504L79.64687 239.36504L79.64687 235.58379Q79.64687 234.92754 79.52187 234.61504Q79.39687 234.30254 79.08437 234.11504Q78.77187 233.91191 78.35 233.91191Q77.67812 233.91191 77.17812 234.34941Q76.69375 234.77129 76.69375 235.95879L76.69375 239.36504L75.64687 239.36504ZM86.70937 238.59941Q86.11562 239.09941 85.56875 239.30254Q85.0375 239.50566 84.4125 239.50566Q83.38125 239.50566 82.83437 239.00566Q82.2875 238.50566 82.2875 237.72441Q82.2875 237.27129 82.49062 236.89629Q82.69375 236.50566 83.0375 236.28691Q83.38125 236.05254 83.80312 235.94316Q84.1 235.84941 84.74062 235.77129Q86.00625 235.63066 86.61562 235.41191Q86.61562 235.19316 86.61562 235.14629Q86.61562 234.49004 86.31875 234.22441Q85.9125 233.88066 85.11562 233.88066Q84.38125 233.88066 84.02187 234.14629Q83.6625 234.39629 83.49062 235.05254L82.45937 234.91191Q82.6 234.25566 82.92812 233.84941Q83.25625 233.44316 83.86562 233.22441Q84.475 233.00566 85.27187 233.00566Q86.06875 233.00566 86.56875 233.19316Q87.06875 233.38066 87.30312 233.66191Q87.5375 233.94316 87.63125 234.38066Q87.67812 234.64629 87.67812 235.34941L87.67812 236.75566Q87.67812 238.22441 87.74062 238.61504Q87.81875 239.00566 88.02187 239.36504L86.9125 239.36504Q86.75625 239.03691 86.70937 238.59941ZM86.61562 236.24004Q86.0375 236.47441 84.89687 236.64629Q84.24062 236.74004 83.975 236.86504Q83.70937 236.97441 83.55312 237.19316Q83.4125 237.41191 83.4125 237.69316Q83.4125 238.11504 83.725 238.39629Q84.05312 238.67754 84.6625 238.67754Q85.27187 238.67754 85.74062 238.41191Q86.225 238.14629 86.44375 237.67754Q86.61562 237.31816 86.61562 236.63066L86.61562 236.24004ZM89.61562 239.36504L89.61562 230.77129L90.67812 230.77129L90.67812 239.36504L89.61562 239.36504Z" fill-rule="nonzero"/><path fill="#9e9e9e" d="M20.31875 256.36505L19.271875 256.36505L19.271875 249.6463Q18.88125 250.00568 18.25625 250.38068Q17.646875 250.74005 17.1625 250.91193L17.1625 249.8963Q18.0375 249.47443 18.69375 248.8963Q19.365625 248.30255 19.646875 247.74005L20.31875 247.74005L20.31875 256.36505ZM24.975 251.7088Q24.31875 251.4588 23.990625 251.0213Q23.678125 250.56818 23.678125 249.9588Q23.678125 249.0213 24.35 248.38068Q25.0375 247.74005 26.146875 247.74005Q27.271875 247.74005 27.959375 248.3963Q28.646875 249.05255 28.646875 249.99005Q28.646875 250.5838 28.334375 251.0213Q28.021875 251.4588 27.38125 251.7088Q28.178125 251.9588 28.584375 252.53693Q28.990625 253.11505 28.990625 253.91193Q28.990625 255.00568 28.209375 255.75568Q27.44375 256.50568 26.1625 256.50568Q24.896875 256.50568 24.115625 255.75568Q23.334375 255.00568 23.334375 253.88068Q23.334375 253.03693 23.75625 252.47443Q24.19375 251.91193 24.975 251.7088ZM24.75625 249.91193Q24.75625 250.5213 25.146875 250.91193Q25.553125 251.30255 26.178125 251.30255Q26.7875 251.30255 27.178125 250.92755Q27.56875 250.53693 27.56875 249.97443Q27.56875 249.3963 27.1625 249.00568Q26.75625 248.59943 26.1625 248.59943Q25.553125 248.59943 25.146875 248.99005Q24.75625 249.38068 24.75625 249.91193ZM24.428125 253.88068Q24.428125 254.3338 24.63125 254.75568Q24.85 255.17755 25.271875 255.41193Q25.69375 255.6463 26.178125 255.6463Q26.928125 255.6463 27.4125 255.16193Q27.9125 254.67755 27.9125 253.92755Q27.9125 253.16193 27.4125 252.66193Q26.9125 252.16193 26.146875 252.16193Q25.396875 252.16193 24.9125 252.66193Q24.428125 253.1463 24.428125 253.88068ZM30.94375 256.36505L30.94375 255.16193L32.146873 255.16193L32.146873 256.36505L30.94375 256.36505ZM33.50625 254.38068L34.521873 254.28693Q34.646873 255.00568 35.00625 255.3338Q35.38125 255.6463 35.94375 255.6463Q36.428123 255.6463 36.7875 255.42755Q37.1625 255.19318 37.396873 254.8338Q37.63125 254.4588 37.7875 253.8338Q37.94375 253.19318 37.94375 252.53693Q37.94375 252.4588 37.94375 252.31818Q37.63125 252.81818 37.084373 253.1463Q36.5375 253.4588 35.896873 253.4588Q34.81875 253.4588 34.084373 252.69318Q33.35 251.91193 33.35 250.6463Q33.35 249.3338 34.115623 248.53693Q34.896873 247.74005 36.053123 247.74005Q36.88125 247.74005 37.56875 248.19318Q38.271873 248.6463 38.63125 249.49005Q38.990623 250.31818 38.990623 251.8963Q38.990623 253.53693 38.63125 254.5213Q38.2875 255.49005 37.56875 256.00568Q36.865623 256.50568 35.928123 256.50568Q34.9125 256.50568 34.271873 255.9588Q33.63125 255.3963 33.50625 254.38068ZM37.81875 250.5838Q37.81875 249.67755 37.334373 249.1463Q36.865623 248.61505 36.178123 248.61505Q35.475 248.61505 34.94375 249.19318Q34.428123 249.75568 34.428123 250.67755Q34.428123 251.49005 34.928123 252.00568Q35.428123 252.5213 36.146873 252.5213Q36.88125 252.5213 37.35 252.00568Q37.81875 251.49005 37.81875 250.5838ZM40.553123 249.8338Q40.553123 248.91193 41.00625 248.2713Q41.475 247.63068 42.35 247.63068Q43.1625 247.63068 43.69375 248.2088Q44.225 248.78693 44.225 249.8963Q44.225 250.99005 43.678123 251.5838Q43.146873 252.16193 42.365623 252.16193Q41.584373 252.16193 41.06875 251.5838Q40.553123 251.00568 40.553123 249.8338ZM42.38125 248.34943Q41.990623 248.34943 41.725 248.69318Q41.475 249.03693 41.475 249.94318Q41.475 250.7713 41.725 251.11505Q41.990623 251.44318 42.38125 251.44318Q42.7875 251.44318 43.0375 251.09943Q43.303123 250.75568 43.303123 249.86505Q43.303123 249.0213 43.0375 248.69318Q42.771873 248.34943 42.38125 248.34943ZM42.38125 256.67755L47.084373 247.63068L47.94375 247.63068L43.25625 256.67755L42.38125 256.67755ZM46.1 254.34943Q46.1 253.42755 46.553123 252.78693Q47.021873 252.1463 47.9125 252.1463Q48.725 252.1463 49.25625 252.72443Q49.7875 253.28693 49.7875 254.41193Q49.7875 255.50568 49.240623 256.09943Q48.709373 256.67755 47.9125 256.67755Q47.146873 256.67755 46.615623 256.09943Q46.1 255.5213 46.1 254.34943ZM47.94375 252.86505Q47.5375 252.86505 47.271873 253.2088Q47.021873 253.55255 47.021873 254.4588Q47.021873 255.2713 47.2875 255.61505Q47.553123 255.9588 47.94375 255.9588Q48.334373 255.9588 48.6 255.61505Q48.865623 255.2713 48.865623 254.36505Q48.865623 253.53693 48.6 253.2088Q48.334373 252.86505 47.94375 252.86505Z" fill-rule="nonzero"/><path stroke="#757575" stroke-width="1.0" stroke-linecap="butt" d="M15.85 243.86504L124.63333 243.86504L158.27951 243.86504" fill-rule="nonzero"/><path fill="#9e9e9e" d="M160.27951 243.86504C160.27951 242.76047 159.38408 241.86504 158.27951 241.86504C157.17494 241.86504 156.27951 242.76047 156.27951 243.86504C156.27951 244.9696 157.17494 245.86504 158.27951 245.86504C159.38408 245.86504 160.27951 244.9696 160.27951 243.86504" fill-rule="nonzero"/><path fill="#1a1a1a" d="M440.69687 190.3045L441.75937 190.21075Q441.8375 190.867 442.11874 191.27325Q442.4 191.6795 442.97812 191.94513Q443.57187 192.19513 444.30624 192.19513Q444.94687 192.19513 445.44687 192.00763Q445.94687 191.8045 446.18124 191.47638Q446.43124 191.13263 446.43124 190.742Q446.43124 190.33575 446.19687 190.03888Q445.9625 189.72638 445.43124 189.52325Q445.07187 189.38263 443.88437 189.10138Q442.7125 188.82013 442.24374 188.57013Q441.61874 188.242 441.32187 187.77325Q441.025 187.28888 441.025 186.69513Q441.025 186.0545 441.38437 185.492Q441.75937 184.91388 442.4625 184.63263Q443.18124 184.33575 444.04062 184.33575Q444.99374 184.33575 445.72812 184.64825Q446.4625 184.94513 446.85312 185.5545Q447.24374 186.14825 447.275 186.89825L446.18124 186.97638Q446.0875 186.16388 445.57187 185.75763Q445.07187 185.33575 444.0875 185.33575Q443.05624 185.33575 442.5875 185.71075Q442.11874 186.08575 442.11874 186.617Q442.11874 187.08575 442.44687 187.38263Q442.775 187.6795 444.15 187.992Q445.54062 188.3045 446.05624 188.53888Q446.80624 188.89825 447.16562 189.4295Q447.525 189.94513 447.525 190.64825Q447.525 191.33575 447.13437 191.94513Q446.74374 192.53888 446.00937 192.88263Q445.275 193.21075 444.35312 193.21075Q443.18124 193.21075 442.38437 192.88263Q441.60312 192.53888 441.15 191.85138Q440.7125 191.16388 440.69687 190.3045ZM453.19687 191.07013L454.29062 191.19513Q454.04062 192.14825 453.3375 192.6795Q452.63437 193.21075 451.55624 193.21075Q450.19687 193.21075 449.38437 192.367Q448.5875 191.52325 448.5875 190.00763Q448.5875 188.44513 449.4 187.58575Q450.2125 186.71075 451.49374 186.71075Q452.74374 186.71075 453.525 187.5545Q454.32187 188.39825 454.32187 189.94513Q454.32187 190.03888 454.32187 190.22638L449.68124 190.22638Q449.74374 191.25763 450.25937 191.8045Q450.775 192.33575 451.55624 192.33575Q452.13437 192.33575 452.54062 192.03888Q452.9625 191.72638 453.19687 191.07013ZM449.74374 189.367L453.2125 189.367Q453.15 188.57013 452.82187 188.1795Q452.30624 187.57013 451.50937 187.57013Q450.775 187.57013 450.275 188.0545Q449.79062 188.53888 449.74374 189.367ZM459.91562 195.46075L459.91562 192.41388Q459.66562 192.75763 459.2125 192.992Q458.775 193.21075 458.275 193.21075Q457.16562 193.21075 456.36874 192.33575Q455.57187 191.44513 455.57187 189.89825Q455.57187 188.96075 455.9 188.22638Q456.22812 187.47638 456.8375 187.10138Q457.4625 186.71075 458.19687 186.71075Q459.35312 186.71075 460.00937 187.6795L460.00937 186.85138L460.9625 186.85138L460.9625 195.46075L459.91562 195.46075ZM456.65 189.94513Q456.65 191.14825 457.15 191.742Q457.66562 192.33575 458.36874 192.33575Q459.04062 192.33575 459.525 191.77325Q460.00937 191.19513 460.00937 190.03888Q460.00937 188.78888 459.49374 188.16388Q458.99374 187.53888 458.29062 187.53888Q457.61874 187.53888 457.13437 188.13263Q456.65 188.71075 456.65 189.94513ZM467.025 193.07013L467.025 192.14825Q466.29062 193.21075 465.04062 193.21075Q464.49374 193.21075 464.00937 193.00763Q463.54062 192.78888 463.30624 192.47638Q463.07187 192.14825 462.97812 191.6795Q462.91562 191.38263 462.91562 190.69513L462.91562 186.85138L463.97812 186.85138L463.97812 190.3045Q463.97812 191.117 464.04062 191.41388Q464.13437 191.82013 464.44687 192.07013Q464.775 192.3045 465.25937 192.3045Q465.72812 192.3045 466.13437 192.07013Q466.55624 191.82013 466.72812 191.39825Q466.91562 190.97638 466.91562 190.1795L466.91562 186.85138L467.9625 186.85138L467.9625 193.07013L467.025 193.07013ZM474.19687 191.07013L475.29062 191.19513Q475.04062 192.14825 474.3375 192.6795Q473.63437 193.21075 472.55624 193.21075Q471.19687 193.21075 470.38437 192.367Q469.5875 191.52325 469.5875 190.00763Q469.5875 188.44513 470.4 187.58575Q471.2125 186.71075 472.49374 186.71075Q473.74374 186.71075 474.525 187.5545Q475.32187 188.39825 475.32187 189.94513Q475.32187 190.03888 475.32187 190.22638L470.68124 190.22638Q470.74374 191.25763 471.25937 191.8045Q471.775 192.33575 472.55624 192.33575Q473.13437 192.33575 473.54062 192.03888Q473.9625 191.72638 474.19687 191.07013ZM470.74374 189.367L474.2125 189.367Q474.15 188.57013 473.82187 188.1795Q473.30624 187.57013 472.50937 187.57013Q471.775 187.57013 471.275 188.0545Q470.79062 188.53888 470.74374 189.367ZM476.94687 193.07013L476.94687 186.85138L477.88437 186.85138L477.88437 187.72638Q478.57187 186.71075 479.86874 186.71075Q480.43124 186.71075 480.9 186.91388Q481.38437 187.117 481.61874 187.44513Q481.85312 187.77325 481.94687 188.21075Q481.99374 188.50763 481.99374 189.242L481.99374 193.07013L480.94687 193.07013L480.94687 189.28888Q480.94687 188.63263 480.82187 188.32013Q480.69687 188.00763 480.38437 187.82013Q480.07187 187.617 479.65 187.617Q478.97812 187.617 478.47812 188.0545Q477.99374 188.47638 477.99374 189.66388L477.99374 193.07013L476.94687 193.07013ZM488.00937 190.78888L489.04062 190.9295Q488.86874 191.992 488.16562 192.60138Q487.4625 193.21075 486.44687 193.21075Q485.16562 193.21075 484.38437 192.38263Q483.61874 191.53888 483.61874 189.97638Q483.61874 188.97638 483.94687 188.22638Q484.29062 187.46075 484.9625 187.08575Q485.65 186.71075 486.4625 186.71075Q487.4625 186.71075 488.10312 187.22638Q488.75937 187.72638 488.94687 188.6795L487.91562 188.83575Q487.775 188.21075 487.4 187.89825Q487.025 187.57013 486.49374 187.57013Q485.69687 187.57013 485.19687 188.14825Q484.69687 188.71075 484.69687 189.94513Q484.69687 191.21075 485.18124 191.77325Q485.66562 192.33575 486.43124 192.33575Q487.05624 192.33575 487.4625 191.96075Q487.88437 191.58575 488.00937 190.78888ZM494.19687 191.07013L495.29062 191.19513Q495.04062 192.14825 494.3375 192.6795Q493.63437 193.21075 492.55624 193.21075Q491.19687 193.21075 490.38437 192.367Q489.5875 191.52325 489.5875 190.00763Q489.5875 188.44513 490.4 187.58575Q491.2125 186.71075 492.49374 186.71075Q493.74374 186.71075 494.525 187.5545Q495.32187 188.39825 495.32187 189.94513Q495.32187 190.03888 495.32187 190.22638L490.68124 190.22638Q490.74374 191.25763 491.25937 191.8045Q491.775 192.33575 492.55624 192.33575Q493.13437 192.33575 493.54062 192.03888Q493.9625 191.72638 494.19687 191.07013ZM490.74374 189.367L494.2125 189.367Q494.15 188.57013 493.82187 188.1795Q493.30624 187.57013 492.50937 187.57013Q491.775 187.57013 491.275 188.0545Q490.79062 188.53888 490.74374 189.367Z" fill-rule="nonzero"/><path fill="#9e9e9e" d="M461.65 207.82013L462.75937 207.72638Q462.88437 208.53888 463.32187 208.94513Q463.775 209.35138 464.41562 209.35138Q465.16562 209.35138 465.69687 208.77325Q466.22812 208.19513 466.22812 207.25763Q466.22812 206.35138 465.7125 205.83575Q465.2125 205.3045 464.38437 205.3045Q463.88437 205.3045 463.4625 205.53888Q463.05624 205.77325 462.82187 206.13263L461.8375 206.00763L462.66562 201.60138L466.94687 201.60138L466.94687 202.60138L463.50937 202.60138L463.05624 204.91388Q463.82187 204.367 464.66562 204.367Q465.79062 204.367 466.55624 205.14825Q467.3375 205.9295 467.3375 207.16388Q467.3375 208.32013 466.66562 209.1795Q465.8375 210.21075 464.41562 210.21075Q463.24374 210.21075 462.49374 209.5545Q461.75937 208.89825 461.65 207.82013ZM468.65 207.82013L469.75937 207.72638Q469.88437 208.53888 470.32187 208.94513Q470.775 209.35138 471.41562 209.35138Q472.16562 209.35138 472.69687 208.77325Q473.22812 208.19513 473.22812 207.25763Q473.22812 206.35138 472.7125 205.83575Q472.2125 205.3045 471.38437 205.3045Q470.88437 205.3045 470.4625 205.53888Q470.05624 205.77325 469.82187 206.13263L468.8375 206.00763L469.66562 201.60138L473.94687 201.60138L473.94687 202.60138L470.50937 202.60138L470.05624 204.91388Q470.82187 204.367 471.66562 204.367Q472.79062 204.367 473.55624 205.14825Q474.3375 205.9295 474.3375 207.16388Q474.3375 208.32013 473.66562 209.1795Q472.8375 210.21075 471.41562 210.21075Q470.24374 210.21075 469.49374 209.5545Q468.75937 208.89825 468.65 207.82013ZM476.24374 210.07013L476.24374 208.867L477.44687 208.867L477.44687 210.07013L476.24374 210.07013ZM478.80624 208.08575L479.82187 207.992Q479.94687 208.71075 480.30624 209.03888Q480.68124 209.35138 481.24374 209.35138Q481.72812 209.35138 482.0875 209.13263Q482.4625 208.89825 482.69687 208.53888Q482.93124 208.16388 483.0875 207.53888Q483.24374 206.89825 483.24374 206.242Q483.24374 206.16388 483.24374 206.02325Q482.93124 206.52325 482.38437 206.85138Q481.8375 207.16388 481.19687 207.16388Q480.11874 207.16388 479.38437 206.39825Q478.65 205.617 478.65 204.35138Q478.65 203.03888 479.41562 202.242Q480.19687 201.44513 481.35312 201.44513Q482.18124 201.44513 482.86874 201.89825Q483.57187 202.35138 483.93124 203.19513Q484.29062 204.02325 484.29062 205.60138Q484.29062 207.242 483.93124 208.22638Q483.5875 209.19513 482.86874 209.71075Q482.16562 210.21075 481.22812 210.21075Q480.2125 210.21075 479.57187 209.66388Q478.93124 209.10138 478.80624 208.08575ZM483.11874 204.28888Q483.11874 203.38263 482.63437 202.85138Q482.16562 202.32013 481.47812 202.32013Q480.775 202.32013 480.24374 202.89825Q479.72812 203.46075 479.72812 204.38263Q479.72812 205.19513 480.22812 205.71075Q480.72812 206.22638 481.44687 206.22638Q482.18124 206.22638 482.65 205.71075Q483.11874 205.19513 483.11874 204.28888ZM485.85312 203.53888Q485.85312 202.617 486.30624 201.97638Q486.775 201.33575 487.65 201.33575Q488.4625 201.33575 488.99374 201.91388Q489.525 202.492 489.525 203.60138Q489.525 204.69513 488.97812 205.28888Q488.44687 205.867 487.66562 205.867Q486.88437 205.867 486.36874 205.28888Q485.85312 204.71075 485.85312 203.53888ZM487.68124 202.0545Q487.29062 202.0545 487.025 202.39825Q486.775 202.742 486.775 203.64825Q486.775 204.47638 487.025 204.82013Q487.29062 205.14825 487.68124 205.14825Q488.0875 205.14825 488.3375 204.8045Q488.60312 204.46075 488.60312 203.57013Q488.60312 202.72638 488.3375 202.39825Q488.07187 202.0545 487.68124 202.0545ZM487.68124 210.38263L492.38437 201.33575L493.24374 201.33575L488.55624 210.38263L487.68124 210.38263ZM491.4 208.0545Q491.4 207.13263 491.85312 206.492Q492.32187 205.85138 493.2125 205.85138Q494.025 205.85138 494.55624 206.4295Q495.0875 206.992 495.0875 208.117Q495.0875 209.21075 494.54062 209.8045Q494.00937 210.38263 493.2125 210.38263Q492.44687 210.38263 491.91562 209.8045Q491.4 209.22638 491.4 208.0545ZM493.24374 206.57013Q492.8375 206.57013 492.57187 206.91388Q492.32187 207.25763 492.32187 208.16388Q492.32187 208.97638 492.5875 209.32013Q492.85312 209.66388 493.24374 209.66388Q493.63437 209.66388 493.9 209.32013Q494.16562 208.97638 494.16562 208.07013Q494.16562 207.242 493.9 206.91388Q493.63437 206.57013 493.24374 206.57013Z" fill-rule="nonzero"/><path stroke="#757575" stroke-width="1.0" stroke-linecap="butt" d="M496.15 197.57013L387.36667 197.57013L373.08862 197.57013" fill-rule="nonzero"/><path fill="#9e9e9e" d="M375.08862 197.57013C375.08862 196.46556 374.1932 195.57013 373.08862 195.57013C371.98407 195.57013 371.08862 196.46556 371.08862 197.57013C371.08862 198.6747 371.98407 199.57013 373.08862 199.57013C374.1932 199.57013 375.08862 198.6747 375.08862 197.57013" fill-rule="nonzero"/><path fill="#757575" d="M21.0375 34.85L21.0375 22.224998L16.31875 22.224998L16.31875 20.537498L27.6625 20.537498L27.6625 22.224998L22.928125 22.224998L22.928125 34.85L21.0375 34.85ZM29.084375 38.85L28.896875 37.19375Q29.475 37.35 29.896875 37.35Q30.490625 37.35 30.834375 37.146873Q31.19375 36.959373 31.4125 36.615623Q31.584375 36.35 31.959375 35.303123Q32.00625 35.146873 32.115623 34.865623L28.178125 24.474998L30.06875 24.474998L32.225 30.490623Q32.646873 31.631248 32.975 32.88125Q33.2875 31.678123 33.69375 30.521873L35.9125 24.474998L37.678123 24.474998L33.725 35.021873Q33.1 36.740623 32.740623 37.38125Q32.271873 38.25625 31.6625 38.646873Q31.06875 39.053123 30.225 39.053123Q29.709375 39.053123 29.084375 38.85ZM39.1625 38.81875L39.1625 24.474998L40.771873 24.474998L40.771873 25.818748Q41.334373 25.037498 42.0375 24.646873Q42.75625 24.240623 43.771873 24.240623Q45.1 24.240623 46.115623 24.928123Q47.13125 25.615623 47.646873 26.865623Q48.178123 28.099998 48.178123 29.584373Q48.178123 31.178123 47.6 32.459373Q47.0375 33.725 45.94375 34.4125Q44.85 35.084373 43.646873 35.084373Q42.771873 35.084373 42.06875 34.709373Q41.38125 34.334373 40.928123 33.771873L40.928123 38.81875L39.1625 38.81875ZM40.75625 29.724998Q40.75625 31.724998 41.56875 32.678123Q42.38125 33.63125 43.5375 33.63125Q44.709373 33.63125 45.5375 32.646873Q46.38125 31.662498 46.38125 29.568748Q46.38125 27.599998 45.553123 26.615623Q44.740623 25.615623 43.615623 25.615623Q42.490623 25.615623 41.615623 26.678123Q40.75625 27.724998 40.75625 29.724998ZM57.271873 31.506248L59.084373 31.740623Q58.6625 33.31875 57.490623 34.209373Q56.334373 35.084373 54.521873 35.084373Q52.25625 35.084373 50.9125 33.69375Q49.584373 32.2875 49.584373 29.756248Q49.584373 27.131248 50.928123 25.693748Q52.271873 24.240623 54.428123 24.240623Q56.50625 24.240623 57.81875 25.662498Q59.146873 27.068748 59.146873 29.646873Q59.146873 29.803123 59.13125 30.115623L51.396873 30.115623Q51.490623 31.818748 52.365623 32.725Q53.240623 33.63125 54.5375 33.63125Q55.50625 33.63125 56.178123 33.13125Q56.865623 32.615623 57.271873 31.506248ZM51.490623 28.662498L57.2875 28.662498Q57.178123 27.365623 56.63125 26.709373Q55.7875 25.693748 54.44375 25.693748Q53.240623 25.693748 52.4125 26.506248Q51.584373 27.303123 51.490623 28.662498ZM66.52187 29.662498Q66.52187 26.787498 68.11562 25.396873Q69.45937 24.240623 71.38125 24.240623Q73.52187 24.240623 74.86562 25.646873Q76.225 27.053123 76.225 29.521873Q76.225 31.521873 75.63125 32.678123Q75.0375 33.81875 73.88125 34.459373Q72.74062 35.084373 71.38125 35.084373Q69.19375 35.084373 67.85 33.69375Q66.52187 32.2875 66.52187 29.662498ZM68.31875 29.662498Q68.31875 31.662498 69.17812 32.646873Q70.05312 33.63125 71.38125 33.63125Q72.69375 33.63125 73.55312 32.646873Q74.42812 31.646873 74.42812 29.599998Q74.42812 27.678123 73.55312 26.693748Q72.67812 25.693748 71.38125 25.693748Q70.05312 25.693748 69.17812 26.693748Q68.31875 27.678123 68.31875 29.662498ZM78.58437 34.85L78.58437 25.849998L77.0375 25.849998L77.0375 24.474998L78.58437 24.474998L78.58437 23.381248Q78.58437 22.334373 78.77187 21.818748Q79.02187 21.131248 79.6625 20.709373Q80.30312 20.287498 81.45937 20.287498Q82.20937 20.287498 83.1 20.459373L82.83437 21.990623Q82.2875 21.896873 81.80312 21.896873Q81.00625 21.896873 80.6625 22.240623Q80.33437 22.584373 80.33437 23.521873L80.33437 24.474998L82.36562 24.474998L82.36562 25.849998L80.33437 25.849998L80.33437 34.85L78.58437 34.85ZM96.89687 34.85L96.89687 33.5375Q95.9125 35.084373 93.99062 35.084373Q92.75625 35.084373 91.70937 34.396873Q90.67812 33.709373 90.1 32.490623Q89.5375 31.271873 89.5375 29.678123Q89.5375 28.115623 90.05312 26.849998Q90.56875 25.584373 91.6 24.912498Q92.64687 24.240623 93.9125 24.240623Q94.85 24.240623 95.58437 24.646873Q96.31875 25.037498 96.7875 25.662498L96.7875 20.537498L98.52187 20.537498L98.52187 34.85L96.89687 34.85ZM91.33437 29.678123Q91.33437 31.662498 92.17812 32.646873Q93.02187 33.63125 94.1625 33.63125Q95.31875 33.63125 96.11562 32.69375Q96.92812 31.756248 96.92812 29.818748Q96.92812 27.693748 96.1 26.693748Q95.2875 25.693748 94.08437 25.693748Q92.9125 25.693748 92.11562 26.662498Q91.33437 27.615623 91.33437 29.678123ZM108.27187 31.506248L110.08437 31.740623Q109.6625 33.31875 108.49062 34.209373Q107.33437 35.084373 105.52187 35.084373Q103.25625 35.084373 101.9125 33.69375Q100.58437 32.2875 100.58437 29.756248Q100.58437 27.131248 101.92812 25.693748Q103.27187 24.240623 105.42812 24.240623Q107.50625 24.240623 108.81875 25.662498Q110.14687 27.068748 110.14687 29.646873Q110.14687 29.803123 110.13125 30.115623L102.39687 30.115623Q102.49062 31.818748 103.36562 32.725Q104.24062 33.63125 105.5375 33.63125Q106.50625 33.63125 107.17812 33.13125Q107.86562 32.615623 108.27187 31.506248ZM102.49062 28.662498L108.2875 28.662498Q108.17812 27.365623 107.63125 26.709373Q106.7875 25.693748 105.44375 25.693748Q104.24062 25.693748 103.4125 26.506248Q102.58437 27.303123 102.49062 28.662498ZM119.27187 31.506248L121.08437 31.740623Q120.6625 33.31875 119.49062 34.209373Q118.33437 35.084373 116.52187 35.084373Q114.25625 35.084373 112.9125 33.69375Q111.58437 32.2875 111.58437 29.756248Q111.58437 27.131248 112.92812 25.693748Q114.27187 24.240623 116.42812 24.240623Q118.50625 24.240623 119.81875 25.662498Q121.14687 27.068748 121.14687 29.646873Q121.14687 29.803123 121.13125 30.115623L113.39687 30.115623Q113.49062 31.818748 114.36562 32.725Q115.24062 33.63125 116.5375 33.63125Q117.50625 33.63125 118.17812 33.13125Q118.86562 32.615623 119.27187 31.506248ZM113.49062 28.662498L119.2875 28.662498Q119.17812 27.365623 118.63125 26.709373Q117.7875 25.693748 116.44375 25.693748Q115.24062 25.693748 114.4125 26.506248Q113.58437 27.303123 113.49062 28.662498ZM123.1625 38.81875L123.1625 24.474998L124.77187 24.474998L124.77187 25.818748Q125.33437 25.037498 126.0375 24.646873Q126.75625 24.240623 127.77187 24.240623Q129.1 24.240623 130.11563 24.928123Q131.13126 25.615623 131.64688 26.865623Q132.17813 28.099998 132.17813 29.584373Q132.17813 31.178123 131.6 32.459373Q131.0375 33.725 129.94376 34.4125Q128.85 35.084373 127.64687 35.084373Q126.77187 35.084373 126.06875 34.709373Q125.38125 34.334373 124.92812 33.771873L124.92812 38.81875L123.1625 38.81875ZM124.75625 29.724998Q124.75625 31.724998 125.56875 32.678123Q126.38125 33.63125 127.5375 33.63125Q128.70938 33.63125 129.5375 32.646873Q130.38126 31.662498 130.38126 29.568748Q130.38126 27.599998 129.55313 26.615623Q128.74063 25.615623 127.61562 25.615623Q126.49062 25.615623 125.61562 26.678123Q124.75625 27.724998 124.75625 29.724998ZM140.13126 34.85L140.13126 20.537498L141.88126 20.537498L141.88126 34.85L140.13126 34.85ZM151.27188 31.506248L153.08438 31.740623Q152.6625 33.31875 151.49063 34.209373Q150.33438 35.084373 148.52188 35.084373Q146.25626 35.084373 144.9125 33.69375Q143.58438 32.2875 143.58438 29.756248Q143.58438 27.131248 144.92813 25.693748Q146.27188 24.240623 148.42813 24.240623Q150.50626 24.240623 151.81876 25.662498Q153.14688 27.068748 153.14688 29.646873Q153.14688 29.803123 153.13126 30.115623L145.39688 30.115623Q145.49063 31.818748 146.36563 32.725Q147.24063 33.63125 148.5375 33.63125Q149.50626 33.63125 150.17813 33.13125Q150.86563 32.615623 151.27188 31.506248ZM145.49063 28.662498L151.2875 28.662498Q151.17813 27.365623 150.63126 26.709373Q149.7875 25.693748 148.44376 25.693748Q147.24063 25.693748 146.4125 26.506248Q145.58438 27.303123 145.49063 28.662498ZM161.94376 33.56875Q160.95938 34.396873 160.05313 34.740623Q159.14688 35.084373 158.11563 35.084373Q156.4125 35.084373 155.49063 34.25625Q154.56876 33.4125 154.56876 32.115623Q154.56876 31.349998 154.9125 30.724998Q155.27188 30.099998 155.83438 29.724998Q156.39688 29.334373 157.1 29.131248Q157.61563 29.006248 158.6625 28.865623Q160.7875 28.615623 161.7875 28.271873Q161.80313 27.912498 161.80313 27.803123Q161.80313 26.740623 161.30313 26.287498Q160.63126 25.693748 159.30313 25.693748Q158.05313 25.693748 157.45938 26.131248Q156.88126 26.568748 156.6 27.678123L154.88126 27.443748Q155.11563 26.334373 155.64688 25.662498Q156.17813 24.974998 157.19376 24.615623Q158.20938 24.240623 159.55313 24.240623Q160.88126 24.240623 161.70938 24.553123Q162.5375 24.865623 162.92813 25.349998Q163.31876 25.818748 163.475 26.537498Q163.56876 26.990623 163.56876 28.162498L163.56876 30.506248Q163.56876 32.959373 163.67813 33.615623Q163.7875 34.25625 164.13126 34.85L162.2875 34.85Q162.02188 34.303123 161.94376 33.56875ZM161.7875 29.646873Q160.83438 30.037498 158.9125 30.303123Q157.83438 30.459373 157.38126 30.662498Q156.94376 30.849998 156.69376 31.224998Q156.44376 31.599998 156.44376 32.06875Q156.44376 32.771873 156.975 33.240623Q157.50626 33.709373 158.5375 33.709373Q159.55313 33.709373 160.33438 33.271873Q161.13126 32.81875 161.50626 32.053123Q161.7875 31.443748 161.7875 30.287498L161.7875 29.646873ZM166.14688 34.85L166.14688 24.474998L167.725 24.474998L167.725 26.053123Q168.33438 24.943748 168.85 24.599998Q169.36563 24.240623 169.975 24.240623Q170.86563 24.240623 171.7875 24.803123L171.17813 26.443748Q170.5375 26.053123 169.89688 26.053123Q169.31876 26.053123 168.85 26.412498Q168.39688 26.756248 168.19376 27.365623Q167.9125 28.303123 167.9125 29.412498L167.9125 34.85L166.14688 34.85ZM173.1625 34.85L173.1625 24.474998L174.75626 24.474998L174.75626 25.959373Q175.89688 24.240623 178.05313 24.240623Q178.99063 24.240623 179.77188 24.584373Q180.56876 24.912498 180.95938 25.459373Q181.35 26.006248 181.50626 26.756248Q181.6 27.256248 181.6 28.474998L181.6 34.85L179.83438 34.85L179.83438 28.537498Q179.83438 27.459373 179.63126 26.928123Q179.42813 26.396873 178.89688 26.084373Q178.38126 25.771873 177.67813 25.771873Q176.55313 25.771873 175.74063 26.490623Q174.92813 27.193748 174.92813 29.178123L174.92813 34.85L173.1625 34.85ZM191.27188 31.506248L193.08438 31.740623Q192.6625 33.31875 191.49063 34.209373Q190.33438 35.084373 188.52188 35.084373Q186.25626 35.084373 184.9125 33.69375Q183.58438 32.2875 183.58438 29.756248Q183.58438 27.131248 184.92813 25.693748Q186.27188 24.240623 188.42813 24.240623Q190.50626 24.240623 191.81876 25.662498Q193.14688 27.068748 193.14688 29.646873Q193.14688 29.803123 193.13126 30.115623L185.39688 30.115623Q185.49063 31.818748 186.36563 32.725Q187.24063 33.63125 188.5375 33.63125Q189.50626 33.63125 190.17813 33.13125Q190.86563 32.615623 191.27188 31.506248ZM185.49063 28.662498L191.2875 28.662498Q191.17813 27.365623 190.63126 26.709373Q189.7875 25.693748 188.44376 25.693748Q187.24063 25.693748 186.4125 26.506248Q185.58438 27.303123 185.49063 28.662498ZM195.14688 34.85L195.14688 24.474998L196.725 24.474998L196.725 26.053123Q197.33438 24.943748 197.85 24.599998Q198.36563 24.240623 198.975 24.240623Q199.86563 24.240623 200.7875 24.803123L200.17813 26.443748Q199.5375 26.053123 198.89688 26.053123Q198.31876 26.053123 197.85 26.412498Q197.39688 26.756248 197.19376 27.365623Q196.9125 28.303123 196.9125 29.412498L196.9125 34.85L195.14688 34.85ZM214.95938 34.85L214.95938 33.31875Q213.75626 35.084373 211.67813 35.084373Q210.75626 35.084373 209.95938 34.740623Q209.1625 34.38125 208.77188 33.85Q208.39688 33.31875 208.24063 32.5375Q208.13126 32.021873 208.13126 30.896873L208.13126 24.474998L209.88126 24.474998L209.88126 30.224998Q209.88126 31.599998 209.99063 32.084373Q210.1625 32.771873 210.69376 33.178123Q211.24063 33.56875 212.02188 33.56875Q212.81876 33.56875 213.50626 33.1625Q214.20938 32.75625 214.49063 32.06875Q214.7875 31.365623 214.7875 30.037498L214.7875 24.474998L216.5375 24.474998L216.5375 34.85L214.95938 34.85ZM218.45938 31.756248L220.20938 31.474998Q220.35 32.521873 221.02188 33.084373Q221.69376 33.63125 222.89688 33.63125Q224.1 33.63125 224.67813 33.146873Q225.27188 32.646873 225.27188 31.990623Q225.27188 31.396873 224.75626 31.053123Q224.39688 30.818748 222.95938 30.459373Q221.02188 29.959373 220.27188 29.615623Q219.5375 29.256248 219.14688 28.631248Q218.75626 27.990623 218.75626 27.224998Q218.75626 26.537498 219.06876 25.943748Q219.39688 25.349998 219.94376 24.959373Q220.35 24.662498 221.05313 24.459373Q221.77188 24.240623 222.58438 24.240623Q223.80313 24.240623 224.725 24.599998Q225.64688 24.943748 226.08438 25.553123Q226.52188 26.146873 226.69376 27.146873L224.975 27.381248Q224.85 26.584373 224.2875 26.146873Q223.725 25.693748 222.70938 25.693748Q221.49063 25.693748 220.975 26.099998Q220.45938 26.490623 220.45938 27.021873Q220.45938 27.365623 220.67813 27.646873Q220.88126 27.928123 221.35 28.115623Q221.61563 28.209373 222.89688 28.553123Q224.77188 29.053123 225.50626 29.381248Q226.24063 29.693748 226.6625 30.303123Q227.08438 30.896873 227.08438 31.803123Q227.08438 32.678123 226.56876 33.459373Q226.05313 34.240623 225.08438 34.6625Q224.11563 35.084373 222.89688 35.084373Q220.88126 35.084373 219.81876 34.240623Q218.75626 33.396873 218.45938 31.756248ZM236.27188 31.506248L238.08438 31.740623Q237.6625 33.31875 236.49063 34.209373Q235.33438 35.084373 233.52188 35.084373Q231.25626 35.084373 229.9125 33.69375Q228.58438 32.2875 228.58438 29.756248Q228.58438 27.131248 229.92813 25.693748Q231.27188 24.240623 233.42813 24.240623Q235.50626 24.240623 236.81876 25.662498Q238.14688 27.068748 238.14688 29.646873Q238.14688 29.803123 238.13126 30.115623L230.39688 30.115623Q230.49063 31.818748 231.36563 32.725Q232.24063 33.63125 233.5375 33.63125Q234.50626 33.63125 235.17813 33.13125Q235.86563 32.615623 236.27188 31.506248ZM230.49063 28.662498L236.2875 28.662498Q236.17813 27.365623 235.63126 26.709373Q234.7875 25.693748 233.44376 25.693748Q232.24063 25.693748 231.4125 26.506248Q230.58438 27.303123 230.49063 28.662498ZM246.89688 34.85L246.89688 33.5375Q245.9125 35.084373 243.99063 35.084373Q242.75626 35.084373 241.70938 34.396873Q240.67813 33.709373 240.1 32.490623Q239.5375 31.271873 239.5375 29.678123Q239.5375 28.115623 240.05313 26.849998Q240.56876 25.584373 241.6 24.912498Q242.64688 24.240623 243.9125 24.240623Q244.85 24.240623 245.58438 24.646873Q246.31876 25.037498 246.7875 25.662498L246.7875 20.537498L248.52188 20.537498L248.52188 34.85L246.89688 34.85ZM241.33438 29.678123Q241.33438 31.662498 242.17813 32.646873Q243.02188 33.63125 244.1625 33.63125Q245.31876 33.63125 246.11563 32.69375Q246.92813 31.756248 246.92813 29.818748Q246.92813 27.693748 246.1 26.693748Q245.2875 25.693748 244.08438 25.693748Q242.9125 25.693748 242.11563 26.662498Q241.33438 27.615623 241.33438 29.678123Z" fill-rule="nonzero"/></svg>