<svg version="1.1" viewBox="0.0 0.0 512.0 317.0" fill="none" stroke="none" stroke-linecap="square" stroke-miterlimit="10" width="512" height="317" xmlns:xlink="http://www.w3.org/1999/xlink" xmlns="http://www.w3.org/2000/svg"><path fill="#ffffff" d="M0 0L512.0 0L512.0 317.0L0 317.0L0 0Z" fill-rule="nonzero"/><path fill="#4285f4" d="M256.0 50.416668C287.56342 50.416668 317.96536 62.322575 341.13477 83.75686L256.0 175.78334Z" fill-rule="nonzero"/><path fill="#ea4335" d="M341.13477 83.75686C343.04324 85.52241 344.89633 87.34689 346.69135 89.22768L256.0 175.78334Z" fill-rule="nonzero"/><path fill="#fbbc04" d="M346.69135 89.22768C361.12485 104.35082 371.54736 122.84331 377.01038 143.02228L256.0 175.78334Z" fill-rule="nonzero"/><path fill="#34a853" d="M377.01038 143.02228C381.0984 158.12218 382.3242 173.8538 380.62448 189.4047L256.0 175.78334Z" fill-rule="nonzero"/><path fill="#ff6d01" d="M380.62448 189.4047C379.49316 199.75519 377.07684 209.92444 373.43127 219.67752L256.0 175.78334Z" fill-rule="nonzero"/><path fill="#46bdc6" d="M373.43127 219.67752C360.48297 254.3184 332.90067 281.47504 298.06262 293.88303L256.0 175.78334Z" fill-rule="nonzero"/><path fill="#7baaf7" d="M298.06262 293.88303C295.61343 294.75534 293.1377 295.55124 290.63904 296.2696L256.0 175.78334Z" fill-rule="nonzero"/><path fill="#edf8f9" d="M248.206 50.659176C250.80086 50.497543 253.40012 50.416668 256.0 50.416668L256.0 175.78334Z" fill-rule="nonzero"/><path fill="#fff0e6" d="M240.44215 51.38577C243.02194 51.063126 245.61115 50.82081 248.206 50.659176L256.0 175.78334Z" fill-rule="nonzero"/><path fill="#ebf6ee" d="M232.7385 52.593628C235.29324 52.111225 237.86237 51.70841 240.44215 51.38577L256.0 175.78334Z" fill-rule="nonzero"/><path fill="#fff8e6" d="M225.12483 54.278084C227.64464 53.637787 230.18376 53.07603 232.7385 52.593628L256.0 175.78334Z" fill-rule="nonzero"/><path fill="#fdeceb" d="M217.63062 56.432625C220.10574 55.63691 222.60503 54.91838 225.12483 54.278084L256.0 175.78334Z" fill-rule="nonzero"/><path fill="#ecf3fe" d="M210.28485 59.048904C212.70572 58.100853 215.1555 57.228336 217.63062 56.432625L256.0 175.78334Z" fill-rule="nonzero"/><path fill="#b5e5e8" d="M189.41887 69.55831C196.0319 65.41331 203.01756 61.8949 210.28485 59.048904L256.0 175.78334Z" fill-rule="nonzero"/><path fill="#ffc599" d="M182.9437 73.90312C185.05652 72.38806 187.21596 70.93909 189.41887 69.55831L256.0 175.78334Z" fill-rule="nonzero"/><path fill="#aedcba" d="M139.99065 128.25829C148.9186 106.465034 163.80472 87.62731 182.9437 73.90312L256.0 175.78334Z" fill-rule="nonzero"/><path fill="#fde49b" d="M137.26044 135.56247C138.09454 133.10002 139.00505 130.66411 139.99065 128.25829L256.0 175.78334Z" fill-rule="nonzero"/><path fill="#f7b4ae" d="M134.98961 143.02228C135.66902 140.51273 136.42633 138.02493 137.26044 135.56247L256.0 175.78334Z" fill-rule="nonzero"/><path fill="#b3cefb" d="M133.18695 150.60883C133.70903 148.06189 134.31021 145.53181 134.98961 143.02228L256.0 175.78334Z" fill-rule="nonzero"/><path fill="#7ed1d7" d="M131.01219 166.04437C131.41623 160.85905 132.14255 155.7039 133.18695 150.60883L256.0 175.78334Z" fill-rule="nonzero"/><path fill="#ff994d" d="M134.02928 204.76514C131.0183 192.0933 130.00038 179.02965 131.01219 166.04437L256.0 175.78334Z" fill-rule="nonzero"/><path fill="#71c287" d="M136.06702 212.29195C135.30989 209.80475 134.63031 207.2946 134.02928 204.76514L256.0 175.78334Z" fill-rule="nonzero"/><path fill="#fcd04f" d="M168.0444 265.1176C153.14755 250.45065 142.15497 232.29126 136.06702 212.29195L256.0 175.78334Z" fill-rule="nonzero"/><path fill="#f07b72" d="M290.63904 296.2696C247.1468 308.77332 200.29161 296.86716 168.0444 265.1176L256.0 175.78334Z" fill-rule="nonzero"/><path fill="#1a1a1a" d="M16.19375 58.979168L17.225 58.838543Q17.25625 59.822918 17.584375 60.182293Q17.9125 60.541668 18.50625 60.541668Q18.928125 60.541668 19.240625 60.354168Q19.553125 60.151043 19.6625 59.822918Q19.7875 59.479168 19.7875 58.744793L19.7875 52.822918L20.9125 52.822918L20.9125 58.682293Q20.9125 59.760418 20.646875 60.354168Q20.396875 60.947918 19.834375 61.260418Q19.271875 61.557293 18.50625 61.557293Q17.38125 61.557293 16.771875 60.916668Q16.178125 60.260418 16.19375 58.979168ZM22.396875 58.651043L23.459375 58.557293Q23.5375 59.213543 23.81875 59.619793Q24.1 60.026043 24.678125 60.291668Q25.271875 60.541668 26.00625 60.541668Q26.646875 60.541668 27.146875 60.354168Q27.646875 60.151043 27.88125 59.822918Q28.13125 59.479168 28.13125 59.088543Q28.13125 58.682293 27.896875 58.385418Q27.6625 58.072918 27.13125 57.869793Q26.771875 57.729168 25.584375 57.447918Q24.4125 57.166668 23.94375 56.916668Q23.31875 56.588543 23.021875 56.119793Q22.725 55.635418 22.725 55.041668Q22.725 54.401043 23.084375 53.838543Q23.459375 53.260418 24.1625 52.979168Q24.88125 52.682293 25.740625 52.682293Q26.69375 52.682293 27.428125 52.994793Q28.1625 53.291668 28.553125 53.901043Q28.94375 54.494793 28.975 55.244793L27.88125 55.322918Q27.7875 54.510418 27.271875 54.104168Q26.771875 53.682293 25.7875 53.682293Q24.75625 53.682293 24.2875 54.057293Q23.81875 54.432293 23.81875 54.963543Q23.81875 55.432293 24.146875 55.729168Q24.475 56.026043 25.85 56.338543Q27.240625 56.651043 27.75625 56.885418Q28.50625 57.244793 28.865625 57.776043Q29.225 58.291668 29.225 58.994793Q29.225 59.682293 28.834375 60.291668Q28.44375 60.885418 27.709375 61.229168Q26.975 61.557293 26.053125 61.557293Q24.88125 61.557293 24.084375 61.229168Q23.303125 60.885418 22.85 60.197918Q22.4125 59.510418 22.396875 58.651043ZM30.396875 58.651043L31.459375 58.557293Q31.5375 59.213543 31.81875 59.619793Q32.1 60.026043 32.678123 60.291668Q33.271873 60.541668 34.00625 60.541668Q34.646873 60.541668 35.146873 60.354168Q35.646873 60.151043 35.88125 59.822918Q36.13125 59.479168 36.13125 59.088543Q36.13125 58.682293 35.896873 58.385418Q35.6625 58.072918 35.13125 57.869793Q34.771873 57.729168 33.584373 57.447918Q32.4125 57.166668 31.94375 56.916668Q31.31875 56.588543 31.021875 56.119793Q30.725 55.635418 30.725 55.041668Q30.725 54.401043 31.084375 53.838543Q31.459375 53.260418 32.1625 52.979168Q32.88125 52.682293 33.740623 52.682293Q34.69375 52.682293 35.428123 52.994793Q36.1625 53.291668 36.553123 53.901043Q36.94375 54.494793 36.975 55.244793L35.88125 55.322918Q35.7875 54.510418 35.271873 54.104168Q34.771873 53.682293 33.7875 53.682293Q32.75625 53.682293 32.2875 54.057293Q31.81875 54.432293 31.81875 54.963543Q31.81875 55.432293 32.146873 55.729168Q32.475 56.026043 33.85 56.338543Q35.240623 56.651043 35.75625 56.885418Q36.50625 57.244793 36.865623 57.776043Q37.225 58.291668 37.225 58.994793Q37.225 59.682293 36.834373 60.291668Q36.44375 60.885418 35.709373 61.229168Q34.975 61.557293 34.053123 61.557293Q32.88125 61.557293 32.084373 61.229168Q31.303125 60.885418 30.85 60.197918Q30.4125 59.510418 30.396875 58.651043Z" fill-rule="nonzero"/><path fill="#9e9e9e" d="M20.31875 78.416664L19.271875 78.416664L19.271875 71.697914Q18.88125 72.05729 18.25625 72.43229Q17.646875 72.791664 17.1625 72.96354L17.1625 71.947914Q18.0375 71.52604 18.69375 70.947914Q19.365625 70.354164 19.646875 69.791664L20.31875 69.791664L20.31875 78.416664ZM23.94375 78.416664L23.94375 77.21354L25.146875 77.21354L25.146875 78.416664L23.94375 78.416664ZM26.35 74.18229Q26.35 72.65104 26.6625 71.729164Q26.975 70.791664 27.584375 70.291664Q28.209375 69.791664 29.146875 69.791664Q29.834375 69.791664 30.35 70.072914Q30.88125 70.354164 31.225 70.885414Q31.56875 71.40104 31.75625 72.15104Q31.94375 72.90104 31.94375 74.18229Q31.94375 75.697914 31.63125 76.61979Q31.334375 77.541664 30.709375 78.05729Q30.1 78.55729 29.146875 78.55729Q27.9125 78.55729 27.19375 77.666664Q26.35 76.604164 26.35 74.18229ZM27.428125 74.18229Q27.428125 76.291664 27.928125 76.99479Q28.428125 77.697914 29.146875 77.697914Q29.88125 77.697914 30.365625 76.99479Q30.865625 76.291664 30.865625 74.18229Q30.865625 72.05729 30.365625 71.36979Q29.88125 70.666664 29.13125 70.666664Q28.4125 70.666664 27.975 71.27604Q27.428125 72.05729 27.428125 74.18229ZM33.553123 71.885414Q33.553123 70.96354 34.00625 70.322914Q34.475 69.68229 35.35 69.68229Q36.1625 69.68229 36.69375 70.260414Q37.225 70.83854 37.225 71.947914Q37.225 73.041664 36.678123 73.635414Q36.146873 74.21354 35.365623 74.21354Q34.584373 74.21354 34.06875 73.635414Q33.553123 73.05729 33.553123 71.885414ZM35.38125 70.40104Q34.990623 70.40104 34.725 70.74479Q34.475 71.08854 34.475 71.99479Q34.475 72.822914 34.725 73.166664Q34.990623 73.49479 35.38125 73.49479Q35.7875 73.49479 36.0375 73.15104Q36.303123 72.80729 36.303123 71.916664Q36.303123 71.072914 36.0375 70.74479Q35.771873 70.40104 35.38125 70.40104ZM35.38125 78.729164L40.084373 69.68229L40.94375 69.68229L36.25625 78.729164L35.38125 78.729164ZM39.1 76.40104Q39.1 75.479164 39.553123 74.83854Q40.021873 74.197914 40.9125 74.197914Q41.725 74.197914 42.25625 74.77604Q42.7875 75.33854 42.7875 76.46354Q42.7875 77.55729 42.240623 78.15104Q41.709373 78.729164 40.9125 78.729164Q40.146873 78.729164 39.615623 78.15104Q39.1 77.572914 39.1 76.40104ZM40.94375 74.916664Q40.5375 74.916664 40.271873 75.260414Q40.021873 75.604164 40.021873 76.510414Q40.021873 77.322914 40.2875 77.666664Q40.553123 78.010414 40.94375 78.010414Q41.334373 78.010414 41.6 77.666664Q41.865623 77.322914 41.865623 76.416664Q41.865623 75.58854 41.6 75.260414Q41.334373 74.916664 40.94375 74.916664Z" fill-rule="nonzero"/><path stroke="#757575" stroke-width="1.0" stroke-linecap="butt" d="M15.85 65.916664L124.63333 65.916664L252.29605 56.74261" fill-rule="nonzero"/><path fill="#9e9e9e" d="M254.29605 56.74261C254.29605 55.63804 253.40063 54.74261 252.29605 54.74261C251.19148 54.74261 250.29605 55.63804 250.29605 56.74261C250.29605 57.84718 251.19148 58.74261 252.29605 58.74261C253.40063 58.74261 254.29605 57.84718 254.29605 56.74261" fill-rule="nonzero"/><path fill="#1a1a1a" d="M16.975 92.416664L16.975 83.822914L18.1 83.822914L18.1 92.416664L16.975 92.416664ZM19.19375 89.979164L20.225 89.83854Q20.25625 90.822914 20.584375 91.18229Q20.9125 91.541664 21.50625 91.541664Q21.928125 91.541664 22.240625 91.354164Q22.553125 91.15104 22.6625 90.822914Q22.7875 90.479164 22.7875 89.74479L22.7875 83.822914L23.9125 83.822914L23.9125 89.68229Q23.9125 90.760414 23.646875 91.354164Q23.396875 91.947914 22.834375 92.260414Q22.271875 92.55729 21.50625 92.55729Q20.38125 92.55729 19.771875 91.916664Q19.178125 91.260414 19.19375 89.979164ZM31.9125 89.40104L33.0375 89.697914Q32.678123 91.08854 31.75625 91.822914Q30.834375 92.55729 29.490625 92.55729Q28.1 92.55729 27.225 91.99479Q26.35 91.43229 25.896875 90.36979Q25.44375 89.291664 25.44375 88.05729Q25.44375 86.71354 25.959375 85.71354Q26.475 84.71354 27.4125 84.197914Q28.365625 83.68229 29.50625 83.68229Q30.7875 83.68229 31.6625 84.33854Q32.553123 84.99479 32.896873 86.18229L31.771875 86.447914Q31.475 85.510414 30.896875 85.08854Q30.334375 84.65104 29.475 84.65104Q28.490625 84.65104 27.81875 85.135414Q27.1625 85.604164 26.88125 86.40104Q26.615625 87.197914 26.615625 88.05729Q26.615625 89.15104 26.928125 89.96354Q27.25625 90.77604 27.928125 91.18229Q28.6 91.58854 29.396875 91.58854Q30.35 91.58854 31.00625 91.041664Q31.678125 90.49479 31.9125 89.40104ZM33.834373 92.416664L37.13125 83.822914L38.35 83.822914L41.865623 92.416664L40.584373 92.416664L39.56875 89.80729L35.990623 89.80729L35.0375 92.416664L33.834373 92.416664ZM36.31875 88.885414L39.225 88.885414L38.334373 86.510414Q37.9125 85.43229 37.725 84.729164Q37.553123 85.55729 37.25625 86.36979L36.31875 88.885414ZM42.975 92.416664L42.975 83.822914L44.1 83.822914L44.1 92.416664L42.975 92.416664Z" fill-rule="nonzero"/><path fill="#9e9e9e" d="M16.35 107.15104L17.4125 107.010414Q17.584375 107.90104 18.021875 108.30729Q18.459375 108.697914 19.084375 108.697914Q19.834375 108.697914 20.35 108.18229Q20.865625 107.666664 20.865625 106.90104Q20.865625 106.18229 20.38125 105.71354Q19.9125 105.229164 19.178125 105.229164Q18.88125 105.229164 18.428125 105.354164L18.553125 104.416664Q18.6625 104.43229 18.725 104.43229Q19.396875 104.43229 19.928125 104.08854Q20.475 103.729164 20.475 102.99479Q20.475 102.416664 20.084375 102.041664Q19.69375 101.65104 19.06875 101.65104Q18.459375 101.65104 18.0375 102.041664Q17.63125 102.43229 17.521875 103.197914L16.459375 103.010414Q16.646875 101.96354 17.334375 101.385414Q18.021875 100.791664 19.0375 100.791664Q19.740625 100.791664 20.334375 101.104164Q20.928125 101.40104 21.240625 101.916664Q21.553125 102.43229 21.553125 103.02604Q21.553125 103.572914 21.25625 104.041664Q20.959375 104.49479 20.38125 104.760414Q21.13125 104.93229 21.553125 105.49479Q21.975 106.041664 21.975 106.885414Q21.975 108.010414 21.146875 108.791664Q20.334375 109.572914 19.084375 109.572914Q17.959375 109.572914 17.209375 108.90104Q16.459375 108.21354 16.35 107.15104ZM23.94375 109.416664L23.94375 108.21354L25.146875 108.21354L25.146875 109.416664L23.94375 109.416664ZM26.35 105.18229Q26.35 103.65104 26.6625 102.729164Q26.975 101.791664 27.584375 101.291664Q28.209375 100.791664 29.146875 100.791664Q29.834375 100.791664 30.35 101.072914Q30.88125 101.354164 31.225 101.885414Q31.56875 102.40104 31.75625 103.15104Q31.94375 103.90104 31.94375 105.18229Q31.94375 106.697914 31.63125 107.61979Q31.334375 108.541664 30.709375 109.05729Q30.1 109.55729 29.146875 109.55729Q27.9125 109.55729 27.19375 108.666664Q26.35 107.604164 26.35 105.18229ZM27.428125 105.18229Q27.428125 107.291664 27.928125 107.99479Q28.428125 108.697914 29.146875 108.697914Q29.88125 108.697914 30.365625 107.99479Q30.865625 107.291664 30.865625 105.18229Q30.865625 103.05729 30.365625 102.36979Q29.88125 101.666664 29.13125 101.666664Q28.4125 101.666664 27.975 102.27604Q27.428125 103.05729 27.428125 105.18229ZM33.553123 102.885414Q33.553123 101.96354 34.00625 101.322914Q34.475 100.68229 35.35 100.68229Q36.1625 100.68229 36.69375 101.260414Q37.225 101.83854 37.225 102.947914Q37.225 104.041664 36.678123 104.635414Q36.146873 105.21354 35.365623 105.21354Q34.584373 105.21354 34.06875 104.635414Q33.553123 104.05729 33.553123 102.885414ZM35.38125 101.40104Q34.990623 101.40104 34.725 101.74479Q34.475 102.08854 34.475 102.99479Q34.475 103.822914 34.725 104.166664Q34.990623 104.49479 35.38125 104.49479Q35.7875 104.49479 36.0375 104.15104Q36.303123 103.80729 36.303123 102.916664Q36.303123 102.072914 36.0375 101.74479Q35.771873 101.40104 35.38125 101.40104ZM35.38125 109.729164L40.084373 100.68229L40.94375 100.68229L36.25625 109.729164L35.38125 109.729164ZM39.1 107.40104Q39.1 106.479164 39.553123 105.83854Q40.021873 105.197914 40.9125 105.197914Q41.725 105.197914 42.25625 105.77604Q42.7875 106.33854 42.7875 107.46354Q42.7875 108.55729 42.240623 109.15104Q41.709373 109.729164 40.9125 109.729164Q40.146873 109.729164 39.615623 109.15104Q39.1 108.572914 39.1 107.40104ZM40.94375 105.916664Q40.5375 105.916664 40.271873 106.260414Q40.021873 106.604164 40.021873 107.510414Q40.021873 108.322914 40.2875 108.666664Q40.553123 109.010414 40.94375 109.010414Q41.334373 109.010414 41.6 108.666664Q41.865623 108.322914 41.865623 107.416664Q41.865623 106.58854 41.6 106.260414Q41.334373 105.916664 40.94375 105.916664Z" fill-rule="nonzero"/><path stroke="#757575" stroke-width="1.0" stroke-linecap="butt" d="M15.85 96.916664L124.63333 96.916664L202.4262 69.414825" fill-rule="nonzero"/><path fill="#9e9e9e" d="M204.4262 69.414825C204.4262 68.31026 203.53076 67.414825 202.4262 67.414825C201.32162 67.414825 200.4262 68.31026 200.4262 69.414825C200.4262 70.519394 201.32162 71.414825 202.4262 71.414825C203.53076 71.414825 204.4262 70.519394 204.4262 69.414825" fill-rule="nonzero"/><path fill="#1a1a1a" d="M16.771875 123.416664L16.771875 114.822914L17.928125 114.822914L22.44375 121.572914L22.44375 114.822914L23.5375 114.822914L23.5375 123.416664L22.365625 123.416664L17.85 116.666664L17.85 123.416664L16.771875 123.416664ZM25.975 123.416664L25.975 114.822914L27.1 114.822914L27.1 123.416664L25.975 123.416664ZM28.771875 123.416664L28.771875 114.822914L32.021873 114.822914Q32.865623 114.822914 33.31875 114.90104Q33.959373 115.010414 34.38125 115.30729Q34.81875 115.604164 35.06875 116.135414Q35.334373 116.666664 35.334373 117.30729Q35.334373 118.40104 34.63125 119.166664Q33.94375 119.916664 32.115623 119.916664L29.9125 119.916664L29.9125 123.416664L28.771875 123.416664ZM29.9125 118.916664L32.13125 118.916664Q33.240623 118.916664 33.69375 118.510414Q34.1625 118.08854 34.1625 117.33854Q34.1625 116.80729 33.88125 116.43229Q33.615623 116.041664 33.178123 115.916664Q32.88125 115.83854 32.115623 115.83854L29.9125 115.83854L29.9125 118.916664ZM36.396873 120.65104L37.459373 120.55729Q37.5375 121.21354 37.81875 121.61979Q38.1 122.02604 38.678123 122.291664Q39.271873 122.541664 40.00625 122.541664Q40.646873 122.541664 41.146873 122.354164Q41.646873 122.15104 41.88125 121.822914Q42.13125 121.479164 42.13125 121.08854Q42.13125 120.68229 41.896873 120.385414Q41.6625 120.072914 41.13125 119.86979Q40.771873 119.729164 39.584373 119.447914Q38.4125 119.166664 37.94375 118.916664Q37.31875 118.58854 37.021873 118.11979Q36.725 117.635414 36.725 117.041664Q36.725 116.40104 37.084373 115.83854Q37.459373 115.260414 38.1625 114.979164Q38.88125 114.68229 39.740623 114.68229Q40.69375 114.68229 41.428123 114.99479Q42.1625 115.291664 42.553123 115.90104Q42.94375 116.49479 42.975 117.24479L41.88125 117.322914Q41.7875 116.510414 41.271873 116.104164Q40.771873 115.68229 39.7875 115.68229Q38.75625 115.68229 38.2875 116.05729Q37.81875 116.43229 37.81875 116.96354Q37.81875 117.43229 38.146873 117.729164Q38.475 118.02604 39.85 118.33854Q41.240623 118.65104 41.75625 118.885414Q42.50625 119.24479 42.865623 119.77604Q43.225 120.291664 43.225 120.99479Q43.225 121.68229 42.834373 122.291664Q42.44375 122.885414 41.709373 123.229164Q40.975 123.55729 40.053123 123.55729Q38.88125 123.55729 38.084373 123.229164Q37.303123 122.885414 36.85 122.197914Q36.4125 121.510414 36.396873 120.65104Z" fill-rule="nonzero"/><path fill="#9e9e9e" d="M17.975 135.76042Q17.31875 135.51042 16.990625 135.07292Q16.678125 134.6198 16.678125 134.01042Q16.678125 133.07292 17.35 132.4323Q18.0375 131.79167 19.146875 131.79167Q20.271875 131.79167 20.959375 132.44792Q21.646875 133.10417 21.646875 134.04167Q21.646875 134.63542 21.334375 135.07292Q21.021875 135.51042 20.38125 135.76042Q21.178125 136.01042 21.584375 136.58855Q21.990625 137.16667 21.990625 137.96355Q21.990625 139.0573 21.209375 139.8073Q20.44375 140.5573 19.1625 140.5573Q17.896875 140.5573 17.115625 139.8073Q16.334375 139.0573 16.334375 137.9323Q16.334375 137.08855 16.75625 136.52605Q17.19375 135.96355 17.975 135.76042ZM17.75625 133.96355Q17.75625 134.57292 18.146875 134.96355Q18.553125 135.35417 19.178125 135.35417Q19.7875 135.35417 20.178125 134.97917Q20.56875 134.58855 20.56875 134.02605Q20.56875 133.44792 20.1625 133.0573Q19.75625 132.65105 19.1625 132.65105Q18.553125 132.65105 18.146875 133.04167Q17.75625 133.4323 17.75625 133.96355ZM17.428125 137.9323Q17.428125 138.38542 17.63125 138.8073Q17.85 139.22917 18.271875 139.46355Q18.69375 139.69792 19.178125 139.69792Q19.928125 139.69792 20.4125 139.21355Q20.9125 138.72917 20.9125 137.97917Q20.9125 137.21355 20.4125 136.71355Q19.9125 136.21355 19.146875 136.21355Q18.396875 136.21355 17.9125 136.71355Q17.428125 137.19792 17.428125 137.9323ZM23.94375 140.41667L23.94375 139.21355L25.146875 139.21355L25.146875 140.41667L23.94375 140.41667ZM26.50625 138.4323L27.521875 138.33855Q27.646875 139.0573 28.00625 139.38542Q28.38125 139.69792 28.94375 139.69792Q29.428125 139.69792 29.7875 139.47917Q30.1625 139.2448 30.396875 138.88542Q30.63125 138.51042 30.7875 137.88542Q30.94375 137.2448 30.94375 136.58855Q30.94375 136.51042 30.94375 136.3698Q30.63125 136.8698 30.084375 137.19792Q29.5375 137.51042 28.896875 137.51042Q27.81875 137.51042 27.084375 136.7448Q26.35 135.96355 26.35 134.69792Q26.35 133.38542 27.115625 132.58855Q27.896875 131.79167 29.053125 131.79167Q29.88125 131.79167 30.56875 132.2448Q31.271875 132.69792 31.63125 133.54167Q31.990625 134.3698 31.990625 135.94792Q31.990625 137.58855 31.63125 138.57292Q31.2875 139.54167 30.56875 140.0573Q29.865625 140.5573 28.928125 140.5573Q27.9125 140.5573 27.271875 140.01042Q26.63125 139.44792 26.50625 138.4323ZM30.81875 134.63542Q30.81875 133.72917 30.334375 133.19792Q29.865625 132.66667 29.178125 132.66667Q28.475 132.66667 27.94375 133.2448Q27.428125 133.8073 27.428125 134.72917Q27.428125 135.54167 27.928125 136.0573Q28.428125 136.57292 29.146875 136.57292Q29.88125 136.57292 30.35 136.0573Q30.81875 135.54167 30.81875 134.63542ZM33.553123 133.88542Q33.553123 132.96355 34.00625 132.32292Q34.475 131.6823 35.35 131.6823Q36.1625 131.6823 36.69375 132.26042Q37.225 132.83855 37.225 133.94792Q37.225 135.04167 36.678123 135.63542Q36.146873 136.21355 35.365623 136.21355Q34.584373 136.21355 34.06875 135.63542Q33.553123 135.0573 33.553123 133.88542ZM35.38125 132.40105Q34.990623 132.40105 34.725 132.7448Q34.475 133.08855 34.475 133.9948Q34.475 134.82292 34.725 135.16667Q34.990623 135.4948 35.38125 135.4948Q35.7875 135.4948 36.0375 135.15105Q36.303123 134.8073 36.303123 133.91667Q36.303123 133.07292 36.0375 132.7448Q35.771873 132.40105 35.38125 132.40105ZM35.38125 140.72917L40.084373 131.6823L40.94375 131.6823L36.25625 140.72917L35.38125 140.72917ZM39.1 138.40105Q39.1 137.47917 39.553123 136.83855Q40.021873 136.19792 40.9125 136.19792Q41.725 136.19792 42.25625 136.77605Q42.7875 137.33855 42.7875 138.46355Q42.7875 139.5573 42.240623 140.15105Q41.709373 140.72917 40.9125 140.72917Q40.146873 140.72917 39.615623 140.15105Q39.1 139.57292 39.1 138.40105ZM40.94375 136.91667Q40.5375 136.91667 40.271873 137.26042Q40.021873 137.60417 40.021873 138.51042Q40.021873 139.32292 40.2875 139.66667Q40.553123 140.01042 40.94375 140.01042Q41.334373 140.01042 41.6 139.66667Q41.865623 139.32292 41.865623 138.41667Q41.865623 137.58855 41.6 137.26042Q41.334373 136.91667 40.94375 136.91667Z" fill-rule="nonzero"/><path stroke="#757575" stroke-width="1.0" stroke-linecap="butt" d="M15.85 127.916664L124.63333 127.916664L162.55614 101.94123" fill-rule="nonzero"/><path fill="#9e9e9e" d="M164.55614 101.94123C164.55614 100.83666 163.6607 99.94123 162.55614 99.94123C161.45157 99.94123 160.55614 100.83666 160.55614 101.94123C160.55614 103.0458 161.45157 103.94123 162.55614 103.94123C163.6607 103.94123 164.55614 103.0458 164.55614 101.94123" fill-rule="nonzero"/><path fill="#1a1a1a" d="M16.975 154.41667L16.975 145.82292L18.1 145.82292L18.1 154.41667L16.975 154.41667ZM25.9125 151.40105L27.0375 151.69792Q26.678125 153.08855 25.75625 153.82292Q24.834375 154.5573 23.490625 154.5573Q22.1 154.5573 21.225 153.9948Q20.35 153.4323 19.896875 152.3698Q19.44375 151.29167 19.44375 150.0573Q19.44375 148.71355 19.959375 147.71355Q20.475 146.71355 21.4125 146.19792Q22.365625 145.6823 23.50625 145.6823Q24.7875 145.6823 25.6625 146.33855Q26.553125 146.9948 26.896875 148.1823L25.771875 148.44792Q25.475 147.51042 24.896875 147.08855Q24.334375 146.65105 23.475 146.65105Q22.490625 146.65105 21.81875 147.13542Q21.1625 147.60417 20.88125 148.40105Q20.615625 149.19792 20.615625 150.0573Q20.615625 151.15105 20.928125 151.96355Q21.25625 152.77605 21.928125 153.1823Q22.6 153.58855 23.396875 153.58855Q24.35 153.58855 25.00625 153.04167Q25.678125 152.4948 25.9125 151.40105ZM28.725 154.41667L28.725 145.82292L29.865625 145.82292L29.865625 153.40105L34.1 153.40105L34.1 154.41667L28.725 154.41667ZM35.7875 154.41667L35.7875 145.82292L39.6 145.82292Q40.75625 145.82292 41.35 146.0573Q41.94375 146.29167 42.303123 146.88542Q42.6625 147.46355 42.6625 148.16667Q42.6625 149.08855 42.06875 149.71355Q41.475 150.33855 40.240623 150.51042Q40.69375 150.72917 40.928123 150.9323Q41.428123 151.38542 41.865623 152.07292L43.365623 154.41667L41.928123 154.41667L40.803123 152.63542Q40.303123 151.85417 39.975 151.44792Q39.6625 151.04167 39.396873 150.88542Q39.146873 150.71355 38.88125 150.63542Q38.69375 150.60417 38.25625 150.60417L36.928123 150.60417L36.928123 154.41667L35.7875 154.41667ZM36.928123 149.6198L39.38125 149.6198Q40.146873 149.6198 40.584373 149.46355Q41.0375 149.29167 41.25625 148.94792Q41.490623 148.58855 41.490623 148.16667Q41.490623 147.5573 41.0375 147.16667Q40.6 146.77605 39.646873 146.77605L36.928123 146.77605L36.928123 149.6198Z" fill-rule="nonzero"/><path fill="#9e9e9e" d="M21.896875 170.40105L21.896875 171.41667L16.209375 171.41667Q16.209375 171.04167 16.334375 170.6823Q16.553125 170.10417 17.021875 169.54167Q17.50625 168.97917 18.4125 168.2448Q19.81875 167.08855 20.303125 166.41667Q20.803125 165.7448 20.803125 165.15105Q20.803125 164.52605 20.35 164.10417Q19.896875 163.66667 19.178125 163.66667Q18.4125 163.66667 17.959375 164.1198Q17.50625 164.57292 17.490625 165.38542L16.4125 165.27605Q16.521875 164.0573 17.240625 163.4323Q17.975 162.79167 19.209375 162.79167Q20.44375 162.79167 21.1625 163.47917Q21.88125 164.16667 21.88125 165.1823Q21.88125 165.69792 21.6625 166.19792Q21.459375 166.6823 20.959375 167.2448Q20.475 167.79167 19.35 168.7448Q18.396875 169.54167 18.115625 169.83855Q17.85 170.1198 17.678125 170.40105L21.896875 170.40105ZM23.94375 171.41667L23.94375 170.21355L25.146875 170.21355L25.146875 171.41667L23.94375 171.41667ZM26.35 167.1823Q26.35 165.65105 26.6625 164.72917Q26.975 163.79167 27.584375 163.29167Q28.209375 162.79167 29.146875 162.79167Q29.834375 162.79167 30.35 163.07292Q30.88125 163.35417 31.225 163.88542Q31.56875 164.40105 31.75625 165.15105Q31.94375 165.90105 31.94375 167.1823Q31.94375 168.69792 31.63125 169.6198Q31.334375 170.54167 30.709375 171.0573Q30.1 171.5573 29.146875 171.5573Q27.9125 171.5573 27.19375 170.66667Q26.35 169.60417 26.35 167.1823ZM27.428125 167.1823Q27.428125 169.29167 27.928125 169.9948Q28.428125 170.69792 29.146875 170.69792Q29.88125 170.69792 30.365625 169.9948Q30.865625 169.29167 30.865625 167.1823Q30.865625 165.0573 30.365625 164.3698Q29.88125 163.66667 29.13125 163.66667Q28.4125 163.66667 27.975 164.27605Q27.428125 165.0573 27.428125 167.1823ZM33.553123 164.88542Q33.553123 163.96355 34.00625 163.32292Q34.475 162.6823 35.35 162.6823Q36.1625 162.6823 36.69375 163.26042Q37.225 163.83855 37.225 164.94792Q37.225 166.04167 36.678123 166.63542Q36.146873 167.21355 35.365623 167.21355Q34.584373 167.21355 34.06875 166.63542Q33.553123 166.0573 33.553123 164.88542ZM35.38125 163.40105Q34.990623 163.40105 34.725 163.7448Q34.475 164.08855 34.475 164.9948Q34.475 165.82292 34.725 166.16667Q34.990623 166.4948 35.38125 166.4948Q35.7875 166.4948 36.0375 166.15105Q36.303123 165.8073 36.303123 164.91667Q36.303123 164.07292 36.0375 163.7448Q35.771873 163.40105 35.38125 163.40105ZM35.38125 171.72917L40.084373 162.6823L40.94375 162.6823L36.25625 171.72917L35.38125 171.72917ZM39.1 169.40105Q39.1 168.47917 39.553123 167.83855Q40.021873 167.19792 40.9125 167.19792Q41.725 167.19792 42.25625 167.77605Q42.7875 168.33855 42.7875 169.46355Q42.7875 170.5573 42.240623 171.15105Q41.709373 171.72917 40.9125 171.72917Q40.146873 171.72917 39.615623 171.15105Q39.1 170.57292 39.1 169.40105ZM40.94375 167.91667Q40.5375 167.91667 40.271873 168.26042Q40.021873 168.60417 40.021873 169.51042Q40.021873 170.32292 40.2875 170.66667Q40.553123 171.01042 40.94375 171.01042Q41.334373 171.01042 41.6 170.66667Q41.865623 170.32292 41.865623 169.41667Q41.865623 168.58855 41.6 168.26042Q41.334373 167.91667 40.94375 167.91667Z" fill-rule="nonzero"/><path stroke="#757575" stroke-width="1.0" stroke-linecap="butt" d="M15.85 158.91667L124.63333 158.91667L138.06645 159.16728" fill-rule="nonzero"/><path fill="#9e9e9e" d="M140.06645 159.16728C140.06645 158.06271 139.17104 157.16728 138.06645 157.16728C136.96188 157.16728 136.06645 158.06271 136.06645 159.16728C136.06645 160.27187 136.96188 161.16728 138.06645 161.16728C139.17104 161.16728 140.06645 160.27187 140.06645 159.16728" fill-rule="nonzero"/><path fill="#1a1a1a" d="M16.975 185.41667L16.975 176.82292L18.1 176.82292L18.1 185.41667L16.975 185.41667ZM25.9125 182.40105L27.0375 182.69792Q26.678125 184.08855 25.75625 184.82292Q24.834375 185.5573 23.490625 185.5573Q22.1 185.5573 21.225 184.9948Q20.35 184.4323 19.896875 183.3698Q19.44375 182.29167 19.44375 181.0573Q19.44375 179.71355 19.959375 178.71355Q20.475 177.71355 21.4125 177.19792Q22.365625 176.6823 23.50625 176.6823Q24.7875 176.6823 25.6625 177.33855Q26.553125 177.9948 26.896875 179.1823L25.771875 179.44792Q25.475 178.51042 24.896875 178.08855Q24.334375 177.65105 23.475 177.65105Q22.490625 177.65105 21.81875 178.13542Q21.1625 178.60417 20.88125 179.40105Q20.615625 180.19792 20.615625 181.0573Q20.615625 182.15105 20.928125 182.96355Q21.25625 183.77605 21.928125 184.1823Q22.6 184.58855 23.396875 184.58855Q24.35 184.58855 25.00625 184.04167Q25.678125 183.4948 25.9125 182.40105ZM28.740625 185.41667L28.740625 176.82292L30.459375 176.82292L32.490623 182.90105Q32.771873 183.76042 32.896873 184.1823Q33.0375 183.71355 33.35 182.8073L35.4125 176.82292L36.94375 176.82292L36.94375 185.41667L35.85 185.41667L35.85 178.22917L33.35 185.41667L32.31875 185.41667L29.834375 178.10417L29.834375 185.41667L28.740625 185.41667ZM38.725 185.41667L38.725 176.82292L39.865623 176.82292L39.865623 184.40105L44.1 184.40105L44.1 185.41667L38.725 185.41667Z" fill-rule="nonzero"/><path fill="#9e9e9e" d="M16.35 200.16667L17.459375 200.07292Q17.584375 200.88542 18.021875 201.29167Q18.475 201.69792 19.115625 201.69792Q19.865625 201.69792 20.396875 201.1198Q20.928125 200.54167 20.928125 199.60417Q20.928125 198.69792 20.4125 198.1823Q19.9125 197.65105 19.084375 197.65105Q18.584375 197.65105 18.1625 197.88542Q17.75625 198.1198 17.521875 198.47917L16.5375 198.35417L17.365625 193.94792L21.646875 193.94792L21.646875 194.94792L18.209375 194.94792L17.75625 197.26042Q18.521875 196.71355 19.365625 196.71355Q20.490625 196.71355 21.25625 197.4948Q22.0375 198.27605 22.0375 199.51042Q22.0375 200.66667 21.365625 201.52605Q20.5375 202.5573 19.115625 202.5573Q17.94375 202.5573 17.19375 201.90105Q16.459375 201.2448 16.35 200.16667ZM23.94375 202.41667L23.94375 201.21355L25.146875 201.21355L25.146875 202.41667L23.94375 202.41667ZM26.35 198.1823Q26.35 196.65105 26.6625 195.72917Q26.975 194.79167 27.584375 194.29167Q28.209375 193.79167 29.146875 193.79167Q29.834375 193.79167 30.35 194.07292Q30.88125 194.35417 31.225 194.88542Q31.56875 195.40105 31.75625 196.15105Q31.94375 196.90105 31.94375 198.1823Q31.94375 199.69792 31.63125 200.6198Q31.334375 201.54167 30.709375 202.0573Q30.1 202.5573 29.146875 202.5573Q27.9125 202.5573 27.19375 201.66667Q26.35 200.60417 26.35 198.1823ZM27.428125 198.1823Q27.428125 200.29167 27.928125 200.9948Q28.428125 201.69792 29.146875 201.69792Q29.88125 201.69792 30.365625 200.9948Q30.865625 200.29167 30.865625 198.1823Q30.865625 196.0573 30.365625 195.3698Q29.88125 194.66667 29.13125 194.66667Q28.4125 194.66667 27.975 195.27605Q27.428125 196.0573 27.428125 198.1823ZM33.553123 195.88542Q33.553123 194.96355 34.00625 194.32292Q34.475 193.6823 35.35 193.6823Q36.1625 193.6823 36.69375 194.26042Q37.225 194.83855 37.225 195.94792Q37.225 197.04167 36.678123 197.63542Q36.146873 198.21355 35.365623 198.21355Q34.584373 198.21355 34.06875 197.63542Q33.553123 197.0573 33.553123 195.88542ZM35.38125 194.40105Q34.990623 194.40105 34.725 194.7448Q34.475 195.08855 34.475 195.9948Q34.475 196.82292 34.725 197.16667Q34.990623 197.4948 35.38125 197.4948Q35.7875 197.4948 36.0375 197.15105Q36.303123 196.8073 36.303123 195.91667Q36.303123 195.07292 36.0375 194.7448Q35.771873 194.40105 35.38125 194.40105ZM35.38125 202.72917L40.084373 193.6823L40.94375 193.6823L36.25625 202.72917L35.38125 202.72917ZM39.1 200.40105Q39.1 199.47917 39.553123 198.83855Q40.021873 198.19792 40.9125 198.19792Q41.725 198.19792 42.25625 198.77605Q42.7875 199.33855 42.7875 200.46355Q42.7875 201.5573 42.240623 202.15105Q41.709373 202.72917 40.9125 202.72917Q40.146873 202.72917 39.615623 202.15105Q39.1 201.57292 39.1 200.40105ZM40.94375 198.91667Q40.5375 198.91667 40.271873 199.26042Q40.021873 199.60417 40.021873 200.51042Q40.021873 201.32292 40.2875 201.66667Q40.553123 202.01042 40.94375 202.01042Q41.334373 202.01042 41.6 201.66667Q41.865623 201.32292 41.865623 200.41667Q41.865623 199.58855 41.6 199.26042Q41.334373 198.91667 40.94375 198.91667Z" fill-rule="nonzero"/><path stroke="#757575" stroke-width="1.0" stroke-linecap="butt" d="M15.85 189.91667L124.63333 189.91667L137.26158 185.03535" fill-rule="nonzero"/><path fill="#9e9e9e" d="M139.26158 185.03535C139.26158 183.93079 138.36615 183.03535 137.26158 183.03535C136.15701 183.03535 135.26158 183.93079 135.26158 185.03535C135.26158 186.13992 136.15701 187.03535 137.26158 187.03535C138.36615 187.03535 139.26158 186.13992 139.26158 185.03535" fill-rule="nonzero"/><path fill="#1a1a1a" d="M16.834375 232.95836L16.834375 224.36461L22.63125 224.36461L22.63125 225.38023L17.975 225.38023L17.975 228.03648L22.00625 228.03648L22.00625 229.05211L17.975 229.05211L17.975 232.95836L16.834375 232.95836ZM23.396875 230.19273L24.459375 230.09898Q24.5375 230.75523 24.81875 231.16148Q25.1 231.56773 25.678125 231.83336Q26.271875 232.08336 27.00625 232.08336Q27.646875 232.08336 28.146875 231.89586Q28.646875 231.69273 28.88125 231.36461Q29.13125 231.02086 29.13125 230.63023Q29.13125 230.22398 28.896875 229.92711Q28.6625 229.61461 28.13125 229.41148Q27.771875 229.27086 26.584375 228.98961Q25.4125 228.70836 24.94375 228.45836Q24.31875 228.13023 24.021875 227.66148Q23.725 227.17711 23.725 226.58336Q23.725 225.94273 24.084375 225.38023Q24.459375 224.80211 25.1625 224.52086Q25.88125 224.22398 26.740625 224.22398Q27.69375 224.22398 28.428125 224.53648Q29.1625 224.83336 29.553125 225.44273Q29.94375 226.03648 29.975 226.78648L28.88125 226.86461Q28.7875 226.05211 28.271875 225.64586Q27.771875 225.22398 26.7875 225.22398Q25.75625 225.22398 25.2875 225.59898Q24.81875 225.97398 24.81875 226.50523Q24.81875 226.97398 25.146875 227.27086Q25.475 227.56773 26.85 227.88023Q28.240625 228.19273 28.75625 228.42711Q29.50625 228.78648 29.865625 229.31773Q30.225 229.83336 30.225 230.53648Q30.225 231.22398 29.834375 231.83336Q29.44375 232.42711 28.709375 232.77086Q27.975 233.09898 27.053125 233.09898Q25.88125 233.09898 25.084375 232.77086Q24.303125 232.42711 23.85 231.73961Q23.4125 231.05211 23.396875 230.19273ZM31.803125 232.95836L31.803125 224.36461L38.00625 224.36461L38.00625 225.38023L32.94375 225.38023L32.94375 228.00523L37.69375 228.00523L37.69375 229.02086L32.94375 229.02086L32.94375 231.94273L38.209373 231.94273L38.209373 232.95836L31.803125 232.95836Z" fill-rule="nonzero"/><path fill="#9e9e9e" d="M16.4125 242.48961L16.4125 241.47398L21.975 241.47398L21.975 242.30211Q21.1625 243.17711 20.35 244.63023Q19.553125 246.06773 19.115625 247.59898Q18.7875 248.67711 18.709375 249.95836L17.615625 249.95836Q17.63125 248.94273 18.00625 247.50523Q18.396875 246.06773 19.1 244.73961Q19.81875 243.41148 20.63125 242.48961L16.4125 242.48961ZM23.94375 249.95836L23.94375 248.75523L25.146875 248.75523L25.146875 249.95836L23.94375 249.95836ZM26.50625 247.97398L27.521875 247.88023Q27.646875 248.59898 28.00625 248.92711Q28.38125 249.23961 28.94375 249.23961Q29.428125 249.23961 29.7875 249.02086Q30.1625 248.78648 30.396875 248.42711Q30.63125 248.05211 30.7875 247.42711Q30.94375 246.78648 30.94375 246.13023Q30.94375 246.05211 30.94375 245.91148Q30.63125 246.41148 30.084375 246.73961Q29.5375 247.05211 28.896875 247.05211Q27.81875 247.05211 27.084375 246.28648Q26.35 245.50523 26.35 244.23961Q26.35 242.92711 27.115625 242.13023Q27.896875 241.33336 29.053125 241.33336Q29.88125 241.33336 30.56875 241.78648Q31.271875 242.23961 31.63125 243.08336Q31.990625 243.91148 31.990625 245.48961Q31.990625 247.13023 31.63125 248.11461Q31.2875 249.08336 30.56875 249.59898Q29.865625 250.09898 28.928125 250.09898Q27.9125 250.09898 27.271875 249.55211Q26.63125 248.98961 26.50625 247.97398ZM30.81875 244.17711Q30.81875 243.27086 30.334375 242.73961Q29.865625 242.20836 29.178125 242.20836Q28.475 242.20836 27.94375 242.78648Q27.428125 243.34898 27.428125 244.27086Q27.428125 245.08336 27.928125 245.59898Q28.428125 246.11461 29.146875 246.11461Q29.88125 246.11461 30.35 245.59898Q30.81875 245.08336 30.81875 244.17711ZM33.553123 243.42711Q33.553123 242.50523 34.00625 241.86461Q34.475 241.22398 35.35 241.22398Q36.1625 241.22398 36.69375 241.80211Q37.225 242.38023 37.225 243.48961Q37.225 244.58336 36.678123 245.17711Q36.146873 245.75523 35.365623 245.75523Q34.584373 245.75523 34.06875 245.17711Q33.553123 244.59898 33.553123 243.42711ZM35.38125 241.94273Q34.990623 241.94273 34.725 242.28648Q34.475 242.63023 34.475 243.53648Q34.475 244.36461 34.725 244.70836Q34.990623 245.03648 35.38125 245.03648Q35.7875 245.03648 36.0375 244.69273Q36.303123 244.34898 36.303123 243.45836Q36.303123 242.61461 36.0375 242.28648Q35.771873 241.94273 35.38125 241.94273ZM35.38125 250.27086L40.084373 241.22398L40.94375 241.22398L36.25625 250.27086L35.38125 250.27086ZM39.1 247.94273Q39.1 247.02086 39.553123 246.38023Q40.021873 245.73961 40.9125 245.73961Q41.725 245.73961 42.25625 246.31773Q42.7875 246.88023 42.7875 248.00523Q42.7875 249.09898 42.240623 249.69273Q41.709373 250.27086 40.9125 250.27086Q40.146873 250.27086 39.615623 249.69273Q39.1 249.11461 39.1 247.94273ZM40.94375 246.45836Q40.5375 246.45836 40.271873 246.80211Q40.021873 247.14586 40.021873 248.05211Q40.021873 248.86461 40.2875 249.20836Q40.553123 249.55211 40.94375 249.55211Q41.334373 249.55211 41.6 249.20836Q41.865623 248.86461 41.865623 247.95836Q41.865623 247.13023 41.6 246.80211Q41.334373 246.45836 40.94375 246.45836Z" fill-rule="nonzero"/><path stroke="#757575" stroke-width="1.0" stroke-linecap="butt" d="M15.85 237.45836L124.63333 237.45836L154.11475 237.45836" fill-rule="nonzero"/><path fill="#9e9e9e" d="M156.11475 237.45836C156.11475 236.35379 155.21931 235.45836 154.11475 235.45836C153.01018 235.45836 152.11475 236.35379 152.11475 237.45836C152.11475 238.56293 153.01018 239.45836 154.11475 239.45836C155.21931 239.45836 156.11475 238.56293 156.11475 237.45836" fill-rule="nonzero"/><path fill="#1a1a1a" d="M20.709375 280.38437Q20.115625 280.88437 19.56875 281.0875Q19.0375 281.29062 18.4125 281.29062Q17.38125 281.29062 16.834375 280.79062Q16.2875 280.29062 16.2875 279.50937Q16.2875 279.05624 16.490625 278.68124Q16.69375 278.29062 17.0375 278.07187Q17.38125 277.8375 17.803125 277.72812Q18.1 277.63437 18.740625 277.55624Q20.00625 277.41562 20.615625 277.19687Q20.615625 276.97812 20.615625 276.93124Q20.615625 276.275 20.31875 276.00937Q19.9125 275.66562 19.115625 275.66562Q18.38125 275.66562 18.021875 275.93124Q17.6625 276.18124 17.490625 276.8375L16.459375 276.69687Q16.6 276.04062 16.928125 275.63437Q17.25625 275.22812 17.865625 275.00937Q18.475 274.79062 19.271875 274.79062Q20.06875 274.79062 20.56875 274.97812Q21.06875 275.16562 21.303125 275.44687Q21.5375 275.72812 21.63125 276.16562Q21.678125 276.43124 21.678125 277.13437L21.678125 278.54062Q21.678125 280.00937 21.740625 280.4Q21.81875 280.79062 22.021875 281.15L20.9125 281.15Q20.75625 280.82187 20.709375 280.38437ZM20.615625 278.025Q20.0375 278.25937 18.896875 278.43124Q18.240625 278.525 17.975 278.65Q17.709375 278.75937 17.553125 278.97812Q17.4125 279.19687 17.4125 279.47812Q17.4125 279.9 17.725 280.18124Q18.053125 280.4625 18.6625 280.4625Q19.271875 280.4625 19.740625 280.19687Q20.225 279.93124 20.44375 279.4625Q20.615625 279.10312 20.615625 278.41562L20.615625 278.025ZM23.63125 281.15L23.63125 274.93124L24.584375 274.93124L24.584375 275.86874Q24.94375 275.2125 25.240625 275.00937Q25.553125 274.79062 25.928125 274.79062Q26.459375 274.79062 27.00625 275.11874L26.646875 276.10312Q26.25625 275.86874 25.88125 275.86874Q25.521875 275.86874 25.240625 276.0875Q24.975 276.29062 24.865625 276.66562Q24.678125 277.22812 24.678125 277.88437L24.678125 281.15L23.63125 281.15ZM26.896875 281.15L30.225 276.66562L27.303125 272.55624L28.646875 272.55624L30.209375 274.75937Q30.69375 275.44687 30.896875 275.82187Q31.19375 275.35312 31.584375 274.8375L33.303123 272.55624L34.5375 272.55624L31.521875 276.60312L34.771873 281.15L33.365623 281.15L31.209375 278.0875Q31.021875 277.82187 30.834375 277.50937Q30.553125 277.97812 30.428125 278.15L28.271875 281.15L26.896875 281.15ZM35.646873 273.775L35.646873 272.55624L36.709373 272.55624L36.709373 273.775L35.646873 273.775ZM35.646873 281.15L35.646873 274.93124L36.709373 274.93124L36.709373 281.15L35.646873 281.15ZM40.365623 281.15L38.00625 274.93124L39.115623 274.93124L40.459373 278.65Q40.6625 279.25937 40.85 279.9Q40.990623 279.41562 41.240623 278.72812L42.63125 274.93124L43.709373 274.93124L41.35 281.15L40.365623 281.15Z" fill-rule="nonzero"/><path fill="#9e9e9e" d="M20.31875 298.15L19.271875 298.15L19.271875 291.43124Q18.88125 291.79062 18.25625 292.16562Q17.646875 292.525 17.1625 292.69687L17.1625 291.68124Q18.0375 291.25937 18.69375 290.68124Q19.365625 290.0875 19.646875 289.525L20.31875 289.525L20.31875 298.15ZM28.81875 291.66562L27.771875 291.74374Q27.63125 291.11874 27.38125 290.8375Q26.94375 290.38437 26.31875 290.38437Q25.81875 290.38437 25.428125 290.66562Q24.94375 291.04062 24.646875 291.74374Q24.365625 292.43124 24.35 293.7125Q24.725 293.13437 25.271875 292.85312Q25.834375 292.57187 26.44375 292.57187Q27.490625 292.57187 28.225 293.35312Q28.975 294.13437 28.975 295.35312Q28.975 296.16562 28.615625 296.86874Q28.271875 297.55624 27.6625 297.93124Q27.053125 298.29062 26.2875 298.29062Q24.959375 298.29062 24.13125 297.32187Q23.303125 296.35312 23.303125 294.13437Q23.303125 291.63437 24.225 290.50937Q25.021875 289.525 26.38125 289.525Q27.396875 289.525 28.0375 290.10312Q28.69375 290.66562 28.81875 291.66562ZM24.521875 295.36874Q24.521875 295.91562 24.740625 296.41562Q24.975 296.9 25.38125 297.16562Q25.803125 297.43124 26.271875 297.43124Q26.928125 297.43124 27.4125 296.9Q27.896875 296.35312 27.896875 295.43124Q27.896875 294.54062 27.4125 294.025Q26.94375 293.50937 26.225 293.50937Q25.50625 293.50937 25.00625 294.025Q24.521875 294.54062 24.521875 295.36874ZM30.94375 298.15L30.94375 296.94687L32.146873 296.94687L32.146873 298.15L30.94375 298.15ZM34.975 293.49374Q34.31875 293.24374 33.990623 292.80624Q33.678123 292.35312 33.678123 291.74374Q33.678123 290.80624 34.35 290.16562Q35.0375 289.525 36.146873 289.525Q37.271873 289.525 37.959373 290.18124Q38.646873 290.8375 38.646873 291.775Q38.646873 292.36874 38.334373 292.80624Q38.021873 293.24374 37.38125 293.49374Q38.178123 293.74374 38.584373 294.32187Q38.990623 294.9 38.990623 295.69687Q38.990623 296.79062 38.209373 297.54062Q37.44375 298.29062 36.1625 298.29062Q34.896873 298.29062 34.115623 297.54062Q33.334373 296.79062 33.334373 295.66562Q33.334373 294.82187 33.75625 294.25937Q34.19375 293.69687 34.975 293.49374ZM34.75625 291.69687Q34.75625 292.30624 35.146873 292.69687Q35.553123 293.0875 36.178123 293.0875Q36.7875 293.0875 37.178123 292.7125Q37.56875 292.32187 37.56875 291.75937Q37.56875 291.18124 37.1625 290.79062Q36.75625 290.38437 36.1625 290.38437Q35.553123 290.38437 35.146873 290.775Q34.75625 291.16562 34.75625 291.69687ZM34.428123 295.66562Q34.428123 296.11874 34.63125 296.54062Q34.85 296.9625 35.271873 297.19687Q35.69375 297.43124 36.178123 297.43124Q36.928123 297.43124 37.4125 296.94687Q37.9125 296.4625 37.9125 295.7125Q37.9125 294.94687 37.4125 294.44687Q36.9125 293.94687 36.146873 293.94687Q35.396873 293.94687 34.9125 294.44687Q34.428123 294.93124 34.428123 295.66562ZM40.553123 291.61874Q40.553123 290.69687 41.00625 290.05624Q41.475 289.41562 42.35 289.41562Q43.1625 289.41562 43.69375 289.99374Q44.225 290.57187 44.225 291.68124Q44.225 292.775 43.678123 293.36874Q43.146873 293.94687 42.365623 293.94687Q41.584373 293.94687 41.06875 293.36874Q40.553123 292.79062 40.553123 291.61874ZM42.38125 290.13437Q41.990623 290.13437 41.725 290.47812Q41.475 290.82187 41.475 291.72812Q41.475 292.55624 41.725 292.9Q41.990623 293.22812 42.38125 293.22812Q42.7875 293.22812 43.0375 292.88437Q43.303123 292.54062 43.303123 291.65Q43.303123 290.80624 43.0375 290.47812Q42.771873 290.13437 42.38125 290.13437ZM42.38125 298.4625L47.084373 289.41562L47.94375 289.41562L43.25625 298.4625L42.38125 298.4625ZM46.1 296.13437Q46.1 295.2125 46.553123 294.57187Q47.021873 293.93124 47.9125 293.93124Q48.725 293.93124 49.25625 294.50937Q49.7875 295.07187 49.7875 296.19687Q49.7875 297.29062 49.240623 297.88437Q48.709373 298.4625 47.9125 298.4625Q47.146873 298.4625 46.615623 297.88437Q46.1 297.30624 46.1 296.13437ZM47.94375 294.65Q47.5375 294.65 47.271873 294.99374Q47.021873 295.3375 47.021873 296.24374Q47.021873 297.05624 47.2875 297.4Q47.553123 297.74374 47.94375 297.74374Q48.334373 297.74374 48.6 297.4Q48.865623 297.05624 48.865623 296.15Q48.865623 295.32187 48.6 294.99374Q48.334373 294.65 47.94375 294.65Z" fill-rule="nonzero"/><path stroke="#757575" stroke-width="1.0" stroke-linecap="butt" d="M15.85 285.65L124.63333 285.65L226.6686 291.21332" fill-rule="nonzero"/><path fill="#9e9e9e" d="M228.6686 291.21332C228.6686 290.10873 227.77316 289.21332 226.6686 289.21332C225.56403 289.21332 224.6686 290.10873 224.6686 291.21332C224.6686 292.3179 225.56403 293.21332 226.6686 293.21332C227.77316 293.21332 228.6686 292.3179 228.6686 291.21332" fill-rule="nonzero"/><path fill="#1a1a1a" d="M469.275 61.416668L469.275 52.822918L470.4 52.822918L470.4 61.416668L469.275 61.416668ZM478.2125 58.401043L479.3375 58.697918Q478.97812 60.088543 478.05624 60.822918Q477.13437 61.557293 475.79062 61.557293Q474.4 61.557293 473.525 60.994793Q472.65 60.432293 472.19687 59.369793Q471.74374 58.291668 471.74374 57.057293Q471.74374 55.713543 472.25937 54.713543Q472.775 53.713543 473.7125 53.197918Q474.66562 52.682293 475.80624 52.682293Q477.0875 52.682293 477.9625 53.338543Q478.85312 53.994793 479.19687 55.182293L478.07187 55.447918Q477.775 54.510418 477.19687 54.088543Q476.63437 53.651043 475.775 53.651043Q474.79062 53.651043 474.11874 54.135418Q473.4625 54.604168 473.18124 55.401043Q472.91562 56.197918 472.91562 57.057293Q472.91562 58.151043 473.22812 58.963543Q473.55624 59.776043 474.22812 60.182293Q474.9 60.588543 475.69687 60.588543Q476.65 60.588543 477.30624 60.041668Q477.97812 59.494793 478.2125 58.401043ZM480.69687 58.651043L481.75937 58.557293Q481.8375 59.213543 482.11874 59.619793Q482.4 60.026043 482.97812 60.291668Q483.57187 60.541668 484.30624 60.541668Q484.94687 60.541668 485.44687 60.354168Q485.94687 60.151043 486.18124 59.822918Q486.43124 59.479168 486.43124 59.088543Q486.43124 58.682293 486.19687 58.385418Q485.9625 58.072918 485.43124 57.869793Q485.07187 57.729168 483.88437 57.447918Q482.7125 57.166668 482.24374 56.916668Q481.61874 56.588543 481.32187 56.119793Q481.025 55.635418 481.025 55.041668Q481.025 54.401043 481.38437 53.838543Q481.75937 53.260418 482.4625 52.979168Q483.18124 52.682293 484.04062 52.682293Q484.99374 52.682293 485.72812 52.994793Q486.4625 53.291668 486.85312 53.901043Q487.24374 54.494793 487.275 55.244793L486.18124 55.322918Q486.0875 54.510418 485.57187 54.104168Q485.07187 53.682293 484.0875 53.682293Q483.05624 53.682293 482.5875 54.057293Q482.11874 54.432293 482.11874 54.963543Q482.11874 55.432293 482.44687 55.729168Q482.775 56.026043 484.15 56.338543Q485.54062 56.651043 486.05624 56.885418Q486.80624 57.244793 487.16562 57.776043Q487.525 58.291668 487.525 58.994793Q487.525 59.682293 487.13437 60.291668Q486.74374 60.885418 486.00937 61.229168Q485.275 61.557293 484.35312 61.557293Q483.18124 61.557293 482.38437 61.229168Q481.60312 60.885418 481.15 60.197918Q480.7125 59.510418 480.69687 58.651043ZM489.10312 61.416668L489.10312 52.822918L495.30624 52.822918L495.30624 53.838543L490.24374 53.838543L490.24374 56.463543L494.99374 56.463543L494.99374 57.479168L490.24374 57.479168L490.24374 60.401043L495.50937 60.401043L495.50937 61.416668L489.10312 61.416668Z" fill-rule="nonzero"/><path fill="#9e9e9e" d="M465.61874 78.416664L464.57187 78.416664L464.57187 71.697914Q464.18124 72.05729 463.55624 72.43229Q462.94687 72.791664 462.4625 72.96354L462.4625 71.947914Q463.3375 71.52604 463.99374 70.947914Q464.66562 70.354164 464.94687 69.791664L465.61874 69.791664L465.61874 78.416664ZM472.61874 78.416664L471.57187 78.416664L471.57187 71.697914Q471.18124 72.05729 470.55624 72.43229Q469.94687 72.791664 469.4625 72.96354L469.4625 71.947914Q470.3375 71.52604 470.99374 70.947914Q471.66562 70.354164 471.94687 69.791664L472.61874 69.791664L472.61874 78.416664ZM476.24374 78.416664L476.24374 77.21354L477.44687 77.21354L477.44687 78.416664L476.24374 78.416664ZM478.80624 76.43229L479.82187 76.33854Q479.94687 77.05729 480.30624 77.385414Q480.68124 77.697914 481.24374 77.697914Q481.72812 77.697914 482.0875 77.479164Q482.4625 77.24479 482.69687 76.885414Q482.93124 76.510414 483.0875 75.885414Q483.24374 75.24479 483.24374 74.58854Q483.24374 74.510414 483.24374 74.36979Q482.93124 74.86979 482.38437 75.197914Q481.8375 75.510414 481.19687 75.510414Q480.11874 75.510414 479.38437 74.74479Q478.65 73.96354 478.65 72.697914Q478.65 71.385414 479.41562 70.58854Q480.19687 69.791664 481.35312 69.791664Q482.18124 69.791664 482.86874 70.24479Q483.57187 70.697914 483.93124 71.541664Q484.29062 72.36979 484.29062 73.947914Q484.29062 75.58854 483.93124 76.572914Q483.5875 77.541664 482.86874 78.05729Q482.16562 78.55729 481.22812 78.55729Q480.2125 78.55729 479.57187 78.010414Q478.93124 77.447914 478.80624 76.43229ZM483.11874 72.635414Q483.11874 71.729164 482.63437 71.197914Q482.16562 70.666664 481.47812 70.666664Q480.775 70.666664 480.24374 71.24479Q479.72812 71.80729 479.72812 72.729164Q479.72812 73.541664 480.22812 74.05729Q480.72812 74.572914 481.44687 74.572914Q482.18124 74.572914 482.65 74.05729Q483.11874 73.541664 483.11874 72.635414ZM485.85312 71.885414Q485.85312 70.96354 486.30624 70.322914Q486.775 69.68229 487.65 69.68229Q488.4625 69.68229 488.99374 70.260414Q489.525 70.83854 489.525 71.947914Q489.525 73.041664 488.97812 73.635414Q488.44687 74.21354 487.66562 74.21354Q486.88437 74.21354 486.36874 73.635414Q485.85312 73.05729 485.85312 71.885414ZM487.68124 70.40104Q487.29062 70.40104 487.025 70.74479Q486.775 71.08854 486.775 71.99479Q486.775 72.822914 487.025 73.166664Q487.29062 73.49479 487.68124 73.49479Q488.0875 73.49479 488.3375 73.15104Q488.60312 72.80729 488.60312 71.916664Q488.60312 71.072914 488.3375 70.74479Q488.07187 70.40104 487.68124 70.40104ZM487.68124 78.729164L492.38437 69.68229L493.24374 69.68229L488.55624 78.729164L487.68124 78.729164ZM491.4 76.40104Q491.4 75.479164 491.85312 74.83854Q492.32187 74.197914 493.2125 74.197914Q494.025 74.197914 494.55624 74.77604Q495.0875 75.33854 495.0875 76.46354Q495.0875 77.55729 494.54062 78.15104Q494.00937 78.729164 493.2125 78.729164Q492.44687 78.729164 491.91562 78.15104Q491.4 77.572914 491.4 76.40104ZM493.24374 74.916664Q492.8375 74.916664 492.57187 75.260414Q492.32187 75.604164 492.32187 76.510414Q492.32187 77.322914 492.5875 77.666664Q492.85312 78.010414 493.24374 78.010414Q493.63437 78.010414 493.9 77.666664Q494.16562 77.322914 494.16562 76.416664Q494.16562 75.58854 493.9 75.260414Q493.63437 74.916664 493.24374 74.916664Z" fill-rule="nonzero"/><path stroke="#757575" stroke-width="1.0" stroke-linecap="butt" d="M496.15 65.916664L387.36667 65.916664L299.42938 64.88563" fill-rule="nonzero"/><path fill="#9e9e9e" d="M301.42938 64.88563C301.42938 63.78106 300.53397 62.885628 299.42938 62.885628C298.32483 62.885628 297.42938 63.78106 297.42938 64.88563C297.42938 65.9902 298.32483 66.88563 299.42938 66.88563C300.53397 66.88563 301.42938 65.9902 301.42938 64.88563" fill-rule="nonzero"/><path fill="#1a1a1a" d="M453.275 92.416664L453.275 83.822914L454.4 83.822914L454.4 92.416664L453.275 92.416664ZM462.2125 89.40104L463.3375 89.697914Q462.97812 91.08854 462.05624 91.822914Q461.13437 92.55729 459.79062 92.55729Q458.4 92.55729 457.525 91.99479Q456.65 91.43229 456.19687 90.36979Q455.74374 89.291664 455.74374 88.05729Q455.74374 86.71354 456.25937 85.71354Q456.775 84.71354 457.7125 84.197914Q458.66562 83.68229 459.80624 83.68229Q461.0875 83.68229 461.9625 84.33854Q462.85312 84.99479 463.19687 86.18229L462.07187 86.447914Q461.775 85.510414 461.19687 85.08854Q460.63437 84.65104 459.775 84.65104Q458.79062 84.65104 458.11874 85.135414Q457.4625 85.604164 457.18124 86.40104Q456.91562 87.197914 456.91562 88.05729Q456.91562 89.15104 457.22812 89.96354Q457.55624 90.77604 458.22812 91.18229Q458.9 91.58854 459.69687 91.58854Q460.65 91.58854 461.30624 91.041664Q461.97812 90.49479 462.2125 89.40104ZM464.69687 89.65104L465.75937 89.55729Q465.8375 90.21354 466.11874 90.61979Q466.4 91.02604 466.97812 91.291664Q467.57187 91.541664 468.30624 91.541664Q468.94687 91.541664 469.44687 91.354164Q469.94687 91.15104 470.18124 90.822914Q470.43124 90.479164 470.43124 90.08854Q470.43124 89.68229 470.19687 89.385414Q469.9625 89.072914 469.43124 88.86979Q469.07187 88.729164 467.88437 88.447914Q466.7125 88.166664 466.24374 87.916664Q465.61874 87.58854 465.32187 87.11979Q465.025 86.635414 465.025 86.041664Q465.025 85.40104 465.38437 84.83854Q465.75937 84.260414 466.4625 83.979164Q467.18124 83.68229 468.04062 83.68229Q468.99374 83.68229 469.72812 83.99479Q470.4625 84.291664 470.85312 84.90104Q471.24374 85.49479 471.275 86.24479L470.18124 86.322914Q470.0875 85.510414 469.57187 85.104164Q469.07187 84.68229 468.0875 84.68229Q467.05624 84.68229 466.5875 85.05729Q466.11874 85.43229 466.11874 85.96354Q466.11874 86.43229 466.44687 86.729164Q466.775 87.02604 468.15 87.33854Q469.54062 87.65104 470.05624 87.885414Q470.80624 88.24479 471.16562 88.77604Q471.525 89.291664 471.525 89.99479Q471.525 90.68229 471.13437 91.291664Q470.74374 91.885414 470.00937 92.229164Q469.275 92.55729 468.35312 92.55729Q467.18124 92.55729 466.38437 92.229164Q465.60312 91.885414 465.15 91.197914Q464.7125 90.510414 464.69687 89.65104ZM473.10312 92.416664L473.10312 83.822914L479.30624 83.822914L479.30624 84.83854L474.24374 84.83854L474.24374 87.46354L478.99374 87.46354L478.99374 88.479164L474.24374 88.479164L474.24374 91.40104L479.50937 91.40104L479.50937 92.416664L473.10312 92.416664ZM480.69687 89.65104L481.75937 89.55729Q481.8375 90.21354 482.11874 90.61979Q482.4 91.02604 482.97812 91.291664Q483.57187 91.541664 484.30624 91.541664Q484.94687 91.541664 485.44687 91.354164Q485.94687 91.15104 486.18124 90.822914Q486.43124 90.479164 486.43124 90.08854Q486.43124 89.68229 486.19687 89.385414Q485.9625 89.072914 485.43124 88.86979Q485.07187 88.729164 483.88437 88.447914Q482.7125 88.166664 482.24374 87.916664Q481.61874 87.58854 481.32187 87.11979Q481.025 86.635414 481.025 86.041664Q481.025 85.40104 481.38437 84.83854Q481.75937 84.260414 482.4625 83.979164Q483.18124 83.68229 484.04062 83.68229Q484.99374 83.68229 485.72812 83.99479Q486.4625 84.291664 486.85312 84.90104Q487.24374 85.49479 487.275 86.24479L486.18124 86.322914Q486.0875 85.510414 485.57187 85.104164Q485.07187 84.68229 484.0875 84.68229Q483.05624 84.68229 482.5875 85.05729Q482.11874 85.43229 482.11874 85.96354Q482.11874 86.43229 482.44687 86.729164Q482.775 87.02604 484.15 87.33854Q485.54062 87.65104 486.05624 87.885414Q486.80624 88.24479 487.16562 88.77604Q487.525 89.291664 487.525 89.99479Q487.525 90.68229 487.13437 91.291664Q486.74374 91.885414 486.00937 92.229164Q485.275 92.55729 484.35312 92.55729Q483.18124 92.55729 482.38437 92.229164Q481.60312 91.885414 481.15 91.197914Q480.7125 90.510414 480.69687 89.65104ZM488.69687 89.65104L489.75937 89.55729Q489.8375 90.21354 490.11874 90.61979Q490.4 91.02604 490.97812 91.291664Q491.57187 91.541664 492.30624 91.541664Q492.94687 91.541664 493.44687 91.354164Q493.94687 91.15104 494.18124 90.822914Q494.43124 90.479164 494.43124 90.08854Q494.43124 89.68229 494.19687 89.385414Q493.9625 89.072914 493.43124 88.86979Q493.07187 88.729164 491.88437 88.447914Q490.7125 88.166664 490.24374 87.916664Q489.61874 87.58854 489.32187 87.11979Q489.025 86.635414 489.025 86.041664Q489.025 85.40104 489.38437 84.83854Q489.75937 84.260414 490.4625 83.979164Q491.18124 83.68229 492.04062 83.68229Q492.99374 83.68229 493.72812 83.99479Q494.4625 84.291664 494.85312 84.90104Q495.24374 85.49479 495.275 86.24479L494.18124 86.322914Q494.0875 85.510414 493.57187 85.104164Q493.07187 84.68229 492.0875 84.68229Q491.05624 84.68229 490.5875 85.05729Q490.11874 85.43229 490.11874 85.96354Q490.11874 86.43229 490.44687 86.729164Q490.775 87.02604 492.15 87.33854Q493.54062 87.65104 494.05624 87.885414Q494.80624 88.24479 495.16562 88.77604Q495.525 89.291664 495.525 89.99479Q495.525 90.68229 495.13437 91.291664Q494.74374 91.885414 494.00937 92.229164Q493.275 92.55729 492.35312 92.55729Q491.18124 92.55729 490.38437 92.229164Q489.60312 91.885414 489.15 91.197914Q488.7125 90.510414 488.69687 89.65104Z" fill-rule="nonzero"/><path fill="#9e9e9e" d="M472.61874 109.416664L471.57187 109.416664L471.57187 102.697914Q471.18124 103.05729 470.55624 103.43229Q469.94687 103.791664 469.4625 103.96354L469.4625 102.947914Q470.3375 102.52604 470.99374 101.947914Q471.66562 101.354164 471.94687 100.791664L472.61874 100.791664L472.61874 109.416664ZM476.24374 109.416664L476.24374 108.21354L477.44687 108.21354L477.44687 109.416664L476.24374 109.416664ZM478.65 105.18229Q478.65 103.65104 478.9625 102.729164Q479.275 101.791664 479.88437 101.291664Q480.50937 100.791664 481.44687 100.791664Q482.13437 100.791664 482.65 101.072914Q483.18124 101.354164 483.525 101.885414Q483.86874 102.40104 484.05624 103.15104Q484.24374 103.90104 484.24374 105.18229Q484.24374 106.697914 483.93124 107.61979Q483.63437 108.541664 483.00937 109.05729Q482.4 109.55729 481.44687 109.55729Q480.2125 109.55729 479.49374 108.666664Q478.65 107.604164 478.65 105.18229ZM479.72812 105.18229Q479.72812 107.291664 480.22812 107.99479Q480.72812 108.697914 481.44687 108.697914Q482.18124 108.697914 482.66562 107.99479Q483.16562 107.291664 483.16562 105.18229Q483.16562 103.05729 482.66562 102.36979Q482.18124 101.666664 481.43124 101.666664Q480.7125 101.666664 480.275 102.27604Q479.72812 103.05729 479.72812 105.18229ZM485.85312 102.885414Q485.85312 101.96354 486.30624 101.322914Q486.775 100.68229 487.65 100.68229Q488.4625 100.68229 488.99374 101.260414Q489.525 101.83854 489.525 102.947914Q489.525 104.041664 488.97812 104.635414Q488.44687 105.21354 487.66562 105.21354Q486.88437 105.21354 486.36874 104.635414Q485.85312 104.05729 485.85312 102.885414ZM487.68124 101.40104Q487.29062 101.40104 487.025 101.74479Q486.775 102.08854 486.775 102.99479Q486.775 103.822914 487.025 104.166664Q487.29062 104.49479 487.68124 104.49479Q488.0875 104.49479 488.3375 104.15104Q488.60312 103.80729 488.60312 102.916664Q488.60312 102.072914 488.3375 101.74479Q488.07187 101.40104 487.68124 101.40104ZM487.68124 109.729164L492.38437 100.68229L493.24374 100.68229L488.55624 109.729164L487.68124 109.729164ZM491.4 107.40104Q491.4 106.479164 491.85312 105.83854Q492.32187 105.197914 493.2125 105.197914Q494.025 105.197914 494.55624 105.77604Q495.0875 106.33854 495.0875 107.46354Q495.0875 108.55729 494.54062 109.15104Q494.00937 109.729164 493.2125 109.729164Q492.44687 109.729164 491.91562 109.15104Q491.4 108.572914 491.4 107.40104ZM493.24374 105.916664Q492.8375 105.916664 492.57187 106.260414Q492.32187 106.604164 492.32187 107.510414Q492.32187 108.322914 492.5875 108.666664Q492.85312 109.010414 493.24374 109.010414Q493.63437 109.010414 493.9 108.666664Q494.16562 108.322914 494.16562 107.416664Q494.16562 106.58854 493.9 106.260414Q493.63437 105.916664 493.24374 105.916664Z" fill-rule="nonzero"/><path stroke="#757575" stroke-width="1.0" stroke-linecap="butt" d="M496.15 96.916664L387.36667 96.916664L339.55783 90.91577" fill-rule="nonzero"/><path fill="#9e9e9e" d="M341.55783 90.91577C341.55783 89.8112 340.66238 88.91577 339.55783 88.91577C338.45325 88.91577 337.55783 89.8112 337.55783 90.91577C337.55783 92.02034 338.45325 92.91577 339.55783 92.91577C340.66238 92.91577 341.55783 92.02034 341.55783 90.91577" fill-rule="nonzero"/><path fill="#1a1a1a" d="M476.25937 123.416664L476.25937 115.83854L473.43124 115.83854L473.43124 114.822914L480.24374 114.822914L480.24374 115.83854L477.4 115.83854L477.4 123.416664L476.25937 123.416664ZM480.69687 120.65104L481.75937 120.55729Q481.8375 121.21354 482.11874 121.61979Q482.4 122.02604 482.97812 122.291664Q483.57187 122.541664 484.30624 122.541664Q484.94687 122.541664 485.44687 122.354164Q485.94687 122.15104 486.18124 121.822914Q486.43124 121.479164 486.43124 121.08854Q486.43124 120.68229 486.19687 120.385414Q485.9625 120.072914 485.43124 119.86979Q485.07187 119.729164 483.88437 119.447914Q482.7125 119.166664 482.24374 118.916664Q481.61874 118.58854 481.32187 118.11979Q481.025 117.635414 481.025 117.041664Q481.025 116.40104 481.38437 115.83854Q481.75937 115.260414 482.4625 114.979164Q483.18124 114.68229 484.04062 114.68229Q484.99374 114.68229 485.72812 114.99479Q486.4625 115.291664 486.85312 115.90104Q487.24374 116.49479 487.275 117.24479L486.18124 117.322914Q486.0875 116.510414 485.57187 116.104164Q485.07187 115.68229 484.0875 115.68229Q483.05624 115.68229 482.5875 116.05729Q482.11874 116.43229 482.11874 116.96354Q482.11874 117.43229 482.44687 117.729164Q482.775 118.02604 484.15 118.33854Q485.54062 118.65104 486.05624 118.885414Q486.80624 119.24479 487.16562 119.77604Q487.525 120.291664 487.525 120.99479Q487.525 121.68229 487.13437 122.291664Q486.74374 122.885414 486.00937 123.229164Q485.275 123.55729 484.35312 123.55729Q483.18124 123.55729 482.38437 123.229164Q481.60312 122.885414 481.15 122.197914Q480.7125 121.510414 480.69687 120.65104ZM489.10312 123.416664L489.10312 114.822914L495.30624 114.822914L495.30624 115.83854L490.24374 115.83854L490.24374 118.46354L494.99374 118.46354L494.99374 119.479164L490.24374 119.479164L490.24374 122.40104L495.50937 122.40104L495.50937 123.416664L489.10312 123.416664Z" fill-rule="nonzero"/><path fill="#9e9e9e" d="M468.7125 132.94792L468.7125 131.9323L474.275 131.9323L474.275 132.76042Q473.4625 133.63542 472.65 135.08855Q471.85312 136.52605 471.41562 138.0573Q471.0875 139.13542 471.00937 140.41667L469.91562 140.41667Q469.93124 139.40105 470.30624 137.96355Q470.69687 136.52605 471.4 135.19792Q472.11874 133.8698 472.93124 132.94792L468.7125 132.94792ZM476.24374 140.41667L476.24374 139.21355L477.44687 139.21355L477.44687 140.41667L476.24374 140.41667ZM478.80624 138.4323L479.82187 138.33855Q479.94687 139.0573 480.30624 139.38542Q480.68124 139.69792 481.24374 139.69792Q481.72812 139.69792 482.0875 139.47917Q482.4625 139.2448 482.69687 138.88542Q482.93124 138.51042 483.0875 137.88542Q483.24374 137.2448 483.24374 136.58855Q483.24374 136.51042 483.24374 136.3698Q482.93124 136.8698 482.38437 137.19792Q481.8375 137.51042 481.19687 137.51042Q480.11874 137.51042 479.38437 136.7448Q478.65 135.96355 478.65 134.69792Q478.65 133.38542 479.41562 132.58855Q480.19687 131.79167 481.35312 131.79167Q482.18124 131.79167 482.86874 132.2448Q483.57187 132.69792 483.93124 133.54167Q484.29062 134.3698 484.29062 135.94792Q484.29062 137.58855 483.93124 138.57292Q483.5875 139.54167 482.86874 140.0573Q482.16562 140.5573 481.22812 140.5573Q480.2125 140.5573 479.57187 140.01042Q478.93124 139.44792 478.80624 138.4323ZM483.11874 134.63542Q483.11874 133.72917 482.63437 133.19792Q482.16562 132.66667 481.47812 132.66667Q480.775 132.66667 480.24374 133.2448Q479.72812 133.8073 479.72812 134.72917Q479.72812 135.54167 480.22812 136.0573Q480.72812 136.57292 481.44687 136.57292Q482.18124 136.57292 482.65 136.0573Q483.11874 135.54167 483.11874 134.63542ZM485.85312 133.88542Q485.85312 132.96355 486.30624 132.32292Q486.775 131.6823 487.65 131.6823Q488.4625 131.6823 488.99374 132.26042Q489.525 132.83855 489.525 133.94792Q489.525 135.04167 488.97812 135.63542Q488.44687 136.21355 487.66562 136.21355Q486.88437 136.21355 486.36874 135.63542Q485.85312 135.0573 485.85312 133.88542ZM487.68124 132.40105Q487.29062 132.40105 487.025 132.7448Q486.775 133.08855 486.775 133.9948Q486.775 134.82292 487.025 135.16667Q487.29062 135.4948 487.68124 135.4948Q488.0875 135.4948 488.3375 135.15105Q488.60312 134.8073 488.60312 133.91667Q488.60312 133.07292 488.3375 132.7448Q488.07187 132.40105 487.68124 132.40105ZM487.68124 140.72917L492.38437 131.6823L493.24374 131.6823L488.55624 140.72917L487.68124 140.72917ZM491.4 138.40105Q491.4 137.47917 491.85312 136.83855Q492.32187 136.19792 493.2125 136.19792Q494.025 136.19792 494.55624 136.77605Q495.0875 137.33855 495.0875 138.46355Q495.0875 139.5573 494.54062 140.15105Q494.00937 140.72917 493.2125 140.72917Q492.44687 140.72917 491.91562 140.15105Q491.4 139.57292 491.4 138.40105ZM493.24374 136.91667Q492.8375 136.91667 492.57187 137.26042Q492.32187 137.60417 492.32187 138.51042Q492.32187 139.32292 492.5875 139.66667Q492.85312 140.01042 493.24374 140.01042Q493.63437 140.01042 493.9 139.66667Q494.16562 139.32292 494.16562 138.41667Q494.16562 137.58855 493.9 137.26042Q493.63437 136.91667 493.24374 136.91667Z" fill-rule="nonzero"/><path stroke="#757575" stroke-width="1.0" stroke-linecap="butt" d="M496.15 127.916664L387.36667 127.916664L359.75406 117.306755" fill-rule="nonzero"/><path fill="#9e9e9e" d="M361.75406 117.306755C361.75406 116.20219 360.8586 115.306755 359.75406 115.306755C358.64948 115.306755 357.75406 116.20219 357.75406 117.306755C357.75406 118.41132 358.64948 119.306755 359.75406 119.306755C360.8586 119.306755 361.75406 118.41132 361.75406 117.306755" fill-rule="nonzero"/><path fill="#1a1a1a" d="M470.04062 162.03131L470.04062 153.43756L471.75937 153.43756L473.79062 159.51569Q474.07187 160.37506 474.19687 160.79694Q474.3375 160.32819 474.65 159.42194L476.7125 153.43756L478.24374 153.43756L478.24374 162.03131L477.15 162.03131L477.15 154.84381L474.65 162.03131L473.61874 162.03131L471.13437 154.71881L471.13437 162.03131L470.04062 162.03131ZM479.69687 159.26569L480.75937 159.17194Q480.8375 159.82819 481.11874 160.23444Q481.4 160.64069 481.97812 160.90631Q482.57187 161.15631 483.30624 161.15631Q483.94687 161.15631 484.44687 160.96881Q484.94687 160.76569 485.18124 160.43756Q485.43124 160.09381 485.43124 159.70319Q485.43124 159.29694 485.19687 159.00006Q484.9625 158.68756 484.43124 158.48444Q484.07187 158.34381 482.88437 158.06256Q481.7125 157.78131 481.24374 157.53131Q480.61874 157.20319 480.32187 156.73444Q480.025 156.25006 480.025 155.65631Q480.025 155.01569 480.38437 154.45319Q480.75937 153.87506 481.4625 153.59381Q482.18124 153.29694 483.04062 153.29694Q483.99374 153.29694 484.72812 153.60944Q485.4625 153.90631 485.85312 154.51569Q486.24374 155.10944 486.275 155.85944L485.18124 155.93756Q485.0875 155.12506 484.57187 154.71881Q484.07187 154.29694 483.0875 154.29694Q482.05624 154.29694 481.5875 154.67194Q481.11874 155.04694 481.11874 155.57819Q481.11874 156.04694 481.44687 156.34381Q481.775 156.64069 483.15 156.95319Q484.54062 157.26569 485.05624 157.50006Q485.80624 157.85944 486.16562 158.39069Q486.525 158.90631 486.525 159.60944Q486.525 160.29694 486.13437 160.90631Q485.74374 161.50006 485.00937 161.84381Q484.275 162.17194 483.35312 162.17194Q482.18124 162.17194 481.38437 161.84381Q480.60312 161.50006 480.15 160.81256Q479.7125 160.12506 479.69687 159.26569ZM488.0875 162.03131L488.0875 153.43756L491.9 153.43756Q493.05624 153.43756 493.65 153.67194Q494.24374 153.90631 494.60312 154.50006Q494.9625 155.07819 494.9625 155.78131Q494.9625 156.70319 494.36874 157.32819Q493.775 157.95319 492.54062 158.12506Q492.99374 158.34381 493.22812 158.54694Q493.72812 159.00006 494.16562 159.68756L495.66562 162.03131L494.22812 162.03131L493.10312 160.25006Q492.60312 159.46881 492.275 159.06256Q491.9625 158.65631 491.69687 158.50006Q491.44687 158.32819 491.18124 158.25006Q490.99374 158.21881 490.55624 158.21881L489.22812 158.21881L489.22812 162.03131L488.0875 162.03131ZM489.22812 157.23444L491.68124 157.23444Q492.44687 157.23444 492.88437 157.07819Q493.3375 156.90631 493.55624 156.56256Q493.79062 156.20319 493.79062 155.78131Q493.79062 155.17194 493.3375 154.78131Q492.9 154.39069 491.94687 154.39069L489.22812 154.39069L489.22812 157.23444Z" fill-rule="nonzero"/><path fill="#9e9e9e" d="M468.65 176.78131L469.75937 176.68756Q469.88437 177.50006 470.32187 177.90631Q470.775 178.31256 471.41562 178.31256Q472.16562 178.31256 472.69687 177.73444Q473.22812 177.15631 473.22812 176.21881Q473.22812 175.31256 472.7125 174.79694Q472.2125 174.26569 471.38437 174.26569Q470.88437 174.26569 470.4625 174.50006Q470.05624 174.73444 469.82187 175.09381L468.8375 174.96881L469.66562 170.56256L473.94687 170.56256L473.94687 171.56256L470.50937 171.56256L470.05624 173.87506Q470.82187 173.32819 471.66562 173.32819Q472.79062 173.32819 473.55624 174.10944Q474.3375 174.89069 474.3375 176.12506Q474.3375 177.28131 473.66562 178.14069Q472.8375 179.17194 471.41562 179.17194Q470.24374 179.17194 469.49374 178.51569Q468.75937 177.85944 468.65 176.78131ZM476.24374 179.03131L476.24374 177.82819L477.44687 177.82819L477.44687 179.03131L476.24374 179.03131ZM478.80624 177.04694L479.82187 176.95319Q479.94687 177.67194 480.30624 178.00006Q480.68124 178.31256 481.24374 178.31256Q481.72812 178.31256 482.0875 178.09381Q482.4625 177.85944 482.69687 177.50006Q482.93124 177.12506 483.0875 176.50006Q483.24374 175.85944 483.24374 175.20319Q483.24374 175.12506 483.24374 174.98444Q482.93124 175.48444 482.38437 175.81256Q481.8375 176.12506 481.19687 176.12506Q480.11874 176.12506 479.38437 175.35944Q478.65 174.57819 478.65 173.31256Q478.65 172.00006 479.41562 171.20319Q480.19687 170.40631 481.35312 170.40631Q482.18124 170.40631 482.86874 170.85944Q483.57187 171.31256 483.93124 172.15631Q484.29062 172.98444 484.29062 174.56256Q484.29062 176.20319 483.93124 177.18756Q483.5875 178.15631 482.86874 178.67194Q482.16562 179.17194 481.22812 179.17194Q480.2125 179.17194 479.57187 178.62506Q478.93124 178.06256 478.80624 177.04694ZM483.11874 173.25006Q483.11874 172.34381 482.63437 171.81256Q482.16562 171.28131 481.47812 171.28131Q480.775 171.28131 480.24374 171.85944Q479.72812 172.42194 479.72812 173.34381Q479.72812 174.15631 480.22812 174.67194Q480.72812 175.18756 481.44687 175.18756Q482.18124 175.18756 482.65 174.67194Q483.11874 174.15631 483.11874 173.25006ZM485.85312 172.50006Q485.85312 171.57819 486.30624 170.93756Q486.775 170.29694 487.65 170.29694Q488.4625 170.29694 488.99374 170.87506Q489.525 171.45319 489.525 172.56256Q489.525 173.65631 488.97812 174.25006Q488.44687 174.82819 487.66562 174.82819Q486.88437 174.82819 486.36874 174.25006Q485.85312 173.67194 485.85312 172.50006ZM487.68124 171.01569Q487.29062 171.01569 487.025 171.35944Q486.775 171.70319 486.775 172.60944Q486.775 173.43756 487.025 173.78131Q487.29062 174.10944 487.68124 174.10944Q488.0875 174.10944 488.3375 173.76569Q488.60312 173.42194 488.60312 172.53131Q488.60312 171.68756 488.3375 171.35944Q488.07187 171.01569 487.68124 171.01569ZM487.68124 179.34381L492.38437 170.29694L493.24374 170.29694L488.55624 179.34381L487.68124 179.34381ZM491.4 177.01569Q491.4 176.09381 491.85312 175.45319Q492.32187 174.81256 493.2125 174.81256Q494.025 174.81256 494.55624 175.39069Q495.0875 175.95319 495.0875 177.07819Q495.0875 178.17194 494.54062 178.76569Q494.00937 179.34381 493.2125 179.34381Q492.44687 179.34381 491.91562 178.76569Q491.4 178.18756 491.4 177.01569ZM493.24374 175.53131Q492.8375 175.53131 492.57187 175.87506Q492.32187 176.21881 492.32187 177.12506Q492.32187 177.93756 492.5875 178.28131Q492.85312 178.62506 493.24374 178.62506Q493.63437 178.62506 493.9 178.28131Q494.16562 177.93756 494.16562 177.03131Q494.16562 176.20319 493.9 175.87506Q493.63437 175.53131 493.24374 175.53131Z" fill-rule="nonzero"/><path stroke="#757575" stroke-width="1.0" stroke-linecap="butt" d="M496.15 166.53131L387.36667 166.53131L374.73843 166.53131" fill-rule="nonzero"/><path fill="#9e9e9e" d="M376.73843 166.53131C376.73843 165.42674 375.843 164.53131 374.73843 164.53131C373.63385 164.53131 372.73843 165.42674 372.73843 166.53131C372.73843 167.63588 373.63385 168.53131 374.73843 168.53131C375.843 168.53131 376.73843 167.63588 376.73843 166.53131" fill-rule="nonzero"/><path fill="#1a1a1a" d="M459.275 198.81606L459.275 190.2223L460.4 190.2223L460.4 198.81606L459.275 198.81606ZM468.2125 195.80043L469.3375 196.0973Q468.97812 197.48793 468.05624 198.2223Q467.13437 198.95668 465.79062 198.95668Q464.4 198.95668 463.525 198.39418Q462.65 197.83168 462.19687 196.76918Q461.74374 195.69106 461.74374 194.45668Q461.74374 193.11293 462.25937 192.11293Q462.775 191.11293 463.7125 190.5973Q464.66562 190.08168 465.80624 190.08168Q467.0875 190.08168 467.9625 190.73793Q468.85312 191.39418 469.19687 192.58168L468.07187 192.8473Q467.775 191.9098 467.19687 191.48793Q466.63437 191.05043 465.775 191.05043Q464.79062 191.05043 464.11874 191.5348Q463.4625 192.00356 463.18124 192.80043Q462.91562 193.5973 462.91562 194.45668Q462.91562 195.55043 463.22812 196.36293Q463.55624 197.17543 464.22812 197.58168Q464.9 197.98793 465.69687 197.98793Q466.65 197.98793 467.30624 197.44106Q467.97812 196.89418 468.2125 195.80043ZM470.69687 196.05043L471.75937 195.95668Q471.8375 196.61293 472.11874 197.01918Q472.4 197.42543 472.97812 197.69106Q473.57187 197.94106 474.30624 197.94106Q474.94687 197.94106 475.44687 197.75356Q475.94687 197.55043 476.18124 197.2223Q476.43124 196.87856 476.43124 196.48793Q476.43124 196.08168 476.19687 195.7848Q475.9625 195.4723 475.43124 195.26918Q475.07187 195.12856 473.88437 194.8473Q472.7125 194.56606 472.24374 194.31606Q471.61874 193.98793 471.32187 193.51918Q471.025 193.0348 471.025 192.44106Q471.025 191.80043 471.38437 191.23793Q471.75937 190.6598 472.4625 190.37856Q473.18124 190.08168 474.04062 190.08168Q474.99374 190.08168 475.72812 190.39418Q476.4625 190.69106 476.85312 191.30043Q477.24374 191.89418 477.275 192.64418L476.18124 192.7223Q476.0875 191.9098 475.57187 191.50356Q475.07187 191.08168 474.0875 191.08168Q473.05624 191.08168 472.5875 191.45668Q472.11874 191.83168 472.11874 192.36293Q472.11874 192.83168 472.44687 193.12856Q472.775 193.42543 474.15 193.73793Q475.54062 194.05043 476.05624 194.2848Q476.80624 194.64418 477.16562 195.17543Q477.525 195.69106 477.525 196.39418Q477.525 197.08168 477.13437 197.69106Q476.74374 198.2848 476.00937 198.62856Q475.275 198.95668 474.35312 198.95668Q473.18124 198.95668 472.38437 198.62856Q471.60312 198.2848 471.15 197.5973Q470.7125 196.9098 470.69687 196.05043ZM479.04062 198.81606L479.04062 190.2223L480.75937 190.2223L482.79062 196.30043Q483.07187 197.1598 483.19687 197.58168Q483.3375 197.11293 483.65 196.20668L485.7125 190.2223L487.24374 190.2223L487.24374 198.81606L486.15 198.81606L486.15 191.62856L483.65 198.81606L482.61874 198.81606L480.13437 191.50356L480.13437 198.81606L479.04062 198.81606ZM489.10312 198.81606L489.10312 190.2223L495.30624 190.2223L495.30624 191.23793L490.24374 191.23793L490.24374 193.86293L494.99374 193.86293L494.99374 194.87856L490.24374 194.87856L490.24374 197.80043L495.50937 197.80043L495.50937 198.81606L489.10312 198.81606Z" fill-rule="nonzero"/><path fill="#9e9e9e" d="M472.025 215.81606L472.025 213.75356L468.30624 213.75356L468.30624 212.7848L472.22812 207.2223L473.0875 207.2223L473.0875 212.7848L474.24374 212.7848L474.24374 213.75356L473.0875 213.75356L473.0875 215.81606L472.025 215.81606ZM472.025 212.7848L472.025 208.92543L469.3375 212.7848L472.025 212.7848ZM476.24374 215.81606L476.24374 214.61293L477.44687 214.61293L477.44687 215.81606L476.24374 215.81606ZM478.65 211.58168Q478.65 210.05043 478.9625 209.12856Q479.275 208.19106 479.88437 207.69106Q480.50937 207.19106 481.44687 207.19106Q482.13437 207.19106 482.65 207.4723Q483.18124 207.75356 483.525 208.2848Q483.86874 208.80043 484.05624 209.55043Q484.24374 210.30043 484.24374 211.58168Q484.24374 213.0973 483.93124 214.01918Q483.63437 214.94106 483.00937 215.45668Q482.4 215.95668 481.44687 215.95668Q480.2125 215.95668 479.49374 215.06606Q478.65 214.00356 478.65 211.58168ZM479.72812 211.58168Q479.72812 213.69106 480.22812 214.39418Q480.72812 215.0973 481.44687 215.0973Q482.18124 215.0973 482.66562 214.39418Q483.16562 213.69106 483.16562 211.58168Q483.16562 209.45668 482.66562 208.76918Q482.18124 208.06606 481.43124 208.06606Q480.7125 208.06606 480.275 208.67543Q479.72812 209.45668 479.72812 211.58168ZM485.85312 209.2848Q485.85312 208.36293 486.30624 207.7223Q486.775 207.08168 487.65 207.08168Q488.4625 207.08168 488.99374 207.6598Q489.525 208.23793 489.525 209.3473Q489.525 210.44106 488.97812 211.0348Q488.44687 211.61293 487.66562 211.61293Q486.88437 211.61293 486.36874 211.0348Q485.85312 210.45668 485.85312 209.2848ZM487.68124 207.80043Q487.29062 207.80043 487.025 208.14418Q486.775 208.48793 486.775 209.39418Q486.775 210.2223 487.025 210.56606Q487.29062 210.89418 487.68124 210.89418Q488.0875 210.89418 488.3375 210.55043Q488.60312 210.20668 488.60312 209.31606Q488.60312 208.4723 488.3375 208.14418Q488.07187 207.80043 487.68124 207.80043ZM487.68124 216.12856L492.38437 207.08168L493.24374 207.08168L488.55624 216.12856L487.68124 216.12856ZM491.4 213.80043Q491.4 212.87856 491.85312 212.23793Q492.32187 211.5973 493.2125 211.5973Q494.025 211.5973 494.55624 212.17543Q495.0875 212.73793 495.0875 213.86293Q495.0875 214.95668 494.54062 215.55043Q494.00937 216.12856 493.2125 216.12856Q492.44687 216.12856 491.91562 215.55043Q491.4 214.9723 491.4 213.80043ZM493.24374 212.31606Q492.8375 212.31606 492.57187 212.6598Q492.32187 213.00356 492.32187 213.9098Q492.32187 214.7223 492.5875 215.06606Q492.85312 215.4098 493.24374 215.4098Q493.63437 215.4098 493.9 215.06606Q494.16562 214.7223 494.16562 213.81606Q494.16562 212.98793 493.9 212.6598Q493.63437 212.31606 493.24374 212.31606Z" fill-rule="nonzero"/><path stroke="#757575" stroke-width="1.0" stroke-linecap="butt" d="M496.15 203.31606L387.36667 203.31606L371.8722 203.31606" fill-rule="nonzero"/><path fill="#9e9e9e" d="M373.8722 203.31606C373.8722 202.21147 372.97675 201.31606 371.8722 201.31606C370.7676 201.31606 369.8722 202.21147 369.8722 203.31606C369.8722 204.42062 370.7676 205.31606 371.8722 205.31606C372.97675 205.31606 373.8722 204.42062 373.8722 203.31606" fill-rule="nonzero"/><path fill="#1a1a1a" d="M472.13437 250.15L475.43124 241.55624L476.65 241.55624L480.16562 250.15L478.88437 250.15L477.86874 247.54062L474.29062 247.54062L473.3375 250.15L472.13437 250.15ZM474.61874 246.61874L477.525 246.61874L476.63437 244.24374Q476.2125 243.16562 476.025 242.4625Q475.85312 243.29062 475.55624 244.10312L474.61874 246.61874ZM480.69687 247.38437L481.75937 247.29062Q481.8375 247.94687 482.11874 248.35312Q482.4 248.75937 482.97812 249.025Q483.57187 249.275 484.30624 249.275Q484.94687 249.275 485.44687 249.0875Q485.94687 248.88437 486.18124 248.55624Q486.43124 248.2125 486.43124 247.82187Q486.43124 247.41562 486.19687 247.11874Q485.9625 246.80624 485.43124 246.60312Q485.07187 246.4625 483.88437 246.18124Q482.7125 245.9 482.24374 245.65Q481.61874 245.32187 481.32187 244.85312Q481.025 244.36874 481.025 243.775Q481.025 243.13437 481.38437 242.57187Q481.75937 241.99374 482.4625 241.7125Q483.18124 241.41562 484.04062 241.41562Q484.99374 241.41562 485.72812 241.72812Q486.4625 242.025 486.85312 242.63437Q487.24374 243.22812 487.275 243.97812L486.18124 244.05624Q486.0875 243.24374 485.57187 242.8375Q485.07187 242.41562 484.0875 242.41562Q483.05624 242.41562 482.5875 242.79062Q482.11874 243.16562 482.11874 243.69687Q482.11874 244.16562 482.44687 244.4625Q482.775 244.75937 484.15 245.07187Q485.54062 245.38437 486.05624 245.61874Q486.80624 245.97812 487.16562 246.50937Q487.525 247.025 487.525 247.72812Q487.525 248.41562 487.13437 249.025Q486.74374 249.61874 486.00937 249.9625Q485.275 250.29062 484.35312 250.29062Q483.18124 250.29062 482.38437 249.9625Q481.60312 249.61874 481.15 248.93124Q480.7125 248.24374 480.69687 247.38437ZM489.10312 250.15L489.10312 241.55624L495.30624 241.55624L495.30624 242.57187L490.24374 242.57187L490.24374 245.19687L494.99374 245.19687L494.99374 246.2125L490.24374 246.2125L490.24374 249.13437L495.50937 249.13437L495.50937 250.15L489.10312 250.15Z" fill-rule="nonzero"/><path fill="#9e9e9e" d="M465.61874 267.15L464.57187 267.15L464.57187 260.43124Q464.18124 260.79062 463.55624 261.16562Q462.94687 261.525 462.4625 261.69687L462.4625 260.68124Q463.3375 260.25937 463.99374 259.68124Q464.66562 259.0875 464.94687 258.525L465.61874 258.525L465.61874 267.15ZM468.65 264.88437L469.7125 264.74374Q469.88437 265.63437 470.32187 266.04062Q470.75937 266.43124 471.38437 266.43124Q472.13437 266.43124 472.65 265.91562Q473.16562 265.4 473.16562 264.63437Q473.16562 263.91562 472.68124 263.44687Q472.2125 262.9625 471.47812 262.9625Q471.18124 262.9625 470.72812 263.0875L470.85312 262.15Q470.9625 262.16562 471.025 262.16562Q471.69687 262.16562 472.22812 261.82187Q472.775 261.4625 472.775 260.72812Q472.775 260.15 472.38437 259.775Q471.99374 259.38437 471.36874 259.38437Q470.75937 259.38437 470.3375 259.775Q469.93124 260.16562 469.82187 260.93124L468.75937 260.74374Q468.94687 259.69687 469.63437 259.11874Q470.32187 258.525 471.3375 258.525Q472.04062 258.525 472.63437 258.8375Q473.22812 259.13437 473.54062 259.65Q473.85312 260.16562 473.85312 260.75937Q473.85312 261.30624 473.55624 261.775Q473.25937 262.22812 472.68124 262.49374Q473.43124 262.66562 473.85312 263.22812Q474.275 263.775 474.275 264.61874Q474.275 265.74374 473.44687 266.525Q472.63437 267.30624 471.38437 267.30624Q470.25937 267.30624 469.50937 266.63437Q468.75937 265.94687 468.65 264.88437ZM476.24374 267.15L476.24374 265.94687L477.44687 265.94687L477.44687 267.15L476.24374 267.15ZM478.80624 265.16562L479.82187 265.07187Q479.94687 265.79062 480.30624 266.11874Q480.68124 266.43124 481.24374 266.43124Q481.72812 266.43124 482.0875 266.2125Q482.4625 265.97812 482.69687 265.61874Q482.93124 265.24374 483.0875 264.61874Q483.24374 263.97812 483.24374 263.32187Q483.24374 263.24374 483.24374 263.10312Q482.93124 263.60312 482.38437 263.93124Q481.8375 264.24374 481.19687 264.24374Q480.11874 264.24374 479.38437 263.47812Q478.65 262.69687 478.65 261.43124Q478.65 260.11874 479.41562 259.32187Q480.19687 258.525 481.35312 258.525Q482.18124 258.525 482.86874 258.97812Q483.57187 259.43124 483.93124 260.275Q484.29062 261.10312 484.29062 262.68124Q484.29062 264.32187 483.93124 265.30624Q483.5875 266.275 482.86874 266.79062Q482.16562 267.29062 481.22812 267.29062Q480.2125 267.29062 479.57187 266.74374Q478.93124 266.18124 478.80624 265.16562ZM483.11874 261.36874Q483.11874 260.4625 482.63437 259.93124Q482.16562 259.4 481.47812 259.4Q480.775 259.4 480.24374 259.97812Q479.72812 260.54062 479.72812 261.4625Q479.72812 262.275 480.22812 262.79062Q480.72812 263.30624 481.44687 263.30624Q482.18124 263.30624 482.65 262.79062Q483.11874 262.275 483.11874 261.36874ZM485.85312 260.61874Q485.85312 259.69687 486.30624 259.05624Q486.775 258.41562 487.65 258.41562Q488.4625 258.41562 488.99374 258.99374Q489.525 259.57187 489.525 260.68124Q489.525 261.775 488.97812 262.36874Q488.44687 262.94687 487.66562 262.94687Q486.88437 262.94687 486.36874 262.36874Q485.85312 261.79062 485.85312 260.61874ZM487.68124 259.13437Q487.29062 259.13437 487.025 259.47812Q486.775 259.82187 486.775 260.72812Q486.775 261.55624 487.025 261.9Q487.29062 262.22812 487.68124 262.22812Q488.0875 262.22812 488.3375 261.88437Q488.60312 261.54062 488.60312 260.65Q488.60312 259.80624 488.3375 259.47812Q488.07187 259.13437 487.68124 259.13437ZM487.68124 267.4625L492.38437 258.41562L493.24374 258.41562L488.55624 267.4625L487.68124 267.4625ZM491.4 265.13437Q491.4 264.2125 491.85312 263.57187Q492.32187 262.93124 493.2125 262.93124Q494.025 262.93124 494.55624 263.50937Q495.0875 264.07187 495.0875 265.19687Q495.0875 266.29062 494.54062 266.88437Q494.00937 267.4625 493.2125 267.4625Q492.44687 267.4625 491.91562 266.88437Q491.4 266.30624 491.4 265.13437ZM493.24374 263.65Q492.8375 263.65 492.57187 263.99374Q492.32187 264.3375 492.32187 265.24374Q492.32187 266.05624 492.5875 266.4Q492.85312 266.74374 493.24374 266.74374Q493.63437 266.74374 493.9 266.4Q494.16562 266.05624 494.16562 265.15Q494.16562 264.32187 493.9 263.99374Q493.63437 263.65 493.24374 263.65Z" fill-rule="nonzero"/><path stroke="#757575" stroke-width="1.0" stroke-linecap="butt" d="M496.15 254.65L387.36667 254.65L339.55783 260.6509" fill-rule="nonzero"/><path fill="#9e9e9e" d="M341.55783 260.6509C341.55783 259.54633 340.66238 258.6509 339.55783 258.6509C338.45325 258.6509 337.55783 259.54633 337.55783 260.6509C337.55783 261.75546 338.45325 262.6509 339.55783 262.6509C340.66238 262.6509 341.55783 261.75546 341.55783 260.6509" fill-rule="nonzero"/><path fill="#1a1a1a" d="M465.07187 281.15L465.07187 272.55624L468.32187 272.55624Q469.16562 272.55624 469.61874 272.63437Q470.25937 272.74374 470.68124 273.04062Q471.11874 273.3375 471.36874 273.86874Q471.63437 274.4 471.63437 275.04062Q471.63437 276.13437 470.93124 276.9Q470.24374 277.65 468.41562 277.65L466.2125 277.65L466.2125 281.15L465.07187 281.15ZM466.2125 276.65L468.43124 276.65Q469.54062 276.65 469.99374 276.24374Q470.4625 275.82187 470.4625 275.07187Q470.4625 274.54062 470.18124 274.16562Q469.91562 273.775 469.47812 273.65Q469.18124 273.57187 468.41562 273.57187L466.2125 273.57187L466.2125 276.65ZM472.72812 276.9625Q472.72812 274.82187 473.86874 273.61874Q475.025 272.4 476.8375 272.4Q478.04062 272.4 478.99374 272.97812Q479.94687 273.54062 480.44687 274.55624Q480.94687 275.57187 480.94687 276.86874Q480.94687 278.16562 480.41562 279.19687Q479.88437 280.22812 478.91562 280.75937Q477.9625 281.29062 476.8375 281.29062Q475.61874 281.29062 474.66562 280.7125Q473.7125 280.11874 473.2125 279.11874Q472.72812 278.10312 472.72812 276.9625ZM473.9 276.97812Q473.9 278.54062 474.72812 279.43124Q475.57187 280.32187 476.8375 280.32187Q478.11874 280.32187 478.94687 279.43124Q479.775 278.525 479.775 276.85312Q479.775 275.80624 479.41562 275.025Q479.07187 274.24374 478.38437 273.82187Q477.69687 273.38437 476.85312 273.38437Q475.65 273.38437 474.775 274.2125Q473.9 275.04062 473.9 276.97812ZM482.07187 281.15L482.07187 272.55624L485.32187 272.55624Q486.16562 272.55624 486.61874 272.63437Q487.25937 272.74374 487.68124 273.04062Q488.11874 273.3375 488.36874 273.86874Q488.63437 274.4 488.63437 275.04062Q488.63437 276.13437 487.93124 276.9Q487.24374 277.65 485.41562 277.65L483.2125 277.65L483.2125 281.15L482.07187 281.15ZM483.2125 276.65L485.43124 276.65Q486.54062 276.65 486.99374 276.24374Q487.4625 275.82187 487.4625 275.07187Q487.4625 274.54062 487.18124 274.16562Q486.91562 273.775 486.47812 273.65Q486.18124 273.57187 485.41562 273.57187L483.2125 273.57187L483.2125 276.65ZM490.025 281.15L490.025 272.55624L491.16562 272.55624L491.16562 280.13437L495.4 280.13437L495.4 281.15L490.025 281.15Z" fill-rule="nonzero"/><path fill="#9e9e9e" d="M472.61874 298.15L471.57187 298.15L471.57187 291.43124Q471.18124 291.79062 470.55624 292.16562Q469.94687 292.525 469.4625 292.69687L469.4625 291.68124Q470.3375 291.25937 470.99374 290.68124Q471.66562 290.0875 471.94687 289.525L472.61874 289.525L472.61874 298.15ZM476.24374 298.15L476.24374 296.94687L477.44687 296.94687L477.44687 298.15L476.24374 298.15ZM478.65 293.91562Q478.65 292.38437 478.9625 291.4625Q479.275 290.525 479.88437 290.025Q480.50937 289.525 481.44687 289.525Q482.13437 289.525 482.65 289.80624Q483.18124 290.0875 483.525 290.61874Q483.86874 291.13437 484.05624 291.88437Q484.24374 292.63437 484.24374 293.91562Q484.24374 295.43124 483.93124 296.35312Q483.63437 297.275 483.00937 297.79062Q482.4 298.29062 481.44687 298.29062Q480.2125 298.29062 479.49374 297.4Q478.65 296.3375 478.65 293.91562ZM479.72812 293.91562Q479.72812 296.025 480.22812 296.72812Q480.72812 297.43124 481.44687 297.43124Q482.18124 297.43124 482.66562 296.72812Q483.16562 296.025 483.16562 293.91562Q483.16562 291.79062 482.66562 291.10312Q482.18124 290.4 481.43124 290.4Q480.7125 290.4 480.275 291.00937Q479.72812 291.79062 479.72812 293.91562ZM485.85312 291.61874Q485.85312 290.69687 486.30624 290.05624Q486.775 289.41562 487.65 289.41562Q488.4625 289.41562 488.99374 289.99374Q489.525 290.57187 489.525 291.68124Q489.525 292.775 488.97812 293.36874Q488.44687 293.94687 487.66562 293.94687Q486.88437 293.94687 486.36874 293.36874Q485.85312 292.79062 485.85312 291.61874ZM487.68124 290.13437Q487.29062 290.13437 487.025 290.47812Q486.775 290.82187 486.775 291.72812Q486.775 292.55624 487.025 292.9Q487.29062 293.22812 487.68124 293.22812Q488.0875 293.22812 488.3375 292.88437Q488.60312 292.54062 488.60312 291.65Q488.60312 290.80624 488.3375 290.47812Q488.07187 290.13437 487.68124 290.13437ZM487.68124 298.4625L492.38437 289.41562L493.24374 289.41562L488.55624 298.4625L487.68124 298.4625ZM491.4 296.13437Q491.4 295.2125 491.85312 294.57187Q492.32187 293.93124 493.2125 293.93124Q494.025 293.93124 494.55624 294.50937Q495.0875 295.07187 495.0875 296.19687Q495.0875 297.29062 494.54062 297.88437Q494.00937 298.4625 493.2125 298.4625Q492.44687 298.4625 491.91562 297.88437Q491.4 297.30624 491.4 296.13437ZM493.24374 294.65Q492.8375 294.65 492.57187 294.99374Q492.32187 295.3375 492.32187 296.24374Q492.32187 297.05624 492.5875 297.4Q492.85312 297.74374 493.24374 297.74374Q493.63437 297.74374 493.9 297.4Q494.16562 297.05624 494.16562 296.15Q494.16562 295.32187 493.9 294.99374Q493.63437 294.65 493.24374 294.65Z" fill-rule="nonzero"/><path stroke="#757575" stroke-width="1.0" stroke-linecap="butt" d="M496.15 285.65L387.36667 285.65L292.4509 289.1665" fill-rule="nonzero"/><path fill="#9e9e9e" d="M294.4509 289.1665C294.4509 288.06195 293.55548 287.1665 292.4509 287.1665C291.34634 287.1665 290.4509 288.06195 290.4509 289.1665C290.4509 290.2711 291.34634 291.1665 292.4509 291.1665C293.55548 291.1665 294.4509 290.2711 294.4509 289.1665" fill-rule="nonzero"/><path fill="#757575" d="M21.490625 34.85L15.94375 20.537498L17.990625 20.537498L21.709375 30.928123Q22.1625 32.178123 22.459375 33.271873Q22.7875 32.1 23.240625 30.928123L27.1 20.537498L29.0375 20.537498L23.428125 34.85L21.490625 34.85ZM37.271873 31.506248L39.084373 31.740623Q38.6625 33.31875 37.490623 34.209373Q36.334373 35.084373 34.521873 35.084373Q32.25625 35.084373 30.9125 33.69375Q29.584375 32.2875 29.584375 29.756248Q29.584375 27.131248 30.928125 25.693748Q32.271873 24.240623 34.428123 24.240623Q36.50625 24.240623 37.81875 25.662498Q39.146873 27.068748 39.146873 29.646873Q39.146873 29.803123 39.13125 30.115623L31.396875 30.115623Q31.490625 31.818748 32.365623 32.725Q33.240623 33.63125 34.5375 33.63125Q35.50625 33.63125 36.178123 33.13125Q36.865623 32.615623 37.271873 31.506248ZM31.490625 28.662498L37.2875 28.662498Q37.178123 27.365623 36.63125 26.709373Q35.7875 25.693748 34.44375 25.693748Q33.240623 25.693748 32.4125 26.506248Q31.584375 27.303123 31.490625 28.662498ZM41.1625 34.85L41.1625 24.474998L42.75625 24.474998L42.75625 25.959373Q43.896873 24.240623 46.053123 24.240623Q46.990623 24.240623 47.771873 24.584373Q48.56875 24.912498 48.959373 25.459373Q49.35 26.006248 49.50625 26.756248Q49.6 27.256248 49.6 28.474998L49.6 34.85L47.834373 34.85L47.834373 28.537498Q47.834373 27.459373 47.63125 26.928123Q47.428123 26.396873 46.896873 26.084373Q46.38125 25.771873 45.678123 25.771873Q44.553123 25.771873 43.740623 26.490623Q42.928123 27.193748 42.928123 29.178123L42.928123 34.85L41.1625 34.85ZM58.959373 34.85L58.959373 33.31875Q57.75625 35.084373 55.678123 35.084373Q54.75625 35.084373 53.959373 34.740623Q53.1625 34.38125 52.771873 33.85Q52.396873 33.31875 52.240623 32.5375Q52.13125 32.021873 52.13125 30.896873L52.13125 24.474998L53.88125 24.474998L53.88125 30.224998Q53.88125 31.599998 53.990623 32.084373Q54.1625 32.771873 54.69375 33.178123Q55.240623 33.56875 56.021873 33.56875Q56.81875 33.56875 57.50625 33.1625Q58.209373 32.75625 58.490623 32.06875Q58.7875 31.365623 58.7875 30.037498L58.7875 24.474998L60.5375 24.474998L60.5375 34.85L58.959373 34.85ZM70.27187 31.506248L72.08437 31.740623Q71.6625 33.31875 70.49062 34.209373Q69.33437 35.084373 67.52187 35.084373Q65.25625 35.084373 63.9125 33.69375Q62.584373 32.2875 62.584373 29.756248Q62.584373 27.131248 63.928123 25.693748Q65.27187 24.240623 67.42812 24.240623Q69.50625 24.240623 70.81875 25.662498Q72.14687 27.068748 72.14687 29.646873Q72.14687 29.803123 72.13125 30.115623L64.39687 30.115623Q64.49062 31.818748 65.36562 32.725Q66.24062 33.63125 67.5375 33.63125Q68.50625 33.63125 69.17812 33.13125Q69.86562 32.615623 70.27187 31.506248ZM64.49062 28.662498L70.2875 28.662498Q70.17812 27.365623 69.63125 26.709373Q68.7875 25.693748 67.44375 25.693748Q66.24062 25.693748 65.4125 26.506248Q64.58437 27.303123 64.49062 28.662498ZM73.45937 31.756248L75.20937 31.474998Q75.35 32.521873 76.02187 33.084373Q76.69375 33.63125 77.89687 33.63125Q79.1 33.63125 79.67812 33.146873Q80.27187 32.646873 80.27187 31.990623Q80.27187 31.396873 79.75625 31.053123Q79.39687 30.818748 77.95937 30.459373Q76.02187 29.959373 75.27187 29.615623Q74.5375 29.256248 74.14687 28.631248Q73.75625 27.990623 73.75625 27.224998Q73.75625 26.537498 74.06875 25.943748Q74.39687 25.349998 74.94375 24.959373Q75.35 24.662498 76.05312 24.459373Q76.77187 24.240623 77.58437 24.240623Q78.80312 24.240623 79.725 24.599998Q80.64687 24.943748 81.08437 25.553123Q81.52187 26.146873 81.69375 27.146873L79.975 27.381248Q79.85 26.584373 79.2875 26.146873Q78.725 25.693748 77.70937 25.693748Q76.49062 25.693748 75.975 26.099998Q75.45937 26.490623 75.45937 27.021873Q75.45937 27.365623 75.67812 27.646873Q75.88125 27.928123 76.35 28.115623Q76.61562 28.209373 77.89687 28.553123Q79.77187 29.053123 80.50625 29.381248Q81.24062 29.693748 81.6625 30.303123Q82.08437 30.896873 82.08437 31.803123Q82.08437 32.678123 81.56875 33.459373Q81.05312 34.240623 80.08437 34.6625Q79.11562 35.084373 77.89687 35.084373Q75.88125 35.084373 74.81875 34.240623Q73.75625 33.396873 73.45937 31.756248Z" fill-rule="nonzero"/></svg>